<?xml version="1.0" encoding="UTF-8" standalone="no"?>
<!-- Created with Inkscape (http://www.inkscape.org/) -->

<svg
   version="1.1"
   id="svg1"
   xml:space="preserve"
   width="980"
   height="735"
   sodipodi:docname="spectrum.svg"
   inkscape:version="1.2.2 (b0a8486541, 2022-12-01)"
   xmlns:inkscape="http://www.inkscape.org/namespaces/inkscape"
   xmlns:sodipodi="http://sodipodi.sourceforge.net/DTD/sodipodi-0.dtd"
   xmlns="http://www.w3.org/2000/svg"
   xmlns:svg="http://www.w3.org/2000/svg"><defs
     id="defs1"><rect
       x="561.64258"
       y="194.45117"
       width="145.37891"
       height="82.667969"
       id="rect787" /><rect
       x="81.363281"
       y="226.16406"
       width="97.414062"
       height="38.925781"
       id="rect416" /><rect
       x="242.36636"
       y="345.57632"
       width="211.89725"
       height="102.01396"
       id="rect464" /><rect
       x="119.63915"
       y="470.58508"
       width="234.49704"
       height="88.63694"
       id="rect927" /></defs><sodipodi:namedview
     id="namedview1"
     pagecolor="#ffffff"
     bordercolor="#000000"
     borderopacity="0.25"
     inkscape:showpageshadow="2"
     inkscape:pageopacity="0"
     inkscape:pagecheckerboard="0"
     inkscape:deskcolor="#d1d1d1"
     showgrid="false"
     inkscape:zoom="1"
     inkscape:cx="138"
     inkscape:cy="406"
     inkscape:window-width="3440"
     inkscape:window-height="1303"
     inkscape:window-x="0"
     inkscape:window-y="0"
     inkscape:window-maximized="1"
     inkscape:current-layer="svg1"
     inkscape:pageshadow="2"
     showguides="false" /><inkscape:clipboard
     min="38.679246,51.71354"
     max="761.89587,740.75465"
     geom-min="40.288131,53.322266"
     geom-max="760.28712,740.75465" /><path
     id="disagree"
     style="display:inline;fill:#000000;stroke:#ffffff;stroke-width:4.33496;stroke-opacity:1"
     d="M 179.70842,111.98067 290.43016,251.17306 A 299.53094,299.53094 0 0 0 209.75059,368.22592 L 46.21863,288.81868 A 485.04223,485.04223 0 0 1 179.70842,111.98067 Z" /><path
     id="slightlyDisagree"
     style="display:inline;fill:#000000;stroke:#ffffff;stroke-width:4.33496;stroke-opacity:1"
     d="M 381.51455,12.304553 420.39017,183.41578 A 299.53094,299.53094 0 0 0 290.41804,251.15794 L 179.70842,111.98067 A 485.04223,485.04223 0 0 1 381.51455,12.304553 Z" /><path
     id="stronglyDisagree"
     style="display:inline;fill:#000000;stroke:#ffffff;stroke-width:4.33496;stroke-opacity:1"
     d="m 46.21863,288.81868 163.53196,79.40724 c -16.08069,50.10019 -23.02802,92.65491 -17.61551,140.03253 L 6.2581396,507.93525 C 2.3187496,432.953 17.83896,348.01989 46.21863,288.81884 Z"
     sodipodi:nodetypes="ccccc" /><path
     id="agree"
     style="display:inline;fill:#000000;stroke:#ffffff;stroke-width:4.33496;stroke-opacity:1"
     d="m 810.64501,121.77512 c 29.58247,26.28466 55.74199,56.00533 77.96878,88.44737 18.76065,27.38292 34.71951,56.70463 47.57001,87.53538 l -80.63712,38.63469 -83.11241,39.82065 c -8.07135,-23.08755 -18.91214,-45.02129 -32.23097,-65.34284 -11.8061,-18.01347 -25.5593,-34.76021 -41.05665,-49.921 l 55.24381,-68.95631 z"
     sodipodi:nodetypes="cscccsccc" /><path
     id="stronglyAgree"
     style="display:inline;fill:#000000;stroke:#ffffff;stroke-width:4.33496;stroke-opacity:1"
     d="m 936.1838,297.75487 c 12.20064,26.11612 22.60395,59.59177 29.45237,94.96285 7.57297,39.11325 10.79905,80.54401 7.30174,116.90369 l -80.96706,-0.14087 -104.85246,-0.18233 c 2.65351,-22.99498 2.06127,-47.79702 -0.92734,-71.60406 -2.77248,-22.0855 -7.60728,-43.31466 -13.82628,-61.45059 l 84.37391,-40.42516 z"
     sodipodi:nodetypes="cscccsccc"
     inkscape:label="stronglyAgree" /><path
     id="slightlyAgree"
     style="display:inline;fill:#000000;stroke:#ffffff;stroke-width:4.33496;stroke-opacity:1"
     d="m 608.38558,15.69831 c 40.94969,10.254044 80.23752,25.771907 116.92121,46.059406 30.41529,16.82083 59.04039,36.920522 85.33822,60.017404 l -53.39254,66.64553 -58.10582,72.52872 c -17.86932,-17.52868 -37.79087,-32.67621 -59.26162,-45.1526 -22.05658,-12.8168 -45.74807,-22.81469 -70.52918,-29.67928 l 17.2265,-75.21761 z"
     sodipodi:nodetypes="cscccsccc" /><path
     id="neutral"
     style="display:inline;fill:#000000;stroke:#ffffff;stroke-width:4.33496;stroke-opacity:1"
     d="M 608.38558,15.69831 569.34981,186.14469 C 518.68206,173.03056 467.67384,172.38824 420.39017,183.4188 L 381.51455,12.304553 C 465.83759,-2.1592719 532.4204,-1.2692573 608.38558,15.69831 Z"
     sodipodi:nodetypes="ccccc" /><path
     style="display:inline;fill:#cccccc;stroke:none;stroke-width:2.96414;stroke-opacity:1"
     d="m 490.3123,376.06525 c -39.40349,0.0201 -74.83213,17.28019 -99.07942,44.69453 -20.13764,22.76785 -32.56291,52.54022 -33.14781,85.25997 H 622.6002 C 622.01236,473.1343 609.46415,443.22709 589.14728,420.41593 564.8952,393.1865 529.57366,376.06831 490.3123,376.06525 Z"
     id="indifferent"
     sodipodi:nodetypes="csccsc" /><path
     style="display:inline;fill:#cccccc;stroke:none;stroke-width:2.96414;stroke-opacity:1"
     d="m 490.3123,642.18192 c -40.5289,-0.0201 -76.85264,-18.28014 -101.12947,-47.06814 -18.92823,-22.44553 -30.53308,-51.2921 -31.09776,-82.88676 H 622.6002 c -0.58784,32.89153 -13.14048,62.80373 -33.46387,85.6165 -24.25176,27.22227 -59.56858,44.33534 -98.82403,44.3384 z"
     id="notReplied"
     sodipodi:nodetypes="csccsc" /><path
     id="path1562"
     style="font-weight:bold;font-size:8px;line-height:1;font-family:monospace;-inkscape-font-specification:'monospace Bold';text-align:center;letter-spacing:0px;white-space:pre;display:inline;fill:#ffffff;stroke-width:1.54729;stroke-linecap:round"
     d="m 511.67849,22.630961 q -0.62217,0.239523 -1.2656,0.351658 -0.64346,0.112094 -1.35644,0.09563 -1.69799,-0.03904 -2.57735,-0.966351 -0.87325,-0.933061 -0.83377,-2.643085 0.0407,-1.655635 0.92449,-2.596444 0.88628,-0.940809 2.37873,-0.906352 1.50459,0.03462 2.31175,0.948135 0.81335,0.907494 0.77596,2.526877 l -0.0161,0.719056 -4.58623,-0.105855 q -0.0121,0.797747 0.44403,1.201249 0.45626,0.403514 1.38067,0.424851 0.61033,0.01409 1.20655,-0.147474 0.59621,-0.16156 1.2515,-0.527312 z m -1.41062,-3.841355 q 0.004,-0.701206 -0.33809,-1.065807 -0.33608,-0.370494 -1.01283,-0.386151 -0.61026,-0.01409 -0.98148,0.35218 -0.37109,0.360231 -0.4532,1.041489 z m -5.7188,-0.884948 q -0.28819,-0.267858 -0.6803,-0.403462 -0.38599,-0.135559 -0.85135,-0.138658 -0.56208,-0.0037 -0.98647,0.192914 -0.41859,0.190621 -0.6505,0.563819 -0.14651,0.228696 -0.2093,0.554674 -0.0567,0.326019 -0.0612,0.990847 l -0.0201,3.118682 -1.77085,-0.01167 0.0459,-6.769227 1.77088,0.01167 -0.0121,1.051647 q 0.26363,-0.578486 0.80377,-0.889189 0.54003,-0.316721 1.25928,-0.311972 0.36265,0.0025 0.7065,0.09539 0.34976,0.08698 0.66318,0.258279 z m -10.356,-3.803851 0.0201,1.921927 2.31477,-0.02254 0.0161,1.359859 -2.31481,0.02254 0.0322,3.203221 q 0.004,0.453266 0.22419,0.650616 0.2258,0.191224 0.73917,0.186233 l 1.35986,-0.01328 0.0161,1.359856 -1.4868,0.01409 q -1.52303,0.01489 -2.06567,-0.463502 -0.54264,-0.484327 -0.5554,-1.80188 l -0.0322,-3.118601 -1.72854,0.0169 -0.0161,-1.359855 1.72854,-0.01691 -0.0201,-1.921927 z m -10.63022,6.537835 -0.11471,-4.404652 1.77036,-0.04633 0.10747,4.13276 q 0.0201,0.731086 0.23264,1.039926 0.21372,0.308833 0.69099,0.296436 0.47712,-0.01207 0.7321,-0.442267 0.26081,-0.430046 0.24069,-1.19132 l -0.10143,-3.885034 1.77028,-0.04633 0.17629,6.767091 -1.77036,0.04633 -0.0242,-1.002982 q -0.17267,0.566785 -0.61782,0.88673 -0.43896,0.31978 -1.07349,0.336282 -0.96675,0.02496 -1.47888,-0.60239 -0.50617,-0.62771 -0.53881,-1.884459 z m -1.71071,2.089022 q -0.60523,0.279732 -1.23992,0.433609 -0.63477,0.153873 -1.34734,0.1841 -1.69687,0.07184 -2.63496,-0.795892 -0.93229,-0.874007 -1.00466,-2.582956 -0.0704,-1.654601 0.75286,-2.651304 0.8229,-0.996703 2.31445,-1.059838 1.50363,-0.06363 2.36879,0.795063 0.87087,0.852409 0.93938,2.470777 l 0.0322,0.718606 -4.58338,0.194001 q 0.0407,0.79685 0.52139,1.169682 0.48174,0.372869 1.40546,0.333746 0.60994,-0.02616 1.19431,-0.225999 0.58438,-0.200199 1.2144,-0.60796 z m -1.65863,-3.740982 q -0.0407,-0.699974 -0.40688,-1.041432 -0.35943,-0.347753 -1.03585,-0.319136 -0.60986,0.02616 -0.95637,0.415533 -0.34694,0.383695 -0.38438,1.068874 z m -12.23141,-4.259698 1.91272,-0.112094 2.8936,6.399543 -0.38358,-6.546614 1.56879,-0.09193 0.52783,9.008372 -1.90061,0.111369 -2.90571,-6.39883 0.38358,6.546609 -1.5688,0.09193 z" /><path
     id="path1595"
     style="font-weight:bold;font-size:8px;line-height:1;font-family:monospace;-inkscape-font-specification:'monospace Bold';text-align:center;letter-spacing:0px;white-space:pre;display:inline;fill:#ffffff;stroke-width:1.54729;stroke-linecap:round"
     d="m 344.69857,40.838269 -1.1276,-3.414888 1.67586,-0.553368 2.94885,8.930327 -1.67586,0.553369 -0.3146,-0.952718 q -0.086,0.645783 -0.42349,1.069147 -0.3319,0.421404 -0.91154,0.612876 -1.10194,0.363862 -2.00217,-0.319073 -0.89979,-0.68357 -1.43084,-2.289989 -0.53822,-1.629983 -0.2122,-2.705085 0.33177,-1.077071 1.47388,-1.454219 0.51642,-0.170413 1.0131,-0.03538 0.50027,0.127774 0.98676,0.558728 z m -1.57599,3.091893 q 0.30703,0.929756 0.7913,1.355436 0.48423,0.425734 1.0295,0.245635 0.54532,-0.180187 0.68654,-0.812247 0.14136,-0.632267 -0.16568,-1.56204 -0.30703,-0.929756 -0.79703,-1.353553 -0.49014,-0.423607 -1.03539,-0.243553 -0.54529,0.18016 -0.68081,0.810351 -0.13561,0.630342 0.17144,1.56012 z m -3.2244,-0.542682 q -0.36134,-0.155824 -0.77629,-0.151757 -0.40883,0.0015 -0.84848,0.154984 -0.53082,0.185108 -0.86463,0.512683 -0.33018,0.320013 -0.42364,0.749349 -0.0615,0.264759 -0.0111,0.592754 0.0559,0.32627 0.27494,0.953906 l 1.02668,2.944902 -1.67224,0.583017 -2.22844,-6.392076 1.67224,-0.583016 0.3462,0.993064 q 0.0544,-0.633445 0.45889,-1.107342 0.40266,-0.479389 1.08162,-0.716324 0.34222,-0.119104 0.69758,-0.147135 0.35892,-0.03554 0.71133,0.02089 z m -10.35014,3.04707 q -0.59572,0.218798 -0.74238,0.871466 -0.1487,0.646944 0.19512,1.583092 0.34381,0.936137 0.87798,1.338791 0.53329,0.395336 1.12787,0.178113 0.6014,-0.220828 0.75005,-0.867853 0.14667,-0.652667 -0.19716,-1.588815 -0.34381,-0.936138 -0.87594,-1.333057 -0.53257,-0.404848 -1.13558,-0.181768 z m -2.20974,3.065018 q -0.56466,-1.53756 -0.0996,-2.725667 0.46869,-1.195882 1.81332,-1.689758 1.35029,-0.495897 2.47592,0.114445 1.12919,0.602625 1.69386,2.140187 0.56468,1.537519 0.096,2.733414 -0.46507,1.188155 -1.8154,1.684086 -1.3446,0.493781 -2.47379,-0.108847 -1.1258,-0.610116 -1.69031,-2.147868 z m -0.48526,3.428834 q -0.32376,0.403453 -0.75719,0.707045 -0.43133,0.309021 -0.98392,0.522431 -1.46033,0.563848 -2.62316,0.0021 -1.16299,-0.561523 -1.76373,-2.117909 -0.60306,-1.561828 -0.11383,-2.761474 0.48699,-1.205222 1.94735,-1.769106 0.50743,-0.1959 1.02118,-0.258274 0.51926,-0.06433 1.0831,0.0029 l 0.58347,1.511067 q -0.4806,-0.17074 -0.97782,-0.166741 -0.49374,-0.0038 -0.95619,0.174854 -0.80628,0.31132 -1.0423,0.992056 -0.23604,0.680731 0.12972,1.627986 0.36573,0.947264 0.99592,1.28696 0.62999,0.339962 1.43637,0.0285 0.47923,-0.184967 0.83555,-0.504036 0.35409,-0.324552 0.59975,-0.795464 z m -6.95124,2.702496 q -0.31685,0.408978 -0.7454,0.719475 -0.42607,0.316014 -0.97515,0.538632 -1.45082,0.587919 -2.62277,0.04548 -1.17208,-0.542255 -1.79847,-2.088477 -0.62879,-1.55163 -0.15946,-2.759201 0.46706,-1.21314 1.91789,-1.80106 0.50401,-0.204088 1.01676,-0.275072 0.51823,-0.07306 1.08301,-0.01497 l 0.60835,1.501241 q -0.48339,-0.162803 -0.98053,-0.150425 -0.49389,0.0046 -0.95315,0.190592 -0.80106,0.324596 -1.02578,1.009152 -0.22477,0.684538 0.15661,1.625584 0.38133,0.941102 1.01712,1.270236 0.6355,0.329525 1.43665,0.0048 0.47611,-0.192919 0.82708,-0.517763 0.34868,-0.330421 0.5867,-0.805183 z m -10.02179,1.0606 q -0.91242,0.387417 -1.17482,0.774599 -0.26247,0.387177 -0.0215,0.954693 0.17957,0.422754 0.53632,0.56668 0.35651,0.144233 0.78488,-0.03764 0.64535,-0.273991 0.7959,-0.909211 0.14819,-0.640725 -0.22273,-1.514158 l -0.0472,-0.111366 z m 2.00292,-1.592449 1.50943,3.55502 -1.61892,0.687384 -0.29548,-0.695148 q -0.12005,0.536872 -0.48731,0.955444 -0.36709,0.418684 -0.92364,0.65484 -1.06258,0.451136 -1.89644,0.142 -0.82828,-0.311527 -1.25592,-1.318398 -0.46299,-1.090427 0.0238,-1.907791 0.48447,-0.822983 1.96437,-1.45133 l 1.12937,-0.479543 -0.11566,-0.272718 q -0.16789,-0.394751 -0.54196,-0.472571 -0.371,-0.08553 -0.92749,0.150877 -0.58415,0.248022 -1.07114,0.632106 -0.48381,0.37615 -0.94205,0.951525 l -0.59059,-1.390786 q 0.44517,-0.451703 0.95662,-0.793598 0.51145,-0.341951 1.13459,-0.606526 1.5188,-0.6449 2.39295,-0.287179 0.87957,0.355555 1.55533,1.946456 z m -8.65396,0.773111 0.62814,1.414084 q -0.57512,-0.0883 -1.12488,-0.01613 -0.5467,0.06421 -1.03289,0.280284 -0.54129,0.240443 -0.74628,0.523344 -0.20737,0.277185 -0.0701,0.586649 0.19648,0.441622 1.50104,0.19295 l 0.0696,-0.01235 0.51313,-0.09575 q 0.97703,-0.182736 1.59437,0.105159 0.62033,0.280015 0.97393,1.075071 0.42449,0.955599 0.008,1.715882 -0.4131,0.752275 -1.6725,1.311775 -0.55788,0.247851 -1.18755,0.408524 -0.62726,0.166244 -1.31515,0.240309 l -0.62819,-1.414009 q 0.67087,0.0656 1.29426,-0.01941 0.62889,-0.08744 1.14827,-0.318327 0.5689,-0.252757 0.78806,-0.548536 0.2193,-0.295869 0.0793,-0.610589 -0.13729,-0.309486 -0.42082,-0.381914 -0.27807,-0.07485 -1.14028,0.08331 l -0.49168,0.09949 q -1.02119,0.202331 -1.64529,-0.05608 -0.62392,-0.258691 -0.9577,-1.009811 -0.39745,-0.894901 0.028,-1.679083 0.42539,-0.78418 1.59639,-1.3044 0.52472,-0.233067 1.0832,-0.375373 0.5617,-0.150528 1.12925,-0.19747 z m -3.66983,8.456795 q -0.45234,0.489817 -0.98001,0.874654 -0.52765,0.384868 -1.17458,0.685138 -1.54053,0.715093 -2.73912,0.271959 -1.19561,-0.451227 -1.91585,-2.002612 -0.69725,-1.502167 -0.3179,-2.737755 0.37933,-1.235553 1.73344,-1.864105 1.36509,-0.633656 2.4928,-0.170939 1.13071,0.454607 1.81266,1.923935 l 0.3027,0.652552 -4.16104,1.931473 q 0.34131,0.721216 0.92894,0.881513 0.58737,0.160627 1.4263,-0.228918 0.5537,-0.256996 1.01719,-0.665371 0.46346,-0.408402 0.88977,-1.02606 z m -2.96278,-2.822759 q -0.30626,-0.630711 -0.77428,-0.806701 -0.46517,-0.183893 -1.07919,0.101127 -0.5537,0.256995 -0.72486,0.749615 -0.17363,0.486932 0.0535,1.13459 z m -2.77057,-5.06424 1.54603,-0.717656 -1.06065,2.997805 -1.08001,0.501323 z m -5.10465,6.930419 -1.56782,-3.236494 1.58833,-0.769431 4.10009,8.463789 -1.58836,0.769465 -0.43752,-0.902786 q -4e-5,0.65144 -0.27892,1.115628 -0.27338,0.461492 -0.82278,0.727672 -1.04437,0.505915 -2.02675,-0.05245 -0.98255,-0.558128 -1.72013,-2.081465 -0.74837,-1.544782 -0.56685,-2.653538 0.18694,-1.111373 1.26939,-1.635698 0.48964,-0.237288 0.99958,-0.168569 0.51276,0.0606 1.0516,0.424119 z m -1.15473,3.272604 q 0.42692,0.88111 0.96294,1.239422 0.53409,0.36097 1.05293,0.107801 0.51671,-0.250295 0.57345,-0.895617 0.0567,-0.64539 -0.3701,-1.526577 -0.42693,-0.881116 -0.96855,-1.236583 -0.54345,-0.352958 -1.05834,-0.105181 -0.51672,0.250294 -0.56804,0.893055 -0.0513,0.642736 0.37558,1.523895 z m -10.18001,3.965208 2.04528,3.889025 -1.55667,0.818692 -1.91869,-3.648308 q -0.34316,-0.65273 -0.67663,-0.832497 -0.33217,-0.186273 -0.74824,0.03158 -0.42248,0.222123 -0.46897,0.731482 -0.041,0.506431 0.31351,1.180424 l 1.80334,3.428991 -1.55666,0.818657 -3.15094,-5.991342 1.55669,-0.818689 0.47259,0.898772 q -0.0959,-0.584532 0.1619,-1.068545 0.25774,-0.483816 0.82474,-0.782004 0.85055,-0.44732 1.58207,-0.108164 0.72865,0.333874 1.31676,1.451736 z m -4.53833,6.990718 q -0.41872,0.51883 -0.92006,0.937551 -0.50107,0.418884 -1.12673,0.761224 -1.48994,0.81532 -2.71515,0.452268 -1.22276,-0.371304 -2.04389,-1.871777 -0.79494,-1.452835 -0.49805,-2.710775 0.29686,-1.257912 1.60655,-1.974583 1.32021,-0.722392 2.47604,-0.335196 1.15824,0.37898 1.93573,1.80007 l 0.34532,0.63088 -4.02434,2.202129 q 0.3884,0.696828 0.98504,0.818353 0.59688,0.121187 1.40808,-0.32267 0.53554,-0.293033 0.97098,-0.731164 0.43546,-0.438077 0.82027,-1.08238 z m -3.14281,-2.620833 q -0.34714,-0.609266 -0.82592,-0.75373 -0.47612,-0.15299 -1.07017,0.172225 -0.53549,0.292976 -0.67376,0.795854 -0.14113,0.497459 0.12839,1.128564 z m -15.80399,11.059771 -2.24165,-3.7933 1.52459,-0.900979 2.10331,3.559133 q 0.37212,0.62954 0.70906,0.795391 0.33695,0.165851 0.74779,-0.07676 0.41115,-0.243032 0.42474,-0.742461 0.0188,-0.502467 -0.36854,-1.158253 l -1.97723,-3.345786 1.5246,-0.90098 3.444,5.827821 -1.52458,0.900944 -0.51034,-0.86391 q 0.12473,0.579139 -0.10877,1.075259 -0.22826,0.492936 -0.77459,0.815777 -0.83257,0.492055 -1.5852,0.192619 -0.74755,-0.302315 -1.38719,-1.384566 z m -0.47919,2.657332 q -0.39276,0.53875 -0.87252,0.982004 -0.47975,0.443171 -1.08766,0.816119 -1.44767,0.888109 -2.68938,0.586242 -1.23958,-0.310369 -2.13436,-1.767894 -0.86598,-1.411617 -0.63179,-2.682732 0.2342,-1.271107 1.50678,-2.051765 1.28281,-0.786967 2.45636,-0.457444 1.17567,0.321016 2.0225,1.701989 l 0.37613,0.613036 -3.91028,2.398846 q 0.42216,0.677151 1.02377,0.769372 0.60208,0.09158 1.39034,-0.392012 0.52034,-0.319226 0.93361,-0.778373 0.4132,-0.459118 0.76521,-1.122044 z m -3.26887,-2.461793 q -0.37676,-0.591538 -0.8622,-0.711955 -0.48313,-0.129196 -1.06032,0.225032 -0.52034,0.319225 -0.63333,0.8284 -0.11626,0.503761 0.18414,1.120831 z m -6.78083,7.989515 1.89523,2.977785 -1.48891,0.947612 -5.01714,-7.882977 1.48892,-0.947613 0.54525,0.856539 q -0.0803,-0.643784 0.14321,-1.13715 0.22342,-0.493222 0.73835,-0.820996 0.97904,-0.623083 2.01925,-0.181809 1.04025,0.441252 1.94885,1.869048 0.92164,1.448115 0.86422,2.573639 -0.0519,1.122297 -1.06701,1.76808 -0.45889,0.292026 -0.97533,0.291184 -0.51442,-0.0095 -1.095,-0.313234 z m 0.77259,-3.378972 q -0.52584,-0.825869 -1.09972,-1.119766 -0.57389,-0.293895 -1.0583,0.01441 -0.48442,0.308307 -0.46628,0.955872 0.0181,0.64763 0.54382,1.47366 0.52584,0.825879 1.10483,1.116524 0.57897,0.29065 1.06339,-0.01767 0.48443,-0.308307 0.46122,-0.952637 -0.0233,-0.644328 -0.54892,-1.47042 z m -12.02269,6.649575 2.48039,3.62702 -1.4518,0.99283 -2.32687,-3.402497 q -0.4161,-0.608871 -0.76839,-0.748531 -0.35025,-0.148701 -0.73958,0.117674 -0.39407,0.26945 -0.38138,0.780695 0.0177,0.507778 0.44759,1.136412 l 2.18698,3.197957 -1.45182,0.99286 -3.8212,-5.58778 1.4518,-0.99283 0.57323,0.838105 q -0.16278,-0.56957 0.0372,-1.080089 0.20024,-0.510341 0.72902,-0.872025 0.79325,-0.54248 1.55904,-0.290021 0.76221,0.247696 1.47551,1.290099 z m -10.34637,8.50094 -3.29104,-4.64601 1.45498,-1.03067 3.54955,5.01103 q 0.39133,0.55233 0.89506,0.6702 0.50104,0.11185 0.99935,-0.24127 0.49812,-0.35285 0.55916,-0.86273 0.0573,-0.51463 -0.33377,-1.06717 l -3.54957,-5.010993 1.45496,-1.03063 3.29103,4.646023 q 1.0621,1.49933 0.94745,2.60268 -0.11466,1.10334 -1.43634,2.03976 -1.31686,0.93281 -2.4007,0.67842 -1.07895,-0.25783 -2.14096,-1.75727 z" /><path
     id="path1704"
     style="font-weight:bold;font-size:8px;line-height:1;font-family:monospace;-inkscape-font-specification:'monospace Bold';text-align:center;letter-spacing:0px;text-anchor:middle;white-space:pre;shape-inside:url(#rect464);display:inline;fill:#ffffff;stroke-width:1.54729;stroke-linecap:round"
     d="m 556.31588,527.43225 q -0.61646,0.25357 -1.25714,0.38075 -0.64069,0.12679 -1.35387,0.12679 -1.69839,0 -2.59897,-0.90661 -0.89458,-0.91266 -0.89458,-2.62317 0,-1.65605 0.86435,-2.61708 0.86432,-0.96103 2.3572,-0.96103 1.505,0 2.333,0.89458 0.83413,0.88846 0.83413,2.50825 v 0.71929 h -4.58753 q 0.004,0.79782 0.47156,1.19069 0.46545,0.39243 1.39017,0.39243 0.61046,0 1.20277,-0.17508 0.59231,-0.17508 1.23903,-0.55604 z m -1.49892,-3.80782 q -0.0121,-0.70106 -0.36265,-1.05767 -0.34493,-0.36264 -1.0214,-0.36264 -0.61046,0 -0.97311,0.37472 -0.36264,0.36868 -0.42925,1.05167 z m -5.65723,-0.76156 q -0.29019,-0.26564 -0.68303,-0.39887 -0.38719,-0.13282 -0.85219,-0.13282 -0.56208,0 -0.98522,0.19964 -0.41707,0.1936 -0.64673,0.56816 -0.1453,0.22982 -0.20527,0.556 -0.0543,0.32642 -0.0543,0.9913 v 3.11871 h -1.77097 v -6.7694 h 1.77097 v 1.05167 q 0.2596,-0.58023 0.79777,-0.89453 0.53794,-0.32039 1.25715,-0.32039 0.36264,0 0.70718,0.0906 0.35057,0.0845 0.66483,0.25357 z m -10.686,-0.5923 q -0.63461,0 -0.99721,0.56212 -0.36265,0.55608 -0.36265,1.55334 0,0.99721 0.36265,1.55937 0.36264,0.55604 0.99721,0.55604 0.64073,0 1.00333,-0.55604 0.36265,-0.56216 0.36265,-1.55937 0,-0.99726 -0.36265,-1.55334 -0.36264,-0.56212 -1.00333,-0.56212 z m -3.13083,2.11546 q 0,-1.63795 0.84616,-2.59294 0.85224,-0.96103 2.28467,-0.96103 1.43851,0 2.28467,0.96103 0.85223,0.95499 0.85223,2.59294 0,1.63794 -0.85223,2.59897 -0.84616,0.95495 -2.28467,0.95495 -1.43243,0 -2.28467,-0.95495 -0.84616,-0.96103 -0.84616,-2.59897 z m -1.6319,3.0341 q -0.44713,0.25961 -0.96103,0.3868 -0.5137,0.13282 -1.10605,0.13282 -1.56541,0 -2.44787,-0.94292 -0.88243,-0.94288 -0.88243,-2.61101 0,-1.67424 0.8885,-2.61708 0.88851,-0.94896 2.45388,-0.94896 0.54401,0 1.04563,0.12679 0.5077,0.12678 1.00937,0.39323 v 1.61983 q -0.3872,-0.33245 -0.8522,-0.5077 -0.45932,-0.18112 -0.95495,-0.18112 -0.86435,0 -1.32971,0.55 -0.46544,0.55005 -0.46544,1.56546 0,1.01536 0.46544,1.55933 0.46544,0.54397 1.32971,0.54397 0.5137,0 0.96099,-0.16905 0.44713,-0.17508 0.84616,-0.52585 z m -7.39189,-4.04951 v 4.39404 h -1.75885 v -4.12204 q 0,-0.73744 -0.21171,-1.05171 -0.20567,-0.32038 -0.67691,-0.32038 -0.47768,0 -0.75552,0.42929 -0.27208,0.4293 -0.27208,1.1907 v 3.87426 h -1.75881 v -6.76939 h 1.75881 v 1.01541 q 0.18756,-0.56208 0.64069,-0.87035 0.4532,-0.30791 1.09397,-0.30791 0.96099,0 1.45058,0.64073 0.48939,0.63457 0.48939,1.89783 z m -7.26502,4.06163 q -0.61649,0.25357 -1.25718,0.38075 -0.64069,0.12679 -1.35386,0.12679 -1.6984,0 -2.59898,-0.90661 -0.89453,-0.91266 -0.89453,-2.62317 0,-1.65605 0.86435,-2.61708 0.86423,-0.96103 2.35715,-0.96103 1.505,0 2.33305,0.89458 0.83408,0.88846 0.83408,2.50825 v 0.71929 h -4.58748 q 0.004,0.79782 0.47156,1.19069 0.46544,0.39243 1.39016,0.39243 0.61046,0 1.20281,-0.17508 0.59231,-0.17508 1.23903,-0.55604 z m -1.49896,-3.80782 q -0.0121,-0.70106 -0.36264,-1.05767 -0.34494,-0.36264 -1.02149,-0.36264 -0.61046,0 -0.97306,0.37472 -0.36265,0.36868 -0.4293,1.05167 z m -19.09929,1.777 v -4.40616 h 1.77088 v 4.1342 q 0,0.73129 0.20568,1.04559 0.20567,0.31435 0.68294,0.31435 0.47768,0 0.74341,-0.42318 0.27208,-0.42314 0.27208,-1.18466 v -3.88634 h 1.77089 v 6.76939 h -1.77089 v -1.00333 q -0.18756,0.56208 -0.64073,0.87039 -0.44708,0.30791 -1.08185,0.30791 -0.96707,0 -1.46266,-0.64069 -0.48939,-0.64069 -0.48939,-1.89783 z m -3.63857,-3.44513 v -3.59626 h 1.76489 v 9.40462 h -1.76489 v -1.00333 q -0.28416,0.58627 -0.73737,0.88247 -0.44708,0.29623 -1.0577,0.29623 -1.16051,0 -1.80116,-0.9308 -0.64068,-0.93081 -0.64068,-2.62312 0,-1.71655 0.64672,-2.63528 0.6528,-0.91869 1.85557,-0.91869 0.54393,0 0.97306,0.28416 0.43542,0.27812 0.76156,0.84012 z m -2.46599,2.4418 q 0,0.97914 0.32642,1.53519 0.32642,0.55608 0.9005,0.55608 0.57423,0 0.90665,-0.55608 0.33246,-0.55605 0.33246,-1.53519 0,-0.97914 -0.33246,-1.53523 -0.33246,-0.55604 -0.90665,-0.55604 -0.57416,0 -0.9005,0.55604 -0.32642,0.55609 -0.32642,1.53523 z m -3.29403,-1.02748 v 4.39404 h -1.75881 v -4.12204 q 0,-0.73744 -0.21131,-1.05171 -0.20568,-0.32038 -0.67695,-0.32038 -0.47768,0 -0.75552,0.42929 -0.27209,0.4293 -0.27209,1.1907 v 3.87426 h -1.75881 v -6.76939 h 1.75881 v 1.01541 q 0.18757,-0.56208 0.64069,-0.87035 0.45321,-0.30791 1.09397,-0.30791 0.96103,0 1.45059,0.64073 0.48939,0.63457 0.48939,1.89783 z m -10.20241,-1.10005 q -0.63461,0 -0.9973,0.56212 -0.36264,0.55608 -0.36264,1.55334 0,0.99721 0.36264,1.55937 0.36265,0.55604 0.9973,0.55604 0.64064,0 1.00333,-0.55604 0.36265,-0.56216 0.36265,-1.55937 0,-0.99726 -0.36265,-1.55334 -0.36265,-0.56212 -1.00333,-0.56212 z m -3.13087,2.11546 q 0,-1.63795 0.8462,-2.59294 0.85224,-0.96103 2.28467,-0.96103 1.43846,0 2.28466,0.96103 0.85224,0.95499 0.85224,2.59294 0,1.63794 -0.85224,2.59897 -0.8462,0.95495 -2.28466,0.95495 -1.43243,0 -2.28467,-0.95495 -0.8462,-0.96103 -0.8462,-2.59897 z m -5.37319,2.42368 v 3.52974 h -1.76484 v -9.34418 h 1.76484 v 1.01541 q 0.27813,-0.58627 0.73137,-0.88247 0.45321,-0.29623 1.06375,-0.29623 1.16046,0 1.80111,0.9308 0.64069,0.93081 0.64069,2.62316 0,1.71651 -0.65276,2.63524 -0.64673,0.91869 -1.84945,0.91869 -0.54401,0 -0.97915,-0.27812 -0.4293,-0.28416 -0.75556,-0.8522 z m 2.46599,-2.4358 q 0,-0.97914 -0.32642,-1.53518 -0.32642,-0.55609 -0.90057,-0.55609 -0.5742,0 -0.90662,0.55609 -0.33246,0.55604 -0.33246,1.53518 0,0.97914 0.33246,1.53519 0.33246,0.55608 0.90662,0.55608 0.57423,0 0.90057,-0.55608 0.32642,-0.55605 0.32642,-1.53519 z m -5.92923,3.05834 q -0.6165,0.25357 -1.25718,0.38075 -0.64065,0.12679 -1.3539,0.12679 -1.69836,0 -2.59894,-0.90661 -0.89453,-0.91266 -0.89453,-2.62317 0,-1.65605 0.86431,-2.61708 0.86435,-0.96103 2.35719,-0.96103 1.505,0 2.33305,0.89458 0.83404,0.88846 0.83404,2.50825 v 0.71929 h -4.58744 q 0.004,0.79782 0.47156,1.19069 0.46544,0.39243 1.39012,0.39243 0.61042,0 1.20277,-0.17508 0.59235,-0.17508 1.23907,-0.55604 z m -1.49896,-3.80782 q -0.0121,-0.70106 -0.36264,-1.05767 -0.34494,-0.36264 -1.02149,-0.36264 -0.61042,0 -0.97306,0.37472 -0.36265,0.36868 -0.4293,1.05167 z m -0.38076,-5.75994 h 1.70448 l -2.22429,2.27251 h -1.1907 z m -5.27647,4.99838 q -0.29019,-0.26564 -0.68298,-0.39887 -0.3872,-0.13282 -0.85224,-0.13282 -0.56212,0 -0.98518,0.19964 -0.41706,0.1936 -0.64673,0.56816 -0.14529,0.22982 -0.20567,0.556 -0.0543,0.32642 -0.0543,0.9913 v 3.11871 h -1.77089 v -6.7694 h 1.77089 v 1.05167 q 0.2596,-0.58023 0.79781,-0.89453 0.53794,-0.32039 1.25719,-0.32039 0.36264,0 0.7071,0.0906 0.35016,0.0845 0.66487,0.25357 z m -15.87183,-1.65605 v 1.5473 q -0.48935,-0.31435 -1.0214,-0.47156 -0.52582,-0.16301 -1.05771,-0.16301 -0.59235,0 -0.89458,0.17509 -0.30187,0.16904 -0.30187,0.5077 0,0.48327 1.29345,0.7857 l 0.0668,0.0201 0.50771,0.12075 q 0.96707,0.22982 1.41432,0.7434 0.45324,0.5077 0.45324,1.37805 0,1.04564 -0.68906,1.57149 -0.68299,0.51974 -2.06101,0.51974 -0.61046,0 -1.25114,-0.10908 -0.64069,-0.10303 -1.29949,-0.31434 v -1.5473 q 0.58627,0.33246 1.19069,0.5077 0.61046,0.17509 1.17862,0.17509 0.62254,0 0.94288,-0.18113 0.32038,-0.18112 0.32038,-0.52589 0,-0.3385 -0.22982,-0.51978 -0.22338,-0.18112 -1.07586,-0.3868 l -0.48935,-0.10907 q -1.01541,-0.22982 -1.48081,-0.71921 -0.46544,-0.48939 -0.46544,-1.3116 0,-0.97915 0.70714,-1.52311 0.70714,-0.54401 1.98855,-0.54401 0.57415,0 1.14227,0.0966 0.57424,0.0906 1.11213,0.27812 z m -9.21115,3.37864 q -0.99121,0 -1.38409,0.25357 -0.39323,0.25397 -0.39323,0.87039 0,0.45932 0.27208,0.73133 0.27209,0.27208 0.73737,0.27208 0.7011,0 1.08797,-0.52589 0.3868,-0.53186 0.3868,-1.48081 v -0.12075 z m 2.46599,-0.68299 v 3.86219 h -1.75881 v -0.75551 q -0.32038,0.44708 -0.82201,0.68902 -0.50158,0.2419 -1.10609,0.2419 -1.15438,0 -1.80111,-0.6105 -0.64073,-0.61046 -0.64073,-1.70443 0,-1.18462 0.76764,-1.74678 0.76759,-0.56808 2.37534,-0.56808 h 1.22696 v -0.29623 q 0,-0.4293 -0.31435,-0.64672 -0.3079,-0.22339 -0.91261,-0.22339 -0.63469,0 -1.23303,0.16301 -0.59231,0.15738 -1.23903,0.50771 v -1.51104 q 0.58627,-0.2419 1.19069,-0.35661 0.60438,-0.11471 1.28137,-0.11471 1.64998,0 2.31486,0.67092 0.67091,0.67083 0.67091,2.39949 z m -11.38706,-3.66268 v 2.64727 h 0.73133 q 0.87638,0 1.22691,-0.29623 0.35661,-0.29583 0.35661,-1.02744 0,-0.73137 -0.35661,-1.02748 -0.35017,-0.29624 -1.22691,-0.29624 z m -1.783,-1.499 h 2.44787 q 1.86761,0 2.68354,0.66492 0.82201,0.66484 0.82201,2.15772 0,1.49284 -0.82201,2.15776 -0.81593,0.66484 -2.68354,0.66484 h -0.66487 v 3.37863 h -1.783 z" /><path
     id="path3074"
     style="font-weight:bold;font-size:7.99999px;line-height:1;font-family:monospace;-inkscape-font-specification:'monospace Bold';text-align:center;letter-spacing:0px;white-space:pre;display:inline;fill:#ffffff;stroke-width:5.09229;stroke-linecap:round"
     d="m 949.32075,481.73096 3.59425,0.11962 -0.0587,1.76392 -9.3994,-0.3127 0.0587,-1.76389 1.00272,0.0332 q -0.57646,-0.30339 -0.85743,-0.76632 -0.28113,-0.45687 -0.26097,-1.06691 0.0386,-1.15985 0.99014,-1.76923 0.95156,-0.60945 2.64299,-0.55307 1.71556,0.057 2.61226,0.73396 0.8965,0.68297 0.85649,1.88507 -0.018,0.54364 -0.31625,0.96313 -0.29238,0.42552 -0.86498,0.73325 z m -2.35845,-2.54579 q -0.97862,-0.0325 -1.54522,0.2751 -0.56661,0.30767 -0.58568,0.88161 -0.0191,0.57382 0.52557,0.92459 0.54465,0.35066 1.52329,0.38331 0.97861,0.0325 1.54546,-0.28097 0.56686,-0.31355 0.5859,-0.8876 0.0191,-0.5739 -0.52581,-0.91855 -0.54493,-0.34486 -1.52349,-0.37725 z m 1.62158,-2.83968 q 0.27071,-0.28572 0.41019,-0.67627 0.1393,-0.38485 0.14709,-0.84989 0.009,-0.562 -0.18305,-0.98837 -0.18651,-0.42003 -0.55732,-0.65602 -0.2273,-0.14906 -0.55258,-0.21478 -0.32544,-0.0598 -0.99027,-0.0711 l -3.11832,-0.0518 0.0294,-1.77068 6.76845,0.11243 -0.0294,1.77067 -1.05148,-0.0173 q 0.57583,0.26952 0.88114,0.81258 0.31137,0.54316 0.29951,1.26226 -0.006,0.36242 -0.1024,0.70558 -0.0904,0.34902 -0.26486,0.66054 z m 0.70835,-10.76679 q 4e-5,-0.63459 -0.56212,-0.99719 -0.55605,-0.36253 -1.55335,-0.36262 -0.99731,-10e-5 -1.55902,0.36405 -0.55603,0.3627 -0.55601,0.99732 -10e-6,0.64067 0.5561,1.00335 0.56209,0.36255 1.55936,0.36252 0.99731,1.1e-4 1.55334,-0.36262 0.56211,-0.36257 0.56206,-1.00334 z m -2.11558,-3.13074 q 1.63788,-4e-4 2.59297,0.84611 0.96104,0.85214 0.96109,2.2846 10e-6,1.43852 -0.9609,2.28473 -0.95495,0.85222 -2.59283,0.85252 -1.63787,3.9e-4 -2.599,-0.85209 -0.955,-0.84614 -0.95505,-2.28466 -7e-5,-1.43241 0.95487,-2.28466 0.96099,-0.8462 2.59896,-0.84617 z m -3.05156,-1.63767 q -0.26736,-0.44292 -0.40279,-0.95442 -0.1413,-0.51151 -0.1514,-1.10368 -0.0261,-1.56517 0.90188,-2.46328 0.92802,-0.89802 2.59596,-0.92588 1.67395,-0.028 2.63155,0.84467 0.96363,0.87253 0.98979,2.43773 0.009,0.54385 -0.10943,1.04756 -0.11844,0.50977 -0.37597,1.01577 l -1.61952,0.0273 q 0.32591,-0.39242 0.4934,-0.86059 0.17369,-0.46213 0.16537,-0.95785 -0.0145,-0.86417 -0.57215,-1.32033 -0.55769,-0.45617 -1.57297,-0.43919 -1.0152,0.0171 -1.55134,0.4915 -0.53616,0.47431 -0.5217,1.33856 0.009,0.51377 0.18518,0.9581 0.18261,0.44411 0.53989,0.83726 z m -0.14185,-7.45668 q -0.27467,-0.43845 -0.41864,-0.94758 -0.15016,-0.50903 -0.16977,-1.10103 -0.0522,-1.56457 0.86073,-2.47795 0.91295,-0.91334 2.58023,-0.96882 1.67331,-0.0557 2.64524,0.80072 0.97802,0.85635 1.03022,2.42096 0.0182,0.54366 -0.092,1.04923 -0.10985,0.51184 -0.35898,1.02195 l -1.61889,0.0541 q 0.31932,-0.39783 0.47902,-0.86867 0.16598,-0.46494 0.14936,-0.96049 -0.0288,-0.86378 -0.59403,-1.31059 -0.56523,-0.44687 -1.58006,-0.41295 -1.01489,0.0337 -1.54298,0.5172 -0.52809,0.4835 -0.49934,1.34709 0.0171,0.51324 0.20127,0.95479 0.19003,0.44122 0.55376,0.82817 z m 2.45612,-9.77415 q -0.0496,-0.98998 -0.32258,-1.36968 -0.27315,-0.37958 -0.88889,-0.3489 -0.4587,0.0232 -0.71693,0.30783 -0.258,0.28546 -0.23477,0.75003 0.035,0.70025 0.57954,1.06031 0.55051,0.35967 1.49827,0.31231 l 0.12092,-0.005 z m 0.80538,2.42881 -3.85735,0.19297 -0.0879,-1.75664 0.75461,-0.0377 q -0.46276,-0.29773 -0.72924,-0.7865 -0.2665,-0.48898 -0.29657,-1.09268 -0.0577,-1.15301 0.51969,-1.82942 0.57767,-0.67034 1.67023,-0.72526 1.18319,-0.0591 1.78292,0.67937 0.6058,0.73827 0.68609,2.34398 l 0.0613,1.22545 0.29574,-0.0149 q 0.42858,-0.0215 0.63026,-0.34596 0.20799,-0.31902 0.17774,-0.92268 -0.0317,-0.63387 -0.22455,-1.22335 -0.18671,-0.58367 -0.56896,-1.21215 l 1.50909,-0.0757 q 0.27081,0.57348 0.41564,1.1714 0.14502,0.5979 0.17872,1.27403 0.0824,1.648 -0.55439,2.34553 -0.63655,0.70353 -2.36303,0.7898 z m 4.6146,-10.05168 -3.34702,0.22335 -0.10303,-1.54388 3.34702,-0.22335 z m -3.73674,-7.02537 3.58378,-0.29907 0.14678,1.75874 -9.372,0.78217 -0.14678,-1.75875 0.99982,-0.0835 q -0.60783,-0.23418 -0.9407,-0.66145 -0.33233,-0.42096 -0.3831,-1.02945 -0.0965,-1.15645 0.77777,-1.87231 0.87434,-0.71563 2.56078,-0.85655 1.71052,-0.14293 2.67988,0.42534 0.96981,0.57413 1.06984,1.7727 0.0452,0.54209 -0.20216,0.99337 -0.24093,0.45668 -0.77388,0.8288 z m -2.63843,-2.25435 q -0.97581,0.0812 -1.50264,0.45326 -0.52706,0.37123 -0.47925,0.94367 0.0477,0.57222 0.62955,0.85721 0.58183,0.28525 1.55752,0.20361 0.97581,-0.0812 1.50234,-0.45853 0.52654,-0.37733 0.47873,-0.94973 -0.0477,-0.57218 -0.62905,-0.8512 -0.58126,-0.27905 -1.55701,-0.19756 z m 3.96049,-13.71241 -1.90905,0.22315 0.26907,2.29917 -1.35069,0.15814 -0.26908,-2.29922 -3.18167,0.37223 q -0.45028,0.0526 -0.62307,0.29189 -0.16608,0.24469 -0.10639,0.75485 l 0.15807,1.35074 -1.35079,0.15773 -0.17281,-1.47673 q -0.17702,-1.51276 0.24071,-2.1033 0.42373,-0.59116 1.73236,-0.74449 l 3.09763,-0.36242 -0.20089,-1.71683 1.35069,-0.15812 0.20088,1.71683 1.90906,-0.22315 z m -4.89191,-4.68549 -4.3552,0.58302 -0.23337,-1.74334 4.08566,-0.54676 q 0.73089,-0.0977 1.01429,-0.34927 0.29023,-0.24621 0.2277,-0.71343 -0.0635,-0.47333 -0.5256,-0.6919 -0.4613,-0.21224 -1.21628,-0.1117 l -3.84006,0.51384 -0.23336,-1.7433 6.70953,-0.89811 0.23335,1.74321 -1.0064,0.13489 q 0.58191,0.11077 0.94766,0.51954 0.36566,0.40844 0.45067,1.04341 0.12755,0.95252 -0.44254,1.52278 -0.56405,0.56951 -1.81619,0.73677 z m -5.00342,-6.66563 q -0.34291,-0.57176 -0.56395,-1.18637 -0.221,-0.61455 -0.32715,-1.31983 -0.25319,-1.67939 0.50902,-2.70506 0.76911,-1.02059 2.46047,-1.27556 1.63761,-0.24671 2.71667,0.4644 1.07913,0.71143 1.30169,2.18765 0.22436,1.48814 -0.53672,2.44027 -0.75422,0.95722 -2.35592,1.19875 l -0.71127,0.10691 -0.6839,-4.53622 q -0.78792,0.12522 -1.10709,0.6437 -0.31905,0.51884 -0.1812,1.43317 0.091,0.60364 0.35261,1.16319 0.26162,0.5596 0.73457,1.14235 z m 3.54175,-2.04983 q 0.69147,-0.11652 0.99185,-0.51622 0.30722,-0.3948 0.20635,-1.06409 -0.091,-0.60361 -0.51563,-0.90633 -0.41852,-0.30339 -1.10388,-0.26753 z m 0.60211,-8.73174 q 0.45618,0.12552 0.70987,0.39572 0.2536,0.26984 0.32763,0.71113 0.14499,0.86428 -0.39613,1.29213 -0.54008,0.4338 -2.4238,0.74937 l -3.76128,0.63083 -0.23995,-1.4306 4.2858,-0.71896 q 0.74514,-0.12485 0.97631,-0.28083 0.23137,-0.15522 0.18144,-0.45304 -0.0503,-0.29814 -0.32626,-0.37417 -0.27621,-0.0759 -1.00957,0.0465 l -4.28581,0.71894 -0.23692,-1.41269 4.2858,-0.71896 q 0.73314,-0.12309 0.96985,-0.28375 0.23635,-0.16225 0.1864,-0.46008 -0.0503,-0.29814 -0.31926,-0.36908 -0.26935,-0.0714 -1.0145,0.0535 l -4.28581,0.71896 -0.23991,-1.43062 6.6761,-1.11982 0.21296,1.26969 -0.69152,0.1157 q 0.41847,0.0831 0.6999,0.37286 0.28742,0.28879 0.35545,0.69423 0.068,0.40555 -0.12043,0.78013 -0.18239,0.37403 -0.51617,0.50334 z m -6.51532,-3.944 q -0.36161,-0.56013 -0.60286,-1.16708 -0.24118,-0.60699 -0.37095,-1.30824 -0.30859,-1.67015 0.41934,-2.72041 0.73494,-1.04548 2.41695,-1.35624 1.62852,-0.30087 2.73058,0.37448 1.10203,0.67531 1.37327,2.14332 0.27341,1.47997 -0.45578,2.45671 -0.72215,0.98161 -2.31502,1.27591 l -0.70763,0.12921 -0.83347,-4.51111 q -0.78284,0.15333 -1.08517,0.68012 -0.30171,0.52925 -0.13373,1.43841 0.11079,0.60034 0.39091,1.15091 0.28001,0.55062 0.7719,1.11739 z m 3.47207,-2.16582 q 0.68748,-0.1383 0.97414,-0.54913 0.29407,-0.40438 0.17104,-1.07031 -0.11079,-0.60031 -0.54529,-0.88888 -0.42847,-0.2897 -1.11217,-0.23111 z m 2.861,-9.26061 -1.88399,0.38038 0.45802,2.26912 -1.33303,0.26903 -0.45804,-2.26912 -3.14011,0.63352 q -0.44425,0.0901 -0.59678,0.34259 -0.14526,0.25774 -0.0439,0.761 l 0.26904,1.33305 -1.33304,0.26903 -0.29419,-1.45745 q -0.3014,-1.49298 0.0661,-2.11593 0.37345,-0.62418 1.66498,-0.88506 l 3.05701,-0.61736 -0.34205,-1.6944 1.33304,-0.26903 0.34206,1.69444 1.884,-0.38038 z m -9.18951,-3.21298 q -0.37987,-0.54789 -0.64092,-1.14658 -0.26109,-0.59868 -0.41362,-1.29541 -0.36343,-1.65903 0.32954,-2.73272 0.70012,-1.06912 2.37099,-1.43509 1.61727,-0.35612 2.74141,0.28433 1.12367,0.63863 1.44311,2.097 0.32207,1.47007 -0.37463,2.47036 -0.68943,1.00489 -2.27173,1.35146 l -0.70244,0.1545 -0.98158,-4.48126 q -0.77785,0.17743 -1.06224,0.7153 -0.28423,0.53849 -0.0863,1.44198 0.13052,0.59636 0.42859,1.13745 0.2979,0.54108 0.80828,1.09135 z m 3.39888,-2.27896 q 0.68325,-0.15797 0.95562,-0.58061 0.28053,-0.41429 0.13575,-1.07539 -0.13052,-0.59636 -0.57427,-0.87038 -0.43775,-0.27534 -1.11915,-0.19423 z m 5.19468,-3.20438 -1.85397,2.15705 -0.25487,-1.16306 1.74405,-2.65895 z m -8.77239,-6.57718 5.08212,-1.20091 -0.4126,-1.74703 1.3233,-0.31349 0.82001,3.47043 -6.40551,1.51401 q -0.77697,0.18133 -1.04294,0.50116 -0.26657,0.31748 -0.13032,0.8941 l 0.32548,1.37629 -1.32328,0.31349 -0.43922,-1.85873 q -0.29048,-1.22939 0.21827,-1.91478 0.50879,-0.68538 1.98518,-1.03425 z m -3.53485,-6.49675 -3.42088,0.8699 -0.43394,-1.71073 9.05751,-2.29662 0.43395,1.71073 -0.98426,0.24963 q 0.63656,0.12499 1.03517,0.49195 0.39855,0.3666 0.54862,0.95825 0.28569,1.12472 -0.45937,1.9747 -0.7447,0.84986 -2.38509,1.26597 -1.66451,0.41932 -2.71482,0.0152 -1.04952,-0.40101 -1.34524,-1.56687 -0.1336,-0.52731 0.0287,-1.01743 0.1698,-0.48584 0.64029,-0.94187 z m 2.96729,1.79142 q 0.94906,-0.24086 1.40784,-0.69381 0.45878,-0.45294 0.31757,-1.00962 -0.1409,-0.55662 -0.7619,-0.74207 -0.62068,-0.18534 -1.56982,0.0552 -0.94905,0.24085 -1.40635,0.69966 -0.45729,0.45878 -0.31606,1.01551 0.14089,0.55661 0.7604,0.73618 0.61928,0.17988 1.56832,-0.061 z m 0.47167,-8.90758 q 0.46629,0.0799 0.7453,0.3237 0.27901,0.2436 0.39605,0.6754 0.22925,0.8459 -0.26706,1.32486 -0.4947,0.48513 -2.33813,0.98477 l -3.68095,0.99785 -0.37954,-1.40006 4.19431,-1.13703 q 0.729,-0.19844 0.94416,-0.3749 0.21487,-0.17764 0.13588,-0.46901 -0.0789,-0.29143 -0.3615,-0.34016 -0.28245,-0.0486 -0.99991,0.14613 l -4.19431,1.13703 -0.37475,-1.38254 4.19431,-1.13703 q 0.71727,-0.19552 0.93671,-0.37926 0.21912,-0.18492 0.14011,-0.47632 -0.0789,-0.29145 -0.35416,-0.33625 -0.27503,-0.0442 -1.00421,0.15341 l -4.19429,1.13713 -0.37953,-1.40006 6.53345,-1.77159 0.33694,1.24253 -0.67624,0.18527 q 0.42463,0.0418 0.73316,0.30206 0.31447,0.25923 0.42204,0.65585 0.10723,0.39678 -0.0436,0.78814 -0.14479,0.38996 -0.46409,0.5519 z m -2.72722,-7.53794 q -0.17619,-0.60965 -0.81663,-0.80224 -0.63483,-0.19425 -1.59293,0.0825 -0.95823,0.27633 -1.39759,0.78108 -0.43367,0.50266 -0.25768,1.11233 0.17757,0.61557 0.81251,0.80978 0.64059,0.19241 1.5988,-0.084 0.95821,-0.27632 1.39184,-0.77912 0.43953,-0.50414 0.26181,-1.11984 z m -2.90074,-2.42134 q 1.57368,-0.45438 2.72588,0.0938 1.15967,0.55233 1.55694,1.9286 0.39895,1.38203 -0.2897,2.46157 -0.68117,1.08357 -2.25487,1.53784 -1.57366,0.45438 -2.73335,-0.098 -1.15219,-0.54817 -1.55111,-1.93021 -0.39731,-1.37626 0.28389,-2.45991 0.68863,-1.0795 2.26232,-1.53376 z m -3.43101,-0.5866 q -0.33193,-0.34073 -0.57227,-0.75394 -0.24031,-0.41296 -0.3908,-0.90435 -0.53459,-1.74527 0.33396,-3.01642 0.86857,-1.27113 3.04149,-1.93672 2.17867,-0.66749 3.61019,-0.1008 1.43149,0.56658 1.9661,2.31189 0.15037,0.49126 0.18447,0.97383 0.0341,0.48278 -0.0537,0.93934 l -1.89562,0.58028 q 0.26996,-0.5633 0.32748,-1.03582 0.0651,-0.46865 -0.0695,-0.90797 -0.28681,-0.93619 -1.17918,-1.1875 -0.88491,-0.24743 -2.3469,0.20087 -1.45628,0.44623 -2.05666,1.14833 -0.59279,0.70622 -0.30603,1.64242 0.13483,0.43927 0.44515,0.79291 0.31819,0.35781 0.85723,0.67298 z" /><path
     id="path3142"
     style="font-weight:bold;font-size:7.99999px;line-height:1;font-family:monospace;-inkscape-font-specification:'monospace Bold';text-align:center;letter-spacing:0px;white-space:pre;display:inline;fill:#ffffff;stroke-width:5.09229;stroke-linecap:round"
     d="m 55.115827,313.84835 -3.35491,-1.29509 0.635912,-1.64634 8.773623,3.38671 -0.63591,1.64635 -0.935398,-0.36305 q 0.444679,0.47604 0.557734,1.00567 0.11503,0.52403 -0.104776,1.09337 -0.418812,1.08229 -1.516987,1.34511 -1.099004,0.26249 -2.677847,-0.34697 -1.601427,-0.61778 -2.225501,-1.55234 -0.622011,-0.93982 -0.188857,-2.06185 0.197281,-0.507 0.615389,-0.80554 0.416251,-0.30557 1.057977,-0.40791 z m 1.389955,3.17984 q 0.912535,0.35513 1.549632,0.24869 0.636273,-0.10413 0.843093,-0.6399 0.207195,-0.53554 -0.1923,-1.04605 -0.398985,-0.51048 -1.312356,-0.86334 -0.912546,-0.35512 -1.551901,-0.24265 -0.638481,0.10979 -0.845242,0.6455 -0.207194,0.53554 0.194447,1.04036 0.401153,0.50483 1.314655,0.85732 z m -2.465249,2.14783 q -0.349357,0.18036 -0.609854,0.50363 -0.258375,0.31719 -0.418614,0.75421 -0.195732,0.52691 -0.152354,0.99354 0.03787,0.45786 0.310449,0.80292 0.165473,0.21552 0.451133,0.38457 0.287922,0.16346 0.911847,0.39235 l 2.927637,1.07511 -0.61112,1.66216 -6.354492,-2.33345 0.611121,-1.66214 0.98676,0.36384 q -0.454982,-0.44427 -0.564697,-1.05727 -0.115274,-0.61538 0.132737,-1.29051 0.122711,-0.34127 0.329079,-0.63251 0.200035,-0.29994 0.467092,-0.53671 z m -4.211794,9.93339 q -0.208883,0.59925 0.202572,1.12669 0.405844,0.52519 1.34741,0.85377 0.941812,0.32802 1.591819,0.17091 0.64454,-0.15969 0.853279,-0.75873 0.210839,-0.60501 -0.194835,-1.13044 -0.411542,-0.52716 -1.353116,-0.85576 -0.941804,-0.32802 -1.586114,-0.1689 -0.650247,0.1577 -0.861004,0.76245 z m 0.967175,3.65262 q -1.546691,-0.53908 -2.169984,-1.6524 -0.626964,-1.12103 -0.155507,-2.47366 0.473666,-1.35829 1.659356,-1.84112 1.182268,-0.49041 2.728969,0.0486 1.546701,0.53908 2.173658,1.66012 0.623287,1.11334 0.149839,2.47168 -0.471684,1.35257 -1.653697,1.84308 -1.185946,0.48275 -2.732632,-0.0563 z m 2.342411,2.55061 q 0.106789,0.50607 0.06588,1.03381 -0.03505,0.52939 -0.220594,1.09198 -0.490469,1.48657 -1.662686,2.02887 -1.171973,0.54238 -2.756084,0.0194 -1.589318,-0.52623 -2.206622,-1.66406 -0.622567,-1.14118 -0.131867,-2.62768 0.166958,-0.51781 0.448469,-0.95309 0.279668,-0.44233 0.689232,-0.8354 l 1.537986,0.50833 q -0.436804,0.26289 -0.749106,0.65011 -0.316115,0.37916 -0.471486,0.85003 -0.268225,0.82171 0.105482,1.43506 0.37643,0.61422 1.340612,0.93276 0.964378,0.31775 1.626697,0.0467 0.662431,-0.27133 0.933361,-1.09214 0.15703,-0.48923 0.140537,-0.96565 -0.02646,-0.47977 -0.234063,-0.96836 z m -2.321645,7.08757 q 0.114978,0.50458 0.08299,1.03259 -0.02594,0.53004 -0.202237,1.09553 -0.464857,1.49485 -1.62899,2.05605 -1.162835,0.56171 -2.755335,0.0651 -1.59826,-0.49865 -2.23386,-1.62744 -0.641319,-1.13074 -0.175187,-2.62514 0.163112,-0.51894 0.432702,-0.96038 0.272681,-0.44673 0.675637,-0.84657 l 1.546336,0.48233 q -0.432568,0.27033 -0.738269,0.66243 -0.309891,0.38457 -0.457111,0.85773 -0.260454,0.82402 0.129148,1.43317 0.386507,0.608 1.355784,0.91054 0.969309,0.30243 1.627229,0.0201 0.657782,-0.28213 0.915382,-1.10735 0.153186,-0.49034 0.124672,-0.96781 -0.0343,-0.47924 -0.25008,-0.96433 z m -5.539031,8.41906 q -0.281337,0.95035 -0.146713,1.39951 0.132809,0.4483 0.72433,0.62211 0.440049,0.13155 0.778402,-0.0548 0.337811,-0.18394 0.468667,-0.63083 0.195474,-0.67342 -0.197751,-1.19207 -0.401279,-0.52105 -1.311694,-0.78855 l -0.115385,-0.0359 z m 0.03998,-2.55852 3.705436,1.08913 -0.495961,1.68748 -0.724773,-0.21329 q 0.339001,0.43338 0.429347,0.98288 0.09047,0.5494 -0.07975,1.1294 -0.325729,1.10748 -1.093492,1.55594 -0.766352,0.44257 -1.815962,0.1341 -1.136687,-0.33364 -1.459436,-1.22891 -0.328654,-0.89664 0.124624,-2.43915 l 0.345996,-1.17715 -0.284751,-0.0818 q -0.411653,-0.12167 -0.709158,0.11938 -0.301125,0.23288 -0.471725,0.81267 -0.177471,0.60938 -0.191054,1.22899 -0.01625,0.61258 0.137799,1.33191 l -1.449693,-0.42611 q -0.06692,-0.63075 -0.0062,-1.24284 0.06004,-0.61231 0.25099,-1.26175 0.465607,-1.58298 1.29636,-2.03183 0.832786,-0.45448 2.491287,0.0329 z m -4.893425,7.1794 1.49151,0.4117 q -0.433396,0.38808 -0.72629,0.8592 -0.297229,0.46342 -0.438624,0.97621 -0.155396,0.57173 -0.06927,0.90886 0.08251,0.33667 0.408925,0.42657 0.466613,0.12787 1.101558,-1.03771 l 0.03724,-0.0581 0.251586,-0.45728 q 0.478786,-0.87108 1.09292,-1.16552 0.609925,-0.30199 1.449009,-0.0703 1.007843,0.27833 1.331463,1.08222 0.319337,0.7967 -0.04734,2.1251 -0.161322,0.58878 -0.434521,1.17815 -0.26969,0.59023 -0.649095,1.16893 l -1.491471,-0.41169 q 0.476511,-0.4767 0.806477,-1.0126 0.331657,-0.54174 0.482212,-1.08958 0.165285,-0.6002 0.07618,-0.9571 -0.08951,-0.357 -0.421599,-0.44887 -0.325603,-0.0917 -0.561981,0.0831 -0.234371,0.16703 -0.659161,0.93408 l -0.235143,0.44285 q -0.491585,0.91775 -1.08735,1.23611 -0.595626,0.31825 -1.388079,0.0997 -0.943945,-0.26039 -1.280068,-1.08693 -0.33617,-0.82639 0.0047,-2.06158 0.153723,-0.55318 0.394892,-1.0762 0.240376,-0.52927 0.563786,-0.99809 z m 4.207852,8.20226 q 0.09155,0.66043 0.0543,1.31247 -0.03722,0.65213 -0.21599,1.34254 -0.424736,1.64441 -1.527801,2.28959 -1.107413,0.63783 -2.763515,0.21005 -1.603414,-0.41435 -2.317779,-1.49141 -0.714251,-1.07724 -0.340881,-2.52261 0.376354,-1.45718 1.449632,-2.0352 1.068866,-0.58534 2.637146,-0.18026 l 0.696419,0.17995 -1.147445,4.44166 q 0.773984,0.19375 1.270783,-0.15863 0.496887,-0.35254 0.72801,-1.24777 0.151649,-0.5914 0.131058,-1.20836 -0.02176,-0.6174 -0.228516,-1.33877 z m -4.061642,0.4989 q -0.68191,-0.16348 -1.114846,0.0869 -0.43744,0.24266 -0.606665,0.89824 -0.151262,0.59151 0.119588,1.03593 0.266142,0.44346 0.910968,0.67839 z m -5.672184,-1.07189 0.42634,-1.65025 1.644038,2.72191 -0.29795,1.15279 z m 2.117454,8.34277 -3.496284,-0.84183 0.412908,-1.71588 9.143258,2.20146 -0.412895,1.71585 -0.97548,-0.2347 q 0.50349,0.41339 0.685241,0.92345 0.183315,0.50406 0.04027,1.09763 -0.271547,1.1283 -1.326535,1.53325 -1.054876,0.40499 -2.700257,0.009 -1.668679,-0.40208 -2.410652,-1.24549 -0.740339,-0.84967 -0.458796,-2.01902 0.12739,-0.52885 0.503891,-0.87956 0.37228,-0.35808 0.995093,-0.54376 z m 1.796758,2.96913 q 0.951991,0.22909 1.568819,0.0421 0.617144,-0.18754 0.751475,-0.74544 0.134486,-0.55813 -0.328397,-1.01153 -0.462774,-0.45336 -1.414771,-0.68246 -0.951992,-0.22909 -1.570327,-0.0364 -0.618423,0.19303 -0.752921,0.75118 -0.134609,0.55817 0.329764,1.00574 0.464257,0.44749 1.416218,0.67657 z m -3.394941,10.38411 4.303611,0.88693 -0.354775,1.72268 -4.037178,-0.83197 q -0.722204,-0.1489 -1.072733,-0.005 -0.355047,0.13664 -0.450183,0.59843 -0.09675,0.46776 0.267823,0.82657 0.3654,0.35267 1.111398,0.5064 l 3.794525,0.78207 -0.354778,1.72268 -6.630075,-1.36631 0.354777,-1.72268 0.994459,0.20507 q -0.512625,-0.29725 -0.723089,-0.80316 -0.210221,-0.50636 -0.08133,-1.13377 0.194228,-0.94113 0.920041,-1.29147 0.720393,-0.35141 1.957598,-0.0964 z m 2.52339,7.94333 q 0.135046,0.65295 0.140774,1.30604 0.0055,0.65298 -0.126614,1.35388 -0.315225,1.66888 -1.373282,2.38546 -1.062879,0.70957 -2.743621,0.39208 -1.627361,-0.3072 -2.411151,-1.33512 -0.783911,-1.02768 -0.506706,-2.49465 0.279467,-1.47874 1.312028,-2.12641 1.027821,-0.65465 2.619485,-0.35397 l 0.706814,0.13334 -0.851532,4.50774 q 0.785069,0.14222 1.257482,-0.24219 0.472584,-0.38436 0.644067,-1.29312 0.113184,-0.59984 0.0513,-1.21427 -0.06229,-0.6146 -0.316424,-1.32079 z m -4.019857,0.7661 q -0.69122,-0.11817 -1.106623,0.15997 -0.42011,0.27127 -0.546167,0.93631 -0.113296,0.59987 0.187554,1.02572 0.295049,0.42496 0.953712,0.61698 z m -7.243411,15.09845 1.899424,0.29386 0.354306,-2.28759 1.343886,0.20836 -0.354319,2.28762 3.165606,0.49028 q 0.448074,0.0695 0.678237,-0.11481 0.225385,-0.19145 0.304079,-0.69905 l 0.208327,-1.34379 1.343812,0.20833 -0.227606,1.46926 q -0.233228,1.50511 -0.793437,1.96271 -0.566236,0.45657 -1.868235,0.25497 l -3.081994,-0.47731 -0.264553,1.70825 -1.34381,-0.20834 0.264565,-1.70828 -1.899424,-0.29385 z m 3.463986,5.82107 4.352785,0.6007 -0.240572,1.74225 -4.083383,-0.56353 q -0.730474,-0.10065 -1.070781,0.066 -0.345656,0.15992 -0.410149,0.62673 -0.06541,0.47322 0.321786,0.80708 0.387941,0.3281 1.14152,0.43462 l 3.837901,0.5296 -0.240585,1.74231 -6.705844,-0.92545 0.240572,-1.74226 1.005853,0.13877 q -0.531195,-0.26243 -0.774655,-0.75354 -0.243656,-0.49103 -0.155778,-1.12585 0.131498,-0.9519 0.832752,-1.34944 0.695652,-0.39819 1.94699,-0.22553 z m 3.042597,7.7593 q 0.177857,0.64255 0.226733,1.29384 0.04873,0.65118 -0.03688,1.35926 -0.204436,1.68604 -1.212365,2.47115 -1.013677,0.77821 -2.71168,0.57238 -1.644087,-0.19926 -2.494044,-1.17304 -0.850065,-0.97359 -0.670469,-2.45567 0.181236,-1.49401 1.168886,-2.20844 0.982429,-0.7211 2.590457,-0.52619 l 0.713888,0.0868 -0.551896,4.55416 q 0.792783,0.0899 1.238721,-0.32475 0.445698,-0.41492 0.557706,-1.33265 0.07361,-0.60595 -0.02927,-1.21511 -0.102944,-0.60916 -0.40297,-1.29694 z m -3.96046,1.02982 q -0.697508,-0.072 -1.093696,0.23282 -0.401763,0.2982 -0.48299,0.97031 -0.07361,0.606 0.254946,1.01114 0.322192,0.40414 0.992437,0.55245 z m -2.913691,8.25291 q -0.406248,-0.24287 -0.578543,-0.57066 -0.172481,-0.32787 -0.125842,-0.77271 0.09088,-0.87174 0.726634,-1.13951 0.63633,-0.27394 2.535864,-0.0753 l 3.79322,0.39629 -0.150638,1.44272 -4.32218,-0.4515 q -0.751441,-0.0785 -1.015858,0.009 -0.264323,0.0876 -0.295869,0.38835 -0.03151,0.30051 0.214535,0.44728 0.245871,0.14718 0.985338,0.22448 l 4.322176,0.45151 -0.149045,1.42462 -4.322179,-0.4515 q -0.739338,-0.0774 -1.010331,0.0157 -0.271382,0.0933 -0.302006,0.39378 -0.0315,0.30051 0.209019,0.44109 0.240496,0.14056 0.991925,0.21911 l 4.322194,0.45146 -0.15065,1.44274 -6.732748,-0.70326 0.133899,-1.28038 0.697279,0.0728 q -0.380949,-0.19143 -0.574834,-0.54637 -0.200152,-0.35495 -0.157428,-0.76395 0.04274,-0.4091 0.324371,-0.7197 0.275871,-0.31111 0.632076,-0.34713 z m 5.225742,5.54074 q 0.199162,0.6364 0.269399,1.28568 0.07066,0.64938 0.0082,1.35979 -0.148585,1.69194 -1.130717,2.50963 -0.987382,0.81133 -2.691355,0.66172 -1.649724,-0.14473 -2.531483,-1.08973 -0.881768,-0.945 -0.751227,-2.43216 0.131887,-1.49915 1.094987,-2.24593 0.958017,-0.75324 2.571638,-0.61156 l 0.71642,0.063 -0.401094,4.56991 q 0.795227,0.0637 1.227347,-0.36547 0.431945,-0.42931 0.512032,-1.3508 0.05309,-0.60822 -0.06927,-1.21342 -0.122993,-0.60544 -0.445621,-1.28295 z m -3.924253,1.16027 q -0.699419,-0.0497 -1.085376,0.26877 -0.391085,0.31165 -0.450459,0.98583 -0.0531,0.60822 0.288158,1.00213 0.335604,0.39346 1.010165,0.51941 z m -5.229357,8.16082 1.917268,0.13595 0.164233,-2.30905 1.356579,0.0963 -0.164334,2.30906 3.195262,0.22756 q 0.451911,0.032 0.666587,-0.17077 0.208684,-0.2096 0.246233,-0.72147 l 0.09641,-1.35654 1.356502,0.0963 -0.105872,1.48301 q -0.108196,1.51921 -0.628549,2.02153 -0.52695,0.50168 -1.840823,0.4083 l -3.110908,-0.22144 -0.122658,1.72428 -1.356579,-0.0963 0.122657,-1.72429 -1.917186,-0.13592 z m 7.998432,5.54932 q 0.219748,0.62936 0.311758,1.27606 0.09204,0.64672 0.05279,1.35871 -0.09229,1.69595 -1.046949,2.54569 -0.959985,0.84345 -2.667957,0.75031 -1.653718,-0.0901 -2.566229,-1.0055 -0.912444,-0.91538 -0.831138,-2.40605 0.08185,-1.50279 1.02019,-2.28085 0.93263,-0.78445 2.550014,-0.69617 l 0.718121,0.0393 -0.249883,4.58061 q 0.79701,0.0372 1.214606,-0.40586 0.417626,-0.44326 0.469993,-1.36601 0.03313,-0.6096 -0.109622,-1.21055 -0.142843,-0.60105 -0.487755,-1.2675 z m -3.88376,1.28934 q -0.700781,-0.026 -1.075899,0.30444 -0.380998,0.32429 -0.417911,1.00009 -0.03313,0.60966 0.321178,0.9921 0.348531,0.38259 1.026685,0.48594 z m -5.861433,1.70195 2.362378,-1.5842 -0.06507,1.18887 -2.390348,2.0971 z m 6.699615,8.68027 -5.218353,-0.19832 -0.06811,1.79383 -1.35894,-0.0516 0.135398,-3.56343 6.577274,0.24995 q 0.797131,0.0305 1.138801,-0.20473 0.341502,-0.23506 0.364222,-0.82685 l 0.05355,-1.41339 1.358946,0.0517 -0.07246,1.90848 q -0.04796,1.26229 -0.721384,1.78705 -0.673256,0.52479 -2.189172,0.46722 z m 1.674356,7.20386 3.528934,0.0757 -0.03789,1.76448 -9.341949,-0.20049 0.03781,-1.76448 1.015174,0.0219 q -0.580214,-0.29047 -0.86663,-0.74991 -0.286285,-0.4594 -0.273251,-1.06984 0.02487,-1.16021 0.969285,-1.78075 0.944332,-0.62056 2.636291,-0.58424 1.716106,0.0368 2.620595,0.7091 0.904693,0.66601 0.878828,1.86872 -0.01158,0.54394 -0.299412,0.97283 -0.293297,0.42266 -0.86827,0.73709 z m -2.382333,-2.51774 q -0.978951,-0.0207 -1.541842,0.2934 -0.56306,0.31449 -0.575146,0.88844 -0.01227,0.57411 0.536479,0.91838 0.548778,0.34433 1.527673,0.36548 0.978993,0.0207 1.541987,-0.29947 0.562944,-0.32042 0.575133,-0.89454 0.01224,-0.57406 -0.536681,-0.9123 -0.548829,-0.33839 -1.527858,-0.35914 z m -2.829115,8.46095 q -0.427765,-0.2026 -0.632144,-0.51087 -0.203777,-0.30892 -0.201508,-0.75644 0.0047,-0.87624 0.610361,-1.20584 0.605943,-0.33555 2.515971,-0.32603 l 3.81377,0.0189 -0.0071,1.45054 -4.345657,-0.0215 q -0.755533,-0.004 -1.009899,0.10983 -0.254455,0.11319 -0.255933,0.41569 -0.0014,0.30241 0.258223,0.42452 0.258648,0.12388 1.002657,0.1261 l 4.345607,0.0215 -0.0073,1.43233 -4.345606,-0.0215 q -0.743453,-0.004 -1.004008,0.11606 -0.260517,0.11961 -0.262252,0.42159 -0.0014,0.30242 0.252197,0.41859 0.254453,0.11389 1.008658,0.12012 l 4.345644,0.0215 -0.0071,1.45056 -6.76933,-0.0335 0.0065,-1.28727 0.701096,0.003 q -0.397386,-0.155 -0.626332,-0.48628 -0.234029,-0.33347 -0.232023,-0.74459 0.0022,-0.41125 0.247453,-0.74969 0.2431,-0.33697 0.594443,-0.40795 z m 0.621194,7.99324 q 0.0072,0.63459 0.573599,0.99074 0.560145,0.35637 1.557517,0.3443 0.997281,-0.0113 1.555091,-0.38062 0.55163,-0.3691 0.544802,-1.00352 -0.0072,-0.6406 -0.567616,-0.99686 -0.566297,-0.35594 -1.563575,-0.34427 -0.997277,0.0114 -1.549013,0.38056 -0.557796,0.36918 -0.55039,1.00981 z m 2.151465,3.10616 q -1.637831,0.019 -2.602474,-0.81615 -0.970772,-0.84105 -0.98742,-2.27339 -0.01649,-1.43834 0.934571,-2.29564 0.945028,-0.86321 2.582836,-0.88212 1.637831,-0.019 2.60867,0.82212 0.964635,0.83513 0.981341,2.27345 0.01644,1.43236 -0.928563,2.2955 -0.951211,0.85723 -2.589043,0.87622 z m 3.151276,1.47873 q 0.229299,0.41704 0.351191,0.87898 0.121936,0.46244 0.136199,0.97571 0.05124,1.82462 -1.124327,2.8189 -1.175343,0.99437 -3.447023,1.05815 -2.277696,0.064 -3.506989,-0.86303 -1.229171,-0.92695 -1.280451,-2.75145 -0.01441,-0.51331 0.08092,-0.98791 0.09556,-0.47405 0.297113,-0.89273 l 1.981643,-0.0556 q -0.409803,0.47109 -0.591206,0.9114 -0.189025,0.43411 -0.17437,0.89376 0.02749,0.97872 0.820882,1.45834 0.787191,0.47394 2.315837,0.43075 1.522477,-0.0428 2.287992,-0.56006 0.759223,-0.52312 0.731502,-1.50204 -0.01306,-0.45947 -0.21812,-0.88258 -0.211454,-0.42917 -0.647397,-0.87675 z" /><path
     id="path1522"
     style="font-weight:bold;font-size:8px;line-height:1;font-family:monospace;-inkscape-font-specification:'monospace Bold';text-align:center;letter-spacing:0px;white-space:pre;display:inline;fill:#ffffff;stroke-width:1.54729;stroke-linecap:round"
     d="m 753.74144,102.2073 2.0306,-2.968092 1.45661,0.996532 -5.31027,7.76193 -1.45661,-0.99653 0.56653,-0.82806 q -0.56538,0.32365 -1.10686,0.31195 -0.53637,-0.008 -1.04019,-0.3528 -0.95776,-0.65526 -0.96098,-1.78521 -0.003,-1.12998 0.95238,-2.52672 0.96922,-1.4167 2.02173,-1.80977 1.05747,-0.389638 2.05017,0.28949 0.44898,0.30713 0.64276,0.78388 0.20216,0.47516 0.1541,1.1234 z m -3.41402,0.62289 q -0.55289,0.8081 -0.59747,1.45133 -0.0447,0.64326 0.4293,0.96744 0.47385,0.32425 1.06223,0.053 0.58833,-0.27126 1.14122,-1.07931 0.55288,-0.80812 0.59248,-1.45478 0.0395,-0.6466 -0.43427,-0.97084 -0.47392,-0.32421 -1.05726,-0.0496 -0.58332,0.27468 -1.13622,1.08275 z m -1.5251,-2.892647 q -0.0956,-0.381786 -0.35029,-0.709138 -0.24938,-0.324206 -0.63805,-0.580398 -0.4691,-0.309644 -0.93212,-0.376207 -0.45464,-0.06828 -0.8527,0.118079 -0.2477,0.111652 -0.47801,0.350586 -0.22522,0.242422 -0.59143,0.797304 l -1.71793,2.602941 -1.47803,-0.9755 3.72888,-5.649785 1.47802,0.975498 -0.5793,0.87775 q 0.53673,-0.340762 1.15861,-0.307117 0.62541,0.02891 1.2257,0.425146 0.30269,0.199762 0.54023,0.465202 0.246,0.263728 0.41513,0.578039 z m -8.70272,-6.378325 q -0.53537,-0.340756 -1.14313,-0.0612 -0.60448,0.274449 -1.13994,1.115735 -0.53544,0.841361 -0.53128,1.510269 0.007,0.66383 0.5428,1.004535 0.54048,0.344007 1.14499,0.06955 0.60771,-0.279542 1.14317,-1.120845 0.53544,-0.841351 0.52805,-1.505166 -0.004,-0.668908 -0.54467,-1.012878 z m -3.77709,0.103749 q 0.87941,-1.381851 2.10599,-1.733211 1.23493,-0.353201 2.44341,0.415871 1.2136,0.772318 1.41149,2.037387 0.20624,1.263209 -0.67314,2.645061 -0.87942,1.381846 -2.11437,1.735046 -1.22656,0.351378 -2.44016,-0.420975 -1.20848,-0.769082 -1.41475,-2.032284 -0.19787,-1.265057 0.68152,-2.646908 z m -3.02011,1.694985 q -0.51714,-0.0123 -1.02144,-0.172693 -0.50745,-0.155248 -1.01238,-0.464913 -1.33444,-0.818429 -1.59372,-2.083547 -0.25933,-1.265102 0.61287,-2.687123 0.87531,-1.427174 2.12563,-1.766423 1.25348,-0.344426 2.58793,0.474025 0.46372,0.284389 0.82499,0.654857 0.36643,0.373631 0.65502,0.862619 l -0.84686,1.380807 q -0.15597,-0.485644 -0.46103,-0.878342 -0.29695,-0.394648 -0.71924,-0.653836 -0.73679,-0.451862 -1.42107,-0.226318 -0.68426,0.225569 -1.21516,1.0911 -0.53087,0.865565 -0.41854,1.572592 0.11251,0.707003 0.84908,1.15892 0.43789,0.26861 0.90768,0.358153 0.47295,0.0844 0.99623,-0.0058 z m -6.36655,-3.884359 q -0.5173,-0.0037 -1.02416,-0.155702 -0.50994,-0.146773 -1.01995,-0.448061 -1.34784,-0.79618 -1.62803,-2.05682 -0.2802,-1.260625 0.5682,-2.696926 0.8515,-1.441497 2.09603,-1.801459 1.24761,-0.365117 2.59544,0.431035 0.46833,0.276679 0.83574,0.641084 0.37262,0.36751 0.66926,0.851614 l -0.82383,1.394661 q -0.16398,-0.482949 -0.47556,-0.870567 -0.30333,-0.389677 -0.73,-0.641814 -0.74419,-0.439589 -1.42462,-0.202733 -0.68041,0.236901 -1.19688,1.111122 -0.51644,0.87427 -0.3924,1.579316 0.12414,0.705053 0.86823,1.144634 0.44238,0.261285 0.91352,0.34308 0.47425,0.07656 0.99599,-0.02237 z m -6.92583,-7.320978 q -0.86172,-0.489921 -1.32869,-0.46344 -0.46698,0.02656 -0.77158,0.562587 -0.22705,0.399305 -0.12501,0.770187 0.10194,0.370799 0.5066,0.600884 0.60946,0.34656 1.20563,0.08059 0.59916,-0.271198 1.0682,-1.096074 l 0.0598,-0.105018 z m 2.48127,0.625148 -1.90896,3.357417 -1.52895,-0.869333 0.37342,-0.656787 q -0.49954,0.230454 -1.05514,0.192664 -0.55559,-0.03777 -1.08101,-0.336553 -1.00355,-0.570595 -1.26404,-1.420903 -0.25525,-0.847329 0.28549,-1.798348 0.58554,-1.029817 1.53065,-1.139048 0.9481,-0.114594 2.34571,0.680166 l 1.0666,0.606451 0.1464,-0.257441 q 0.21212,-0.373045 0.0464,-0.717533 -0.15746,-0.346731 -0.68284,-0.645495 -0.55167,-0.313704 -1.15252,-0.467575 -0.5926,-0.15616 -1.32805,-0.171045 l 0.74687,-1.313551 q 0.62912,0.07958 1.21132,0.278517 0.58218,0.198893 1.17064,0.533506 1.43438,0.81556 1.68074,1.72739 0.2516,0.914809 -0.60278,2.417515 z m -5.99958,-9.291119 -1.60954,2.943089 -1.35753,-0.742414 1.60954,-2.943098 z m -7.932,-0.621816 1.67321,-3.183281 1.56221,0.821144 -4.37565,8.32467 -1.56221,-0.821125 0.46682,-0.888103 q -0.5243,0.386651 -1.06325,0.438078 -0.53366,0.054 -1.07407,-0.22999 -1.02719,-0.539931 -1.16122,-1.661929 -0.13396,-1.122013 0.65336,-2.620009 0.79864,-1.519408 1.79854,-2.031718 1.00522,-0.509527 2.06989,0.05013 0.48154,0.253116 0.72923,0.704179 0.25612,0.448377 0.28323,1.097979 z m -3.3189,1.01408 q -0.45556,0.866716 -0.42538,1.510764 0.03,0.644055 0.53835,0.911268 0.50825,0.267159 1.06123,-0.07051 0.55291,-0.337606 1.00851,-1.204266 0.45555,-0.866714 0.42003,-1.513578 -0.0361,-0.646853 -0.54381,-0.914008 -0.50825,-0.267158 -1.0559,0.07302 -0.5476,0.340344 -1.00319,1.207044 z m -15.07556,-6.409031 1.92048,-3.965582 1.59384,0.771888 -1.80193,3.720781 q -0.31878,0.658202 -0.2708,1.030658 0.0481,0.372451 0.47769,0.580548 0.4297,0.208124 0.85349,-0.0567 0.42919,-0.262319 0.76113,-0.947661 l 1.69393,-3.49776 1.59384,0.77188 -2.95054,6.092526 -1.59385,-0.771886 0.43731,-0.902997 q -0.41366,0.424208 -0.95597,0.50407 -0.53693,0.0823 -1.10806,-0.194139 -0.87035,-0.421507 -1.03717,-1.214139 -0.16134,-0.78999 0.38659,-1.921467 z m -2.47864,1.070578 q -0.66605,-0.02928 -1.30062,-0.183898 -0.63456,-0.154609 -1.28147,-0.454901 -1.54051,-0.715095 -1.97564,-1.916602 -0.42712,-1.204464 0.29305,-2.755922 0.69728,-1.502142 1.88585,-2.009915 1.18859,-0.507792 2.54271,0.120765 1.36508,0.633657 1.73953,1.793658 0.38246,1.157072 -0.29953,2.626317 l -0.30283,0.652366 -4.16103,-1.93149 q -0.33041,0.726194 -0.0737,1.278499 0.25676,0.552271 1.09551,0.941635 0.55372,0.257022 1.16476,0.347442 0.61109,0.09042 1.35801,0.01731 z m 0.24362,-4.08492 q 0.28421,-0.641046 0.11641,-1.112079 -0.1597,-0.474007 -0.77383,-0.758999 -0.5537,-0.257013 -1.04042,-0.06983 -0.48417,0.181707 -0.83202,0.773247 z m -10.4066,-1.232439 -1.43353,3.225538 -1.61276,-0.716777 3.79494,-8.538836 1.61279,0.716773 -0.4124,0.927894 q 0.49216,-0.42286 1.02668,-0.509389 0.53448,-0.08668 1.09236,0.161369 1.06045,0.471303 1.26789,1.582069 0.20742,1.110762 -0.4799,2.65726 -0.69714,1.568576 -1.66674,2.142993 -0.96424,0.576636 -2.06322,0.08839 -0.49706,-0.22091 -0.78184,-0.651721 -0.27692,-0.433763 -0.34431,-1.085584 z m 3.24272,-1.224329 q 0.39767,-0.894755 0.32522,-1.535433 -0.0726,-0.640689 -0.59729,-0.873796 -0.52474,-0.23322 -1.05429,0.139958 -0.52975,0.372884 -0.92728,1.26788 -0.39767,0.894755 -0.31974,1.537889 0.0774,0.643204 0.60242,0.876492 0.52473,0.23317 1.04878,-0.142429 0.52412,-0.37553 0.92176,-1.270323 z m -12.185,-6.342664 -1.65275,4.071387 -1.62966,-0.661558 1.55044,-3.819369 q 0.27734,-0.683225 0.19953,-1.054019 -0.0697,-0.374142 -0.50674,-0.551438 -0.44242,-0.179587 -0.86143,0.113408 -0.41341,0.295253 -0.69986,1.000951 l -1.45723,3.58977 -1.62967,-0.661557 2.54617,-6.272277 1.62967,0.661545 -0.38191,0.940844 q 0.38502,-0.450338 0.92091,-0.56559 0.53597,-0.115121 1.12959,0.125876 0.89043,0.361468 1.10307,1.139247 0.21496,0.772171 -0.26022,1.942632 z m -12.80048,-3.928373 2.05564,-5.30948 1.66274,0.643758 -2.21715,5.726579 q -0.2444,0.631279 -0.0628,1.116382 0.18385,0.479496 0.75307,0.699892 0.56926,0.220374 1.02801,-0.01032 0.46102,-0.236296 0.70537,-0.867597 l 2.21713,-5.726578 1.66276,0.643763 -2.05567,5.309482 q -0.66338,1.713465 -1.64654,2.227236 -0.98314,0.513791 -2.49371,-0.07107 -1.50492,-0.582649 -1.8914,-1.626714 -0.38088,-1.041842 0.28254,-2.755335 z" /><path
     id="path1671"
     style="font-weight:bold;font-size:8px;line-height:1;font-family:monospace;-inkscape-font-specification:'monospace Bold';text-align:center;letter-spacing:0px;white-space:pre;shape-inside:url(#rect927);display:inline;fill:#ffffff;stroke-width:1.54729;stroke-linecap:round"
     d="m 578.31638,489.09323 v 1.54726 q -0.48935,-0.31435 -1.02145,-0.47156 -0.52585,-0.16301 -1.05775,-0.16301 -0.59226,0 -0.8945,0.17508 -0.30186,0.16905 -0.30186,0.50771 0,0.48327 1.2934,0.78574 l 0.0668,0.0201 0.5077,0.12074 q 0.96703,0.22983 1.41428,0.74345 0.4532,0.5077 0.4532,1.37801 0,1.04567 -0.68898,1.57149 -0.68303,0.51978 -2.06108,0.51978 -0.61046,0 -1.25111,-0.10908 -0.64069,-0.10304 -1.29945,-0.31434 v -1.5473 q 0.58627,0.33245 1.19066,0.5077 0.61042,0.17508 1.17857,0.17508 0.62258,0 0.94288,-0.18112 0.32039,-0.18112 0.32039,-0.52585 0,-0.3385 -0.22983,-0.51982 -0.22338,-0.18112 -1.07578,-0.3868 l -0.48939,-0.10907 q -1.01541,-0.22983 -1.48081,-0.71922 -0.46544,-0.48939 -0.46544,-1.3116 0,-0.97914 0.70714,-1.52311 0.70718,-0.54396 1.98851,-0.54396 0.5742,0 1.14235,0.0966 0.57416,0.0906 1.11213,0.27813 z m -12.10628,-0.21171 h 3.50554 v 5.40949 h 2.20007 v 1.3599 h -6.17705 v -1.3599 h 2.20606 v -4.04955 h -1.73462 z m 1.73462,-3.294 h 1.77092 v 2.06704 h -1.77092 z m -3.55392,3.294 -2.15169,6.76939 h -2.18191 l -2.15168,-6.76939 h 1.79508 l 1.44454,5.28255 1.45058,-5.28255 z m -10.19034,3.59023 q -0.99122,0 -1.38409,0.25357 -0.39283,0.25397 -0.39283,0.87031 0,0.45932 0.27208,0.73136 0.27209,0.27209 0.73741,0.27209 0.70114,0 1.08794,-0.52582 0.38719,-0.53189 0.38719,-1.48085 v -0.12074 z m 2.46599,-0.68299 v 3.86215 h -1.75885 v -0.75548 q -0.32038,0.44709 -0.82197,0.68899 -0.50162,0.2419 -1.10605,0.2419 -1.15442,0 -1.80115,-0.61046 -0.64069,-0.6105 -0.64069,-1.70448 0,-1.18461 0.76764,-1.74669 0.76755,-0.56816 2.3753,-0.56816 h 1.22692 v -0.29623 q 0,-0.4293 -0.31435,-0.64673 -0.3079,-0.22378 -0.91265,-0.22378 -0.63461,0 -1.23299,0.16301 -0.59227,0.15737 -1.23899,0.5077 v -1.51099 q 0.58623,-0.2419 1.19069,-0.35661 0.60438,-0.11471 1.28129,-0.11471 1.65006,0 2.31494,0.67091 0.67083,0.67091 0.67083,2.3995 z m -15.6119,-2.69565 v 1.54726 q -0.48935,-0.31435 -1.02141,-0.47156 -0.52581,-0.16301 -1.0577,-0.16301 -0.59235,0 -0.89458,0.17508 -0.30187,0.16905 -0.30187,0.50771 0,0.48323 1.29345,0.78574 l 0.0668,0.0201 0.5077,0.12074 q 0.96707,0.22983 1.41432,0.74345 0.45321,0.5077 0.45321,1.37801 0,1.04567 -0.68903,1.57149 -0.68299,0.51978 -2.061,0.51978 -0.61046,0 -1.25119,-0.10908 -0.64064,-0.10304 -1.29944,-0.31434 v -1.5473 q 0.58627,0.33245 1.19069,0.5077 0.61046,0.17508 1.17858,0.17508 0.62253,0 0.94291,-0.18112 0.32039,-0.18112 0.32039,-0.52581 0,-0.3385 -0.22982,-0.51982 -0.22339,-0.18112 -1.07587,-0.3872 l -0.48935,-0.10908 q -1.0154,-0.22982 -1.4808,-0.71925 -0.46545,-0.48935 -0.46545,-1.31156 0,-0.97914 0.70714,-1.52311 0.70714,-0.54397 1.98851,-0.54397 0.57416,0 1.14232,0.0966 0.57423,0.0906 1.11212,0.27812 z m -6.96883,2.16376 v 4.39404 h -1.75881 v -4.12204 q 0,-0.73737 -0.21131,-1.05167 -0.20567,-0.32039 -0.67695,-0.32039 -0.47768,0 -0.75552,0.42926 -0.27208,0.4293 -0.27208,1.19069 v 3.87427 h -1.75881 v -6.76939 h 1.75881 v 1.01541 q 0.18756,-0.56208 0.64069,-0.87031 0.4532,-0.30831 1.09397,-0.30831 0.96099,0 1.45058,0.64069 0.48939,0.6346 0.48939,1.89783 z m -9.6947,1.21488 q -0.99122,0 -1.38409,0.25357 -0.39243,0.25397 -0.39243,0.87031 0,0.45932 0.27208,0.73136 0.27209,0.27209 0.73737,0.27209 0.70118,0 1.08797,-0.52582 0.3868,-0.53189 0.3868,-1.48085 v -0.12074 z m 2.46598,-0.68299 v 3.86215 h -1.75885 v -0.75548 q -0.32038,0.44709 -0.82196,0.68899 -0.50163,0.2419 -1.10605,0.2419 -1.15443,0 -1.80115,-0.61046 -0.64069,-0.6105 -0.64069,-1.70448 0,-1.18461 0.76759,-1.74669 0.76759,-0.56816 2.37535,-0.56816 h 1.22691 v -0.29623 q 0,-0.4293 -0.31434,-0.64673 -0.30791,-0.22378 -0.91265,-0.22378 -0.63465,0 -1.233,0.16301 -0.59234,0.15737 -1.23907,0.5077 v -1.51099 q 0.58631,-0.2419 1.19069,-0.35661 0.60447,-0.11471 1.28138,-0.11471 1.65001,0 2.31489,0.67091 0.67087,0.67091 0.67087,2.3995 z m -8.15952,-2.69565 v 1.54726 q -0.48935,-0.31435 -1.02144,-0.47156 -0.52586,-0.16301 -1.05775,-0.16301 -0.59227,0 -0.8945,0.17508 -0.30187,0.16905 -0.30187,0.50771 0,0.48323 1.29345,0.78574 l 0.0668,0.0201 0.5077,0.12074 q 0.96703,0.22983 1.41428,0.74345 0.4532,0.5077 0.4532,1.37801 0,1.04567 -0.68902,1.57149 -0.68299,0.51978 -2.06101,0.51978 -0.61049,0 -1.25114,-0.10908 -0.64065,-0.10304 -1.29949,-0.31434 v -1.5473 q 0.58627,0.33245 1.19065,0.5077 0.61046,0.17508 1.17862,0.17508 0.62254,0 0.94292,-0.18112 0.32038,-0.18112 0.32038,-0.52581 0,-0.3385 -0.22982,-0.51982 -0.22338,-0.18112 -1.07586,-0.3872 l -0.48939,-0.10908 q -1.01541,-0.22982 -1.48077,-0.71925 -0.46544,-0.48935 -0.46544,-1.31156 0,-0.97914 0.70718,-1.52311 0.70714,-0.54397 1.98847,-0.54397 0.57424,0 1.14235,0.0966 0.57416,0.0906 1.11213,0.27812 z m -19.92734,4.19457 v -4.40616 h 1.77089 v 4.1342 q 0,0.73128 0.20567,1.04559 0.20527,0.31435 0.68299,0.31435 0.47768,0 0.74336,-0.42314 0.27209,-0.42318 0.27209,-1.1847 v -3.88634 h 1.77088 v 6.76939 h -1.77088 v -1.00333 q -0.18756,0.56216 -0.64073,0.87039 -0.44709,0.3079 -1.08186,0.3079 -0.96707,0 -1.46265,-0.64064 -0.48939,-0.64065 -0.48939,-1.89787 z m -4.69627,-3.13083 q -0.63461,0 -0.9973,0.56208 -0.36264,0.55609 -0.36264,1.55334 0,0.9973 0.36264,1.55938 0.36265,0.55608 0.9973,0.55608 0.64064,0 1.00333,-0.55608 0.36264,-0.56208 0.36264,-1.55938 0,-0.99725 -0.36264,-1.55334 -0.36265,-0.56208 -1.00333,-0.56208 z m -3.13087,2.11542 q 0,-1.63794 0.8462,-2.59289 0.8522,-0.96103 2.28467,-0.96103 1.43846,0 2.28466,0.96103 0.85224,0.95495 0.85224,2.59289 0,1.63794 -0.85224,2.59897 -0.8462,0.95496 -2.28466,0.95496 -1.43247,0 -2.28467,-0.95496 -0.8462,-0.96103 -0.8462,-2.59897 z m -11.32661,-5.31273 v 1.92198 h 2.3149 v 1.35994 h -2.3149 v 3.20339 q 0,0.45321 0.21735,0.65276 0.22338,0.1936 0.73736,0.1936 h 1.35994 v 1.3599 h -1.48684 q -1.52311,0 -2.06104,-0.48327 -0.53789,-0.48935 -0.53789,-1.80719 v -3.11875 h -1.72867 v -1.35994 h 1.72867 v -1.92198 z m -5.14956,4.29733 v 4.39404 h -1.75881 v -4.12204 q 0,-0.73737 -0.21171,-1.05167 -0.20567,-0.32039 -0.67691,-0.32039 -0.47764,0 -0.75548,0.42926 -0.27208,0.4293 -0.27208,1.19069 v 3.87427 h -1.75885 v -6.76939 h 1.75885 v 1.01541 q 0.18756,-0.56208 0.64064,-0.87031 0.45321,-0.30831 1.09398,-0.30831 0.96103,0 1.45062,0.64069 0.48935,0.6346 0.48935,1.89783 z m -7.26498,4.06162 q -0.61654,0.25398 -1.25719,0.38076 -0.64068,0.12679 -1.3539,0.12679 -1.69839,0 -2.59897,-0.90658 -0.8945,-0.91269 -0.8945,-2.62316 0,-1.65609 0.86431,-2.61708 0.86427,-0.96103 2.3572,-0.96103 1.50496,0 2.33304,0.89454 0.83405,0.8885 0.83405,2.50829 v 0.71925 h -4.58745 q 0.004,0.79782 0.47156,1.19069 0.46544,0.39324 1.39009,0.39324 0.61046,0 1.20281,-0.17509 0.59234,-0.17508 1.23907,-0.55608 z m -1.49896,-3.80777 q -0.0121,-0.7011 -0.36265,-1.05771 -0.34493,-0.36265 -1.02148,-0.36265 -0.61042,0 -0.97311,0.37472 -0.36264,0.36869 -0.42926,1.05171 z m -5.65727,-0.76156 q -0.2902,-0.26564 -0.68299,-0.39887 -0.38679,-0.13282 -0.85224,-0.13282 -0.56208,0 -0.98513,0.19964 -0.41707,0.19359 -0.64673,0.56815 -0.1453,0.22983 -0.20567,0.55605 -0.0543,0.32642 -0.0543,0.99125 v 3.11875 h -1.77092 v -6.76939 h 1.77092 v 1.05167 q 0.25961,-0.58019 0.79778,-0.89454 0.53797,-0.32038 1.25722,-0.32038 0.36265,0 0.70714,0.0906 0.35057,0.0845 0.66488,0.25397 z m -7.74849,4.56933 q -0.61654,0.25398 -1.25719,0.38076 -0.64069,0.12679 -1.3539,0.12679 -1.6984,0 -2.59897,-0.90658 -0.8945,-0.91269 -0.8945,-2.62316 0,-1.65609 0.86431,-2.61708 0.86427,-0.96103 2.35719,-0.96103 1.50496,0 2.33305,0.89454 0.83404,0.8885 0.83404,2.50829 v 0.71925 h -4.58744 q 0.004,0.79782 0.47156,1.19069 0.46544,0.39324 1.39009,0.39324 0.61046,0 1.2028,-0.17509 0.59235,-0.17508 1.23908,-0.55608 z m -1.49897,-3.80777 q -0.0121,-0.7011 -0.36264,-1.05771 -0.34494,-0.36265 -1.02149,-0.36265 -0.61046,0 -0.9731,0.37472 -0.36265,0.36869 -0.42926,1.05171 z m -0.38075,-5.75999 h 1.70439 l -2.22421,2.27251 h -1.19069 z m -7.76669,2.53852 v 0.59227 h 2.07919 v 1.35994 h -2.07919 v 5.40945 h -1.77089 v -5.40945 h -1.64401 v -1.35994 h 1.64401 v -0.47156 q 0,-1.22088 0.50771,-1.69232 0.5077,-0.47156 1.88571,-0.47156 h 1.45666 v 1.35998 h -1.38409 q -0.39887,0 -0.54397,0.1453 -0.13885,0.1449 -0.15133,0.53789 z m -7.45234,0 v 0.59227 h 2.07915 v 1.35994 h -2.07915 v 5.40945 h -1.77093 v -5.40945 h -1.64402 v -1.35994 h 1.64402 v -0.47156 q 0,-1.22088 0.50771,-1.69232 0.5077,-0.47156 1.88575,-0.47156 h 1.45662 v 1.35998 h -1.38409 q -0.39887,0 -0.54397,0.1453 -0.13886,0.1449 -0.15133,0.53789 z m -10.58325,0.59227 h 3.50563 v 5.40949 h 2.20002 v 1.3599 h -6.17701 v -1.3599 h 2.20606 v -4.04955 h -1.7347 z m 1.7347,-3.294 h 1.77093 v 2.06704 h -1.77093 z m -5.74187,4.25503 v -3.59623 h 1.76485 v 9.40459 h -1.76485 v -1.00333 q -0.28416,0.58627 -0.7374,0.88246 -0.44713,0.29624 -1.05775,0.29624 -1.16043,0 -1.80108,-0.93077 -0.64068,-0.9308 -0.64068,-2.62316 0,-1.71651 0.64668,-2.63519 0.6528,-0.91873 1.85553,-0.91873 0.54401,0 0.97315,0.28416 0.43489,0.27812 0.76155,0.84012 z m -2.46599,2.4418 q 0,0.97914 0.32642,1.53522 0.32642,0.55605 0.90058,0.55605 0.57419,0 0.90661,-0.55605 0.33246,-0.55608 0.33246,-1.53522 0,-0.97915 -0.33246,-1.53519 -0.33246,-0.55608 -0.90661,-0.55608 -0.57424,0 -0.90058,0.55608 -0.32642,0.55604 -0.32642,1.53519 z m -3.29407,-1.02748 v 4.39404 h -1.75881 v -4.12204 q 0,-0.73737 -0.21131,-1.05167 -0.20567,-0.32039 -0.67691,-0.32039 -0.47768,0 -0.75552,0.42926 -0.27208,0.4293 -0.27208,1.19069 v 3.87427 h -1.75889 v -6.76939 h 1.75889 v 1.01541 q 0.18756,-0.56208 0.64068,-0.87031 0.45321,-0.30831 1.09398,-0.30831 0.96103,0 1.45054,0.64069 0.48935,0.6346 0.48935,1.89783 z m -12.88599,-3.05826 v -1.57149 h 5.37319 v 1.57149 h -1.79507 v 5.88085 h 1.79507 v 1.57145 h -5.37319 v -1.57145 h 1.79512 v -5.88085 z" /><path
     id="path700"
     d="m 884.87733,241.58874 3.24897,-1.95132 0.95763,1.59446 -8.4965,5.10293 -0.95761,-1.59446 0.90644,-0.5444 q -0.68381,0.0615 -1.19733,-0.18738 -0.51025,-0.24336 -0.84148,-0.79488 -0.62967,-1.04841 -0.13638,-2.13226 0.49329,-1.08386 2.02221,-2.00212 1.55077,-0.93139 2.73168,-0.84561 1.18417,0.0913 1.8368,1.17787 0.29516,0.49144 0.27136,1.03327 -0.015,0.54403 -0.34574,1.1439 z m -3.54408,-0.90296 q -0.88458,0.53128 -1.20986,1.12786 -0.32527,0.59658 -0.0137,1.11533 0.31156,0.51873 0.9943,0.51734 0.68274,-0.001 1.56733,-0.53268 0.8846,-0.53129 1.2066,-1.13333 0.32197,-0.60204 0.0104,-1.12078 -0.31155,-0.51874 -0.99102,-0.51188 -0.67946,0.007 -1.56404,0.53813 z m -0.18922,-3.43951 q 0.0763,-0.40769 -0.0237,-0.83321 -0.0966,-0.42012 -0.35587,-0.83642 -0.31319,-0.50281 -0.72732,-0.77015 -0.40537,-0.26531 -0.86851,-0.2621 -0.28626,-0.002 -0.61191,0.126 -0.32227,0.13318 -0.917,0.50361 l -2.78982,1.73765 -0.98669,-1.58414 6.05544,-3.77163 0.98668,1.58414 -0.94076,0.58594 q 0.66385,-0.0908 1.24471,0.21529 0.58627,0.30266 0.98699,0.9461 0.20206,0.32438 0.3129,0.68309 0.11965,0.36073 0.14335,0.73616 z m -5.52842,-9.93512 q -0.3627,-0.56192 -1.06766,-0.56174 -0.69961,-0.003 -1.58261,0.56667 -0.88301,0.56997 -1.17345,1.21232 -0.28513,0.63888 0.0776,1.20082 0.36617,0.56726 1.06578,0.57053 0.70496,-1.6e-4 1.58797,-0.57013 0.88301,-0.56996 1.16809,-1.20886 0.29047,-0.64233 -0.0757,-1.20962 z m -3.6624,-1.5631 q 1.45028,-0.93614 2.77944,-0.7327 1.33796,0.20533 2.15665,1.47364 0.82214,1.27368 0.45485,2.57214 -0.35847,1.30038 -1.80876,2.2365 -1.45027,0.93614 -2.78824,0.73081 -1.32915,-0.20345 -2.1513,-1.4771 -0.81868,-1.26833 -0.4602,-2.56869 0.36724,-1.29848 1.81756,-2.2346 z m -3.63637,0.2952 q -0.48965,-0.23966 -0.90176,-0.61539 -0.41741,-0.37222 -0.76433,-0.89116 -0.91686,-1.37147 -0.60765,-2.69683 0.30921,-1.32536 1.77072,-2.30241 1.4668,-0.98058 2.81325,-0.75442 1.35174,0.22263 2.26861,1.59409 0.31861,0.47657 0.50124,0.99043 0.18613,0.51914 0.24698,1.11441 l -1.41913,0.94874 q 0.0647,-0.53361 -0.0544,-1.04401 -0.11017,-0.50863 -0.40047,-0.94286 -0.50621,-0.75722 -1.26068,-0.8428 -0.75445,-0.0856 -1.64406,0.50913 -0.88961,0.59473 -1.09361,1.32108 -0.20394,0.72635 0.30224,1.48356 0.3009,0.45008 0.71113,0.74283 0.41553,0.2892 0.9563,0.43335 z m -4.38507,-6.52752 q -0.49344,-0.23176 -0.91152,-0.60084 -0.42332,-0.36547 -0.77854,-0.87877 -0.93876,-1.35658 -0.65086,-2.68673 0.2879,-1.33015 1.73353,-2.33054 1.45086,-1.00402 2.80077,-0.7995 1.35515,0.20088 2.29392,1.55748 0.32621,0.47138 0.51706,0.98224 0.19446,0.51609 0.26485,1.11031 l -1.40373,0.9714 q 0.0561,-0.53458 -0.0711,-1.043 -0.11831,-0.5068 -0.41555,-0.9363 -0.51832,-0.74901 -1.27404,-0.82249 -0.75574,-0.0735 -1.63568,0.53547 -0.87994,0.60892 -1.07226,1.33845 -0.19233,0.72951 0.32601,1.47852 0.30809,0.44522 0.72297,0.73132 0.42012,0.28249 0.96313,0.41794 z m -3.39593,-10.06045 q -0.60818,-0.84932 -1.06673,-1.03019 -0.45861,-0.18072 -0.98679,0.19739 -0.39357,0.28183 -0.45975,0.68177 -0.0661,0.39992 0.21938,0.79869 0.43017,0.60073 1.11807,0.60953 0.69306,0.005 1.50613,-0.57712 l 0.10356,-0.0741 z m 2.09823,1.69389 -3.30923,2.36967 -1.07915,-1.50703 0.64735,-0.46354 q -0.57978,-5e-5 -1.0947,-0.28162 -0.51494,-0.28154 -0.88579,-0.79938 -0.70831,-0.98914 -0.58206,-1.91782 0.12998,-0.9235 1.06733,-1.59472 1.01504,-0.72685 1.96763,-0.41403 0.95778,0.30909 1.94421,1.68668 l 0.75281,1.05128 0.25375,-0.18172 q 0.36769,-0.26329 0.36128,-0.66609 0.002,-0.40132 -0.36835,-0.91921 -0.38938,-0.54376 -0.89634,-0.95635 -0.49807,-0.41111 -1.19525,-0.75013 l 1.29469,-0.9271 q 0.56687,0.35402 1.03611,0.80141 0.46923,0.44744 0.88458,1.02744 1.01239,1.41381 0.84547,2.39511 -0.1632,0.98648 -1.64433,2.04709 z m -1.63528,-11.53831 -2.84062,2.10429 -0.97063,-1.31026 2.84062,-2.1043 z m -7.35803,-6.94583 -4.85896,3.72284 0.30991,0.40449 q 0.67407,0.87978 1.51185,0.83166 0.84285,-0.0519 2.17263,-1.07081 1.31965,-1.0111 1.5841,-1.80751 0.26426,-0.79648 -0.40961,-1.67618 z m 0.20214,-2.52202 1.22415,1.59773 q 1.41787,1.85056 1.15673,3.34254 -0.25608,1.48809 -2.2583,3.02217 -2.0073,1.53795 -3.52088,1.40571 -1.50852,-0.13612 -2.92638,-1.98665 l -1.22416,-1.59775 z"
     style="font-weight:bold;font-size:3.24105px;line-height:1;font-family:monospace;-inkscape-font-specification:'monospace Bold';text-align:center;letter-spacing:0px;text-anchor:middle;white-space:pre;display:inline;fill:#ffffff;stroke-width:4.02492;stroke-linecap:round" /><path
     id="path814"
     style="font-weight:bold;font-size:3.24106px;line-height:1;font-family:monospace;-inkscape-font-specification:'monospace Bold';text-align:center;letter-spacing:0px;text-anchor:middle;white-space:pre;display:inline;fill:#ffffff;stroke-width:4.02492;stroke-linecap:round"
     d="m 146.20983,167.20818 -2.86683,-2.47888 1.21651,-1.40692 7.49715,6.48256 -1.21653,1.40692 -0.79982,-0.69159 q 0.27157,0.63058 0.19517,1.1961 -0.0722,0.56069 -0.49298,1.04733 -0.79991,0.92511 -1.98353,0.79424 -1.18362,-0.13086 -2.53271,-1.29739 -1.36838,-1.18319 -1.65497,-2.33201 -0.28239,-1.15366 0.54664,-2.11246 0.37491,-0.43376 0.89722,-0.57991 0.52211,-0.15367 1.19468,-0.0279 z m 0.24676,3.64895 q 0.78055,0.67493 1.44881,0.79803 0.66831,0.12331 1.06396,-0.33483 0.39579,-0.45772 0.18166,-1.10602 -0.21394,-0.64835 -0.99468,-1.32318 -0.78056,-0.67493 -1.45297,-0.79321 -0.67239,-0.1182 -1.0682,0.33944 -0.3958,0.45773 -0.17749,1.1012 0.21816,0.6435 0.99885,1.31838 z m -3.20961,1.25252 q -0.41117,0.0546 -0.78389,0.28358 -0.36904,0.22277 -0.68377,0.5989 -0.38008,0.45441 -0.50498,0.93122 -0.12566,0.46787 0.0219,0.90691 0.0875,0.27246 0.31051,0.54214 0.22705,0.26475 0.76441,0.71425 l 2.5209,2.10897 -1.19754,1.43142 -5.47168,-4.57758 1.19752,-1.43145 0.85006,0.71116 q -0.29324,-0.60243 -0.18354,-1.24974 0.10482,-0.65142 0.5912,-1.2328 0.24521,-0.29316 0.55147,-0.5103 0.30546,-0.22617 0.65477,-0.36577 z m -7.71465,8.34936 q -0.42078,0.51976 -0.20073,1.18961 0.21526,0.66568 1.03204,1.32696 0.81694,0.66118 1.51784,0.7368 0.69589,0.0714 1.11666,-0.44839 0.42478,-0.52483 0.20969,-1.19057 -0.21973,-0.66983 -1.03696,-1.33092 -0.81695,-0.66121 -1.51289,-0.73279 -0.70094,-0.0757 -1.12572,0.44907 z m -0.34282,3.96726 q -1.34178,-1.08598 -1.56305,-2.41229 -0.22223,-1.33524 0.7275,-2.50867 0.95371,-1.17841 2.30197,-1.23443 1.34737,-0.0648 2.68908,1.02098 1.34178,1.08598 1.564,2.42124 0.22128,1.3263 -0.73245,2.50472 -0.94971,1.17341 -2.29702,1.23838 -1.34821,0.0562 -2.69003,-1.02993 z m 1.41351,3.36458 q -0.0749,0.53994 -0.30333,1.04872 -0.22341,0.51272 -0.60821,1.00424 -1.01697,1.29898 -2.37266,1.41869 -1.35565,0.1198 -2.73994,-0.96399 -1.38927,-1.08762 -1.59449,-2.43746 -0.21022,-1.35374 0.80675,-2.65272 0.35339,-0.45139 0.78461,-0.78523 0.43513,-0.33888 0.98173,-0.58233 l 1.34414,1.05227 q -0.52717,0.10501 -0.97492,0.3774 -0.44887,0.26343 -0.77086,0.67465 -0.56149,0.71722 -0.40743,1.4607 0.1541,0.74351 0.99666,1.40319 0.8426,0.65964 1.59633,0.62684 0.75374,-0.0328 1.31528,-0.74987 0.3338,-0.42615 0.48388,-0.90739 0.14513,-0.48501 0.11335,-1.04378 z m -4.83181,6.20064 q -0.0661,0.54113 -0.28636,1.0535 -0.21509,0.51623 -0.59191,1.01392 -0.99587,1.31523 -2.34944,1.45684 -1.35359,0.14152 -2.75516,-0.91967 -1.40665,-1.06506 -1.63362,-2.41138 -0.23205,-1.35016 0.76382,-2.66539 0.34604,-0.45709 0.77182,-0.79781 0.42958,-0.34598 0.97216,-0.59829 l 1.36095,1.03049 q -0.52543,0.11337 -0.96868,0.39315 -0.44459,0.27051 -0.75986,0.68699 -0.54985,0.72618 -0.3838,1.4671 0.16608,0.74092 1.01919,1.38689 0.85313,0.64598 1.60623,0.601 0.75315,-0.0448 1.30291,-0.77128 0.32686,-0.43153 0.46918,-0.91506 0.13726,-0.4873 0.0965,-1.04548 z m -8.49815,6.36604 q -0.61711,0.84288 -0.64584,1.33495 -0.0287,0.49212 0.49548,0.87594 0.39063,0.28614 0.79119,0.22402 0.40064,-0.0617 0.6903,-0.45779 0.43649,-0.59616 0.23019,-1.25244 -0.21138,-0.66007 -1.01834,-1.25084 l -0.10284,-0.0754 z m 0.95447,-2.52206 3.28407,2.40444 -1.09497,1.49559 -0.64243,-0.47038 q 0.18078,0.55087 0.0741,1.12792 -0.10675,0.5771 -0.48302,1.09103 -0.7187,0.98162 -1.6404,1.1515 -0.91788,0.1649 -1.84817,-0.51635 -1.00732,-0.7375 -1.00741,-1.74016 -0.005,-1.0064 0.99569,-2.3735 l 0.76386,-1.04327 -0.25179,-0.18421 q -0.36494,-0.26728 -0.74561,-0.13543 -0.38207,0.1228 -0.7584,0.63664 -0.39515,0.53947 -0.62885,1.15004 -0.23514,0.60149 -0.33967,1.36966 l -1.28485,-0.94072 q 0.15943,-0.64905 0.43804,-1.23449 0.27864,-0.58544 0.70008,-1.16103 1.02725,-1.40305 2.01164,-1.55071 0.98819,-0.15266 2.45801,0.92336 z m -7.41917,5.36793 1.33098,0.94204 q -0.56844,0.22972 -1.02737,0.5918 -0.46054,0.3529 -0.78435,0.8105 -0.36064,0.50946 -0.39383,0.87619 -0.0384,0.36286 0.25269,0.56906 0.41596,0.29441 1.46345,-0.63402 l 0.0557,-0.0473 0.41309,-0.36311 q 0.78634,-0.69205 1.50053,-0.76412 0.71269,-0.0809 1.46139,0.44903 0.89945,0.63661 0.93227,1.54946 0.0313,0.904 -0.80769,2.08937 -0.37163,0.52522 -0.8553,1.01002 -0.47841,0.48869 -1.06153,0.92644 l -1.33098,-0.94204 q 0.64286,-0.30203 1.16161,-0.71526 0.52249,-0.41825 0.86834,-0.90713 0.37899,-0.53559 0.41808,-0.92148 0.0391,-0.38588 -0.25729,-0.59567 -0.29111,-0.20591 -0.58694,-0.11882 -0.2926,0.0805 -0.98778,0.68986 l -0.39132,0.35594 q -0.81578,0.73361 -1.52026,0.83588 -0.70444,0.10238 -1.41157,-0.3982 -0.84225,-0.59613 -0.87963,-1.53561 -0.0374,-0.9395 0.74275,-2.04169 0.34953,-0.49409 0.77865,-0.92379 0.42758,-0.4387 0.91626,-0.78734 z m 1.2349,9.63473 q -0.14594,0.68729 -0.41668,1.3201 -0.27072,0.63285 -0.69501,1.25325 -1.0104,1.4774 -2.3348,1.72144 -1.32614,0.235 -2.814,-0.78238 -1.4406,-0.98522 -1.7624,-2.3088 -0.32182,-1.32354 0.56635,-2.62221 0.89533,-1.30914 2.16607,-1.4973 1.2691,-0.19697 2.67814,0.76666 l 0.62568,0.4279 -2.72914,3.99058 q 0.69762,0.46936 1.31623,0.29822 0.61841,-0.17176 1.16877,-0.97552 0.36317,-0.53097 0.56307,-1.15055 0.19988,-0.61952 0.25339,-1.40866 z m -4.20407,-0.96138 q -0.61709,-0.4066 -1.13584,-0.31379 -0.52044,0.0839 -0.92318,0.67266 -0.36318,0.53097 -0.25293,1.06942 0.10502,0.53479 0.65954,0.99892 z m -5.23711,-3.09546 1.01399,-1.48267 0.65369,3.28682 -0.70835,1.03572 z m -0.89229,9.02557 -3.16246,-2.08868 1.02503,-1.55197 8.27021,5.46209 -1.02502,1.552 -0.88229,-0.58273 q 0.35056,0.59033 0.34758,1.16097 6.9e-4,0.56533 -0.35386,1.10217 -0.67399,1.02047 -1.8646,1.04328 -1.19061,0.0228 -2.67883,-0.96008 -1.50947,-0.99694 -1.94176,-2.09924 -0.42871,-1.10762 0.2698,-2.1653 0.31593,-0.47833 0.81497,-0.69073 0.49717,-0.22139 1.18114,-0.18162 z m 0.71506,3.58671 q 0.86103,0.56868 1.53958,0.60461 0.67855,0.036 1.01201,-0.46904 0.33345,-0.50504 0.0376,-1.12018 -0.29588,-0.61533 -1.15695,-1.18396 -0.86104,-0.56868 -1.5431,-0.59931 -0.68206,-0.0306 -1.01551,0.47439 -0.33345,0.50502 -0.0341,1.11488 0.29942,0.60997 1.16046,1.17865 z m -7.09061,9.06685 3.9448,2.42535 -0.97081,1.579 -3.70062,-2.27522 q -0.66198,-0.40699 -1.06089,-0.39055 -0.40098,0.008 -0.66127,0.43079 -0.26353,0.42868 -0.0318,0.91514 0.23514,0.48103 0.91882,0.90136 l 3.47813,2.13843 -0.9708,1.579 -6.07724,-3.7364 0.9708,-1.579 0.91157,0.56043 q -0.4012,-0.47842 -0.42775,-1.05554 -0.0265,-0.57707 0.32709,-1.15228 0.53044,-0.86273 1.37584,-0.94861 0.83991,-0.0894 1.97402,0.608 z m -0.067,8.97715 -3.01996,5.09616 -8.181245,-4.84817 3.019948,-5.09616 1.424737,0.84432 -2.062012,3.4796 1.76447,1.04563 1.867182,-3.15085 1.42472,0.84428 -1.867156,3.15088 2.142566,1.26967 2.06201,-3.47964 z" /></svg>
