<?xml version="1.0" encoding="UTF-8" standalone="no"?>
<!-- Created with Inkscape (http://www.inkscape.org/) -->

<svg
   version="1.1"
   id="svg1"
   xml:space="preserve"
   width="980"
   height="735"
   sodipodi:docname="spectrum_en_3.svg"
   inkscape:version="1.2.2 (b0a8486541, 2022-12-01)"
   xmlns:inkscape="http://www.inkscape.org/namespaces/inkscape"
   xmlns:sodipodi="http://sodipodi.sourceforge.net/DTD/sodipodi-0.dtd"
   xmlns="http://www.w3.org/2000/svg"
   xmlns:svg="http://www.w3.org/2000/svg"><defs
     id="defs1"><rect
       x="206.85938"
       y="352.59766"
       width="546.30859"
       height="120.02734"
       id="rect690" /><rect
       x="206.85938"
       y="352.59766"
       width="546.30859"
       height="120.02734"
       id="rect696" /></defs><sodipodi:namedview
     id="namedview1"
     pagecolor="#ffffff"
     bordercolor="#000000"
     borderopacity="0.25"
     inkscape:showpageshadow="2"
     inkscape:pageopacity="0"
     inkscape:pagecheckerboard="0"
     inkscape:deskcolor="#d1d1d1"
     showgrid="false"
     inkscape:zoom="1.6277392"
     inkscape:cx="452.77523"
     inkscape:cy="324.37628"
     inkscape:window-width="2880"
     inkscape:window-height="1676"
     inkscape:window-x="0"
     inkscape:window-y="0"
     inkscape:window-maximized="1"
     inkscape:current-layer="svg1"
     inkscape:pageshadow="2"
     showguides="false" /><inkscape:clipboard
     min="38.679246,51.71354"
     max="761.89587,740.75465"
     geom-min="40.288131,53.322266"
     geom-max="760.28712,740.75465" /><path
     id="disagree"
     style="display:inline;fill:#000000;stroke:#ffffff;stroke-width:4.33496;stroke-opacity:1"
     d="M 179.70898 111.98047 A 485.04223 485.04223 0 0 0 46.21875 288.81836 C 17.839108 348.01935 2.3184264 432.95337 6.2578125 507.93555 L 192.13477 508.25781 C 186.72226 460.88024 193.66933 418.3267 209.75 368.22656 A 299.53094 299.53094 0 0 1 290.42969 251.17383 L 179.70898 111.98047 z " /><path
     id="slightlyDisagree"
     style="display:inline;fill:#000000;stroke:#ffffff;stroke-width:4.33496;stroke-opacity:1"
     d="M 484.27344 2.1972656 C 451.90207 2.586943 418.40496 5.9767704 381.51367 12.304688 A 485.04223 485.04223 0 0 0 179.70898 111.98047 L 290.41797 251.1582 A 299.53094 299.53094 0 0 1 420.39062 183.41602 L 420.39062 183.41797 C 467.67425 172.38742 518.68191 173.03041 569.34961 186.14453 L 569.35547 186.11719 C 594.13655 192.98177 617.82821 202.98009 639.88477 215.79688 C 661.35549 228.27325 681.27718 243.42056 699.14648 260.94922 L 757.25195 188.41992 L 810.64453 121.77539 C 784.34673 98.678532 755.7219 78.578626 725.30664 61.757812 C 688.62299 41.470334 649.33441 25.953252 608.38477 15.699219 C 565.65439 6.1549717 525.89377 1.6962518 484.27344 2.1972656 z " /><path
     id="agree"
     style="display:inline;fill:#000000;stroke:#ffffff;stroke-width:4.33496;stroke-opacity:1"
     d="M 810.64453 121.77539 L 754.39062 191.99219 L 699.14648 260.94922 C 714.64382 276.10999 728.39704 292.85764 740.20312 310.87109 C 753.52161 331.19212 764.36232 353.12405 772.43359 376.21094 L 772.36523 376.24414 C 778.58423 394.38005 783.41893 415.60788 786.19141 437.69336 C 789.18001 461.50038 789.77265 486.30387 787.11914 509.29883 L 891.9707 509.48047 L 972.9375 509.62109 C 976.43481 473.26145 973.20968 431.83001 965.63672 392.7168 C 958.78831 357.34575 948.38422 323.87 936.18359 297.75391 L 936.18164 297.75391 C 923.33144 266.92466 907.3731 237.60436 888.61328 210.22266 C 866.38651 177.78065 840.22697 148.06002 810.64453 121.77539 z " /><path
     style="display:inline;fill:#cccccc;stroke:none;stroke-width:2.96414;stroke-opacity:1"
     d="m 490.3123,376.06525 c -39.40349,0.0201 -74.83213,17.28019 -99.07942,44.69453 -20.13764,22.76785 -32.56291,52.54022 -33.14781,85.25997 H 622.6002 C 622.01236,473.1343 609.46415,443.22709 589.14728,420.41593 564.8952,393.1865 529.57366,376.06831 490.3123,376.06525 Z"
     id="indifferent"
     sodipodi:nodetypes="csccsc" /><path
     style="display:inline;fill:#cccccc;stroke:none;stroke-width:2.96414;stroke-opacity:1"
     d="m 490.3123,642.18192 c -40.5289,-0.0201 -76.85264,-18.28014 -101.12947,-47.06814 -18.92823,-22.44553 -30.53308,-51.2921 -31.09776,-82.88676 H 622.6002 c -0.58784,32.89153 -13.14048,62.80373 -33.46387,85.6165 -24.25176,27.22227 -59.56858,44.33534 -98.82403,44.3384 z"
     id="notReplied"
     sodipodi:nodetypes="csccsc" /><g
     aria-label="Disagree"
     transform="matrix(-0.83963395,-1.1808227,1.1808227,-0.83963395,549.0176,1477.6251)"
     id="text652"
     style="font-weight:bold;font-size:13.3333px;line-height:1;font-family:Ubuntu;-inkscape-font-specification:'Ubuntu Bold';text-align:center;letter-spacing:0px;text-anchor:middle;white-space:pre;display:inline;fill:#666766;stroke:#666766;stroke-width:0.5;stop-color:#000000"><path
       d="m 841.17264,169.19573 -4.90302,3.8864 0.32353,0.40816 q 0.70367,0.88775 1.55905,0.82449 0.86049,-0.0673 2.20232,-1.13091 1.33162,-1.05551 1.58847,-1.87387 0.25686,-0.81836 -0.44682,-1.70611 z m 0.16412,-2.58082 1.27794,1.61223 q 1.48015,1.86733 1.2384,3.39648 -0.23665,1.5251 -2.25704,3.12657 -2.0255,1.60551 -3.57455,1.49585 -1.54395,-0.1137 -3.0241,-1.98104 l -1.27794,-1.61223 z"
       style="font-family:monospace;-inkscape-font-specification:'monospace Bold';fill:#ffffff;stroke:none"
       id="path1136" /><path
       d="m 844.82704,174.97654 2.28557,3.00576 -4.6382,3.52687 1.4344,1.88637 -1.16603,0.88664 -4.02733,-5.29635 1.16603,-0.88665 1.43833,1.89156 3.47217,-2.64023 -1.13096,-1.48733 z m 3.95534,-0.66032 1.15461,1.51843 -1.77236,1.3477 -1.15461,-1.51843 z"
       style="font-family:monospace;-inkscape-font-specification:'monospace Bold';fill:#ffffff;stroke:none"
       id="path1138" /><path
       d="m 852.51966,185.68642 -1.3467,0.98191 q -0.0371,-0.62556 -0.23789,-1.18821 -0.19166,-0.56123 -0.52919,-1.02416 -0.37588,-0.51554 -0.72022,-0.66734 -0.33907,-0.15563 -0.63367,0.0592 -0.42084,0.30685 0.13694,1.62439 l 0.0264,0.0694 0.21697,0.5186 q 0.41379,0.98745 0.25048,1.70275 -0.15422,0.71673 -0.91175,1.26906 -0.91008,0.66355 -1.805,0.39754 -0.88583,-0.26459 -1.76034,-1.464 -0.3874,-0.53132 -0.69928,-1.15798 -0.31714,-0.62283 -0.55109,-1.33048 l 1.34671,-0.9819 q 0.0827,0.72123 0.31371,1.35852 0.23484,0.64255 0.59538,1.13704 0.39507,0.54184 0.75617,0.70559 0.3611,0.16374 0.66095,-0.0549 0.2946,-0.21479 0.30666,-0.52976 0.0159,-0.30971 -0.34605,-1.18186 l -0.21599,-0.49514 q -0.44448,-1.02953 -0.31371,-1.74528 0.13077,-0.71575 0.84621,-1.23738 0.85221,-0.62136 1.77443,-0.35108 0.92221,0.27029 1.73535,1.38553 0.36438,0.49976 0.64076,1.05562 0.28547,0.55729 0.46375,1.14438 z"
       style="font-family:monospace;-inkscape-font-specification:'monospace Bold';fill:#ffffff;stroke:none"
       id="path1140" /><path
       d="m 853.15769,192.89552 q -0.61155,-0.87522 -1.07808,-1.06548 -0.46652,-0.19027 -1.01086,0.19009 -0.40559,0.2834 -0.47793,0.69135 -0.0724,0.40796 0.21478,0.81888 0.43256,0.61905 1.13551,0.63618 0.70828,0.0134 1.54614,-0.57205 l 0.10673,-0.0746 z m 2.12447,1.75598 -3.41013,2.38282 -1.08514,-1.55297 0.66709,-0.46612 q -0.59255,-0.007 -1.11553,-0.30069 -0.52297,-0.29378 -0.89587,-0.82745 -0.71223,-1.0193 -0.57223,-1.96695 0.14373,-0.94231 1.10967,-1.61726 1.04599,-0.73088 2.01588,-0.39992 0.97522,0.32723 1.96713,1.74679 l 0.75699,1.08334 0.26149,-0.18272 q 0.37891,-0.26476 0.37712,-0.67651 0.007,-0.41014 -0.36562,-0.94381 -0.39154,-0.56035 -0.9048,-0.98799 -0.5042,-0.42604 -1.21272,-0.78079 l 1.33416,-0.93224 q 0.57518,0.3685 1.04948,0.83131 0.47429,0.46282 0.89194,1.06053 1.01801,1.45691 0.83583,2.45786 -0.17846,1.00628 -1.70474,2.07277 z"
       style="font-family:monospace;-inkscape-font-specification:'monospace Bold';fill:#ffffff;stroke:none"
       id="path1142" /><path
       d="m 858.37343,199.95377 q 0.81158,-0.54314 1.09214,-1.17742 0.28597,-0.63791 -0.0508,-1.14109 -0.33313,-0.49778 -1.02647,-0.4803 -0.68972,0.0229 -1.50672,0.56965 -0.82241,0.55038 -1.10659,1.17925 -0.28056,0.63429 0.0526,1.13206 0.33674,0.50319 1.03009,0.48571 0.69875,-0.0211 1.51575,-0.56786 z m -1.6119,3.37403 q -1.45544,0.97402 -2.54105,0.74482 -1.0874,-0.22017 -2.07591,-1.69726 -0.33313,-0.49777 -0.58326,-1.03541 -0.25554,-0.53403 -0.44079,-1.13859 l 1.45544,-0.97403 q 0.0516,0.61564 0.24402,1.16061 0.19236,0.54497 0.52186,1.03733 0.449,0.67091 0.98186,0.7765 0.52744,0.10921 1.19835,-0.33978 l 0.65468,-0.43813 q -0.58854,0.057 -1.05664,-0.18592 -0.4681,-0.24293 -0.83743,-0.79481 -0.69521,-1.03883 -0.29279,-2.19336 0.40242,-1.15454 1.79294,-2.08511 1.43921,-0.96316 2.69242,-0.91663 1.25321,0.0465 1.94119,1.07454 0.34761,0.51941 0.3757,1.08815 0.0281,0.56873 -0.25988,1.0983 l 0.77372,-0.51779 1.06092,1.5853 z"
       style="font-family:monospace;-inkscape-font-specification:'monospace Bold';fill:#ffffff;stroke:none"
       id="path1144" /><path
       d="m 865.29096,207.83585 q 0.0727,-0.41765 -0.035,-0.85125 -0.10411,-0.42812 -0.37449,-0.85026 -0.32655,-0.50985 -0.75327,-0.77774 -0.41771,-0.26592 -0.89105,-0.25654 -0.2926,0.002 -0.62376,0.13664 -0.32764,0.14028 -0.9307,0.52653 l -2.82887,1.81185 -1.02882,-1.60631 6.14018,-3.93272 1.02883,1.60632 -0.95392,0.61097 q 0.67729,-0.10135 1.27488,0.20399 0.60307,0.30182 1.02092,0.95422 0.21068,0.32894 0.32859,0.6941 0.12691,0.36713 0.156,0.75053 z"
       style="font-family:monospace;-inkscape-font-specification:'monospace Bold';fill:#ffffff;stroke:none"
       id="path1146" /><path
       d="m 865.18541,217.06444 q -0.58001,-0.42348 -1.05703,-0.94057 -0.47703,-0.51709 -0.87827,-1.17221 -0.95549,-1.56006 -0.62936,-2.89734 0.33508,-1.33512 1.90625,-2.29742 1.52121,-0.93169 2.8902,-0.67843 1.36899,0.25326 2.20887,1.62457 0.84669,1.38241 0.49086,2.64626 -0.34688,1.26601 -1.83477,2.1773 l -0.66067,0.40464 -2.58086,-4.21386 q -0.72944,0.4544 -0.82848,1.10291 -0.099,0.64852 0.4212,1.49795 0.34344,0.56074 0.83767,1.00621 0.49424,0.44547 1.20784,0.8253 z m 2.65439,-3.51907 q 0.63721,-0.40555 0.76755,-0.92817 0.13929,-0.52048 -0.24155,-1.14229 -0.34343,-0.56073 -0.89166,-0.68302 -0.54269,-0.12569 -1.20745,0.19747 z"
       style="font-family:monospace;-inkscape-font-specification:'monospace Bold';fill:#ffffff;stroke:none"
       id="path1148" /><path
       d="m 869.25794,223.9904 q -0.57137,-0.43505 -1.0379,-0.96164 -0.46652,-0.52658 -0.8545,-1.18964 -0.92391,-1.57898 -0.57094,-2.90942 0.36188,-1.32811 1.9521,-2.2586 1.53964,-0.90089 2.90326,-0.62014 1.36362,0.28076 2.17574,1.66869 0.8187,1.39916 0.43751,2.6556 -0.37228,1.25877 -1.87821,2.13994 l -0.66868,0.39126 -2.49554,-4.26493 q -0.73844,0.43963 -0.85051,1.08602 -0.11208,0.64639 0.39098,1.50612 0.33208,0.56753 0.81725,1.02286 0.48517,0.45532 1.19099,0.84943 z m 2.72465,-3.46494 q 0.64525,-0.39264 0.78608,-0.91254 0.14973,-0.51757 -0.21852,-1.14691 -0.33208,-0.56754 -0.87774,-0.70083 -0.54004,-0.13659 -1.21117,0.17314 z"
       style="font-family:monospace;-inkscape-font-specification:'monospace Bold';fill:#ffffff;stroke:none"
       id="path1150" /></g><g
     aria-label="Agree"
     transform="matrix(-0.84718282,1.3283339,-1.3283339,-0.84718282,1304.8062,328.92419)"
     id="text668"
     style="font-weight:bold;font-size:13.3333px;line-height:1;font-family:Ubuntu;-inkscape-font-specification:'Ubuntu Bold';text-align:center;letter-spacing:0px;text-anchor:middle;white-space:pre;display:inline;fill:#666766;stroke:#666766;stroke-width:0.5;stop-color:#000000"><path
       d="m 105.30558,230.09579 2.97383,2.79259 0.91871,-1.56694 z m -2.10911,0.12186 1.18872,-2.02747 9.71211,2.65286 -0.97139,1.6568 -2.37535,-0.69836 -1.30067,2.21842 1.77604,1.72053 -0.97139,1.6568 z"
       style="font-family:monospace;-inkscape-font-specification:'monospace Bold';fill:#ffffff;stroke:none"
       id="path1050" /><path
       d="m 113.73323,224.23348 q -0.83233,-0.51077 -1.52583,-0.50095 -0.69904,0.006 -1.01572,0.52246 -0.31328,0.5105 -0.008,1.13325 0.30871,0.6172 1.14659,1.13138 0.84343,0.51759 1.53352,0.51332 0.69349,-0.01 1.00677,-0.52032 0.31668,-0.51605 0.0114,-1.1388 -0.31086,-0.62616 -1.14874,-1.14034 z m 3.73886,0.0563 q 1.49265,0.91599 1.73754,1.99817 0.25384,1.08004 -0.67577,2.59488 -0.31327,0.5105 -0.69742,0.96223 -0.3786,0.45513 -0.85065,0.87583 l -1.49265,-0.91599 q 0.53787,-0.30392 0.95279,-0.70621 0.41492,-0.40229 0.72479,-0.90724 0.42224,-0.68806 0.29576,-1.21635 -0.12093,-0.52488 -0.80899,-0.94712 l -0.67141,-0.41203 q 0.29749,0.51102 0.27213,1.03779 -0.0254,0.52677 -0.37269,1.09276 -0.65379,1.06538 -1.87091,1.18163 -1.21712,0.11625 -2.64318,-0.75888 -1.47601,-0.90577 -1.95685,-2.064 -0.48084,-1.15823 0.16614,-2.21252 0.3269,-0.53269 0.83198,-0.79563 0.50509,-0.26293 1.10652,-0.22231 l -0.79349,-0.48694 0.99772,-1.62582 z"
       style="font-family:monospace;-inkscape-font-specification:'monospace Bold';fill:#ffffff;stroke:none"
       id="path1052" /><path
       d="m 118.0082,214.65716 q -0.40986,0.1083 -0.75895,0.3871 -0.34558,0.27332 -0.61631,0.69523 -0.327,0.50957 -0.39231,1.00915 -0.0673,0.49059 0.13884,0.9168 0.12382,0.26511 0.38454,0.50977 0.26424,0.23918 0.86696,0.62595 l 2.82731,1.81429 -1.03021,1.60543 -6.13679,-3.938 1.0302,-1.60543 0.9534,0.6118 q -0.37482,-0.57315 -0.34681,-1.24365 0.0225,-0.674 0.44094,-1.32604 0.21096,-0.32876 0.49357,-0.58833 0.28064,-0.26858 0.6169,-0.45505 z"
       style="font-family:monospace;-inkscape-font-specification:'monospace Bold';fill:#ffffff;stroke:none"
       id="path1054" /><path
       d="m 126.43834,210.90068 q -0.14269,0.70384 -0.41344,1.35316 -0.27076,0.64933 -0.69857,1.28741 -1.01878,1.5195 -2.37011,1.78138 -1.35311,0.25285 -2.88342,-0.77319 -1.48165,-0.9934 -1.82298,-2.34313 -0.34133,-1.34973 0.55418,-2.68537 0.90276,-1.34646 2.19977,-1.5507 1.29522,-0.21328 2.74442,0.75837 l 0.64349,0.43144 -2.75179,4.10427 q 0.71741,0.47316 1.34806,0.29245 0.63065,-0.18071 1.18536,-1.00806 0.36618,-0.54615 0.56467,-1.18122 0.19849,-0.63507 0.24575,-1.44208 z m -4.30584,-0.94305 q -0.63452,-0.40975 -1.16384,-0.31002 -0.5311,0.0907 -0.93717,0.69633 -0.36618,0.54615 -0.24845,1.09538 0.11233,0.54561 0.68349,1.01478 z"
       style="font-family:monospace;-inkscape-font-specification:'monospace Bold';fill:#ffffff;stroke:none"
       id="path1056" /><path
       d="m 131.03198,204.30864 q -0.15683,0.70082 -0.44059,1.34457 -0.28376,0.64375 -0.72432,1.2731 -1.04915,1.49869 -2.40547,1.73333 -1.35792,0.22558 -2.86728,-0.83103 -1.46136,-1.02301 -1.77547,-2.37933 -0.31411,-1.35633 0.60809,-2.67369 0.92966,-1.32802 2.23052,-1.50613 1.29925,-0.18717 2.72861,0.81343 l 0.63468,0.4443 -2.83381,4.04808 q 0.70775,0.4875 1.34191,0.31951 0.63416,-0.16799 1.2054,-0.984 0.37709,-0.53868 0.58832,-1.16963 0.21122,-0.63095 0.27471,-1.43685 z m -4.286,-1.02948 q -0.62615,-0.42243 -1.15737,-0.33337 -0.53282,0.08 -0.95098,0.67733 -0.3771,0.53868 -0.27044,1.09017 0.10132,0.54775 0.66293,1.02832 z"
       style="font-family:monospace;-inkscape-font-specification:'monospace Bold';fill:#ffffff;stroke:none"
       id="path1058" /></g><g
     aria-label="Neutral"
     transform="matrix(1.2787968,0,0,1.2787968,-127.91227,4.0264679)"
     id="text682"
     style="font-weight:bold;font-size:13.3333px;line-height:1;font-family:Ubuntu;-inkscape-font-specification:'Ubuntu Bold';text-align:center;letter-spacing:0px;text-anchor:middle;white-space:pre;display:inline;fill:#666766;stroke:#666766;stroke-width:0.5;stop-color:#000000"><path
       d="m 458.7228,9.995483 2.05903,-0.1400814 3.18154,6.8636644 -0.47945,-7.0474936 1.6888,-0.1148933 0.65975,9.6976109 -2.04605,0.139198 -3.19453,-6.862781 0.47946,7.047494 -1.6888,0.114893 z"
       style="font-family:monospace;-inkscape-font-specification:'monospace Bold';fill:#ffffff;stroke:none"
       id="path1088" /><path
       d="m 473.76788,18.500294 q -0.65024,0.304858 -1.33302,0.474398 -0.68278,0.16954 -1.45013,0.206252 -1.82733,0.08742 -2.84294,-0.841666 -1.00942,-0.935902 -1.09746,-2.776241 -0.0853,-1.781811 0.79521,-2.860272 0.88046,-1.07846 2.48669,-1.155305 1.61924,-0.07747 2.55619,0.842349 0.94314,0.913002 1.02652,2.655796 l 0.037,0.773852 -4.93575,0.236135 q 0.0476,0.85808 0.56852,1.256817 0.52095,0.398737 1.51591,0.351136 0.65679,-0.03142 1.28506,-0.250497 0.62827,-0.219075 1.30449,-0.662051 z m -1.80874,-4.01971 q -0.0491,-0.753722 -0.44462,-1.119352 -0.38934,-0.372444 -1.11767,-0.337599 -0.6568,0.03142 -1.02769,0.453272 -0.3712,0.415348 -0.40757,1.153605 z"
       style="font-family:monospace;-inkscape-font-specification:'monospace Bold';fill:#ffffff;stroke:none"
       id="path1090" /><path
       d="m 475.60801,16.243769 -0.13138,-4.744263 1.90681,-0.05281 0.12328,4.451407 q 0.0218,0.787456 0.25245,1.11974 0.23064,0.332283 0.74476,0.318045 0.51413,-0.01424 0.78786,-0.477721 0.28024,-0.463663 0.25753,-1.28366 l -0.11589,-4.184583 1.90682,-0.05281 0.20185,7.288854 -1.90681,0.05281 -0.0299,-1.080312 q -0.18498,0.610822 -0.66388,0.956242 -0.4724,0.34524 -1.15573,0.364164 -1.04126,0.02884 -1.59402,-0.646223 -0.54624,-0.67524 -0.58373,-2.028884 z"
       style="font-family:monospace;-inkscape-font-specification:'monospace Bold';fill:#ffffff;stroke:none"
       id="path1092" /><path
       d="m 487.08295,9.199269 0.0157,2.070248 2.49342,-0.01889 0.0111,1.464798 -2.49341,0.01889 0.0261,3.450413 q 0.004,0.488266 0.2397,0.701328 0.24245,0.206502 0.79582,0.202311 l 1.4648,-0.0111 0.0111,1.464798 -1.60151,0.01213 q -1.64057,0.01243 -2.22393,-0.504002 -0.5834,-0.522938 -0.59415,-1.942165 l -0.0254,-3.35927 -1.86193,0.0141 -0.0111,-1.464798 1.86192,-0.0141 -0.0157,-2.070248 z"
       style="font-family:monospace;-inkscape-font-specification:'monospace Bold';fill:#ffffff;stroke:none"
       id="path1094" /><path
       d="m 498.2483,13.348603 q -0.30888,-0.290353 -0.73023,-0.438876 -0.41484,-0.148442 -0.9161,-0.154727 -0.60542,-0.0076 -1.06381,0.201521 -0.45179,0.202685 -0.70423,0.603196 -0.15934,0.245417 -0.22884,0.596135 -0.063,0.350799 -0.072,1.066887 l -0.0421,3.359102 -1.90739,-0.02392 0.0914,-7.291075 1.90739,0.02392 -0.0142,1.132721 q 0.28776,-0.62144 0.87139,-0.952689 0.5837,-0.33776 1.35838,-0.328047 0.39059,0.0049 0.76043,0.107199 0.37643,0.09587 0.71266,0.282394 z"
       style="font-family:monospace;-inkscape-font-specification:'monospace Bold';fill:#ffffff;stroke:none"
       id="path1096" /><path
       d="m 503.38292,15.360971 q -1.06714,-0.03486 -1.49901,0.224612 -0.43188,0.259474 -0.45356,0.923181 -0.0162,0.494526 0.26709,0.796904 0.28324,0.302377 0.78428,0.318745 0.7548,0.02466 1.18974,-0.527839 0.43515,-0.559006 0.46852,-1.580593 l 0.004,-0.130139 z m 2.67885,-0.648554 -0.13584,4.157928 -1.89351,-0.06186 0.0266,-0.813367 q -0.3606,0.470247 -0.90918,0.712881 -0.54857,0.242633 -1.19927,0.221376 -1.24282,-0.0406 -1.91759,-0.720546 -0.66827,-0.679733 -0.62979,-1.857487 0.0417,-1.275358 0.88781,-1.853506 0.84636,-0.584654 2.57721,-0.52811 l 1.3209,0.04315 0.0104,-0.31884 q 0.0151,-0.461992 -0.31562,-0.707295 -0.32398,-0.251597 -0.97468,-0.272854 -0.68322,-0.02232 -1.33315,0.132322 -0.6432,0.148348 -1.35178,0.503005 l 0.0532,-1.626733 q 0.63967,-0.239657 1.2944,-0.342032 0.65474,-0.102374 1.38351,-0.07857 1.77639,0.05803 2.46856,0.803684 0.69867,0.745865 0.63788,2.606846 z"
       style="font-family:monospace;-inkscape-font-specification:'monospace Bold';fill:#ffffff;stroke:none"
       id="path1098" /><path
       d="m 509.41604,15.993723 0.29675,-5.617153 -1.9309,-0.102006 0.0773,-1.4628006 3.83579,0.2026389 -0.37402,7.0799527 q -0.0453,0.858177 0.20232,1.229832 0.24767,0.371655 0.8848,0.405313 l 1.52131,0.08037 -0.0773,1.4628 -2.05442,-0.108532 q -1.35878,-0.07178 -1.9133,-0.805181 -0.55453,-0.733398 -0.46833,-2.365233 z"
       style="font-family:monospace;-inkscape-font-specification:'monospace Bold';fill:#ffffff;stroke:none"
       id="path1100" /></g><g
     aria-label="Indifferent or no opinion"
     transform="translate(10.322832,131.05799)"
     id="text688"
     style="font-weight:bold;font-size:13.3333px;line-height:1;font-family:Ubuntu;-inkscape-font-specification:'Ubuntu Bold';text-align:center;letter-spacing:0px;text-anchor:middle;white-space:pre;shape-inside:url(#rect690);display:inline;fill:#666766;stroke:#666766;stroke-width:0.5;stop-color:#000000"><path
       d="m 380.79192,355.65565 v -1.69271 h 5.78774 v 1.69271 h -1.93359 v 6.33461 h 1.93359 v 1.69271 h -5.78774 v -1.69271 h 1.93359 v -6.33461 z"
       style="font-family:monospace;-inkscape-font-specification:'monospace Bold';fill:#ffffff;stroke:none"
       id="path1190" /><path
       d="m 394.67209,358.94991 v 4.73306 h -1.89453 v -4.44009 q 0,-0.79427 -0.22786,-1.13281 -0.22135,-0.34506 -0.72916,-0.34506 -0.51433,0 -0.8138,0.46224 -0.29297,0.46224 -0.29297,1.28255 v 4.17317 h -1.89453 v -7.29165 h 1.89453 v 1.09375 q 0.20182,-0.60547 0.6901,-0.9375 0.48828,-0.33203 1.17838,-0.33203 1.03516,0 1.5625,0.6901 0.52734,0.68359 0.52734,2.04427 z"
       style="font-family:monospace;-inkscape-font-specification:'monospace Bold';fill:#ffffff;stroke:none"
       id="path1192" /><path
       d="m 400.8765,357.42647 v -3.87368 h 1.90104 v 10.13018 h -1.90104 v -1.08073 q -0.30599,0.63151 -0.79427,0.95052 -0.48177,0.31901 -1.13932,0.31901 -1.24999,0 -1.9401,-1.0026 -0.6901,-1.0026 -0.6901,-2.82552 0,-1.84895 0.69661,-2.83853 0.70313,-0.98958 1.9987,-0.98958 0.58593,0 1.04817,0.30599 0.46875,0.29948 0.82031,0.90494 z m -2.65624,2.63021 q 0,1.05468 0.35156,1.65364 0.35156,0.59895 0.97005,0.59895 0.61849,0 0.97656,-0.59895 0.35807,-0.59896 0.35807,-1.65364 0,-1.05469 -0.35807,-1.65365 -0.35807,-0.59895 -0.97656,-0.59895 -0.61849,0 -0.97005,0.59895 -0.35156,0.59896 -0.35156,1.65365 z"
       style="font-family:monospace;-inkscape-font-specification:'monospace Bold';fill:#ffffff;stroke:none"
       id="path1194" /><path
       d="m 405.1929,356.39132 h 3.77603 v 5.82681 h 2.36979 v 1.46484 h -6.65363 v -1.46484 h 2.37629 v -4.36197 h -1.86848 z m 1.86848,-3.54817 h 1.90755 v 2.22656 h -1.90755 z"
       style="font-family:monospace;-inkscape-font-specification:'monospace Bold';fill:#ffffff;stroke:none"
       id="path1196" /><path
       d="m 416.59261,355.7533 v 0.63802 h 2.23958 v 1.46484 h -2.23958 v 5.82681 h -1.90755 v -5.82681 h -1.77083 v -1.46484 h 1.77083 v -0.50781 q 0,-1.3151 0.54688,-1.82291 0.54687,-0.50781 2.03124,-0.50781 h 1.56901 v 1.46484 h -1.49088 q -0.42969,0 -0.58594,0.15625 -0.14974,0.15625 -0.16276,0.57942 z"
       style="font-family:monospace;-inkscape-font-specification:'monospace Bold';fill:#ffffff;stroke:none"
       id="path1198" /><path
       d="m 424.61993,355.7533 v 0.63802 h 2.23958 v 1.46484 h -2.23958 v 5.82681 h -1.90754 v -5.82681 h -1.77083 v -1.46484 h 1.77083 v -0.50781 q 0,-1.3151 0.54687,-1.82291 0.54687,-0.50781 2.03125,-0.50781 h 1.569 v 1.46484 h -1.49088 q -0.42969,0 -0.58594,0.15625 -0.14974,0.15625 -0.16276,0.57942 z"
       style="font-family:monospace;-inkscape-font-specification:'monospace Bold';fill:#ffffff;stroke:none"
       id="path1200" /><path
       d="m 435.01053,363.3249 q -0.66406,0.27343 -1.35416,0.41015 -0.69011,0.13672 -1.45833,0.13672 -1.82943,0 -2.79947,-0.97656 -0.96354,-0.98307 -0.96354,-2.82551 0,-1.78385 0.93098,-2.81901 0.93099,-1.03515 2.53906,-1.03515 1.62109,0 2.51301,0.96354 0.89844,0.95703 0.89844,2.70181 v 0.77474 h -4.94139 q 0.007,0.85938 0.50781,1.28255 0.5013,0.42318 1.49739,0.42318 0.65755,0 1.29557,-0.1888 0.63802,-0.18881 1.33463,-0.59896 z m -1.61458,-4.10156 q -0.013,-0.7552 -0.39062,-1.13932 -0.3711,-0.39062 -1.10026,-0.39062 -0.65755,0 -1.04818,0.40365 -0.39062,0.39713 -0.46223,1.1328 z"
       style="font-family:monospace;-inkscape-font-specification:'monospace Bold';fill:#ffffff;stroke:none"
       id="path1202" /><path
       d="m 443.35686,358.40303 q -0.31249,-0.28645 -0.73567,-0.42968 -0.41667,-0.14323 -0.91797,-0.14323 -0.60546,0 -1.06119,0.21484 -0.44922,0.20833 -0.69662,0.61198 -0.15624,0.24739 -0.22135,0.59896 -0.0586,0.35156 -0.0586,1.0677 v 3.35937 h -1.90755 v -7.29165 h 1.90755 v 1.13281 q 0.27994,-0.625 0.85937,-0.96354 0.57943,-0.34505 1.35416,-0.34505 0.39063,0 0.76172,0.0977 0.3776,0.0911 0.71614,0.27343 z"
       style="font-family:monospace;-inkscape-font-specification:'monospace Bold';fill:#ffffff;stroke:none"
       id="path1204" /><path
       d="m 451.06518,363.3249 q -0.66406,0.27343 -1.35416,0.41015 -0.69011,0.13672 -1.45833,0.13672 -1.82943,0 -2.79948,-0.97656 -0.96353,-0.98307 -0.96353,-2.82551 0,-1.78385 0.93098,-2.81901 0.93099,-1.03515 2.53906,-1.03515 1.62109,0 2.51301,0.96354 0.89844,0.95703 0.89844,2.70181 v 0.77474 h -4.9414 q 0.007,0.85938 0.50782,1.28255 0.5013,0.42318 1.49739,0.42318 0.65755,0 1.29557,-0.1888 0.63802,-0.18881 1.33463,-0.59896 z m -1.61458,-4.10156 q -0.013,-0.7552 -0.39062,-1.13932 -0.3711,-0.39062 -1.10026,-0.39062 -0.65755,0 -1.04818,0.40365 -0.39062,0.39713 -0.46223,1.1328 z"
       style="font-family:monospace;-inkscape-font-specification:'monospace Bold';fill:#ffffff;stroke:none"
       id="path1206" /><path
       d="m 458.89068,358.94991 v 4.73306 h -1.89453 v -4.44009 q 0,-0.79427 -0.22786,-1.13281 -0.22136,-0.34506 -0.72917,-0.34506 -0.51432,0 -0.8138,0.46224 -0.29297,0.46224 -0.29297,1.28255 v 4.17317 h -1.89452 v -7.29165 h 1.89452 v 1.09375 q 0.20183,-0.60547 0.69011,-0.9375 0.48828,-0.33203 1.17838,-0.33203 1.03515,0 1.5625,0.6901 0.52734,0.68359 0.52734,2.04427 z"
       style="font-family:monospace;-inkscape-font-specification:'monospace Bold';fill:#ffffff;stroke:none"
       id="path1208" /><path
       d="m 464.43754,354.32101 v 2.07031 h 2.49349 v 1.46484 h -2.49349 v 3.45051 q 0,0.48828 0.23438,0.70313 0.24088,0.20833 0.79427,0.20833 h 1.46484 v 1.46484 h -1.60156 q -1.64062,0 -2.22005,-0.52083 -0.57942,-0.52735 -0.57942,-1.94661 v -3.35937 h -1.86198 v -1.46484 H 462.53 v -2.07031 z"
       style="font-family:monospace;-inkscape-font-specification:'monospace Bold';fill:#ffffff;stroke:none"
       id="path1210" /><path
       d="m 480.01042,357.76501 q -0.6836,0 -1.07422,0.60547 -0.39062,0.59896 -0.39062,1.67317 0,1.07422 0.39062,1.67969 0.39062,0.59896 1.07422,0.59896 0.6901,0 1.08072,-0.59896 0.39063,-0.60547 0.39063,-1.67969 0,-1.07421 -0.39063,-1.67317 -0.39062,-0.60547 -1.08072,-0.60547 z m -3.37239,2.27864 q 0,-1.76431 0.91145,-2.79296 0.91797,-1.03515 2.46094,-1.03515 1.54947,0 2.46093,1.03515 0.91796,1.02865 0.91796,2.79296 0,1.76432 -0.91796,2.79948 -0.91146,1.02864 -2.46093,1.02864 -1.54297,0 -2.46094,-1.02864 -0.91145,-1.03516 -0.91145,-2.79948 z"
       style="font-family:monospace;-inkscape-font-specification:'monospace Bold';fill:#ffffff;stroke:none"
       id="path1212" /><path
       d="m 491.52081,358.40303 q -0.3125,-0.28645 -0.73568,-0.42968 -0.41666,-0.14323 -0.91796,-0.14323 -0.60547,0 -1.0612,0.21484 -0.44922,0.20833 -0.69661,0.61198 -0.15625,0.24739 -0.22135,0.59896 -0.0586,0.35156 -0.0586,1.0677 v 3.35937 h -1.90755 v -7.29165 h 1.90755 v 1.13281 q 0.27995,-0.625 0.85937,-0.96354 0.57943,-0.34505 1.35417,-0.34505 0.39062,0 0.76171,0.0977 0.37761,0.0911 0.71615,0.27343 z"
       style="font-family:monospace;-inkscape-font-specification:'monospace Bold';fill:#ffffff;stroke:none"
       id="path1214" /><path
       d="m 507.05463,358.94991 v 4.73306 h -1.89453 v -4.44009 q 0,-0.79427 -0.22786,-1.13281 -0.22136,-0.34506 -0.72917,-0.34506 -0.51432,0 -0.8138,0.46224 -0.29297,0.46224 -0.29297,1.28255 v 4.17317 h -1.89452 v -7.29165 h 1.89452 v 1.09375 q 0.20182,-0.60547 0.69011,-0.9375 0.48828,-0.33203 1.17838,-0.33203 1.03515,0 1.56249,0.6901 0.52735,0.68359 0.52735,2.04427 z"
       style="font-family:monospace;-inkscape-font-specification:'monospace Bold';fill:#ffffff;stroke:none"
       id="path1216" /><path
       d="m 512.11971,357.76501 q -0.68359,0 -1.07421,0.60547 -0.39063,0.59896 -0.39063,1.67317 0,1.07422 0.39063,1.67969 0.39062,0.59896 1.07421,0.59896 0.69011,0 1.08073,-0.59896 0.39063,-0.60547 0.39063,-1.67969 0,-1.07421 -0.39063,-1.67317 -0.39062,-0.60547 -1.08073,-0.60547 z m -3.37238,2.27864 q 0,-1.76431 0.91145,-2.79296 0.91797,-1.03515 2.46093,-1.03515 1.54948,0 2.46094,1.03515 0.91796,1.02865 0.91796,2.79296 0,1.76432 -0.91796,2.79948 -0.91146,1.02864 -2.46094,1.02864 -1.54296,0 -2.46093,-1.02864 -0.91145,-1.03516 -0.91145,-2.79948 z"
       style="font-family:monospace;-inkscape-font-specification:'monospace Bold';fill:#ffffff;stroke:none"
       id="path1218" /><path
       d="m 528.17436,357.76501 q -0.6836,0 -1.07422,0.60547 -0.39062,0.59896 -0.39062,1.67317 0,1.07422 0.39062,1.67969 0.39062,0.59896 1.07422,0.59896 0.6901,0 1.08072,-0.59896 0.39063,-0.60547 0.39063,-1.67969 0,-1.07421 -0.39063,-1.67317 -0.39062,-0.60547 -1.08072,-0.60547 z m -3.37239,2.27864 q 0,-1.76431 0.91146,-2.79296 0.91796,-1.03515 2.46093,-1.03515 1.54947,0 2.46093,1.03515 0.91796,1.02865 0.91796,2.79296 0,1.76432 -0.91796,2.79948 -0.91146,1.02864 -2.46093,1.02864 -1.54297,0 -2.46093,-1.02864 -0.91146,-1.03516 -0.91146,-2.79948 z"
       style="font-family:monospace;-inkscape-font-specification:'monospace Bold';fill:#ffffff;stroke:none"
       id="path1220" /><path
       d="m 535.06888,362.65433 v 3.80207 h -1.90104 v -10.06508 h 1.90104 v 1.09375 q 0.29947,-0.63151 0.78775,-0.95052 0.48828,-0.31901 1.14583,-0.31901 1.25,0 1.9401,1.0026 0.69011,1.0026 0.69011,2.82551 0,1.84896 -0.70313,2.83854 -0.69661,0.98958 -1.99218,0.98958 -0.58594,0 -1.05468,-0.29948 -0.46224,-0.30599 -0.8138,-0.91796 z m 2.65624,-2.6237 q 0,-1.05468 -0.35156,-1.65364 -0.35156,-0.59895 -0.97005,-0.59895 -0.61849,0 -0.97656,0.59895 -0.35807,0.59896 -0.35807,1.65364 0,1.05469 0.35807,1.65365 0.35807,0.59895 0.97656,0.59895 0.61849,0 0.97005,-0.59895 0.35156,-0.59896 0.35156,-1.65365 z"
       style="font-family:monospace;-inkscape-font-specification:'monospace Bold';fill:#ffffff;stroke:none"
       id="path1222" /><path
       d="m 541.65741,356.39132 h 3.77603 v 5.82681 h 2.36978 v 1.46484 h -6.65363 v -1.46484 h 2.3763 v -4.36197 h -1.86848 z m 1.86848,-3.54817 h 1.90755 v 2.22656 h -1.90755 z"
       style="font-family:monospace;-inkscape-font-specification:'monospace Bold';fill:#ffffff;stroke:none"
       id="path1224" /><path
       d="m 555.21856,358.94991 v 4.73306 h -1.89453 v -4.44009 q 0,-0.79427 -0.22786,-1.13281 -0.22136,-0.34506 -0.72917,-0.34506 -0.51432,0 -0.8138,0.46224 -0.29296,0.46224 -0.29296,1.28255 v 4.17317 h -1.89453 v -7.29165 h 1.89453 v 1.09375 q 0.20182,-0.60547 0.6901,-0.9375 0.48828,-0.33203 1.17838,-0.33203 1.03515,0 1.5625,0.6901 0.52734,0.68359 0.52734,2.04427 z"
       style="font-family:monospace;-inkscape-font-specification:'monospace Bold';fill:#ffffff;stroke:none"
       id="path1226" /><path
       d="m 557.71205,356.39132 h 3.77603 v 5.82681 h 2.36978 v 1.46484 h -6.65362 v -1.46484 h 2.37629 v -4.36197 h -1.86848 z m 1.86848,-3.54817 h 1.90755 v 2.22656 h -1.90755 z"
       style="font-family:monospace;-inkscape-font-specification:'monospace Bold';fill:#ffffff;stroke:none"
       id="path1228" /><path
       d="m 568.31098,357.76501 q -0.68359,0 -1.07421,0.60547 -0.39063,0.59896 -0.39063,1.67317 0,1.07422 0.39063,1.67969 0.39062,0.59896 1.07421,0.59896 0.69011,0 1.08073,-0.59896 0.39062,-0.60547 0.39062,-1.67969 0,-1.07421 -0.39062,-1.67317 -0.39062,-0.60547 -1.08073,-0.60547 z m -3.37238,2.27864 q 0,-1.76431 0.91145,-2.79296 0.91797,-1.03515 2.46093,-1.03515 1.54948,0 2.46093,1.03515 0.91797,1.02865 0.91797,2.79296 0,1.76432 -0.91797,2.79948 -0.91145,1.02864 -2.46093,1.02864 -1.54296,0 -2.46093,-1.02864 -0.91145,-1.03516 -0.91145,-2.79948 z"
       style="font-family:monospace;-inkscape-font-specification:'monospace Bold';fill:#ffffff;stroke:none"
       id="path1230" /><path
       d="m 579.30053,358.94991 v 4.73306 H 577.406 v -4.44009 q 0,-0.79427 -0.22786,-1.13281 -0.22136,-0.34506 -0.72917,-0.34506 -0.51432,0 -0.8138,0.46224 -0.29296,0.46224 -0.29296,1.28255 v 4.17317 h -1.89453 v -7.29165 h 1.89453 v 1.09375 q 0.20182,-0.60547 0.6901,-0.9375 0.48828,-0.33203 1.17838,-0.33203 1.03515,0 1.5625,0.6901 0.52734,0.68359 0.52734,2.04427 z"
       style="font-family:monospace;-inkscape-font-specification:'monospace Bold';fill:#ffffff;stroke:none"
       id="path1232" /></g><g
     aria-label="Not replied yet"
     transform="translate(10.39194,164.45219)"
     id="text694"
     style="font-weight:bold;font-size:13.3333px;line-height:1;font-family:Ubuntu;-inkscape-font-specification:'Ubuntu Bold';text-align:center;letter-spacing:0px;text-anchor:middle;white-space:pre;shape-inside:url(#rect696);display:inline;fill:#666766;stroke:#666766;stroke-width:0.5;stop-color:#000000"><path
       d="m 420.58348,353.96294 h 2.0638 l 2.70833,7.06379 v -7.06379 h 1.6927 v 9.72003 h -2.05078 l -2.72134,-7.06379 v 7.06379 h -1.69271 z"
       style="font-family:monospace;-inkscape-font-specification:'monospace Bold';fill:#ffffff;stroke:none"
       id="path1235" /><path
       d="m 431.84648,357.76501 q -0.6836,0 -1.07422,0.60547 -0.39062,0.59896 -0.39062,1.67317 0,1.07422 0.39062,1.67969 0.39062,0.59896 1.07422,0.59896 0.6901,0 1.08072,-0.59896 0.39063,-0.60547 0.39063,-1.67969 0,-1.07421 -0.39063,-1.67317 -0.39062,-0.60547 -1.08072,-0.60547 z m -3.37239,2.27864 q 0,-1.76431 0.91145,-2.79296 0.91797,-1.03515 2.46094,-1.03515 1.54947,0 2.46093,1.03515 0.91796,1.02865 0.91796,2.79296 0,1.76432 -0.91796,2.79948 -0.91146,1.02864 -2.46093,1.02864 -1.54297,0 -2.46094,-1.02864 -0.91145,-1.03516 -0.91145,-2.79948 z"
       style="font-family:monospace;-inkscape-font-specification:'monospace Bold';fill:#ffffff;stroke:none"
       id="path1237" /><path
       d="m 440.35557,354.32101 v 2.07031 h 2.49348 v 1.46484 h -2.49348 v 3.45051 q 0,0.48828 0.23437,0.70313 0.24089,0.20833 0.79427,0.20833 h 1.46484 v 1.46484 h -1.60156 q -1.64062,0 -2.22004,-0.52083 -0.57943,-0.52735 -0.57943,-1.94661 v -3.35937 h -1.86197 v -1.46484 h 1.86197 v -2.07031 z"
       style="font-family:monospace;-inkscape-font-specification:'monospace Bold';fill:#ffffff;stroke:none"
       id="path1239" /><path
       d="m 459.41151,358.40303 q -0.3125,-0.28645 -0.73567,-0.42968 -0.41667,-0.14323 -0.91797,-0.14323 -0.60547,0 -1.0612,0.21484 -0.44921,0.20833 -0.69661,0.61198 -0.15625,0.24739 -0.22135,0.59896 -0.0586,0.35156 -0.0586,1.0677 v 3.35937 h -1.90754 v -7.29165 h 1.90754 v 1.13281 q 0.27995,-0.625 0.85938,-0.96354 0.57942,-0.34505 1.35416,-0.34505 0.39062,0 0.76172,0.0977 0.3776,0.0911 0.71614,0.27343 z"
       style="font-family:monospace;-inkscape-font-specification:'monospace Bold';fill:#ffffff;stroke:none"
       id="path1241" /><path
       d="m 467.11983,363.3249 q -0.66406,0.27343 -1.35417,0.41015 -0.6901,0.13672 -1.45833,0.13672 -1.82942,0 -2.79947,-0.97656 -0.96354,-0.98307 -0.96354,-2.82551 0,-1.78385 0.93099,-2.81901 0.93099,-1.03515 2.53906,-1.03515 1.62109,0 2.51301,0.96354 0.89844,0.95703 0.89844,2.70181 v 0.77474 h -4.9414 q 0.007,0.85938 0.50781,1.28255 0.5013,0.42318 1.49739,0.42318 0.65756,0 1.29557,-0.1888 0.63802,-0.18881 1.33464,-0.59896 z m -1.61458,-4.10156 q -0.013,-0.7552 -0.39063,-1.13932 -0.37109,-0.39062 -1.10025,-0.39062 -0.65755,0 -1.04818,0.40365 -0.39062,0.39713 -0.46224,1.1328 z"
       style="font-family:monospace;-inkscape-font-specification:'monospace Bold';fill:#ffffff;stroke:none"
       id="path1243" /><path
       d="m 470.85028,362.65433 v 3.80207 h -1.90103 v -10.06508 h 1.90103 v 1.09375 q 0.29948,-0.63151 0.78776,-0.95052 0.48828,-0.31901 1.14583,-0.31901 1.25,0 1.9401,1.0026 0.6901,1.0026 0.6901,2.82551 0,1.84896 -0.70312,2.83854 -0.69661,0.98958 -1.99218,0.98958 -0.58594,0 -1.05469,-0.29948 -0.46224,-0.30599 -0.8138,-0.91796 z m 2.65625,-2.6237 q 0,-1.05468 -0.35157,-1.65364 -0.35156,-0.59895 -0.97004,-0.59895 -0.61849,0 -0.97656,0.59895 -0.35808,0.59896 -0.35808,1.65364 0,1.05469 0.35808,1.65365 0.35807,0.59895 0.97656,0.59895 0.61848,0 0.97004,-0.59895 0.35157,-0.59896 0.35157,-1.65365 z"
       style="font-family:monospace;-inkscape-font-specification:'monospace Bold';fill:#ffffff;stroke:none"
       id="path1245" /><path
       d="m 478.51954,360.64261 v -5.62498 h -1.93359 v -1.46484 h 3.84113 v 7.08982 q 0,0.85937 0.26693,1.21745 0.26693,0.35807 0.90495,0.35807 h 1.52343 v 1.46484 h -2.05729 q -1.36067,0 -1.95312,-0.70312 -0.59244,-0.70313 -0.59244,-2.33724 z"
       style="font-family:monospace;-inkscape-font-specification:'monospace Bold';fill:#ffffff;stroke:none"
       id="path1247" /><path
       d="m 485.46613,356.39132 h 3.77604 v 5.82681 h 2.36978 v 1.46484 h -6.65363 v -1.46484 h 2.3763 v -4.36197 h -1.86849 z m 1.86849,-3.54817 h 1.90755 v 2.22656 h -1.90755 z"
       style="font-family:monospace;-inkscape-font-specification:'monospace Bold';fill:#ffffff;stroke:none"
       id="path1249" /><path
       d="m 499.22912,363.3249 q -0.66406,0.27343 -1.35417,0.41015 -0.6901,0.13672 -1.45833,0.13672 -1.82942,0 -2.79947,-0.97656 -0.96354,-0.98307 -0.96354,-2.82551 0,-1.78385 0.93099,-2.81901 0.93099,-1.03515 2.53906,-1.03515 1.62109,0 2.51301,0.96354 0.89844,0.95703 0.89844,2.70181 v 0.77474 h -4.9414 q 0.007,0.85938 0.50781,1.28255 0.5013,0.42318 1.4974,0.42318 0.65755,0 1.29557,-0.1888 0.63801,-0.18881 1.33463,-0.59896 z m -1.61458,-4.10156 q -0.013,-0.7552 -0.39063,-1.13932 -0.37109,-0.39062 -1.10025,-0.39062 -0.65755,0 -1.04818,0.40365 -0.39062,0.39713 -0.46224,1.1328 z"
       style="font-family:monospace;-inkscape-font-specification:'monospace Bold';fill:#ffffff;stroke:none"
       id="path1251" /><path
       d="m 505.23171,357.42647 v -3.87368 h 1.90104 v 10.13018 h -1.90104 v -1.08073 q -0.30599,0.63151 -0.79427,0.95052 -0.48177,0.31901 -1.13932,0.31901 -1.24999,0 -1.9401,-1.0026 -0.6901,-1.0026 -0.6901,-2.82552 0,-1.84895 0.69661,-2.83853 0.70313,-0.98958 1.9987,-0.98958 0.58593,0 1.04817,0.30599 0.46875,0.29948 0.82031,0.90494 z m -2.65624,2.63021 q 0,1.05468 0.35156,1.65364 0.35156,0.59895 0.97005,0.59895 0.61849,0 0.97656,-0.59895 0.35807,-0.59896 0.35807,-1.65364 0,-1.05469 -0.35807,-1.65365 -0.35807,-0.59895 -0.97656,-0.59895 -0.61849,0 -0.97005,0.59895 -0.35156,0.59896 -0.35156,1.65365 z"
       style="font-family:monospace;-inkscape-font-specification:'monospace Bold';fill:#ffffff;stroke:none"
       id="path1253" /><path
       d="m 520.76552,364.47073 q -0.38411,1.02864 -0.92448,1.49739 -0.53385,0.47526 -1.30208,0.47526 h -1.57551 v -1.45182 h 0.77474 q 0.58593,0 0.85937,-0.20182 0.27343,-0.19532 0.55338,-0.91797 l 0.14323,-0.39062 -2.77343,-7.08983 h 2.0052 l 1.66667,4.73306 1.59504,-4.73306 h 2.00521 z"
       style="font-family:monospace;-inkscape-font-specification:'monospace Bold';fill:#ffffff;stroke:none"
       id="path1255" /><path
       d="m 531.33842,363.3249 q -0.66406,0.27343 -1.35417,0.41015 -0.6901,0.13672 -1.45833,0.13672 -1.82942,0 -2.79947,-0.97656 -0.96354,-0.98307 -0.96354,-2.82551 0,-1.78385 0.93099,-2.81901 0.93099,-1.03515 2.53906,-1.03515 1.62109,0 2.51301,0.96354 0.89844,0.95703 0.89844,2.70181 v 0.77474 h -4.9414 q 0.007,0.85938 0.50781,1.28255 0.5013,0.42318 1.49739,0.42318 0.65756,0 1.29557,-0.1888 0.63802,-0.18881 1.33464,-0.59896 z m -1.61458,-4.10156 q -0.013,-0.7552 -0.39063,-1.13932 -0.37109,-0.39062 -1.10025,-0.39062 -0.65756,0 -1.04818,0.40365 -0.39062,0.39713 -0.46224,1.1328 z"
       style="font-family:monospace;-inkscape-font-specification:'monospace Bold';fill:#ffffff;stroke:none"
       id="path1257" /><path
       d="m 536.68345,354.32101 v 2.07031 h 2.49349 v 1.46484 h -2.49349 v 3.45051 q 0,0.48828 0.23438,0.70313 0.24088,0.20833 0.79427,0.20833 h 1.46484 v 1.46484 h -1.60156 q -1.64062,0 -2.22005,-0.52083 -0.57943,-0.52735 -0.57943,-1.94661 v -3.35937 h -1.86197 v -1.46484 h 1.86197 v -2.07031 z"
       style="font-family:monospace;-inkscape-font-specification:'monospace Bold';fill:#ffffff;stroke:none"
       id="path1259" /></g></svg>
