<?xml version="1.0" encoding="UTF-8" standalone="no"?>
<!-- Created with Inkscape (http://www.inkscape.org/) -->

<svg
   width="980"
   height="735"
   version="1.1"
   xml:space="preserve"
   id="svg221"
   inkscape:version="1.2.2 (b0a8486541, 2022-12-01)"
   sodipodi:docname="spectrum_en_9.svg"
   xmlns:inkscape="http://www.inkscape.org/namespaces/inkscape"
   xmlns:sodipodi="http://sodipodi.sourceforge.net/DTD/sodipodi-0.dtd"
   xmlns="http://www.w3.org/2000/svg"
   xmlns:svg="http://www.w3.org/2000/svg">
  <sodipodi:namedview
   id="namedview223"
   pagecolor="#ffffff"
   bordercolor="#000000"
   borderopacity="0.25"
   inkscape:showpageshadow="2"
   inkscape:pageopacity="0.0"
   inkscape:pagecheckerboard="0"
   inkscape:deskcolor="#d1d1d1"
   inkscape:document-units="px"
   showgrid="false"
   inkscape:zoom="1.0284796"
   inkscape:cx="383.57591"
   inkscape:cy="371.42205"
   inkscape:window-width="2560"
   inkscape:window-height="1340"
   inkscape:window-x="2880"
   inkscape:window-y="0"
   inkscape:window-maximized="1"
   inkscape:current-layer="svg221" />
  <defs
   id="defs218" />
    <path
   style="fill:#000000;stroke-width:1.79483"
   d="m 947.7395,326.54065 -177.35056,64.54956 c 11.15294,31.18793 17.0263,64.01756 17.37836,97.13781 H 976.5165 C 976.15389,433.0911 966.42301,378.41683 947.7395,326.54065 Z"
   id="absolutelyAgree" />
    <path
   style="fill:#000000;stroke-width:1.79483"
   d="M 32.260527,326.53865 C 13.576796,378.41544 3.8458964,433.09038 3.4835005,488.22795 H 192.23272 c 0.35206,-33.12025 6.22541,-65.94988 17.37835,-97.13781 z"
   id="absolutelyDisagree" />
    <path
   style="fill:#000000;stroke-width:1.79483"
   d="M 864.12573,179.78774 719.68385,300.9888 c 21.01323,25.61002 37.60738,54.54579 49.09931,85.6161 L 946.09074,322.07099 C 927.0262,270.34262 899.31001,222.23002 864.12573,179.78774 Z"
   id="stronglyAgree" />
    <path
   style="fill:#000000;stroke-width:1.79483"
   d="M 115.87428,179.78774 C 80.690003,222.23002 52.973818,270.34262 33.909281,322.07099 L 211.21489,386.6049 c 11.49252,-31.07044 28.08733,-60.00622 49.10125,-85.6161 z"
   id="stronglyDisagree" />
    <path
   style="fill:#000000;stroke-width:1.79483"
   d="M 735.21616,70.645639 640.82689,234.13414 c 28.56361,16.7561 54.13329,38.15781 75.65712,63.32468 L 861.17592,176.04678 C 825.46464,134.02997 782.87149,98.388698 735.21616,70.645639 Z"
   id="agree" />
    <path
   style="fill:#000000;stroke-width:1.79483"
   d="M 244.78386,70.645639 C 197.12782,98.388513 154.53399,134.0298 118.82211,176.04678 l 144.69387,121.41204 c 21.52458,-25.16635 47.09492,-46.5674 75.65909,-63.32273 z"
   id="disagree" />
    <path
   style="fill:#000000;stroke-width:1.79483"
   d="M 576.79111,12.11289 544.04068,197.8459 c 32.56637,6.04786 63.89601,17.48493 92.69949,33.8405 L 731.05909,68.319017 C 683.19121,40.980948 631.02616,21.975089 576.79111,12.11289 Z"
   id="slightlyAgree" />
    <path
   style="fill:#000000;stroke-width:1.79483"
   d="m 403.20888,12.11289 c -54.23505,9.8622 -106.4001,28.868059 -154.26797,56.206127 L 343.2618,231.6864 c 28.80287,-16.35536 60.13184,-27.79243 92.69753,-33.8405 z"
   id="slightlyDisagree" />
    <path
   style="fill:#000000;stroke-width:1.79483"
   d="m 489.99902,4 c -27.52635,0.067434 -54.99734,2.4703934 -82.11736,7.18302 l 32.79147,185.96353 c 16.29076,-2.84015 32.78972,-4.31885 49.32589,-4.42077 16.53683,0.10181 33.03646,1.58051 49.32787,4.42077 L 572.1164,11.18302 C 544.99637,6.4703923 517.52537,4.0674329 489.99902,4 Z"
   id="neutral" />
    <path
   style="display:inline;fill:#cccccc;stroke:none;stroke-width:2.96414;stroke-opacity:1"
   d="m 490.31223,376.065 c -39.40349,0.0201 -74.83213,17.28019 -99.07942,44.69453 -20.13764,22.76785 -32.56291,52.54022 -33.14781,85.25997 H 622.60013 C 622.01229,473.13405 609.46408,443.22684 589.14721,420.41568 564.89513,393.18625 529.57359,376.06806 490.31223,376.065 Z"
   id="indifferent"
   sodipodi:nodetypes="csccsc" /><path
   style="display:inline;fill:#cccccc;stroke:none;stroke-width:2.96414;stroke-opacity:1"
   d="M 490.31223,642.18167 C 449.78333,642.16157 413.45959,623.90153 389.18276,595.11353 370.25453,572.668 358.64968,543.82143 358.085,512.22677 h 264.51513 c -0.58784,32.89153 -13.14048,62.80373 -33.46387,85.6165 -24.25176,27.22227 -59.56858,44.33534 -98.82403,44.3384 z"
   id="notReplied"
   sodipodi:nodetypes="csccsc" /><path
   id="path4923"
   style="font-weight:bold;font-family:'Ubuntu Mono';-inkscape-font-specification:'Ubuntu Mono Bold';white-space:pre;fill:#ffffff"
   d="m 951.54003,461.44528 q -0.051,-1.06678 0.27132,-1.86308 0.33433,-0.79688 1.03345,-1.25079 0.7111,-0.45448 1.77788,-0.50549 0.83904,-0.0401 1.47379,0.16981 0.64731,0.22133 1.08689,0.62079 0.45214,0.41088 0.68113,0.92853 0.24154,0.52907 0.26848,1.09243 0.0665,1.39041 -0.72561,2.16112 -0.7921,0.77071 -2.37429,0.84636 -0.15582,0.007 -0.33619,0.004 -0.16781,0.008 -0.28824,0.002 l -0.19601,-4.09931 q -0.6113,0.0292 -0.94682,0.54984 -0.32296,0.53203 -0.28456,1.33512 0.0235,0.49144 0.14117,0.94233 0.13022,0.46231 0.25243,0.75681 l -1.39151,0.29479 q -0.17588,-0.41207 -0.29527,-0.89892 -0.11939,-0.48685 -0.14804,-1.08617 z m 3.82328,-1.94882 0.12093,2.52911 q 0.33562,-0.0161 0.62954,-0.15024 0.29393,-0.13419 0.47253,-0.41905 0.17917,-0.27287 0.15797,-0.71636 -0.0206,-0.43151 -0.2256,-0.69802 -0.19298,-0.26709 -0.49951,-0.3966 -0.30654,-0.12951 -0.65586,-0.14884 z m -4.18675,-4.75904 q -0.0671,-1.06589 0.24321,-1.86696 0.32227,-0.80183 1.01446,-1.26623 0.70417,-0.46515 1.77006,-0.53224 0.83835,-0.0528 1.47619,0.14757 0.65057,0.21155 1.09613,0.60434 0.45828,0.40401 0.69504,0.91815 0.24949,0.52537 0.28492,1.08826 0.0874,1.38925 -0.69294,2.17181 -0.78039,0.78257 -2.36126,0.88207 -0.15569,0.01 -0.33609,0.009 -0.16767,0.0105 -0.28819,0.006 l -0.25779,-4.0959 q -0.61079,0.0384 -0.93842,0.56407 -0.3149,0.53684 -0.2644,1.33925 0.0309,0.49103 0.15536,0.9401 0.13719,0.46029 0.26382,0.75291 l -1.38691,0.31574 q -0.18207,-0.40937 -0.30879,-0.89437 -0.12671,-0.48499 -0.1644,-1.08381 z m 3.79347,-2.00625 0.15904,2.527 q 0.33534,-0.0211 0.62721,-0.15971 0.29187,-0.13861 0.46615,-0.42612 0.17504,-0.27554 0.14715,-0.71867 -0.0271,-0.43114 -0.23609,-0.69454 -0.19698,-0.26415 -0.50544,-0.38902 -0.30845,-0.12487 -0.65802,-0.13894 z m -4.32375,-7.38656 5.88608,-0.45966 q 0.28973,0.62735 0.48748,1.31002 0.19775,0.68268 0.26969,1.60387 0.0149,0.19142 0.019,0.5522 0.004,0.36077 -0.0249,0.76024 -0.017,0.39854 -0.10134,0.70603 l -1.55469,-0.1795 q 0.0439,-0.20805 0.0675,-0.52284 0.0236,-0.31479 0.0241,-0.61575 0.0125,-0.30189 -0.003,-0.50527 -0.0271,-0.34694 -0.0891,-0.67912 -0.0501,-0.33311 -0.17289,-0.67258 l -4.67776,0.3653 z m -2.70976,-4.95365 q -0.0535,-0.57351 0.0147,-1.13427 0.0682,-0.56076 0.17784,-1.06512 l 1.4269,0.18024 q -0.10771,0.39572 -0.19901,0.83811 -0.0902,0.45434 -0.0311,1.08759 0.0535,0.57351 0.2617,0.86744 0.19737,0.307 0.50722,0.39862 0.2979,0.0927 0.65634,0.0593 l 0.25091,-0.0234 q -0.15069,-0.3234 -0.25024,-0.61541 -0.0996,-0.29202 -0.13076,-0.62657 -0.0758,-0.81247 0.21832,-1.40635 0.30717,-0.58305 0.93757,-0.93111 0.6304,-0.34806 1.53845,-0.43276 1.03949,-0.097 1.7562,0.22184 0.72977,0.32964 1.1312,1.01532 0.40142,0.68568 0.49281,1.66543 0.049,0.52571 0.0156,1.07118 -0.0324,0.55742 -0.14168,1.19432 l -5.32887,0.4971 q -1.5413,0.14378 -2.34036,-0.54096 -0.80988,-0.67168 -0.9637,-2.32052 z m 4.0539,0.17623 q 0.0256,0.27481 0.11961,0.50708 0.094,0.23228 0.20629,0.40258 l 3.02287,-0.28198 q 0.018,-0.19452 0.0166,-0.33901 0.0105,-0.14561 -0.005,-0.31288 -0.068,-0.72884 -0.53155,-1.04716 -0.46357,-0.31832 -1.34774,-0.23584 -0.51376,0.0479 -0.86106,0.20085 -0.33424,0.16375 -0.502,0.43249 -0.1547,0.27958 -0.11792,0.67387 z m -2.57906,-6.54236 q -0.0647,-0.5965 -0.0104,-1.09728 0.0543,-0.50078 0.25405,-0.88457 0.20105,-0.37186 0.57403,-0.60546 0.3862,-0.22297 0.95883,-0.28511 0.73966,-0.0803 1.19734,0.24425 0.46962,0.32322 0.7133,0.9003 0.25561,0.57578 0.32811,1.24386 0.0363,0.33404 0.0315,0.62424 0.007,0.28891 -0.0159,0.52076 l 0.2028,-0.022 q 0.31018,-0.0337 0.53454,-0.19078 0.23629,-0.15842 0.34838,-0.46027 0.11209,-0.30186 0.0603,-0.77905 -0.0505,-0.46527 -0.16867,-0.88698 -0.10626,-0.42301 -0.23148,-0.68704 l 1.29963,-0.37037 q 0.13974,0.28659 0.28409,0.83824 0.15759,0.56228 0.22232,1.15878 0.11133,1.02597 -0.13541,1.6442 -0.24674,0.61823 -0.79349,0.91897 -0.54545,0.31267 -1.33282,0.39812 l -3.74601,0.40651 q -0.12235,-0.34884 -0.29547,-1.05428 -0.18375,-0.69221 -0.27955,-1.57503 z m 1.33717,-0.0244 q 0.0285,0.26246 0.0676,0.51169 0.0404,0.26116 0.073,0.45075 l 1.44353,-0.15665 q 0.007,-0.15768 -0.006,-0.38564 -7.4e-4,-0.22926 -0.0215,-0.42014 -0.0375,-0.34597 -0.12956,-0.63775 -0.092,-0.29177 -0.27975,-0.46453 -0.17451,-0.16211 -0.48469,-0.12845 -0.41755,0.0453 -0.57476,0.3762 -0.144,0.34153 -0.0883,0.85452 z m -5.3112,-14.65763 q -0.0562,-0.40411 -0.0329,-0.75871 0.0234,-0.3546 0.087,-0.59366 l 1.40983,0.11884 q -0.0825,0.27802 -0.10025,0.49857 -0.0178,0.22055 0.0136,0.44638 0.0678,0.4873 0.43006,0.73979 0.36226,0.25248 0.82517,0.35769 1.08374,-0.74447 2.52239,-1.55043 1.4522,-0.79573 3.1791,-1.53277 l 0.23815,1.71152 q -0.6322,0.24547 -1.36311,0.56525 -0.71736,0.33002 -1.43142,0.6838 -0.70217,0.35213 -1.28383,0.69961 0.6564,0.10252 1.40622,0.17992 0.76336,0.0876 1.53695,0.16172 0.7736,0.0741 1.47091,0.12245 l 0.23319,1.67585 q -1.82851,-0.25442 -3.51109,-0.50492 -1.67069,-0.25215 -3.24042,-0.73644 -0.74755,-0.23522 -1.24716,-0.51705 -0.49795,-0.26995 -0.77474,-0.69183 -0.27678,-0.42188 -0.36774,-1.07558 z m 1.52027,-4.14678 q -0.11547,-0.74713 0.10586,-1.27917 0.23503,-0.52203 0.7813,-0.83716 0.55814,-0.31697 1.40014,-0.44711 l 5.30106,-0.81929 -0.2676,-1.73145 1.36381,-0.21078 0.52054,3.36801 -6.78346,1.04841 q -0.41507,0.0641 -0.63393,0.2194 -0.21885,0.15525 -0.28257,0.37152 -0.0637,0.21627 -0.0252,0.46531 0.0752,0.48623 0.25692,0.79813 0.1836,0.32375 0.23384,0.41313 l -1.28338,0.41691 q -0.0603,-0.0757 -0.30963,-0.5107 -0.24937,-0.43501 -0.37768,-1.26516 z m -1.14888,-7.15408 q -0.17903,-1.05289 0.0451,-1.8822 0.23599,-0.83132 0.8754,-1.36607 0.65124,-0.53676 1.70413,-0.71578 0.82811,-0.14081 1.48351,-0.009 0.66925,0.14182 1.15371,0.48548 0.4983,0.35347 0.78792,0.8398 0.30346,0.49616 0.398,1.05218 0.23334,1.3723 -0.46025,2.23274 -0.69358,0.86043 -2.25517,1.12595 -0.15379,0.0261 -0.33325,0.0445 -0.16563,0.0282 -0.28594,0.0364 l -0.68794,-4.04593 q -0.60334,0.10259 -0.87376,0.6598 -0.25658,0.56704 -0.12181,1.35966 0.0825,0.48504 0.25355,0.91849 0.18492,0.44328 0.34168,0.72093 l -1.34591,0.46012 q -0.2242,-0.38791 -0.40131,-0.85685 -0.17712,-0.46895 -0.27769,-1.06046 z m 3.56095,-2.39479 0.42443,2.49617 q 0.33125,-0.0563 0.60689,-0.22491 0.27564,-0.16859 0.41866,-0.47287 0.14503,-0.29245 0.0706,-0.73017 -0.0724,-0.42589 -0.30796,-0.6658 -0.22372,-0.24192 -0.54361,-0.33359 -0.3199,-0.0917 -0.66901,-0.0688 z m -4.64809,-3.78412 q -0.14014,-0.75511 -0.0617,-1.31889 0.0784,-0.56377 0.55682,-0.94547 0.48057,-0.36991 1.51884,-0.5626 l 2.54849,-0.47297 -0.26277,-1.41582 1.34504,-0.24962 0.26276,1.41582 1.5692,-0.29123 0.56175,1.58003 -1.82878,0.3394 0.48392,2.60747 -1.34503,0.24962 -0.48392,-2.60747 -2.51309,0.4664 q -0.46014,0.0854 -0.6764,0.23538 -0.20228,0.15959 -0.24545,0.38729 -0.0314,0.22551 0.019,0.49688 0.0854,0.46014 0.2057,0.77955 0.12031,0.31941 0.41808,0.74014 l -1.36242,0.48474 q -0.27199,-0.41331 -0.44131,-0.9311 -0.17894,-0.50381 -0.26872,-0.98755 z m -1.45289,-7.55118 q -0.20359,-1.01172 0.0498,-1.63802 0.26755,-0.61691 0.87197,-0.95887 0.61855,-0.33256 1.45381,-0.50064 l 3.4469,-0.69363 0.32669,1.62346 -3.23515,0.65101 q -0.84702,0.17045 -1.23029,0.45567 -0.36913,0.29461 -0.25076,0.88282 0.0331,0.1647 0.0851,0.36232 0.0661,0.20702 0.12281,0.36698 l 4.8586,-0.9777 0.32906,1.63522 -5.9762,1.2026 q -0.2076,-0.42337 -0.45544,-1.04672 -0.24785,-0.62336 -0.39699,-1.3645 z m -1.15099,-5.5437 q -0.1603,-0.73881 0.0286,-1.28323 0.20313,-0.53524 0.72941,-0.88273 0.53802,-0.35004 1.37065,-0.53069 l 5.24203,-1.13735 -0.37148,-1.71217 1.34862,-0.2926 0.72261,3.33051 -6.70793,1.4554 q -0.41045,0.0891 -0.61955,0.25721 -0.2091,0.16816 -0.25966,0.38788 -0.0506,0.21971 0.003,0.46598 0.10432,0.48082 0.30456,0.78119 0.20279,0.3121 0.25833,0.39828 l -1.25592,0.49352 q -0.0647,-0.0719 -0.33985,-0.49111 -0.27514,-0.41919 -0.45325,-1.24009 z m -1.73005,-7.56608 q -0.20134,-0.86488 0.0553,-1.6146 0.26838,-0.75245 0.91762,-1.29787 0.65197,-0.53372 1.61034,-0.75684 0.97006,-0.22583 1.78175,-0.0205 0.81441,0.21699 1.36415,0.77898 0.56143,0.55926 0.75734,1.40076 0.20134,0.86487 -0.0581,1.60292 -0.24501,0.747 -0.88528,1.27801 -0.63756,0.54269 -1.60762,0.76852 -0.95837,0.22312 -1.77903,0.0322 -0.82065,-0.1909 -1.39377,-0.74744 -0.55871,-0.54758 -0.76278,-1.42414 z m 1.39706,-0.34988 q 0.14693,0.63112 0.73464,0.82696 0.59043,0.20753 1.40855,0.0171 0.82981,-0.19318 1.26163,-0.61405 0.43454,-0.40918 0.28217,-1.06368 -0.14148,-0.60775 -0.72295,-0.82969 -0.57875,-0.21025 -1.40856,-0.0171 -0.81812,0.19046 -1.26162,0.61405 -0.44351,0.4236 -0.29386,1.06641 z m -3.01255,-6.50403 q -0.19408,-0.78023 -0.16134,-1.39429 0.0444,-0.61696 0.10013,-0.98943 l 1.41456,-0.0798 q -0.0646,0.48596 -0.0973,1.05055 -0.0327,0.56458 0.0977,1.08862 0.14774,0.5939 0.30746,0.88804 0.17137,0.29124 0.42757,0.22752 0.2329,-0.0579 0.31755,-0.26448 0.0963,-0.20943 0.12868,-0.52663 0.0353,-0.30556 0.0561,-0.66933 0.0179,-0.37543 0.0533,-0.77994 0.0499,-0.39576 0.18425,-0.75067 0.1343,-0.35491 0.39947,-0.63109 0.27972,-0.26743 0.75717,-0.38619 0.52403,-0.13036 1.02152,0.0303 0.51204,0.16941 0.91017,0.67629 0.41267,0.51563 0.64151,1.4356 0.14773,0.5939 0.18202,1.12946 0.0372,0.54721 -0.0303,0.97205 l -1.42621,0.0827 q 0.0118,-0.15133 0.0267,-0.43945 0.0265,-0.29101 0.01,-0.65774 -0.0141,-0.35509 -0.10972,-0.73938 -0.15063,-0.60555 -0.35705,-0.78915 -0.19188,-0.17485 -0.36656,-0.1314 -0.18632,0.0464 -0.28551,0.24414 -0.0992,0.19779 -0.13737,0.4917 -0.0353,0.30555 -0.0706,0.66058 -0.0295,0.37832 -0.0883,0.78862 -0.047,0.40741 -0.19009,0.77687 -0.1314,0.36655 -0.41112,0.63398 -0.27682,0.27908 -0.76592,0.40074 -0.51238,0.12745 -0.99823,-0.0361 -0.48585,-0.16355 -0.88392,-0.71992 -0.39518,-0.54471 -0.65588,-1.59277 z m -1.61678,-6.28501 q -0.15973,-0.60321 -0.24202,-1.289 -0.0823,-0.68578 -0.0598,-1.16345 l 8.56093,-2.26697 0.69071,1.53018 -3.05085,0.80787 q 0.25149,0.2934 0.39243,0.59125 0.14094,0.29785 0.22387,0.61105 0.21195,0.80041 -0.0528,1.44153 -0.25003,0.64965 -0.89859,1.10691 -0.63389,0.46578 -1.59671,0.72074 -0.97441,0.25803 -1.78578,0.10047 -0.80829,-0.14596 -1.37779,-0.70273 -0.55482,-0.54824 -0.80364,-1.48785 z m 1.35961,-0.39727 q 0.16588,0.62641 0.69031,0.87236 0.52443,0.24595 1.53365,-0.0213 0.5684,-0.15051 0.91742,-0.37948 0.36369,-0.22045 0.50491,-0.53094 0.1443,-0.2989 0.0429,-0.6817 -0.0676,-0.25521 -0.20783,-0.50358 -0.13718,-0.23677 -0.28766,-0.38313 l -3.31765,0.87853 q 0.0144,0.19481 0.0434,0.39816 0.0437,0.21188 0.0806,0.35108 z m -3.84441,-9.16055 q 1.25952,-0.0423 2.41507,-0.0554 1.15554,-0.0131 2.21867,-1.8e-4 1.07467,0.01 2.06524,0.0305 1.00211,0.0176 1.94647,0.0514 l 0.48691,1.7329 q -0.78854,0.52072 -1.64315,1.07247 -0.85461,0.55174 -1.77023,1.10817 -0.91561,0.55643 -1.9121,1.13558 -0.98493,0.5759 -2.05398,1.16298 l -0.48042,-1.70979 1.74454,-0.88906 -0.60053,-2.13723 -1.95229,0.14969 z m 3.81789,1.43264 0.43822,1.5596 q 0.55166,-0.25472 1.03907,-0.51632 0.4874,-0.2616 0.97987,-0.54956 0.50402,-0.29119 1.05606,-0.63328 -0.64942,-0.004 -1.23135,0.009 -0.57037,0.0107 -1.1227,0.0412 -0.55233,0.0306 -1.15917,0.0889 z"
   transform="translate(4,-2)" /><path
   id="path1133"
   style="font-weight:bold;font-size:13.3333px;line-height:1;font-family:monospace;-inkscape-font-specification:'monospace Bold';text-align:center;letter-spacing:0px;text-anchor:middle;white-space:pre;display:inline;fill:#ffffff;stroke:none;stroke-width:0.5;stop-color:#000000"
   d="m 744.22684,96.723077 q -0.69655,-0.174813 -1.33278,-0.475051 -0.63623,-0.300238 -1.25403,-0.756859 -1.47119,-1.087377 -1.67083,-2.44929 -0.19054,-1.363279 0.90457,-2.844939 1.06029,-1.434541 2.42425,-1.713631 1.36396,-0.27909 2.65714,0.676718 1.30365,0.963547 1.44821,2.268553 0.15367,1.30364 -0.8834,2.706768 l -0.46049,0.62303 -3.97378,-2.937078 q -0.50557,0.694962 -0.35396,1.333238 0.15161,0.638275 0.95265,1.230334 0.52879,0.390836 1.1541,0.618233 0.6253,0.227396 1.42929,0.311611 z m 1.13948,-4.258074 q 0.43841,-0.615063 0.36306,-1.148401 -0.0662,-0.534704 -0.65263,-0.968107 -0.52879,-0.390836 -1.08284,-0.298412 -0.55019,0.08719 -1.04505,0.636239 z m -7.611,-0.503723 q -0.69993,-0.160791 -1.34206,-0.448192 -0.64213,-0.287401 -1.26897,-0.731524 -1.49273,-1.057614 -1.71968,-2.415243 -0.21788,-1.359178 0.84726,-2.862531 1.03127,-1.455543 2.38935,-1.761967 1.35808,-0.306424 2.67019,0.623223 1.32274,0.937174 1.49348,2.239014 0.17981,1.300291 -0.82888,2.723961 l -0.44788,0.632152 -4.03196,-2.856687 q -0.49151,0.704974 -0.32711,1.340076 0.1644,0.635102 0.97716,1.210956 0.53653,0.380139 1.16628,0.594933 0.62974,0.214794 1.43527,0.282846 z m 1.05373,-4.280098 q 0.42597,-0.623743 0.33993,-1.15546 -0.077,-0.533266 -0.67194,-0.954806 -0.53653,-0.380139 -1.08862,-0.276608 -0.54832,0.09822 -1.03205,0.657097 z m -4.5915,-4.244026 q -0.0977,-0.412517 -0.36739,-0.768681 -0.26432,-0.352508 -0.6791,-0.634038 -0.50097,-0.34003 -0.9987,-0.418203 -0.48869,-0.0799 -0.92007,0.115139 -0.26822,0.116947 -0.51952,0.37127 -0.24592,0.257979 -0.64811,0.850524 l -1.88661,2.779571 -1.57833,-1.071277 4.09499,-6.033178 1.57832,1.071277 -0.63618,0.937297 q 0.58262,-0.359911 1.25217,-0.314618 0.6732,0.03991 1.31423,0.474998 0.3232,0.219375 0.57541,0.508582 0.26124,0.287476 0.43898,0.62843 z m -9.46276,-4.520514 q 0.53208,-0.81888 0.54015,-1.512396 0.0116,-0.698977 -0.49608,-1.028864 -0.50225,-0.326341 -1.13267,-0.0372 -0.62496,0.292686 -1.16058,1.117024 -0.53918,0.829798 -0.55271,1.519768 -0.008,0.693517 0.49418,1.019857 0.5077,0.329888 1.13812,0.04075 0.63397,-0.294598 1.16959,-1.118936 z m -0.15276,3.736167 q -0.95419,1.468523 -2.04233,1.685412 -1.08622,0.225894 -2.57658,-0.742486 -0.50225,-0.326341 -0.94391,-0.722016 -0.44522,-0.390216 -0.8536,-0.872961 l 0.95419,-1.468524 q 0.28994,0.545539 0.68139,0.970699 0.39146,0.42516 0.88824,0.747954 0.67694,0.43985 1.20832,0.327041 0.52783,-0.10735 0.96768,-0.78429 l 0.42921,-0.660563 q -0.51852,0.284207 -1.04446,0.245266 -0.52595,-0.03894 -1.08278,-0.400754 -1.04817,-0.681058 -1.13298,-1.900769 -0.0848,-1.219711 0.82681,-2.622724 0.94355,-1.452146 2.1138,-1.902949 1.17025,-0.450804 2.2075,0.223161 0.52408,0.340529 0.7739,0.852231 0.24981,0.511703 0.19369,1.111886 l 0.50725,-0.780665 1.59954,1.039324 z m -7.42101,-8.169516 q -0.90683,-0.56361 -1.41058,-0.554755 -0.50375,0.0089 -0.85429,0.572858 -0.26118,0.420238 -0.16701,0.823712 0.0942,0.403474 0.51995,0.668096 0.64141,0.398651 1.29428,0.137535 0.65631,-0.266646 1.19587,-1.134769 l 0.0687,-0.110589 z m 2.64436,0.777324 -2.19602,3.533316 -1.60907,-1.000064 0.42958,-0.69118 q -0.54737,0.227036 -1.14378,0.162973 -0.59641,-0.06406 -1.14935,-0.407729 -1.05613,-0.656399 -1.30068,-1.582594 -0.23902,-0.922759 0.38302,-1.923589 0.67358,-1.083771 1.69543,-1.161555 1.02528,-0.08331 2.49611,0.830833 l 1.12248,0.697639 0.1684,-0.270942 q 0.244,-0.392591 0.0802,-0.770357 -0.15485,-0.379858 -0.70779,-0.723523 -0.5806,-0.360848 -1.2208,-0.55178 -0.63124,-0.193026 -1.42221,-0.240039 l 0.85916,-1.382362 q 0.67382,0.112177 1.29206,0.350782 0.61824,0.238605 1.23754,0.623509 1.50954,0.938205 1.73631,1.930004 0.2323,0.995237 -0.75058,2.576658 z m -6.07017,-7.152476 -0.85112,1.432953 q -0.28051,-0.560369 -0.68665,-0.998476 -0.39721,-0.44038 -0.88979,-0.732954 -0.54855,-0.32582 -0.92484,-0.329728 -0.37297,-0.0095 -0.55915,0.303953 -0.26598,0.447798 0.76565,1.439157 l 0.0516,0.05336 0.40369,0.391224 q 0.76926,0.744655 0.90087,1.466468 0.14054,0.71954 -0.33822,1.525576 -0.57517,0.968363 -1.50253,1.076328 -0.91844,0.105692 -2.19466,-0.652339 -0.56535,-0.335794 -1.09884,-0.788966 -0.53681,-0.447575 -1.03057,-1.005878 l 0.85112,-1.432953 q 0.3601,0.630356 0.82343,1.125152 0.46893,0.498121 0.99509,0.810643 0.57654,0.342443 0.97295,0.350728 0.39641,0.0083 0.58591,-0.310772 0.18619,-0.313458 0.0732,-0.607721 -0.10736,-0.290938 -0.78357,-0.950034 l -0.39355,-0.370055 q -0.81403,-0.771252 -0.97574,-1.480649 -0.1617,-0.709397 0.29045,-1.470654 0.53861,-0.90679 1.49273,-1.021574 0.95413,-0.114783 2.14079,0.590052 0.53176,0.315846 1.00473,0.717927 0.48189,0.399808 0.877,0.869228 z m -11.28909,-6.81443 3.28468,1.862609 -2.8742,5.068598 2.06142,1.168947 -0.72256,1.274229 -5.78783,-3.282046 0.72256,-1.274228 2.06709,1.172159 2.15163,-3.794369 -1.62535,-0.92167 z m 3.37556,-2.164794 1.65933,0.940939 -1.09829,1.936827 -1.65933,-0.940938 z m -7.77932,0.925603 1.84261,-3.407385 1.67219,0.90427 -4.81864,8.91074 -1.6722,-0.90427 0.51408,-0.950631 q -0.56955,0.409939 -1.1508,0.458286 -0.57552,0.05144 -1.15391,-0.261334 -1.09953,-0.594589 -1.22965,-1.804762 -0.13012,-1.210174 0.73699,-2.813649 0.87949,-1.626382 1.96297,-2.16548 1.0892,-0.536002 2.22881,0.08026 0.5154,0.278713 0.77645,0.767741 0.26987,0.486399 0.2911,1.18621 z m -3.5876,1.050085 q -0.50169,0.927725 -0.47735,1.621809 0.0243,0.694084 0.56837,0.988281 0.54404,0.294198 1.14391,-0.06233 0.59988,-0.356531 1.10156,-1.284256 0.50168,-0.927725 0.47162,-1.624906 -0.0301,-0.69718 -0.57409,-0.991378 -0.54404,-0.294197 -1.13819,0.06543 -0.59415,0.359628 -1.09583,1.287353 z m -14.45375,-2.459803 q -0.79747,0.754786 -1.48894,0.938027 -0.6885,0.191952 -1.3784,-0.146002 l -1.41487,-0.693092 0.63867,-1.303792 0.69575,0.340819 q 0.52619,0.257761 0.86053,0.196805 0.33148,-0.05511 0.90079,-0.580928 l 0.30047,-0.287788 0.62826,-7.587017 1.80075,0.882118 -0.58541,4.983665 3.51456,-3.548792 1.80075,0.882118 z m -7.52236,-7.823581 2.37238,-5.10022 -1.7532,-0.815508 0.61781,-1.328183 3.48279,1.620034 -2.9902,6.428402 q -0.36244,0.7792 -0.27144,1.216445 0.091,0.437246 0.6695,0.706336 l 1.38131,0.642522 -0.61781,1.328182 -1.86536,-0.867679 q -1.23373,-0.573876 -1.47436,-1.461273 -0.24063,-0.887397 0.44858,-2.369058 z m -3.02483,-8.29852 -0.83523,1.894354 2.28157,1.005945 -0.59096,1.340344 -2.28157,-1.005945 -1.39204,3.157256 q -0.19698,0.446781 -0.0692,0.737918 0.13636,0.287807 0.64272,0.511059 l 1.34034,0.590959 -0.59096,1.340345 -1.46544,-0.646116 q -1.50119,-0.661875 -1.82125,-1.372199 -0.31744,-0.716282 0.25514,-2.014927 l 1.35527,-3.073856 -1.70373,-0.751175 0.59096,-1.340345 1.70373,0.751176 0.83522,-1.894354 z m -7.03906,1.979569 -1.82193,4.368344 -1.74854,-0.729274 1.70915,-4.097951 q 0.30324,-0.727056 0.22325,-1.127223 -0.074,-0.397661 -0.54266,-0.593137 -0.4807,-0.200488 -0.92902,0.113358 -0.44582,0.307836 -0.75908,1.058927 l -1.60641,3.851593 -1.74854,-0.729274 3.89949,-9.349578 1.74854,0.729275 -1.51369,3.62927 q 0.41934,-0.481122 0.99781,-0.59961 0.57846,-0.118488 1.21539,0.147158 0.95538,0.39847 1.17645,1.238389 0.22356,0.83391 -0.30021,2.089733 z m -9.48407,-2.842689 q 0.35771,-0.908688 0.22703,-1.58983 -0.12829,-0.6872 -0.69167,-0.908979 -0.55733,-0.219394 -1.11726,0.18989 -0.55387,0.411669 -0.91396,1.326415 -0.36248,0.920805 -0.23786,1.599562 0.13068,0.681142 0.68801,0.900536 0.56338,0.221779 1.12331,-0.187505 0.56231,-0.415342 0.9224,-1.330089 z m 0.59692,3.691337 q -0.64149,1.629581 -1.66433,2.059538 -1.01918,0.4384 -2.67299,-0.212628 -0.55733,-0.219394 -1.06916,-0.51883 -0.51421,-0.293377 -1.01082,-0.684778 l 0.64149,-1.629581 q 0.39311,0.476596 0.86162,0.814956 0.46852,0.33836 1.01979,0.555369 0.75118,0.295705 1.2493,0.07899 0.49573,-0.210661 0.79144,-0.961843 l 0.28855,-0.733009 q -0.45127,0.382091 -0.97439,0.449035 -0.52311,0.06694 -1.14102,-0.176297 -1.16312,-0.457866 -1.48996,-1.636028 -0.32684,-1.178161 0.28603,-2.735048 0.63434,-1.611407 1.6909,-2.28697 1.05656,-0.675563 2.20757,-0.222466 0.58156,0.228933 0.92859,0.680393 0.34703,0.451461 0.41198,1.050753 l 0.34101,-0.866283 1.77497,0.698723 z m -10.48404,-11.231651 3.5407,1.312206 -2.02487,5.463661 2.22209,0.823523 -0.50904,1.373546 -6.23895,-2.312198 0.50904,-1.373546 2.2282,0.825785 1.51582,-4.090115 -1.75203,-0.649316 z m 2.98506,-2.677719 1.78866,0.662891 -0.77375,2.08779 -1.78866,-0.66289 z m -11.07122,4.333493 1.84834,-5.312635 -1.82621,-0.635369 0.48134,-1.383498 3.62784,1.262179 -2.32969,6.696134 q -0.28238,0.811652 -0.14794,1.237552 0.13444,0.425899 0.73703,0.635549 l 1.43884,0.500594 -0.48134,1.383498 -1.94304,-0.676015 q -1.28512,-0.447111 -1.61363,-1.305865 -0.3285,-0.858755 0.20846,-2.402124 z m -6.53469,-3.468405 q -1.20919,-0.975631 -1.51082,-1.710572 -0.29961,-0.741131 0.0188,-1.719247 0.40912,-1.256692 1.44768,-1.712803 1.03856,-0.45611 2.44383,0.0014 0.63763,0.207584 1.2269,0.563742 0.59127,0.349968 1.12382,0.838289 l -0.58043,1.782894 q -0.45308,-0.606232 -0.98922,-1.02041 -0.53614,-0.414178 -1.13044,-0.607655 -0.66239,-0.215645 -1.10192,-0.06433 -0.43952,0.15132 -0.60075,0.646568 -0.12496,0.383817 0.0462,0.720262 0.17939,0.33227 0.89779,0.90164 l 0.68947,0.553102 q 0.98129,0.771348 1.28782,1.617431 0.30652,0.846083 -0.028,1.873723 -0.45547,1.399076 -1.51074,1.822363 -1.04705,0.419111 -2.71852,-0.125041 -0.68715,-0.223707 -1.32609,-0.616576 -0.63475,-0.384663 -1.17378,-0.916173 l 0.61469,-1.888134 q 0.5612,0.757825 1.15954,1.233331 0.60453,0.477522 1.27311,0.695183 0.67478,0.219676 1.14497,0.03726 0.4722,-0.188608 0.65157,-0.739571 0.13503,-0.414771 -0.0118,-0.804916 -0.14483,-0.396336 -0.55687,-0.729032 z"
   transform="rotate(-48.363752,497.28639,451.32208)" /><path
   id="path1058"
   style="font-weight:bold;font-size:13.3333px;line-height:1;font-family:monospace;-inkscape-font-specification:'monospace Bold';text-align:center;letter-spacing:0px;text-anchor:middle;white-space:pre;display:inline;fill:#ffffff;stroke:none;stroke-width:0.5;stop-color:#000000"
   d="m 131.03198,204.30864 q -0.15683,0.70082 -0.44059,1.34457 -0.28376,0.64375 -0.72432,1.2731 -1.04915,1.49869 -2.40547,1.73333 -1.35792,0.22558 -2.86728,-0.83103 -1.46136,-1.02301 -1.77547,-2.37933 -0.31411,-1.35633 0.60809,-2.67369 0.92966,-1.32802 2.23052,-1.50613 1.29925,-0.18717 2.72861,0.81343 l 0.63468,0.4443 -2.83381,4.04808 q 0.70775,0.4875 1.34191,0.31951 0.63416,-0.16799 1.2054,-0.984 0.37709,-0.53868 0.58832,-1.16963 0.21122,-0.63095 0.27471,-1.43685 z m -4.286,-1.02948 q -0.62615,-0.42243 -1.15737,-0.33337 -0.53282,0.08 -0.95098,0.67733 -0.3771,0.53868 -0.27044,1.09017 0.10132,0.54775 0.66293,1.02832 z m -0.30764,7.62152 q -0.14269,0.70384 -0.41344,1.35316 -0.27076,0.64933 -0.69857,1.28741 -1.01878,1.5195 -2.37011,1.78138 -1.35311,0.25285 -2.88342,-0.77319 -1.48165,-0.9934 -1.82298,-2.34313 -0.34133,-1.34973 0.55418,-2.68537 0.90276,-1.34646 2.19977,-1.5507 1.29522,-0.21328 2.74442,0.75837 l 0.64349,0.43144 -2.75179,4.10427 q 0.71741,0.47316 1.34806,0.29245 0.63065,-0.18071 1.18536,-1.00806 0.36618,-0.54615 0.56467,-1.18122 0.19849,-0.63507 0.24575,-1.44208 z m -4.30584,-0.94305 q -0.63452,-0.40975 -1.16384,-0.31002 -0.5311,0.0907 -0.93717,0.69633 -0.36618,0.54615 -0.24845,1.09538 0.11233,0.54561 0.68349,1.01478 z m -4.1243,4.69953 q -0.40986,0.1083 -0.75895,0.3871 -0.34558,0.27332 -0.61631,0.69523 -0.327,0.50957 -0.39231,1.00915 -0.0673,0.49059 0.13884,0.9168 0.12382,0.26511 0.38454,0.50977 0.26424,0.23918 0.86696,0.62595 l 2.82731,1.81429 -1.03021,1.60543 -6.13679,-3.938 1.0302,-1.60543 0.9534,0.6118 q -0.37482,-0.57315 -0.34681,-1.24365 0.0225,-0.674 0.44094,-1.32604 0.21096,-0.32876 0.49357,-0.58833 0.28064,-0.26858 0.6169,-0.45505 z m -4.27497,9.57632 q -0.83233,-0.51077 -1.52583,-0.50095 -0.69904,0.006 -1.01572,0.52246 -0.31328,0.5105 -0.008,1.13325 0.30871,0.6172 1.14659,1.13138 0.84343,0.51759 1.53352,0.51332 0.69349,-0.01 1.00677,-0.52032 0.31668,-0.51605 0.0114,-1.1388 -0.31086,-0.62616 -1.14874,-1.14034 z m 3.73886,0.0563 q 1.49265,0.91599 1.73754,1.99817 0.25384,1.08004 -0.67577,2.59488 -0.31327,0.5105 -0.69742,0.96223 -0.3786,0.45513 -0.85065,0.87583 l -1.49265,-0.91599 q 0.53787,-0.30392 0.95279,-0.70621 0.41492,-0.40229 0.72479,-0.90724 0.42224,-0.68806 0.29576,-1.21635 -0.12093,-0.52488 -0.80899,-0.94712 l -0.67141,-0.41203 q 0.29749,0.51102 0.27213,1.03779 -0.0254,0.52677 -0.37269,1.09276 -0.65379,1.06538 -1.87091,1.18163 -1.21712,0.11625 -2.64318,-0.75888 -1.47601,-0.90577 -1.95685,-2.064 -0.48084,-1.15823 0.16614,-2.21252 0.3269,-0.53269 0.83198,-0.79563 0.50509,-0.26293 1.10652,-0.22231 l -0.79349,-0.48694 0.99772,-1.62582 z m -12.16651,5.80601 2.97383,2.79259 0.91871,-1.56694 z m -2.10911,0.12186 1.18872,-2.02747 9.71211,2.65286 -0.97139,1.6568 -2.37535,-0.69836 -1.30067,2.21842 1.77604,1.72053 -0.97139,1.6568 z"
   transform="rotate(100.16761,493.62688,454.95484)" /><path
   id="path1085"
   style="font-weight:bold;font-size:13.3333px;line-height:1;font-family:monospace;-inkscape-font-specification:'monospace Bold';text-align:center;letter-spacing:0px;text-anchor:middle;white-space:pre;display:inline;fill:#ffffff;stroke:none;stroke-width:0.5;stop-color:#000000"
   d="m 314.5928,55.098473 q -0.50188,0.513682 -1.08172,0.912078 -0.57984,0.398395 -1.28548,0.702093 -1.68041,0.723214 -2.95749,0.209686 -1.27369,-0.522081 -2.00205,-2.214443 -0.7052,-1.638541 -0.25927,-2.957414 0.44593,-1.318873 1.92301,-1.95458 1.48904,-0.640855 2.68922,-0.108403 1.20359,0.523898 1.89334,2.126559 l 0.30628,0.711629 -4.53888,1.953449 q 0.34571,0.786796 0.97347,0.977325 0.62775,0.190529 1.54271,-0.203249 0.60398,-0.259945 1.11539,-0.685592 0.51141,-0.425646 0.98914,-1.077778 z m -3.1045,-3.129166 q -0.31051,-0.688542 -0.80921,-0.892091 -0.49528,-0.212102 -1.16505,0.07615 -0.60399,0.259945 -0.80323,0.785132 -0.2018,0.519208 0.0233,1.223267 z m -4.26891,6.321271 q -0.49144,0.523667 -1.06315,0.933638 -0.57172,0.409971 -1.27112,0.727793 -1.66552,0.756847 -2.95268,0.269096 -1.28392,-0.496372 -2.04615,-2.17375 -0.73799,-1.624034 -0.31867,-2.951605 0.41933,-1.32757 1.88333,-1.992842 1.47586,-0.670659 2.6865,-0.16244 1.21387,0.499597 1.93571,2.088068 l 0.32051,0.705328 -4.49869,2.044297 q 0.36146,0.779688 0.99292,0.957559 0.63146,0.177871 1.53831,-0.234221 0.59864,-0.272034 1.10139,-0.707875 0.50275,-0.43584 0.96727,-1.097444 z m -3.16677,-3.066127 q -0.32429,-0.68216 -0.82697,-0.875643 -0.49946,-0.202103 -1.16329,0.09956 -0.59864,0.272034 -0.78728,0.801121 -0.19133,0.523159 0.0478,1.222552 z m -5.97909,1.828959 q -0.40558,-0.123378 -0.84911,-0.06977 -0.43765,0.05079 -0.88978,0.267323 -0.54607,0.261523 -0.8643,0.652136 -0.31516,0.381929 -0.36394,0.852837 -0.0341,0.290616 0.0591,0.635812 0.099,0.342384 0.40833,0.988277 l 1.45103,3.029828 -1.72042,0.823937 -3.14952,-6.576371 1.72042,-0.823937 0.4893,1.021686 q -0.0175,-0.684608 0.35889,-1.240213 0.37354,-0.561478 1.07228,-0.896115 0.35231,-0.168724 0.72918,-0.240935 0.37993,-0.0809 0.764,-0.06271 z m -8.67138,5.89804 q -0.43945,-0.8721 -1.03451,-1.22837 -0.598,-0.362084 -1.1387,-0.08963 -0.53489,0.269526 -0.60262,0.959775 -0.0619,0.687319 0.38046,1.565232 0.44531,0.883728 1.03456,1.242928 0.59506,0.35627 1.12995,0.08674 0.5407,-0.272456 0.60843,-0.962705 0.0648,-0.696063 -0.37757,-1.573976 z m 3.15074,2.013731 q 0.78807,1.563965 0.42739,2.613246 -0.35194,1.052165 -1.93916,1.851956 -0.53489,0.269526 -1.09916,0.451797 -0.56135,0.188085 -1.18408,0.297749 l -0.78807,-1.563965 q 0.61733,0.02428 1.18178,-0.09976 0.56446,-0.124041 1.09353,-0.390637 0.72094,-0.363275 0.89111,-0.879149 0.17311,-0.510061 -0.19016,-1.230996 l -0.35449,-0.703494 q -0.0156,0.591094 -0.31417,1.025844 -0.29854,0.43475 -0.89156,0.733573 -1.11629,0.56249 -2.21272,0.02144 -1.09642,-0.541051 -1.84934,-2.035248 -0.77928,-1.546523 -0.57933,-2.784555 0.19996,-1.238032 1.30462,-1.794662 0.55815,-0.281245 1.12603,-0.239338 0.56788,0.04191 1.05811,0.39268 l -0.41893,-0.831401 1.7035,-0.858383 z m -10.79528,2.296367 q -0.94363,0.499549 -1.1897,0.939203 -0.24607,0.439654 0.0646,1.026549 0.2315,0.437294 0.6275,0.559147 0.39599,0.121853 0.83904,-0.112691 0.66745,-0.353339 0.77069,-1.048872 0.1002,-0.701286 -0.37803,-1.604644 l -0.0609,-0.115077 z m 2.00338,-1.892967 1.94641,3.676724 -1.67438,0.886394 -0.38075,-0.719234 q -0.0795,0.587226 -0.43528,1.070201 -0.35573,0.482975 -0.93112,0.787578 -1.09898,0.581791 -2.0223,0.326575 -0.91756,-0.258262 -1.46889,-1.299712 -0.59702,-1.127759 -0.14956,-2.049715 0.44442,-0.927709 1.97495,-1.737952 l 1.16803,-0.618344 -0.14925,-0.28194 q -0.21627,-0.408524 -0.62513,-0.45727 -0.40615,-0.05755 -0.98154,0.247057 -0.60415,0.319833 -1.09154,0.776744 -0.48469,0.448111 -0.92368,1.107761 l -0.76151,-1.438468 q 0.43629,-0.525619 0.9538,-0.939546 0.51751,-0.413926 1.16194,-0.755081 1.57081,-0.831566 2.54185,-0.527949 0.97679,0.30057 1.84795,1.946177 z M 269.7733,78.708674 q 0.18548,1.082242 -0.0457,1.75919 -0.22231,0.679299 -0.88626,1.065751 l -1.36166,0.792555 -0.73033,-1.25475 0.66958,-0.389727 q 0.5064,-0.294752 0.64119,-0.60673 0.13807,-0.306351 0.0165,-1.071739 l -0.0727,-0.409651 -5.96346,-4.732299 1.73301,-1.008706 3.82137,3.252193 -1.0024,-4.892978 1.73302,-1.008706 z m -10.68289,1.917512 -2.9268,-4.803572 -1.65123,1.006088 -0.76219,-1.25093 3.28022,-1.998626 3.68899,6.054502 q 0.44715,0.733879 0.86141,0.900774 0.41426,0.166895 0.95911,-0.16508 l 1.30096,-0.792675 0.76219,1.25093 -1.75686,1.07045 q -1.16197,0.707988 -2.03376,0.415804 -0.87178,-0.292183 -1.72204,-1.687665 z m -8.58219,-2.088005 1.11257,1.745956 2.10283,-1.339982 0.78719,1.235346 -2.10283,1.339982 1.85428,2.909926 q 0.2624,0.411782 0.57551,0.467015 0.3151,0.04624 0.78179,-0.251141 l 1.23535,-0.787196 0.78719,1.235346 -1.35064,0.860667 q -1.38359,0.881659 -2.15213,0.753805 -0.77204,-0.133345 -1.53474,-1.330258 l -1.8053,-2.833061 -1.57027,1.000613 -0.78719,-1.235346 1.57026,-1.000613 -1.11257,-1.745955 z m -2.25875,6.954443 2.62331,3.939557 -1.57691,1.050046 -2.46093,-3.695705 q -0.43662,-0.65569 -0.81392,-0.811179 -0.37188,-0.159099 -0.79455,0.122357 -0.43352,0.288673 -0.42117,0.835794 0.009,0.541703 0.45978,1.219068 l 2.31299,3.47353 -1.5769,1.050046 -5.61468,-8.431843 1.5769,-1.050046 2.17948,3.273029 q -0.16759,-0.615821 0.0548,-1.162816 0.22239,-0.546996 0.79679,-0.929487 0.86161,-0.573736 1.68303,-0.291611 0.81782,0.276706 1.57198,1.40926 z m -7.62726,6.312943 q -0.5575,-0.801783 -1.19669,-1.071 -0.64289,-0.274562 -1.14,0.07109 -0.49176,0.341938 -0.46193,1.03486 0.0352,0.689206 0.59639,1.496334 0.56494,0.812473 1.19878,1.085407 0.63918,0.269217 1.13094,-0.07272 0.49711,-0.345654 0.46728,-1.038576 -0.0335,-0.698268 -0.59477,-1.505396 z m 3.40221,1.551542 q 0.99979,1.437864 0.78996,2.527383 -0.20076,1.091149 -1.66001,2.105811 -0.49176,0.341938 -1.02486,0.601609 -0.52939,0.265016 -1.13056,0.461004 l -0.9998,-1.437864 q 0.61463,-0.06261 1.15608,-0.264649 0.54146,-0.202043 1.02787,-0.540263 0.66281,-0.460873 0.75889,-0.995527 0.0998,-0.529308 -0.36107,-1.192115 l -0.44972,-0.646772 q 0.0675,0.587436 -0.16707,1.059786 -0.23456,0.47235 -0.77977,0.851455 -1.02628,0.713609 -2.1878,0.331814 -1.16152,-0.381794 -2.11671,-1.755515 -0.98865,-1.421828 -0.96444,-2.675671 0.0242,-1.253843 1.03979,-1.960018 0.51314,-0.356804 1.08129,-0.395023 0.56814,-0.03822 1.10275,0.240271 l -0.53149,-0.764366 1.56615,-1.088997 z m -15.16126,2.490345 3.05623,-2.21763 3.42203,4.716078 1.91804,-1.391753 0.86029,1.185606 -5.38528,3.907615 -0.86029,-1.18561 1.92331,-1.395572 -2.56174,-3.530472 -1.51231,1.097344 z m -0.5715,-3.969146 1.54392,-1.120285 1.30764,1.802121 -1.54393,1.120285 z m -2.53756,11.615302 -3.3944,-4.485366 -1.54185,1.166826 -0.88396,-1.168065 3.06293,-2.317936 4.27836,5.653431 q 0.51859,0.68526 0.94751,0.80971 0.42893,0.12445 0.93768,-0.26056 l 1.21479,-0.91932 0.88396,1.16807 -1.64048,1.24147 q -1.085,0.8211 -1.98172,0.61794 -0.89672,-0.20316 -1.88282,-1.5062 z m -6.51126,3.51238 q -1.48258,0.46473 -2.26138,0.30792 -0.78283,-0.16192 -1.41993,-0.96952 -0.81855,-1.03761 -0.62181,-2.15472 0.19673,-1.11711 1.35701,-2.03244 0.52648,-0.41532 1.14972,-0.70797 0.61921,-0.29777 1.32095,-0.4699 l 1.16129,1.47207 q -0.75574,0.0406 -1.39778,0.25687 -0.64205,0.21627 -1.13274,0.60336 -0.54692,0.43146 -0.66488,0.88108 -0.11796,0.44963 0.20462,0.85854 0.25,0.31691 0.62489,0.36115 0.37597,0.0351 1.24825,-0.2467 l 0.8427,-0.26675 q 1.18617,-0.38846 2.06016,-0.17407 0.87398,0.2144 1.54334,1.06289 0.91129,1.15517 0.67798,2.26796 -0.23223,1.10366 -1.6123,2.19237 -0.56736,0.44758 -1.24871,0.76119 -0.6722,0.31469 -1.41346,0.46825 l -1.22984,-1.55897 q 0.94185,-0.0464 1.66943,-0.28043 0.73268,-0.23802 1.28471,-0.6735 0.55714,-0.43952 0.66624,-0.93191 0.10507,-0.49751 -0.2538,-0.95242 -0.27016,-0.34246 -0.67623,-0.43674 -0.4101,-0.0994 -0.9155,0.0588 z"
   transform="rotate(54.552833,486.61524,439.10374)" /><path
   id="path1100"
   style="font-weight:bold;font-size:13.3333px;line-height:1;font-family:monospace;-inkscape-font-specification:'monospace Bold';text-align:center;letter-spacing:0px;text-anchor:middle;white-space:pre;display:inline;fill:#ffffff;stroke:none;stroke-width:0.5;stop-color:#000000"
   d="m 509.41604,15.993723 0.29675,-5.617153 -1.9309,-0.102006 0.0773,-1.4628006 3.83579,0.2026389 -0.37402,7.0799527 q -0.0453,0.858177 0.20232,1.229832 0.24767,0.371655 0.8848,0.405313 l 1.52131,0.08037 -0.0773,1.4628 -2.05442,-0.108532 q -1.35878,-0.07178 -1.9133,-0.805181 -0.55453,-0.733398 -0.46833,-2.365233 z m -6.03312,-0.632752 q -1.06714,-0.03486 -1.49901,0.224612 -0.43188,0.259474 -0.45356,0.923181 -0.0162,0.494526 0.26709,0.796904 0.28324,0.302377 0.78428,0.318745 0.7548,0.02466 1.18974,-0.527839 0.43515,-0.559006 0.46852,-1.580593 l 0.004,-0.130139 z m 2.67885,-0.648554 -0.13584,4.157928 -1.89351,-0.06186 0.0266,-0.813367 q -0.3606,0.470247 -0.90918,0.712881 -0.54857,0.242633 -1.19927,0.221376 -1.24282,-0.0406 -1.91759,-0.720546 -0.66827,-0.679733 -0.62979,-1.857487 0.0417,-1.275358 0.88781,-1.853506 0.84636,-0.584654 2.57721,-0.52811 l 1.3209,0.04315 0.0104,-0.31884 q 0.0151,-0.461992 -0.31562,-0.707295 -0.32398,-0.251597 -0.97468,-0.272854 -0.68322,-0.02232 -1.33315,0.132322 -0.6432,0.148348 -1.35178,0.503005 l 0.0532,-1.626733 q 0.63967,-0.239657 1.2944,-0.342032 0.65474,-0.102374 1.38351,-0.07857 1.77639,0.05803 2.46856,0.803684 0.69867,0.745865 0.63788,2.606846 z m -7.81347,-1.363814 q -0.30888,-0.290353 -0.73023,-0.438876 -0.41484,-0.148442 -0.9161,-0.154727 -0.60542,-0.0076 -1.06381,0.201521 -0.45179,0.202685 -0.70423,0.603196 -0.15934,0.245417 -0.22884,0.596135 -0.063,0.350799 -0.072,1.066887 l -0.0421,3.359102 -1.90739,-0.02392 0.0914,-7.291075 1.90739,0.02392 -0.0142,1.132721 q 0.28776,-0.62144 0.87139,-0.952689 0.5837,-0.33776 1.35838,-0.328047 0.39059,0.0049 0.76043,0.107199 0.37643,0.09587 0.71266,0.282394 z m -11.16535,-4.149334 0.0157,2.070248 2.49342,-0.01889 0.0111,1.464798 -2.49341,0.01889 0.0261,3.450413 q 0.004,0.488266 0.2397,0.701328 0.24245,0.206502 0.79582,0.202311 l 1.4648,-0.0111 0.0111,1.464798 -1.60151,0.01213 q -1.64057,0.01243 -2.22393,-0.504002 -0.5834,-0.522938 -0.59415,-1.942165 l -0.0254,-3.35927 -1.86193,0.0141 -0.0111,-1.464798 1.86192,-0.0141 -0.0157,-2.070248 z m -11.47494,7.0445 -0.13138,-4.744263 1.90681,-0.05281 0.12328,4.451407 q 0.0218,0.787456 0.25245,1.11974 0.23064,0.332283 0.74476,0.318045 0.51413,-0.01424 0.78786,-0.477721 0.28024,-0.463663 0.25753,-1.28366 l -0.11589,-4.184583 1.90682,-0.05281 0.20185,7.288854 -1.90681,0.05281 -0.0299,-1.080312 q -0.18498,0.610822 -0.66388,0.956242 -0.4724,0.34524 -1.15573,0.364164 -1.04126,0.02884 -1.59402,-0.646223 -0.54624,-0.67524 -0.58373,-2.028884 z m -1.84013,2.256525 q -0.65024,0.304858 -1.33302,0.474398 -0.68278,0.16954 -1.45013,0.206252 -1.82733,0.08742 -2.84294,-0.841666 -1.00942,-0.935902 -1.09746,-2.776241 -0.0853,-1.781811 0.79521,-2.860272 0.88046,-1.07846 2.48669,-1.155305 1.61924,-0.07747 2.55619,0.842349 0.94314,0.913002 1.02652,2.655796 l 0.037,0.773852 -4.93575,0.236135 q 0.0476,0.85808 0.56852,1.256817 0.52095,0.398737 1.51591,0.351136 0.65679,-0.03142 1.28506,-0.250497 0.62827,-0.219075 1.30449,-0.662051 z m -1.80874,-4.01971 q -0.0491,-0.753722 -0.44462,-1.119352 -0.38934,-0.372444 -1.11767,-0.337599 -0.6568,0.03142 -1.02769,0.453272 -0.3712,0.415348 -0.40757,1.153605 z m -13.23634,-4.485101 2.05903,-0.1400814 3.18154,6.8636644 -0.47945,-7.0474936 1.6888,-0.1148933 0.65975,9.6976109 -2.04605,0.139198 -3.19453,-6.862781 0.47946,7.047494 -1.6888,0.114893 z"
   transform="translate(3.7477971,2.0251852)" /><path
   id="path1232"
   style="font-weight:bold;font-size:13.3333px;line-height:1;font-family:monospace;-inkscape-font-specification:'monospace Bold';text-align:center;letter-spacing:0px;text-anchor:middle;white-space:pre;shape-inside:url(#rect690);display:inline;fill:#ffffff;stroke:none;stroke-width:0.5;stop-color:#000000"
   d="m 579.30053,358.94991 v 4.73306 H 577.406 v -4.44009 q 0,-0.79427 -0.22786,-1.13281 -0.22136,-0.34506 -0.72917,-0.34506 -0.51432,0 -0.8138,0.46224 -0.29296,0.46224 -0.29296,1.28255 v 4.17317 h -1.89453 v -7.29165 h 1.89453 v 1.09375 q 0.20182,-0.60547 0.6901,-0.9375 0.48828,-0.33203 1.17838,-0.33203 1.03515,0 1.5625,0.6901 0.52734,0.68359 0.52734,2.04427 z m -10.98955,-1.1849 q -0.68359,0 -1.07421,0.60547 -0.39063,0.59896 -0.39063,1.67317 0,1.07422 0.39063,1.67969 0.39062,0.59896 1.07421,0.59896 0.69011,0 1.08073,-0.59896 0.39062,-0.60547 0.39062,-1.67969 0,-1.07421 -0.39062,-1.67317 -0.39062,-0.60547 -1.08073,-0.60547 z m -3.37238,2.27864 q 0,-1.76431 0.91145,-2.79296 0.91797,-1.03515 2.46093,-1.03515 1.54948,0 2.46093,1.03515 0.91797,1.02865 0.91797,2.79296 0,1.76432 -0.91797,2.79948 -0.91145,1.02864 -2.46093,1.02864 -1.54296,0 -2.46093,-1.02864 -0.91145,-1.03516 -0.91145,-2.79948 z m -7.22655,-3.65233 h 3.77603 v 5.82681 h 2.36978 v 1.46484 h -6.65362 v -1.46484 h 2.37629 v -4.36197 h -1.86848 z m 1.86848,-3.54817 h 1.90755 v 2.22656 h -1.90755 z m -4.36197,6.10676 v 4.73306 h -1.89453 v -4.44009 q 0,-0.79427 -0.22786,-1.13281 -0.22136,-0.34506 -0.72917,-0.34506 -0.51432,0 -0.8138,0.46224 -0.29296,0.46224 -0.29296,1.28255 v 4.17317 h -1.89453 v -7.29165 h 1.89453 v 1.09375 q 0.20182,-0.60547 0.6901,-0.9375 0.48828,-0.33203 1.17838,-0.33203 1.03515,0 1.5625,0.6901 0.52734,0.68359 0.52734,2.04427 z m -13.56115,-2.55859 h 3.77603 v 5.82681 h 2.36978 v 1.46484 h -6.65363 v -1.46484 h 2.3763 v -4.36197 h -1.86848 z m 1.86848,-3.54817 h 1.90755 v 2.22656 h -1.90755 z m -8.45701,9.81118 v 3.80207 h -1.90104 v -10.06508 h 1.90104 v 1.09375 q 0.29947,-0.63151 0.78775,-0.95052 0.48828,-0.31901 1.14583,-0.31901 1.25,0 1.9401,1.0026 0.69011,1.0026 0.69011,2.82551 0,1.84896 -0.70313,2.83854 -0.69661,0.98958 -1.99218,0.98958 -0.58594,0 -1.05468,-0.29948 -0.46224,-0.30599 -0.8138,-0.91796 z m 2.65624,-2.6237 q 0,-1.05468 -0.35156,-1.65364 -0.35156,-0.59895 -0.97005,-0.59895 -0.61849,0 -0.97656,0.59895 -0.35807,0.59896 -0.35807,1.65364 0,1.05469 0.35807,1.65365 0.35807,0.59895 0.97656,0.59895 0.61849,0 0.97005,-0.59895 0.35156,-0.59896 0.35156,-1.65365 z m -9.55076,-2.26562 q -0.6836,0 -1.07422,0.60547 -0.39062,0.59896 -0.39062,1.67317 0,1.07422 0.39062,1.67969 0.39062,0.59896 1.07422,0.59896 0.6901,0 1.08072,-0.59896 0.39063,-0.60547 0.39063,-1.67969 0,-1.07421 -0.39063,-1.67317 -0.39062,-0.60547 -1.08072,-0.60547 z m -3.37239,2.27864 q 0,-1.76431 0.91146,-2.79296 0.91796,-1.03515 2.46093,-1.03515 1.54947,0 2.46093,1.03515 0.91796,1.02865 0.91796,2.79296 0,1.76432 -0.91796,2.79948 -0.91146,1.02864 -2.46093,1.02864 -1.54297,0 -2.46093,-1.02864 -0.91146,-1.03516 -0.91146,-2.79948 z m -12.68226,-2.27864 q -0.68359,0 -1.07421,0.60547 -0.39063,0.59896 -0.39063,1.67317 0,1.07422 0.39063,1.67969 0.39062,0.59896 1.07421,0.59896 0.69011,0 1.08073,-0.59896 0.39063,-0.60547 0.39063,-1.67969 0,-1.07421 -0.39063,-1.67317 -0.39062,-0.60547 -1.08073,-0.60547 z m -3.37238,2.27864 q 0,-1.76431 0.91145,-2.79296 0.91797,-1.03515 2.46093,-1.03515 1.54948,0 2.46094,1.03515 0.91796,1.02865 0.91796,2.79296 0,1.76432 -0.91796,2.79948 -0.91146,1.02864 -2.46094,1.02864 -1.54296,0 -2.46093,-1.02864 -0.91145,-1.03516 -0.91145,-2.79948 z m -1.6927,-1.09374 v 4.73306 h -1.89453 v -4.44009 q 0,-0.79427 -0.22786,-1.13281 -0.22136,-0.34506 -0.72917,-0.34506 -0.51432,0 -0.8138,0.46224 -0.29297,0.46224 -0.29297,1.28255 v 4.17317 h -1.89452 v -7.29165 h 1.89452 v 1.09375 q 0.20182,-0.60547 0.69011,-0.9375 0.48828,-0.33203 1.17838,-0.33203 1.03515,0 1.56249,0.6901 0.52735,0.68359 0.52735,2.04427 z m -15.53382,-0.54688 q -0.3125,-0.28645 -0.73568,-0.42968 -0.41666,-0.14323 -0.91796,-0.14323 -0.60547,0 -1.0612,0.21484 -0.44922,0.20833 -0.69661,0.61198 -0.15625,0.24739 -0.22135,0.59896 -0.0586,0.35156 -0.0586,1.0677 v 3.35937 h -1.90755 v -7.29165 h 1.90755 v 1.13281 q 0.27995,-0.625 0.85937,-0.96354 0.57943,-0.34505 1.35417,-0.34505 0.39062,0 0.76171,0.0977 0.37761,0.0911 0.71615,0.27343 z m -11.51039,-0.63802 q -0.6836,0 -1.07422,0.60547 -0.39062,0.59896 -0.39062,1.67317 0,1.07422 0.39062,1.67969 0.39062,0.59896 1.07422,0.59896 0.6901,0 1.08072,-0.59896 0.39063,-0.60547 0.39063,-1.67969 0,-1.07421 -0.39063,-1.67317 -0.39062,-0.60547 -1.08072,-0.60547 z m -3.37239,2.27864 q 0,-1.76431 0.91145,-2.79296 0.91797,-1.03515 2.46094,-1.03515 1.54947,0 2.46093,1.03515 0.91796,1.02865 0.91796,2.79296 0,1.76432 -0.91796,2.79948 -0.91146,1.02864 -2.46093,1.02864 -1.54297,0 -2.46094,-1.02864 -0.91145,-1.03516 -0.91145,-2.79948 z m -12.20049,-5.72264 v 2.07031 h 2.49349 v 1.46484 h -2.49349 v 3.45051 q 0,0.48828 0.23438,0.70313 0.24088,0.20833 0.79427,0.20833 h 1.46484 v 1.46484 h -1.60156 q -1.64062,0 -2.22005,-0.52083 -0.57942,-0.52735 -0.57942,-1.94661 v -3.35937 h -1.86198 v -1.46484 H 462.53 v -2.07031 z m -5.54686,4.6289 v 4.73306 h -1.89453 v -4.44009 q 0,-0.79427 -0.22786,-1.13281 -0.22136,-0.34506 -0.72917,-0.34506 -0.51432,0 -0.8138,0.46224 -0.29297,0.46224 -0.29297,1.28255 v 4.17317 h -1.89452 v -7.29165 h 1.89452 v 1.09375 q 0.20183,-0.60547 0.69011,-0.9375 0.48828,-0.33203 1.17838,-0.33203 1.03515,0 1.5625,0.6901 0.52734,0.68359 0.52734,2.04427 z m -7.8255,4.37499 q -0.66406,0.27343 -1.35416,0.41015 -0.69011,0.13672 -1.45833,0.13672 -1.82943,0 -2.79948,-0.97656 -0.96353,-0.98307 -0.96353,-2.82551 0,-1.78385 0.93098,-2.81901 0.93099,-1.03515 2.53906,-1.03515 1.62109,0 2.51301,0.96354 0.89844,0.95703 0.89844,2.70181 v 0.77474 h -4.9414 q 0.007,0.85938 0.50782,1.28255 0.5013,0.42318 1.49739,0.42318 0.65755,0 1.29557,-0.1888 0.63802,-0.18881 1.33463,-0.59896 z m -1.61458,-4.10156 q -0.013,-0.7552 -0.39062,-1.13932 -0.3711,-0.39062 -1.10026,-0.39062 -0.65755,0 -1.04818,0.40365 -0.39062,0.39713 -0.46223,1.1328 z m -6.09374,-0.82031 q -0.31249,-0.28645 -0.73567,-0.42968 -0.41667,-0.14323 -0.91797,-0.14323 -0.60546,0 -1.06119,0.21484 -0.44922,0.20833 -0.69662,0.61198 -0.15624,0.24739 -0.22135,0.59896 -0.0586,0.35156 -0.0586,1.0677 v 3.35937 h -1.90755 v -7.29165 h 1.90755 v 1.13281 q 0.27994,-0.625 0.85937,-0.96354 0.57943,-0.34505 1.35416,-0.34505 0.39063,0 0.76172,0.0977 0.3776,0.0911 0.71614,0.27343 z m -8.34633,4.92187 q -0.66406,0.27343 -1.35416,0.41015 -0.69011,0.13672 -1.45833,0.13672 -1.82943,0 -2.79947,-0.97656 -0.96354,-0.98307 -0.96354,-2.82551 0,-1.78385 0.93098,-2.81901 0.93099,-1.03515 2.53906,-1.03515 1.62109,0 2.51301,0.96354 0.89844,0.95703 0.89844,2.70181 v 0.77474 h -4.94139 q 0.007,0.85938 0.50781,1.28255 0.5013,0.42318 1.49739,0.42318 0.65755,0 1.29557,-0.1888 0.63802,-0.18881 1.33463,-0.59896 z m -1.61458,-4.10156 q -0.013,-0.7552 -0.39062,-1.13932 -0.3711,-0.39062 -1.10026,-0.39062 -0.65755,0 -1.04818,0.40365 -0.39062,0.39713 -0.46223,1.1328 z m -8.77602,-3.47004 v 0.63802 h 2.23958 v 1.46484 h -2.23958 v 5.82681 h -1.90754 v -5.82681 h -1.77083 v -1.46484 h 1.77083 v -0.50781 q 0,-1.3151 0.54687,-1.82291 0.54687,-0.50781 2.03125,-0.50781 h 1.569 v 1.46484 h -1.49088 q -0.42969,0 -0.58594,0.15625 -0.14974,0.15625 -0.16276,0.57942 z m -8.02732,0 v 0.63802 h 2.23958 v 1.46484 h -2.23958 v 5.82681 h -1.90755 v -5.82681 h -1.77083 v -1.46484 h 1.77083 v -0.50781 q 0,-1.3151 0.54688,-1.82291 0.54687,-0.50781 2.03124,-0.50781 h 1.56901 v 1.46484 h -1.49088 q -0.42969,0 -0.58594,0.15625 -0.14974,0.15625 -0.16276,0.57942 z m -11.39971,0.63802 h 3.77603 v 5.82681 h 2.36979 v 1.46484 h -6.65363 v -1.46484 h 2.37629 v -4.36197 h -1.86848 z m 1.86848,-3.54817 h 1.90755 v 2.22656 h -1.90755 z m -6.18488,4.58332 v -3.87368 h 1.90104 v 10.13018 h -1.90104 v -1.08073 q -0.30599,0.63151 -0.79427,0.95052 -0.48177,0.31901 -1.13932,0.31901 -1.24999,0 -1.9401,-1.0026 -0.6901,-1.0026 -0.6901,-2.82552 0,-1.84895 0.69661,-2.83853 0.70313,-0.98958 1.9987,-0.98958 0.58593,0 1.04817,0.30599 0.46875,0.29948 0.82031,0.90494 z m -2.65624,2.63021 q 0,1.05468 0.35156,1.65364 0.35156,0.59895 0.97005,0.59895 0.61849,0 0.97656,-0.59895 0.35807,-0.59896 0.35807,-1.65364 0,-1.05469 -0.35807,-1.65365 -0.35807,-0.59895 -0.97656,-0.59895 -0.61849,0 -0.97005,0.59895 -0.35156,0.59896 -0.35156,1.65365 z m -3.54817,-1.10677 v 4.73306 h -1.89453 v -4.44009 q 0,-0.79427 -0.22786,-1.13281 -0.22135,-0.34506 -0.72916,-0.34506 -0.51433,0 -0.8138,0.46224 -0.29297,0.46224 -0.29297,1.28255 v 4.17317 h -1.89453 v -7.29165 h 1.89453 v 1.09375 q 0.20182,-0.60547 0.6901,-0.9375 0.48828,-0.33203 1.17838,-0.33203 1.03516,0 1.5625,0.6901 0.52734,0.68359 0.52734,2.04427 z m -13.88017,-3.29426 v -1.69271 h 5.78774 v 1.69271 h -1.93359 v 6.33461 h 1.93359 v 1.69271 h -5.78774 v -1.69271 h 1.93359 v -6.33461 z"
   transform="translate(10.396724,131.08318)" /><path
   id="path1259"
   style="font-weight:bold;font-size:13.3333px;line-height:1;font-family:monospace;-inkscape-font-specification:'monospace Bold';text-align:center;letter-spacing:0px;text-anchor:middle;white-space:pre;shape-inside:url(#rect696);display:inline;fill:#ffffff;stroke:none;stroke-width:0.5;stop-color:#000000"
   d="m 536.68345,354.32101 v 2.07031 h 2.49349 v 1.46484 h -2.49349 v 3.45051 q 0,0.48828 0.23438,0.70313 0.24088,0.20833 0.79427,0.20833 h 1.46484 v 1.46484 h -1.60156 q -1.64062,0 -2.22005,-0.52083 -0.57943,-0.52735 -0.57943,-1.94661 v -3.35937 h -1.86197 v -1.46484 h 1.86197 v -2.07031 z m -5.34503,9.00389 q -0.66406,0.27343 -1.35417,0.41015 -0.6901,0.13672 -1.45833,0.13672 -1.82942,0 -2.79947,-0.97656 -0.96354,-0.98307 -0.96354,-2.82551 0,-1.78385 0.93099,-2.81901 0.93099,-1.03515 2.53906,-1.03515 1.62109,0 2.51301,0.96354 0.89844,0.95703 0.89844,2.70181 v 0.77474 h -4.9414 q 0.007,0.85938 0.50781,1.28255 0.5013,0.42318 1.49739,0.42318 0.65756,0 1.29557,-0.1888 0.63802,-0.18881 1.33464,-0.59896 z m -1.61458,-4.10156 q -0.013,-0.7552 -0.39063,-1.13932 -0.37109,-0.39062 -1.10025,-0.39062 -0.65756,0 -1.04818,0.40365 -0.39062,0.39713 -0.46224,1.1328 z m -8.95832,5.24739 q -0.38411,1.02864 -0.92448,1.49739 -0.53385,0.47526 -1.30208,0.47526 h -1.57551 v -1.45182 h 0.77474 q 0.58593,0 0.85937,-0.20182 0.27343,-0.19532 0.55338,-0.91797 l 0.14323,-0.39062 -2.77343,-7.08983 h 2.0052 l 1.66667,4.73306 1.59504,-4.73306 h 2.00521 z m -15.53381,-7.04426 v -3.87368 h 1.90104 v 10.13018 h -1.90104 v -1.08073 q -0.30599,0.63151 -0.79427,0.95052 -0.48177,0.31901 -1.13932,0.31901 -1.24999,0 -1.9401,-1.0026 -0.6901,-1.0026 -0.6901,-2.82552 0,-1.84895 0.69661,-2.83853 0.70313,-0.98958 1.9987,-0.98958 0.58593,0 1.04817,0.30599 0.46875,0.29948 0.82031,0.90494 z m -2.65624,2.63021 q 0,1.05468 0.35156,1.65364 0.35156,0.59895 0.97005,0.59895 0.61849,0 0.97656,-0.59895 0.35807,-0.59896 0.35807,-1.65364 0,-1.05469 -0.35807,-1.65365 -0.35807,-0.59895 -0.97656,-0.59895 -0.61849,0 -0.97005,0.59895 -0.35156,0.59896 -0.35156,1.65365 z m -3.34635,3.26822 q -0.66406,0.27343 -1.35417,0.41015 -0.6901,0.13672 -1.45833,0.13672 -1.82942,0 -2.79947,-0.97656 -0.96354,-0.98307 -0.96354,-2.82551 0,-1.78385 0.93099,-2.81901 0.93099,-1.03515 2.53906,-1.03515 1.62109,0 2.51301,0.96354 0.89844,0.95703 0.89844,2.70181 v 0.77474 h -4.9414 q 0.007,0.85938 0.50781,1.28255 0.5013,0.42318 1.4974,0.42318 0.65755,0 1.29557,-0.1888 0.63801,-0.18881 1.33463,-0.59896 z m -1.61458,-4.10156 q -0.013,-0.7552 -0.39063,-1.13932 -0.37109,-0.39062 -1.10025,-0.39062 -0.65755,0 -1.04818,0.40365 -0.39062,0.39713 -0.46224,1.1328 z m -12.14841,-2.83202 h 3.77604 v 5.82681 h 2.36978 v 1.46484 h -6.65363 v -1.46484 h 2.3763 v -4.36197 h -1.86849 z m 1.86849,-3.54817 h 1.90755 v 2.22656 h -1.90755 z m -8.81508,7.79946 v -5.62498 h -1.93359 v -1.46484 h 3.84113 v 7.08982 q 0,0.85937 0.26693,1.21745 0.26693,0.35807 0.90495,0.35807 h 1.52343 v 1.46484 h -2.05729 q -1.36067,0 -1.95312,-0.70312 -0.59244,-0.70313 -0.59244,-2.33724 z m -7.66926,2.01172 v 3.80207 h -1.90103 v -10.06508 h 1.90103 v 1.09375 q 0.29948,-0.63151 0.78776,-0.95052 0.48828,-0.31901 1.14583,-0.31901 1.25,0 1.9401,1.0026 0.6901,1.0026 0.6901,2.82551 0,1.84896 -0.70312,2.83854 -0.69661,0.98958 -1.99218,0.98958 -0.58594,0 -1.05469,-0.29948 -0.46224,-0.30599 -0.8138,-0.91796 z m 2.65625,-2.6237 q 0,-1.05468 -0.35157,-1.65364 -0.35156,-0.59895 -0.97004,-0.59895 -0.61849,0 -0.97656,0.59895 -0.35808,0.59896 -0.35808,1.65364 0,1.05469 0.35808,1.65365 0.35807,0.59895 0.97656,0.59895 0.61848,0 0.97004,-0.59895 0.35157,-0.59896 0.35157,-1.65365 z m -6.3867,3.29427 q -0.66406,0.27343 -1.35417,0.41015 -0.6901,0.13672 -1.45833,0.13672 -1.82942,0 -2.79947,-0.97656 -0.96354,-0.98307 -0.96354,-2.82551 0,-1.78385 0.93099,-2.81901 0.93099,-1.03515 2.53906,-1.03515 1.62109,0 2.51301,0.96354 0.89844,0.95703 0.89844,2.70181 v 0.77474 h -4.9414 q 0.007,0.85938 0.50781,1.28255 0.5013,0.42318 1.49739,0.42318 0.65756,0 1.29557,-0.1888 0.63802,-0.18881 1.33464,-0.59896 z m -1.61458,-4.10156 q -0.013,-0.7552 -0.39063,-1.13932 -0.37109,-0.39062 -1.10025,-0.39062 -0.65755,0 -1.04818,0.40365 -0.39062,0.39713 -0.46224,1.1328 z m -6.09374,-0.82031 q -0.3125,-0.28645 -0.73567,-0.42968 -0.41667,-0.14323 -0.91797,-0.14323 -0.60547,0 -1.0612,0.21484 -0.44921,0.20833 -0.69661,0.61198 -0.15625,0.24739 -0.22135,0.59896 -0.0586,0.35156 -0.0586,1.0677 v 3.35937 h -1.90754 v -7.29165 h 1.90754 v 1.13281 q 0.27995,-0.625 0.85938,-0.96354 0.57942,-0.34505 1.35416,-0.34505 0.39062,0 0.76172,0.0977 0.3776,0.0911 0.71614,0.27343 z m -19.05594,-4.08202 v 2.07031 h 2.49348 v 1.46484 h -2.49348 v 3.45051 q 0,0.48828 0.23437,0.70313 0.24089,0.20833 0.79427,0.20833 h 1.46484 v 1.46484 h -1.60156 q -1.64062,0 -2.22004,-0.52083 -0.57943,-0.52735 -0.57943,-1.94661 v -3.35937 h -1.86197 v -1.46484 h 1.86197 v -2.07031 z m -8.50909,3.444 q -0.6836,0 -1.07422,0.60547 -0.39062,0.59896 -0.39062,1.67317 0,1.07422 0.39062,1.67969 0.39062,0.59896 1.07422,0.59896 0.6901,0 1.08072,-0.59896 0.39063,-0.60547 0.39063,-1.67969 0,-1.07421 -0.39063,-1.67317 -0.39062,-0.60547 -1.08072,-0.60547 z m -3.37239,2.27864 q 0,-1.76431 0.91145,-2.79296 0.91797,-1.03515 2.46094,-1.03515 1.54947,0 2.46093,1.03515 0.91796,1.02865 0.91796,2.79296 0,1.76432 -0.91796,2.79948 -0.91146,1.02864 -2.46093,1.02864 -1.54297,0 -2.46094,-1.02864 -0.91145,-1.03516 -0.91145,-2.79948 z m -7.89061,-6.08071 h 2.0638 l 2.70833,7.06379 v -7.06379 h 1.6927 v 9.72003 h -2.05078 l -2.72134,-7.06379 v 7.06379 h -1.69271 z"
   transform="translate(10.465832,164.47738)" /><path
   id="path4855"
   style="font-weight:bold;font-family:'Ubuntu Mono';-inkscape-font-specification:'Ubuntu Mono Bold';white-space:pre;fill:#ffffff"
   d="m 114.1602,209.57154 q -0.61999,0.86961 -1.36593,1.29574 -0.7557,0.41916 -1.58578,0.34317 -0.83985,-0.083 -1.70946,-0.70296 -0.68397,-0.48763 -1.05273,-1.0453 -0.37157,-0.5744 -0.46974,-1.1602 -0.10097,-0.60254 0.0394,-1.15089 0.13761,-0.56508 0.46502,-1.02432 0.80808,-1.13343 1.90722,-1.24878 1.09913,-0.11536 2.3889,0.80418 0.12702,0.0906 0.26662,0.20483 0.13679,0.0975 0.22754,0.17696 l -2.38246,3.34166 q 0.49832,0.35528 1.08403,0.15389 0.58291,-0.21813 1.04965,-0.87279 0.28561,-0.4006 0.47216,-0.82763 0.18375,-0.44376 0.26996,-0.75073 l 1.27556,0.6294 q -0.11679,0.43254 -0.32424,0.88888 -0.20745,0.45634 -0.55576,0.94489 z m -4.20937,-0.83466 1.46988,-2.06168 q -0.27359,-0.19505 -0.58752,-0.2715 -0.31394,-0.0764 -0.6305,0.0368 -0.30959,0.1035 -0.56734,0.46503 -0.25079,0.35175 -0.25467,0.68794 -0.0137,0.32923 0.14701,0.62063 0.16068,0.29141 0.42314,0.52275 z m 0.34437,6.32929 q -0.60682,0.87886 -1.34624,1.31618 -0.7493,0.43051 -1.58043,0.36704 -0.841,-0.0703 -1.71986,-0.6771 -0.69125,-0.47727 -1.06838,-1.02931 -0.38018,-0.56873 -0.48717,-1.15299 -0.11004,-0.60095 0.0221,-1.15135 0.12906,-0.5671 0.44952,-1.03121 0.7909,-1.14549 1.88817,-1.2774 1.09727,-0.13192 2.40076,0.76807 0.12837,0.0886 0.26968,0.20079 0.13824,0.0954 0.23017,0.17351 l -2.3318,3.3772 q 0.50362,0.34773 1.08623,0.13753 0.57955,-0.2269 1.03636,-0.88851 0.27955,-0.40487 0.45964,-0.83466 0.17703,-0.44649 0.25861,-0.75472 l 1.2849,0.6101 q -0.11026,0.43426 -0.3108,0.89367 -0.20055,0.45942 -0.54145,0.95316 z m -4.22148,-0.77111 1.43863,-2.0836 q -0.2765,-0.1909 -0.59155,-0.26261 -0.31505,-0.0717 -0.62987,0.0463 -0.30799,0.10815 -0.56026,0.47352 -0.24546,0.3555 -0.24428,0.69171 -0.009,0.3294 0.15636,0.61835 0.16506,0.28895 0.43097,0.5163 z m -1.17363,8.47801 -4.908463,-3.28089 q 0.160563,-0.67211 0.427623,-1.33077 0.26705,-0.65866 0.78052,-1.42685 0.1067,-0.15963 0.32671,-0.44559 0.22,-0.28596 0.48995,-0.58184 0.25996,-0.30255 0.51646,-0.49195 l 1.11029,1.10298 q -0.16325,0.13626 -0.37653,0.36897 -0.21329,0.23272 -0.39996,0.4688 -0.19664,0.22941 -0.31,0.39901 -0.19339,0.28932 -0.35018,0.58866 -0.16676,0.29269 -0.28033,0.63535 l 3.90082,2.60738 z m -0.93643,5.5683 q -0.31283,0.48365 -0.71339,0.88197 -0.40055,0.39832 -0.79875,0.72671 l -1.00944,-1.0245 q 0.32947,-0.24422 0.67493,-0.53527 0.35197,-0.30112 0.69739,-0.83514 0.31283,-0.48365 0.33114,-0.84338 0.0349,-0.3633 -0.15182,-0.62699 -0.17665,-0.25717 -0.47893,-0.45269 l -0.2116,-0.13687 q -0.0817,0.3473 -0.1842,0.63831 -0.10248,0.291 -0.28496,0.57313 -0.44318,0.68516 -1.04169,0.96973 -0.60208,0.26798 -1.312668,0.15135 -0.710592,-0.11663 -1.476365,-0.61195 -0.876608,-0.567 -1.242385,-1.26092 -0.369334,-0.71051 -0.260424,-1.49755 0.108911,-0.78704 0.643329,-1.61327 0.286761,-0.44334 0.650571,-0.85114 0.370327,-0.41787 0.850289,-0.85058 l 4.493873,2.90672 q 1.2998,0.84073 1.50385,1.87307 0.22063,1.02878 -0.67875,2.41926 z m -3.07565,-2.64679 q 0.1499,-0.23174 0.21979,-0.47237 0.0699,-0.24062 0.087,-0.4439 l -2.54922,-1.64887 q -0.134505,0.14166 -0.222788,0.25606 -0.09836,0.10787 -0.189602,0.24894 -0.397554,0.61463 -0.230339,1.15153 0.167216,0.5369 0.912837,1.01918 0.433266,0.28024 0.800718,0.375 0.363894,0.0782 0.661974,-0.0291 0.29452,-0.12391 0.50959,-0.45642 z m -2.021889,6.73529 q -0.318231,0.50865 -0.670738,0.86847 -0.352507,0.35981 -0.746907,0.53771 -0.388035,0.16773 -0.825581,0.12047 -0.441354,-0.0638 -0.929662,-0.36931 -0.630732,-0.3946 -0.789487,-0.93273 -0.168928,-0.54449 -0.0033,-1.14861 0.155461,-0.61049 0.51188,-1.18019 0.178209,-0.28484 0.361479,-0.5099 0.173097,-0.23143 0.334717,-0.39926 l -0.172943,-0.1082 q -0.2645,-0.16548 -0.537973,-0.18086 -0.283645,-0.0218 -0.558473,0.14602 -0.274828,0.16778 -0.529412,0.5747 -0.24822,0.39675 -0.416308,0.80117 -0.17826,0.39806 -0.243262,0.68296 l -1.25014,-0.51319 q 0.06756,-0.31161 0.295483,-0.83429 0.224116,-0.53923 0.542347,-1.04788 0.547357,-0.87489 1.123723,-1.20789 0.576366,-0.333 1.191967,-0.23096 0.621965,0.0919 1.293388,0.51193 l 3.194341,1.99849 q -0.119718,0.34974 -0.42021,1.01104 -0.283954,0.6575 -0.754935,1.41031 z m -1.065567,-0.80821 q 0.140021,-0.2238 0.263505,-0.4438 0.129849,-0.23018 0.221509,-0.39931 l -1.230943,-0.77012 q -0.103086,0.11952 -0.234187,0.30645 -0.141274,0.18056 -0.243108,0.34332 -0.184574,0.29502 -0.292823,0.58117 -0.10825,0.28615 -0.06766,0.53803 0.03678,0.23534 0.301281,0.40082 0.356059,0.22276 0.684308,0.0601 0.324441,-0.1792 0.598119,-0.61665 z m -2.558611,6.7054 q -0.416102,0.68795 -0.874434,1.09792 -0.468599,0.40376 -0.771918,0.627 l -1.054447,-0.94631 q 0.390016,-0.29702 0.813239,-0.67213 0.423222,-0.37511 0.702693,-0.83717 0.316735,-0.52366 0.412542,-0.84437 0.08554,-0.32691 -0.140354,-0.46354 -0.205358,-0.12421 -0.411463,-0.0385 -0.216372,0.0795 -0.464045,0.2803 -0.241462,0.19053 -0.513977,0.43241 -0.278726,0.25214 -0.590408,0.5124 -0.31574,0.24378 -0.662035,0.39895 -0.346294,0.15518 -0.729106,0.16205 -0.386869,-0.01 -0.807854,-0.26423 -0.462056,-0.27948 -0.699127,-0.74542 -0.241129,-0.48243 -0.16271,-1.12219 0.07436,-0.65624 0.56499,-1.4674 0.316734,-0.52367 0.672138,-0.92577 0.361615,-0.41237 0.710311,-0.66427 l 1.064715,0.95252 q -0.115597,0.0984 -0.330313,0.29107 -0.224985,0.18647 -0.472906,0.45725 -0.241712,0.2605 -0.446657,0.59935 -0.322945,0.53393 -0.307461,0.80975 0.01143,0.25935 0.165445,0.35251 0.164286,0.0994 0.374448,0.0301 0.210161,-0.0692 0.445413,-0.24949 0.241463,-0.19054 0.518036,-0.41593 0.288993,-0.24594 0.621211,-0.49377 0.32195,-0.25405 0.684723,-0.41329 0.352506,-0.16544 0.739375,-0.15583 0.393079,-6.6e-4 0.824332,0.26018 0.451788,0.27326 0.678591,0.733 0.226804,0.45973 0.113275,1.13435 -0.107319,0.66436 -0.666262,1.58847 z m -2.702595,4.53327 q -0.429899,0.73559 -0.963937,1.00724 -0.538343,0.25524 -1.169657,0.12257 -0.641675,-0.13873 -1.387623,-0.57469 l -2.009918,-1.17465 -0.884019,1.51262 -1.181086,-0.69027 1.719598,-2.94235 3.377491,1.97391 q 0.321173,0.1877 0.581125,0.24233 0.255648,0.0382 0.456131,-0.067 0.206537,-0.11558 0.37002,-0.39531 0.108989,-0.18649 0.23103,-0.49044 0.111681,-0.31 0.151782,-0.75914 l 1.258993,0.48561 q -0.03485,0.36881 -0.109397,0.68662 -0.08491,0.31175 -0.199142,0.57857 -0.114237,0.26681 -0.241391,0.48438 z m -7.102815,-2.16353 q -0.211922,0.36262 -0.618,0.48667 -0.406078,0.12405 -0.820494,-0.11815 -0.424776,-0.24825 -0.505637,-0.65688 -0.09122,-0.41469 0.1207,-0.7773 0.211923,-0.36262 0.618,-0.48667 0.395718,-0.13011 0.820494,0.11814 0.414416,0.2422 0.505638,0.65689 0.09122,0.41469 -0.120701,0.7773 z m 3.193735,8.95228 q -0.477737,0.8465 -1.152892,1.23709 -0.675155,0.3906 -1.48368,0.33389 -0.802626,-0.0672 -1.680471,-0.5626 -0.898747,-0.50722 -1.405128,-1.12371 -0.506382,-0.61649 -0.584495,-1.3082 -0.07811,-0.6917 0.328849,-1.41279 0.165143,-0.29262 0.397543,-0.53349 0.221949,-0.24678 0.454864,-0.39091 l -2.508128,-1.41552 0.57356,-1.57783 7.952858,4.48837 q -0.09872,0.4679 -0.339502,1.08986 -0.240785,0.62196 -0.553378,1.17584 z m -1.227266,-0.70641 q 0.100266,-0.17766 0.178286,-0.34032 0.06757,-0.16855 0.135137,-0.3371 l -2.999304,-1.69273 q -0.182525,0.10368 -0.369086,0.28775 -0.180663,0.17363 -0.316317,0.41399 -0.188735,0.33442 -0.124483,0.66004 0.06425,0.32563 0.36059,0.63066 0.285888,0.29914 0.797964,0.58814 0.741988,0.41876 1.36561,0.41246 0.62952,-0.0168 0.971603,-0.62289 z m -4.155296,15.05923 q -0.189724,0.36121 -0.41529,0.63581 -0.225566,0.27461 -0.416578,0.43182 l -1.076637,-0.91793 q 0.229,-0.17792 0.371937,-0.34683 0.142937,-0.1689 0.24896,-0.37075 0.228785,-0.43557 0.08145,-0.85183 -0.147335,-0.41625 -0.462288,-0.77145 -1.314545,-0.0263 -2.95338,-0.20937 -1.643879,-0.19928 -3.476836,-0.60631 l 0.80354,-1.52981 q 0.656843,0.1688 1.437199,0.33471 0.775313,0.1497 1.561786,0.27815 0.77585,0.12287 1.451043,0.17932 -0.473772,-0.46573 -1.038113,-0.96547 -0.569384,-0.51595 -1.154972,-1.02685 -0.585588,-0.51091 -1.124175,-0.95646 l 0.786799,-1.49793 q 1.337936,1.27205 2.559547,2.4559 1.210988,1.17826 2.204673,2.48637 0.470552,0.62669 0.712427,1.14682 0.247455,0.50951 0.226636,1.01365 -0.02082,0.50414 -0.327728,1.08844 z m -3.651511,2.48474 q -0.341416,0.67451 -0.831272,0.978 -0.495144,0.28736 -1.122734,0.22524 -0.638296,-0.0675 -1.398464,-0.45231 l -4.785847,-2.42243 -0.791219,1.56317 -1.231258,-0.62323 1.539083,-3.04067 6.124171,3.09985 q 0.37473,0.18967 0.643055,0.19099 0.268325,0.001 0.446106,-0.13734 0.177781,-0.13865 0.291587,-0.36349 0.222191,-0.43897 0.256159,-0.79837 0.03939,-0.3701 0.05062,-0.47201 l 1.285979,0.40882 q 0.0049,0.0966 -0.04586,0.59547 -0.05075,0.49885 -0.430106,1.24831 z m -1.84024,8.44473 q -0.252349,0.51778 -0.602054,0.96142 -0.349704,0.44363 -0.705484,0.81756 l -1.1254,-0.89557 q 0.297677,-0.2821 0.605596,-0.6126 0.313177,-0.34129 0.591811,-0.91301 0.252349,-0.51778 0.227231,-0.8771 -0.0091,-0.36485 -0.226178,-0.60416 -0.206317,-0.23404 -0.52993,-0.39176 l -0.226529,-0.1104 q -0.03933,0.35461 -0.106041,0.65583 -0.06671,0.30122 -0.213912,0.60326 -0.357494,0.73352 -0.91741,1.08805 -0.565447,0.33849 -1.284911,0.30823 -0.719464,-0.0303 -1.539282,-0.42981 -0.938477,-0.45738 -1.385108,-1.10223 -0.452162,-0.6609 -0.438765,-1.45532 0.0134,-0.79443 0.444493,-1.67897 0.231319,-0.47464 0.543405,-0.92325 0.317344,-0.45941 0.74174,-0.94674 l 4.811041,2.34474 q 1.391534,0.67819 1.718339,1.67847 0.342849,0.99475 -0.382652,2.48336 z m -3.37184,-2.25738 q 0.120916,-0.24811 0.161339,-0.49539 0.04042,-0.24729 0.03298,-0.45115 l -2.729133,-1.33009 q -0.116477,0.15682 -0.190351,0.28101 -0.08466,0.11893 -0.158263,0.26995 -0.320693,0.65801 -0.09008,1.17089 0.230618,0.51287 1.028862,0.90191 0.463845,0.22606 0.84003,0.27591 0.370655,0.0338 0.653651,-0.10861 0.277466,-0.15846 0.450956,-0.51443 z m -2.345886,9.04174 -5.54121,-2.59796 q 0.07983,-0.45295 0.257121,-1.08551 0.182386,-0.64343 0.503311,-1.32793 0.427899,-0.91267 0.999044,-1.25455 0.565373,-0.35784 1.243782,-0.27834 0.683503,0.0686 1.465791,0.43541 l 3.22694,1.51293 -0.702978,1.49939 -3.031367,-1.42124 q -0.532391,-0.2496 -0.894003,-0.32637 -0.372476,-0.0819 -0.621375,0.0533 -0.254669,0.11916 -0.427867,0.48858 -0.07641,0.16297 -0.136185,0.347 -0.06555,0.16807 -0.130414,0.36297 l 4.487293,2.10384 z m -1.572942,3.89778 q -0.364798,0.80961 -1.023784,1.24975 -0.669927,0.43521 -1.516939,0.47474 -0.842082,0.0286 -1.739216,-0.37565 -0.908075,-0.40917 -1.428646,-1.06491 -0.515641,-0.66668 -0.61156,-1.44697 -0.10686,-0.78521 0.248078,-1.57294 0.364798,-0.80961 1.018854,-1.23881 0.648046,-0.44506 1.479188,-0.47858 0.836071,-0.0445 1.744146,0.3647 0.897134,0.40424 1.433575,1.05397 0.536441,0.64973 0.654242,1.43988 0.111789,0.77427 -0.257938,1.59482 z m -1.322739,-0.56968 q 0.266204,-0.5908 -0.08208,-1.1031 -0.343358,-0.52325 -1.109204,-0.86833 -0.776787,-0.35 -1.375408,-0.27752 -0.59369,0.0615 -0.869754,0.67421 -0.256344,0.56892 0.07114,1.09817 0.332417,0.51832 1.109204,0.86833 0.765846,0.34508 1.375408,0.27753 0.609561,-0.0675 0.880694,-0.66929 z m -2.418287,8.63663 -5.418742,-2.34402 q 0.037,-0.69003 0.18116,-1.386 0.144164,-0.69596 0.511013,-1.54402 0.07623,-0.17622 0.241184,-0.4971 0.164956,-0.32088 0.377246,-0.66051 0.201276,-0.3444 0.419506,-0.57686 l 1.290647,0.88517 q -0.136061,0.16341 -0.303987,0.43071 -0.167926,0.2673 -0.309061,0.53311 -0.152148,0.26105 -0.23314,0.44828 -0.138164,0.3194 -0.238523,0.64208 -0.111372,0.31791 -0.161427,0.67542 l 4.306358,1.86283 z m -1.258377,3.36229 q -0.294261,0.70939 -0.667426,1.13922 -0.373166,0.42982 -0.982304,0.48894 -0.60454,0.048 -1.579951,-0.35658 l -2.394192,-0.99313 -0.55174,1.33011 -1.263601,-0.52415 0.551739,-1.33011 -1.474201,-0.61151 0.390647,-1.63078 1.718055,0.71267 1.01612,-2.44962 1.263601,0.52416 -1.01612,2.44961 2.360939,0.97934 q 0.432285,0.17931 0.69535,0.17151 0.256578,-0.0235 0.416929,-0.19081 0.149266,-0.17193 0.255016,-0.42687 0.179315,-0.43228 0.252633,-0.76563 0.07332,-0.33335 0.05312,-0.84839 l 1.406381,0.33654 q 0.0026,0.49476 -0.137767,1.02114 -0.124715,0.51989 -0.313226,0.97434 z m -2.954723,7.35851 q -0.256963,0.64683 -0.54341,1.07535 -0.282016,0.41736 -0.539893,0.67646 -0.26903,0.25467 -0.460299,0.4111 l -1.071831,-0.94229 q 0.3225,-0.25925 0.687011,-0.65676 0.368943,-0.40866 0.634767,-1.07779 0.208228,-0.52415 0.185162,-0.85612 -0.03422,-0.3364 -0.212959,-0.53653 -0.189892,-0.20456 -0.446393,-0.30646 -0.334566,-0.13291 -0.650648,0.0127 -0.311652,0.13443 -0.605125,0.41812 -0.300195,0.26812 -0.571364,0.56067 -0.271169,0.29255 -0.573503,0.59855 -0.313486,0.30157 -0.687316,0.52751 -0.369399,0.21479 -0.817169,0.26933 -0.454491,0.0389 -1.000949,-0.17814 -1.081764,-0.42974 -1.411589,-1.38716 -0.329826,-0.95741 0.153087,-2.173 0.279115,-0.70259 0.659057,-1.17144 0.384373,-0.48 0.715733,-0.76155 l 1.004917,0.91571 q -0.302486,0.24137 -0.580224,0.58297 -0.273308,0.33044 -0.472676,0.83228 -0.163924,0.41264 -0.169884,0.72016 -0.006,0.30753 0.141615,0.5211 0.147575,0.21358 0.437532,0.32877 0.289957,0.11519 0.581596,-10e-4 0.284917,-0.13214 0.553947,-0.38681 0.27346,-0.26582 0.520186,-0.52934 0.280029,-0.31486 0.613528,-0.6343 0.322347,-0.32387 0.722912,-0.55211 0.400565,-0.22824 0.915248,-0.25619 0.507961,-0.0435 1.143636,0.209 1.081764,0.42975 1.400437,1.38273 0.311952,0.9374 -0.255139,2.36488 z" /><path
   id="path4892"
   style="font-weight:bold;font-family:'Ubuntu Mono';-inkscape-font-specification:'Ubuntu Mono Bold';white-space:pre;fill:#ffffff"
   d="m 47.747979,349.51042 q -0.321529,1.01845 -0.899653,1.65388 -0.589566,0.63182 -1.402607,0.81557 -0.824483,0.18014 -1.842934,-0.14139 -0.801029,-0.25289 -1.323826,-0.66961 -0.530626,-0.43178 -0.804697,-0.95874 -0.2819,-0.54202 -0.317478,-1.10694 -0.04341,-0.57997 0.126389,-1.11781 0.419073,-1.32742 1.429033,-1.77618 1.00996,-0.44876 2.520472,0.0281 0.148762,0.047 0.316798,0.1126 0.160206,0.0506 0.271026,0.0981 l -1.235541,3.9136 q 0.583607,0.18424 1.078638,-0.18799 0.487201,-0.3873 0.729251,-1.15399 0.148121,-0.46918 0.193857,-0.93292 0.03791,-0.47881 0.02523,-0.7974 l 1.407504,0.20526 q 0.02232,0.44748 -0.03426,0.94556 -0.05657,0.49807 -0.237209,1.07024 z m -4.261572,0.50442 0.762278,-2.41453 q -0.320411,-0.10116 -0.64262,-0.077 -0.322209,0.0241 -0.588393,0.22951 -0.262571,0.19394 -0.396241,0.61735 -0.130057,0.41195 -0.03006,0.73295 0.08856,0.31739 0.331287,0.54502 0.242729,0.22764 0.563746,0.36674 z m 2.27986,5.91442 q -0.306142,1.02318 -0.874621,1.66725 -0.579976,0.64064 -1.390154,0.83663 -0.821675,0.19254 -1.844857,-0.1136 -0.80475,-0.24078 -1.333768,-0.64958 -0.537075,-0.42374 -0.819057,-0.9465 -0.290039,-0.53771 -0.334127,-1.10203 -0.05214,-0.57925 0.109525,-1.11958 0.399016,-1.33359 1.402097,-1.79753 1.003081,-0.46393 2.520609,-0.01 0.149454,0.0447 0.31846,0.10781 0.16095,0.0482 0.272475,0.094 l -1.17641,3.93178 q 0.586318,0.17543 1.075682,-0.20423 0.481308,-0.39459 0.711774,-1.16485 0.141031,-0.47135 0.179772,-0.93573 0.03068,-0.47932 0.01321,-0.79769 l 1.410438,0.18402 q 0.02906,0.44709 -0.02,0.94597 -0.04906,0.49887 -0.22105,1.07369 z m -4.253485,0.5686 0.725797,-2.42575 q -0.3219,-0.0963 -0.643709,-0.0673 -0.321808,0.029 -0.584866,0.23835 -0.259619,0.19789 -0.386891,0.62325 -0.123833,0.41387 -0.019,0.73333 0.09333,0.31601 0.339464,0.53997 0.246133,0.22395 0.56921,0.35819 z m 1.498604,8.42667 -5.681111,-1.60692 q -0.05457,-0.68886 -0.0037,-1.39778 0.05087,-0.70892 0.302359,-1.59803 0.05226,-0.18476 0.173335,-0.52463 0.121077,-0.33988 0.286593,-0.7046 0.153969,-0.36799 0.339544,-0.62727 l 1.39636,0.70674 q -0.113258,0.17997 -0.244365,0.46712 -0.131106,0.28716 -0.235852,0.5693 -0.116294,0.27888 -0.171817,0.47518 -0.09472,0.33486 -0.151527,0.66797 -0.06836,0.32985 -0.0707,0.69084 l 4.514867,1.27705 z m 0.826758,5.5856 q -0.148399,0.55656 -0.406564,1.05901 -0.258165,0.50245 -0.535656,0.93764 l -1.27622,-0.66318 q 0.238071,-0.33394 0.476914,-0.71735 0.241935,-0.395 0.405792,-1.00953 0.148399,-0.55656 0.05486,-0.9044 -0.07885,-0.35635 -0.33781,-0.54959 -0.247361,-0.19014 -0.595208,-0.28289 l -0.243493,-0.0649 q 0.02938,0.35558 0.02166,0.664 -0.0077,0.30842 -0.09429,0.63308 -0.210232,0.78845 -0.691792,1.24375 -0.490063,0.44062 -1.201982,0.54886 -0.711919,0.10823 -1.593131,-0.12673 -1.008756,-0.26897 -1.570733,-0.81624 -0.57048,-0.56194 -0.709639,-1.3442 -0.139158,-0.78226 0.114357,-1.73304 0.136032,-0.51018 0.356321,-1.01031 0.22338,-0.51172 0.546474,-1.07138 l 5.171326,1.37888 q 1.495742,0.39882 2.008257,1.31789 0.527202,0.91057 0.100555,2.51066 z m -3.742076,-1.56906 q 0.07111,-0.26669 0.06337,-0.51714 -0.0077,-0.25044 -0.05412,-0.4491 l -2.93351,-0.78219 q -0.08425,0.17625 -0.132946,0.31229 -0.06029,0.13296 -0.103572,0.29529 -0.188591,0.70729 0.136077,1.16643 0.324667,0.45915 1.182689,0.68793 0.498581,0.13294 0.877344,0.10974 0.370261,-0.0379 0.620704,-0.23191 0.241939,-0.20871 0.343964,-0.59134 z m 0.154143,7.03056 q -0.145824,0.58201 -0.370161,1.03301 -0.224337,0.451 -0.544635,0.74188 -0.317382,0.27923 -0.748172,0.36923 -0.439514,0.0754 -0.998244,-0.0645 -0.721692,-0.18082 -1.038688,-0.64374 -0.328636,-0.46584 -0.357415,-1.0916 -0.04042,-0.62867 0.122903,-1.28052 0.08166,-0.32593 0.186577,-0.59654 0.09328,-0.27353 0.19525,-0.48303 l -0.197883,-0.0496 q -0.302645,-0.0758 -0.567531,-0.006 -0.276525,0.0668 -0.486203,0.31117 -0.209677,0.24436 -0.326336,0.70997 -0.113743,0.45397 -0.148895,0.89051 -0.04679,0.43363 -0.02075,0.72469 l -1.347474,-0.10257 q -0.03185,-0.31725 0.02374,-0.88475 0.04687,-0.58206 0.192693,-1.16407 0.250817,-1.00106 0.696369,-1.4956 0.445553,-0.49454 1.062612,-0.58736 0.619975,-0.10445 1.388228,0.088 l 3.655022,0.91577 q -0.006,0.36962 -0.08788,1.09137 -0.06731,0.71302 -0.28313,1.57439 z m -1.262897,-0.44013 q 0.06416,-0.25609 0.113768,-0.50345 0.05252,-0.259 0.08755,-0.44816 L 37.780164,374.227 q -0.06119,0.14549 -0.128248,0.36374 -0.07869,0.21533 -0.125357,0.40157 -0.08458,0.33757 -0.09929,0.64315 -0.01471,0.30559 0.101588,0.53267 0.107575,0.21251 0.41022,0.28834 0.407407,0.10208 0.669479,-0.1539 0.253348,-0.27054 0.378756,-0.77107 z m -0.365641,7.16767 q -0.183622,0.78275 -0.493156,1.3141 -0.321217,0.52861 -0.540889,0.83453 l -1.294916,-0.57494 q 0.279386,-0.40284 0.566274,-0.8902 0.286889,-0.48736 0.410217,-1.01308 0.139772,-0.59583 0.131989,-0.93045 -0.01947,-0.33736 -0.276488,-0.39766 -0.233657,-0.0548 -0.403278,0.0903 -0.181303,0.14235 -0.354965,0.40976 -0.170921,0.25572 -0.355544,0.56986 -0.187365,0.32582 -0.403577,0.66952 -0.225153,0.32928 -0.506701,0.5837 -0.281548,0.25443 -0.643575,0.37904 -0.37097,0.11019 -0.849967,-0.002 -0.525728,-0.12333 -0.894959,-0.49344 -0.378173,-0.38453 -0.500905,-1.01728 -0.131674,-0.64718 0.08484,-1.57012 0.139772,-0.59583 0.353823,-1.08795 0.216791,-0.5038 0.470792,-0.85097 l 1.306599,0.57768 q -0.07962,0.12923 -0.224433,0.37875 -0.156498,0.24678 -0.308814,0.58082 -0.149575,0.32236 -0.240016,0.7079 -0.142513,0.6075 -0.04271,0.86511 0.09086,0.24318 0.266106,0.28428 0.186925,0.0439 0.365488,-0.0868 0.178564,-0.13067 0.346744,-0.37471 0.17092,-0.25572 0.364487,-0.55544 0.199047,-0.32307 0.438624,-0.6613 0.227895,-0.34096 0.523866,-0.60433 0.284288,-0.2661 0.655258,-0.37629 0.37371,-0.12187 0.86439,-0.007 0.514045,0.12058 0.871593,0.48795 0.357548,0.36737 0.457635,1.04411 0.102827,0.66507 -0.14383,1.71652 z m -1.17258,5.1458 q -0.182055,0.83232 -0.606266,1.25545 -0.43337,0.40884 -1.074826,0.47736 -0.653178,0.0659 -1.497223,-0.11867 l -2.274233,-0.49744 -0.374365,1.71153 -1.336405,-0.29231 0.728219,-3.32929 3.821648,0.83591 q 0.363408,0.0795 0.627537,0.0513 0.25497,-0.0425 0.413225,-0.20442 0.160819,-0.17365 0.230051,-0.49017 0.04616,-0.21101 0.0685,-0.53778 0.01062,-0.32934 -0.08977,-0.76894 l 1.34739,0.0736 q 0.0806,0.36157 0.107716,0.68688 0.01539,0.32274 -0.01098,0.61178 -0.02637,0.28904 -0.08022,0.53522 z m -7.423827,0.13275 q -0.08975,0.4103 -0.437762,0.65355 -0.348016,0.24326 -0.81693,0.14069 -0.480637,-0.10513 -0.683594,-0.4689 -0.214681,-0.36633 -0.124935,-0.77663 0.08975,-0.4103 0.437761,-0.65355 0.336293,-0.24582 0.81693,-0.14069 0.468914,0.10256 0.683594,0.4689 0.214681,0.36633 0.124936,0.77663 z m 5.799247,7.53074 q -0.193353,0.95257 -0.715115,1.53237 -0.521762,0.5798 -1.308359,0.77523 -0.784209,0.18367 -1.772064,-0.0168 -1.011376,-0.20529 -1.683217,-0.63553 -0.671842,-0.43025 -0.959495,-1.06414 -0.287654,-0.63388 -0.122946,-1.44534 0.06684,-0.32928 0.213611,-0.6301 0.135012,-0.3032 0.312116,-0.51215 l -2.822444,-0.57289 0.05893,-1.67781 8.949498,1.81656 q 0.05041,0.47553 0.01321,1.14144 -0.03721,0.66591 -0.163723,1.2892 z m -1.385314,-0.29344 q 0.04058,-0.19992 0.06463,-0.37871 0.01229,-0.18118 0.02457,-0.36235 l -3.375172,-0.68509 q -0.141648,0.15491 -0.262338,0.38756 -0.118302,0.22088 -0.173205,0.49136 -0.07639,0.37633 0.08517,0.66626 0.161555,0.28993 0.53753,0.48869 0.364215,0.19638 0.940464,0.31334 0.834973,0.16949 1.426245,-0.0289 0.59366,-0.21011 0.73211,-0.8922 z m 0.692158,15.60669 q -0.06907,0.40211 -0.198934,0.7329 -0.129869,0.33079 -0.263079,0.53925 l -1.30727,-0.5411 q 0.162957,-0.23988 0.246828,-0.44463 0.08387,-0.20476 0.122466,-0.42947 0.08328,-0.4849 -0.185257,-0.83542 -0.268541,-0.35051 -0.677695,-0.59125 -1.258563,0.38045 -2.873962,0.71178 -1.625195,0.31747 -3.49433,0.49564 l 0.292511,-1.70306 q 0.676882,-0.042 1.470363,-0.1249 0.783684,-0.0967 1.571432,-0.21713 0.775921,-0.12242 1.435605,-0.27698 -0.594321,-0.29689 -1.285287,-0.59821 -0.700762,-0.31517 -1.415382,-0.62054 -0.71462,-0.30538 -1.364373,-0.56309 l 0.286416,-1.66758 q 1.665055,0.79736 3.19225,1.5467 1.515368,0.7473 2.864077,1.68514 0.640906,0.451 1.031417,0.87117 0.392542,0.40834 0.528234,0.89432 0.135693,0.48598 0.02397,1.13646 z m -2.707076,3.48979 q -0.116722,0.74693 -0.489087,1.18671 -0.382368,0.42608 -0.998519,0.56056 -0.628008,0.13263 -1.469792,0.001 l -5.299682,-0.82818 -0.270499,1.731 -1.363452,-0.21307 0.526175,-3.36713 6.781696,1.05976 q 0.414964,0.0648 0.670614,-0.0167 0.255649,-0.0815 0.381995,-0.26824 0.126345,-0.18673 0.165252,-0.43571 0.07596,-0.4861 -0.0026,-0.83845 -0.07669,-0.36421 -0.09744,-0.46462 l 1.349378,-0.008 q 0.03446,0.0904 0.14004,0.58058 0.105585,0.49018 -0.02411,1.32011 z m -1.076502,7.16532 q -0.148962,1.05756 -0.614235,1.77973 -0.477156,0.72049 -1.248699,1.03596 -0.783425,0.31379 -1.840986,0.16483 -0.831789,-0.11716 -1.416215,-0.44185 -0.594635,-0.33824 -0.951949,-0.81272 -0.367523,-0.48803 -0.495885,-1.03932 -0.138571,-0.56485 -0.05991,-1.12334 0.194152,-1.37839 1.116156,-1.98775 0.922004,-0.60935 2.49052,-0.38842 0.154476,0.0218 0.331042,0.0587 0.166358,0.0234 0.283512,0.0521 l -0.572415,4.06388 q 0.606018,0.0854 1.032796,-0.3635 0.416568,-0.46242 0.528708,-1.25856 0.06862,-0.48719 0.03716,-0.95212 -0.04167,-0.47849 -0.10677,-0.79062 l 1.422077,-0.0299 q 0.09589,0.43765 0.122333,0.93824 0.02644,0.50058 -0.05725,1.09471 z m -4.119799,1.20112 0.353156,-2.50725 q -0.332716,-0.0469 -0.646521,0.0301 -0.313804,0.077 -0.542423,0.32351 -0.226946,0.23464 -0.288874,0.6743 -0.06025,0.42778 0.09137,0.72786 0.139745,0.29841 0.416728,0.48284 0.276982,0.18444 0.61656,0.26862 z m 3.2804,5.01632 q -0.09564,0.76202 -0.341483,1.27541 -0.245845,0.51338 -0.817506,0.73189 -0.570166,0.2066 -1.617946,0.0751 l -2.571824,-0.32278 -0.179322,1.42879 -1.357352,-0.17035 0.179323,-1.42879 -1.583577,-0.19875 -0.05572,-1.67599 1.845521,0.23163 0.330252,-2.63136 1.357351,0.17036 -0.330251,2.63135 2.536103,0.3183 q 0.464358,0.0583 0.715939,-0.019 0.241168,-0.0907 0.351413,-0.29453 0.09834,-0.20536 0.132708,-0.47921 0.05828,-0.46436 0.04059,-0.80521 -0.01769,-0.34086 -0.17373,-0.83211 l 1.445277,-0.0484 q 0.13372,0.47636 0.137914,1.02112 0.0176,0.53435 -0.04367,1.02252 z m -0.907316,7.63595 q -0.113061,1.02578 -0.54461,1.54563 -0.442163,0.50661 -1.121854,0.64901 -0.690305,0.12915 -1.537176,0.0358 l -3.494837,-0.3852 0.181423,-1.64603 3.280137,0.36153 q 0.858799,0.0947 1.310548,-0.0608 0.441136,-0.16868 0.506869,-0.76507 0.0184,-0.16699 0.02883,-0.37108 -1.92e-4,-0.21733 -0.0056,-0.38695 l -4.926168,-0.54295 0.182737,-1.65796 6.059307,0.66785 q 0.06932,0.4664 0.116292,1.13557 0.04697,0.66918 -0.03585,1.42063 z m -0.585767,5.63155 q -0.07149,0.75262 -0.416664,1.21404 -0.355989,0.44835 -0.962914,0.61973 -0.618871,0.17024 -1.467053,0.0897 L 20.8287,442.378 l -0.165665,1.74415 -1.373817,-0.13048 0.322252,-3.39274 6.833245,0.64905 q 0.418119,0.0397 0.66839,-0.0571 0.250272,-0.0968 0.365131,-0.29077 0.11486,-0.19401 0.138688,-0.44488 0.04652,-0.4898 -0.05312,-0.83677 -0.0985,-0.35893 -0.125263,-0.4579 l 1.346456,-0.0891 q 0.03984,0.0882 0.174783,0.57108 0.13494,0.48293 0.05551,1.31916 z m -0.647791,7.73427 q -0.07063,0.88519 -0.542755,1.52165 -0.484083,0.63551 -1.268232,0.95816 -0.783194,0.31069 -1.764076,0.23242 -0.992845,-0.0792 -1.703943,-0.52119 -0.710144,-0.45392 -1.063399,-1.15625 -0.365217,-0.70328 -0.296493,-1.56454 0.07063,-0.88518 0.5418,-1.50969 0.46016,-0.63741 1.231392,-0.94906 0.772187,-0.3236 1.765031,-0.24438 0.980882,0.0783 1.704897,0.50923 0.724015,0.43095 1.101194,1.13519 0.366172,0.69131 0.294584,1.58846 z m -1.437347,-0.0906 q 0.05154,-0.64595 -0.449012,-1.01092 -0.499601,-0.37694 -1.336939,-0.44375 -0.849301,-0.0678 -1.388483,0.2022 -0.538227,0.258 -0.59168,0.92787 -0.04963,0.62203 0.437051,1.00997 0.487639,0.37598 1.336939,0.44375 0.837339,0.0668 1.388483,-0.2022 0.551144,-0.26902 0.603641,-0.92692 z m 0.896498,7.11151 q -0.05187,0.80232 -0.269426,1.37749 -0.229533,0.57438 -0.395683,0.91237 l -1.372069,-0.35325 q 0.209042,-0.44344 0.411529,-0.97148 0.202486,-0.52803 0.237323,-1.06691 0.03948,-0.61072 -0.02344,-0.93947 -0.0749,-0.32952 -0.338348,-0.34655 -0.239501,-0.0155 -0.382838,0.15563 -0.155312,0.17033 -0.282441,0.46274 -0.126354,0.28044 -0.256579,0.62074 -0.131,0.35229 -0.287497,0.72697 -0.167699,0.36194 -0.403376,0.65935 -0.235678,0.29742 -0.572164,0.48009 -0.347686,0.16992 -0.838661,0.13818 -0.538875,-0.0348 -0.964145,-0.3389 -0.436471,-0.31682 -0.661988,-0.92062 -0.236718,-0.61656 -0.175561,-1.56259 0.03948,-0.61072 0.169344,-1.13143 0.130637,-0.53268 0.323833,-0.91702 l 1.384045,0.35403 q -0.05719,0.1406 -0.15882,0.41061 -0.113606,0.26923 -0.20868,0.62383 -0.0943,0.34264 -0.119847,0.73781 -0.04025,0.6227 0.100711,0.86029 0.129765,0.22484 0.30939,0.23645 0.1916,0.0124 0.346138,-0.14597 0.154539,-0.15836 0.280119,-0.42682 0.126354,-0.28043 0.26778,-0.60799 0.142975,-0.35151 0.323422,-0.72465 0.168473,-0.37391 0.4169,-0.68252 0.236452,-0.30939 0.584138,-0.47932 0.348461,-0.1819 0.851411,-0.14938 0.5269,0.0341 0.940195,0.33735 0.413295,0.3033 0.62374,0.95423 0.21122,0.63896 0.141547,1.71671 z m -0.366885,6.47925 q -0.03087,0.62324 -0.160592,1.30165 -0.129722,0.67842 -0.296105,1.12673 l -8.845156,-0.43812 -0.193736,-1.66763 3.152136,0.15614 q -0.150578,-0.35589 -0.194476,-0.68246 -0.0439,-0.32657 -0.02787,-0.65017 0.04096,-0.82699 0.487757,-1.35754 0.435402,-0.54312 1.192146,-0.78198 0.745351,-0.25143 1.740132,-0.20216 1.006765,0.0499 1.732044,0.44624 0.725873,0.38438 1.099535,1.08773 0.362269,0.69077 0.314183,1.66157 z m -1.416048,-0.0341 q 0.03206,-0.64721 -0.392994,-1.04072 -0.425053,-0.39351 -1.467775,-0.44516 -0.58728,-0.0291 -0.989325,0.0832 -0.413437,0.0997 -0.642233,0.35266 -0.228203,0.24101 -0.247794,0.63652 -0.01306,0.26368 0.0452,0.5429 0.05885,0.26724 0.157814,0.45236 l 3.427798,0.16979 q 0.04545,-0.18998 0.07952,-0.39255 0.02267,-0.21514 0.0298,-0.35896 z m 0.882935,9.89526 q -1.212947,-0.34196 -2.317957,-0.6802 -1.105011,-0.33825 -2.114078,-0.67318 -1.021061,-0.33536 -1.958584,-0.65582 -0.949516,-0.32088 -1.839067,-0.63969 l 0.06197,-1.79894 q 0.909381,-0.25684 1.891133,-0.5232 0.981752,-0.26636 2.023055,-0.51866 1.041303,-0.2523 2.166556,-0.50171 1.113261,-0.24982 2.310058,-0.48476 l -0.06114,1.77495 -1.932081,0.31767 -0.07643,2.21868 1.905642,0.44987 z m -3.203014,-2.52377 0.05577,-1.61904 q -0.60295,0.0753 -1.146761,0.17663 -0.543811,0.10134 -1.100441,0.22625 -0.568623,0.1245 -1.19845,0.28291 0.617433,0.20137 1.176142,0.3647 0.546715,0.16292 1.082264,0.30144 0.535548,0.13852 1.131475,0.26711 z" /><path
   id="path4950"
   style="font-weight:bold;font-family:'Ubuntu Mono';-inkscape-font-specification:'Ubuntu Mono Bold';white-space:pre;fill:#ffffff"
   d="m 915.01584,295.56699 q -0.45308,-0.96713 -0.45798,-1.82619 0.006,-0.86414 0.47978,-1.54992 0.48469,-0.69087 1.45183,-1.14395 0.76066,-0.35635 1.42754,-0.40374 0.68284,-0.0416 1.24135,0.16055 0.57447,0.20793 0.98319,0.59952 0.42469,0.39736 0.66395,0.90809 0.59053,1.26054 0.15127,2.27467 -0.43926,1.01412 -1.87366,1.6861 -0.14126,0.0662 -0.30936,0.13168 -0.15213,0.0713 -0.26589,0.11131 l -1.74104,-3.71639 q -0.5542,0.25963 -0.66638,0.86875 -0.0962,0.6149 0.24485,1.34296 0.20872,0.44554 0.4891,0.81774 0.29634,0.37798 0.52141,0.60383 l -1.17467,0.80209 q -0.31945,-0.31415 -0.6151,-0.71896 -0.29566,-0.40481 -0.55019,-0.94814 z m 2.79418,-3.25699 1.07415,2.29287 q 0.30427,-0.14254 0.52503,-0.37848 0.22076,-0.23594 0.27753,-0.56732 0.0619,-0.32052 -0.12648,-0.72259 -0.18327,-0.3912 -0.47423,-0.55968 -0.28008,-0.17357 -0.61284,-0.1767 -0.33275,-0.003 -0.66316,0.1119 z m -5.68261,-2.80801 q -0.46761,-0.96019 -0.48546,-1.81907 -0.007,-0.86414 0.45636,-1.55699 0.47422,-0.6981 1.43441,-1.16571 0.7552,-0.36778 1.42129,-0.42522 0.68214,-0.0519 1.24363,0.14181 0.57754,0.19925 0.99212,0.58463 0.43063,0.39091 0.67757,0.89798 0.60947,1.25148 0.18555,2.27212 -0.42392,1.02064 -1.84802,1.71417 -0.14025,0.0683 -0.30734,0.13633 -0.15104,0.0736 -0.26418,0.11531 l -1.79688,-3.68972 q -0.55022,0.26796 -0.65321,0.8787 -0.087,0.61628 0.26507,1.33912 0.21542,0.44233 0.50138,0.81027 0.30201,0.37347 0.53046,0.5959 l -1.16245,0.81971 q -0.32414,-0.3093 -0.62587,-0.7096 -0.30172,-0.40031 -0.56443,-0.93974 z m 2.74476,-3.29875 1.1086,2.2764 q 0.30208,-0.14711 0.51926,-0.38635 0.21718,-0.23923 0.26895,-0.57144 0.057,-0.32141 -0.13737,-0.72059 -0.18914,-0.38839 -0.48261,-0.55247 -0.28267,-0.16933 -0.61543,-0.16744 -0.33277,0.002 -0.6614,0.12189 z m -6.80913,-5.18577 5.26843,-2.66474 q 0.50663,0.46992 0.94927,1.026 0.44263,0.55608 0.85968,1.38061 0.0867,0.17133 0.22772,0.50341 0.14107,0.33208 0.26626,0.71253 0.1359,0.37504 0.17493,0.69149 l -1.50605,0.42556 q -0.0385,-0.20912 -0.13652,-0.5092 -0.098,-0.30008 -0.21197,-0.57861 -0.10328,-0.28396 -0.19536,-0.466 -0.15707,-0.31053 -0.34084,-0.59411 -0.17307,-0.289 -0.4158,-0.55621 l -4.18691,2.11771 z m -4.39078,-3.54999 q -0.2677,-0.51002 -0.41799,-1.05455 -0.15029,-0.54454 -0.24082,-1.05267 l 1.38817,-0.37626 q 0.051,0.40694 0.13485,0.85079 0.0895,0.45449 0.38505,1.01763 0.2677,0.51001 0.57208,0.70261 0.29934,0.20881 0.62074,0.17564 0.31078,-0.0276 0.62954,-0.19491 l 0.22313,-0.11712 q -0.26241,-0.24174 -0.46559,-0.47391 -0.20318,-0.23217 -0.35933,-0.52967 -0.37924,-0.72252 -0.33323,-1.38365 0.0622,-0.65607 0.51276,-1.21781 0.45054,-0.56175 1.25807,-0.9856 0.9244,-0.4852 1.7085,-0.46308 0.80031,0.0272 1.43244,0.50853 0.63213,0.48136 1.08945,1.35263 0.24538,0.46752 0.42197,0.98469 0.18217,0.52781 0.32342,1.1584 l -4.73888,2.48735 q -1.37066,0.71943 -2.37016,0.39024 -1.00454,-0.31299 -1.77417,-1.77928 z m 3.81602,-1.37954 q 0.12827,0.24438 0.30356,0.42342 0.17529,0.17905 0.34395,0.29381 l 2.6882,-1.41098 q -0.0574,-0.18674 -0.11366,-0.31982 -0.0457,-0.13866 -0.12375,-0.28741 -0.3402,-0.64815 -0.89002,-0.76613 -0.54982,-0.11799 -1.33609,0.29471 -0.45689,0.23981 -0.71988,0.51338 -0.24678,0.27861 -0.29967,0.59097 -0.0367,0.31741 0.14736,0.66805 z m -4.87447,-5.06886 q -0.28683,-0.527 -0.42717,-1.01077 -0.14034,-0.48377 -0.10164,-0.9147 0.0444,-0.42039 0.30047,-0.77834 0.27231,-0.35315 0.77823,-0.62851 0.65348,-0.35567 1.20021,-0.22971 0.55728,0.12022 1.00221,0.56117 0.45547,0.43522 0.77672,1.02545 0.16063,0.29512 0.26669,0.56529 0.11659,0.26444 0.18343,0.48764 l 0.17918,-0.0975 q 0.27404,-0.14915 0.42174,-0.37983 0.15823,-0.2364 0.14703,-0.5582 -0.0112,-0.3218 -0.24066,-0.7434 -0.22373,-0.41106 -0.49349,-0.75608 -0.25922,-0.35076 -0.47548,-0.54728 l 1.06094,-0.83703 q 0.23828,0.21187 0.58168,0.66709 0.35968,0.46003 0.64651,0.98703 0.49335,0.90644 0.5004,1.57205 0.007,0.66561 -0.38413,1.15177 -0.38545,0.4967 -1.08109,0.87531 l -3.30955,1.8013 q -0.24588,-0.27604 -0.67439,-0.86255 -0.43333,-0.57023 -0.85784,-1.35018 z m 1.22731,-0.53137 q 0.1262,0.23188 0.25721,0.44748 0.13675,0.22615 0.23907,0.38905 l 1.27534,-0.69413 q -0.0535,-0.1485 -0.15195,-0.35449 -0.0879,-0.21173 -0.1797,-0.38037 -0.16636,-0.30566 -0.36248,-0.54048 -0.19611,-0.23482 -0.43546,-0.32314 -0.22307,-0.0835 -0.49711,0.0656 -0.3689,0.20078 -0.38839,0.5666 -0.003,0.37063 0.24347,0.82385 z m -10.48895,-11.53416 q -0.20576,-0.35232 -0.31909,-0.68913 -0.11334,-0.33682 -0.14542,-0.58211 l 1.349,-0.42655 q 0.0295,0.28848 0.097,0.49921 0.0675,0.21073 0.18247,0.40761 0.24813,0.42485 0.6792,0.5205 0.43108,0.0956 0.89921,0.0168 0.71895,-1.10084 1.74271,-2.39358 1.04018,-1.28844 2.35674,-2.62713 l 0.87148,1.49216 q -0.49125,0.46756 -1.0455,1.0414 -0.53783,0.57815 -1.06356,1.17702 -0.51536,0.59282 -0.92105,1.13549 0.64602,-0.15496 1.36889,-0.36869 0.73929,-0.20942 1.48288,-0.43525 0.7436,-0.22584 1.40687,-0.44645 l 0.85331,1.46107 q -1.78778,0.46046 -3.43911,0.86903 -1.64097,0.40252 -3.27689,0.55194 -0.78082,0.0669 -1.35009,-0.004 -0.56321,-0.0602 -0.9797,-0.345 -0.41649,-0.28482 -0.74935,-0.85474 z m -0.17196,-4.41336 q -0.39107,-0.647 -0.38883,-1.22324 0.0187,-0.57219 0.40399,-1.07148 0.39554,-0.50549 1.1247,-0.94622 l 4.59057,-2.77473 -0.90629,-1.49938 1.18102,-0.71386 1.76292,2.91661 -5.87429,3.55066 q -0.35945,0.21726 -0.50277,0.4441 -0.14332,0.22685 -0.11995,0.45109 0.0234,0.22425 0.15373,0.43991 0.2545,0.42106 0.54128,0.64033 0.29298,0.22955 0.37345,0.29308 l -1.02821,0.87388 q -0.0845,-0.0471 -0.48066,-0.35446 -0.39614,-0.30741 -0.83066,-1.02629 z m -6.18606,-6.03593 q -0.30536,-0.4884 -0.49624,-1.02006 -0.19088,-0.53167 -0.31943,-1.03154 l 1.35587,-0.47976 q 0.0815,0.40194 0.19856,0.83822 0.12346,0.44645 0.46062,0.98572 0.30536,0.4884 0.62338,0.65753 0.31422,0.18566 0.63221,0.12837 0.30781,-0.0509 0.61306,-0.24178 l 0.21368,-0.13359 q -0.27988,-0.22128 -0.49997,-0.43749 -0.22009,-0.2162 -0.39821,-0.5011 -0.43259,-0.6919 -0.43651,-1.35461 0.0126,-0.6589 0.41956,-1.25298 0.40695,-0.59409 1.18025,-1.07757 0.88522,-0.55346 1.66877,-0.59047 0.80008,-0.0332 1.46667,0.39918 0.6666,0.43237 1.18825,1.26672 0.27991,0.4477 0.49495,0.9501 0.22141,0.51258 0.40976,1.13074 l -4.53804,2.83727 q -1.31257,0.82065 -2.33402,0.56768 -1.02527,-0.23643 -1.90317,-1.64058 z m 3.70125,-1.66308 q 0.14632,0.23402 0.3346,0.39935 0.18828,0.16533 0.3651,0.26707 l 2.57427,-1.60948 q -0.0713,-0.18189 -0.13742,-0.31035 -0.056,-0.13482 -0.14505,-0.27727 -0.38806,-0.62068 -0.94521,-0.69691 -0.55714,-0.0762 -1.31009,0.39453 -0.43752,0.27354 -0.67916,0.56614 -0.2251,0.29641 -0.2543,0.61187 -0.0127,0.31928 0.19726,0.65505 z m -6.42442,-6.7811 5.13974,-3.32227 q 0.34181,0.30774 0.78428,0.79332 0.44899,0.49565 0.85938,1.13056 0.5472,0.84655 0.53444,1.51207 0.004,0.66909 -0.42312,1.20227 -0.42043,0.54325 -1.14604,1.01227 l -2.99315,1.93474 -0.89896,-1.39076 2.81174,-1.81747 q 0.49381,-0.3192 0.75055,-0.58518 0.26682,-0.27248 0.28414,-0.55516 0.0339,-0.27912 -0.18757,-0.62177 -0.0977,-0.15117 -0.2221,-0.29939 -0.10779,-0.14465 -0.23869,-0.30295 l -4.16218,2.69039 z m -2.47187,-3.39957 q -0.49324,-0.73841 -0.51725,-1.53051 -0.014,-0.79875 0.40132,-1.53799 0.42202,-0.72925 1.24027,-1.27582 0.82822,-0.55323 1.66019,-0.64717 0.83863,-0.084 1.55116,0.24822 0.72252,0.32551 1.20243,1.04397 0.49324,0.73841 0.51058,1.52052 0.034,0.78543 -0.37805,1.50802 -0.40538,0.73257 -1.2336,1.2858 -0.81825,0.54656 -1.65353,0.65715 -0.83527,0.11058 -1.56777,-0.20826 -0.71585,-0.31553 -1.21575,-1.06393 z m 1.1841,-0.81981 q 0.35993,0.53885 0.97895,0.51499 0.62569,-0.0139 1.3242,-0.48046 0.70848,-0.47324 0.96425,-1.0193 0.26245,-0.53607 -0.11082,-1.09487 -0.3466,-0.51889 -0.96897,-0.52166 -0.61571,0.007 -1.32419,0.48046 -0.69851,0.46658 -0.96426,1.0193 -0.26576,0.55272 0.10084,1.10154 z m -6.04243,-6.62779 4.85949,-3.35299 q 0.56555,0.39705 1.07935,0.88814 0.51379,0.49109 1.03855,1.25162 0.10904,0.15803 0.29374,0.46797 0.18469,0.30994 0.36021,0.66996 0.18538,0.3532 0.26687,0.66146 l -1.43464,0.6254 q -0.0665,-0.20199 -0.20415,-0.48605 -0.13768,-0.28406 -0.2883,-0.54462 -0.14075,-0.26737 -0.2566,-0.43528 -0.19764,-0.28643 -0.41809,-0.54254 -0.21058,-0.26293 -0.48723,-0.49484 l -3.86191,2.66467 z m -2.18442,-2.84902 q -0.44563,-0.62549 -0.61237,-1.16973 -0.16674,-0.54424 0.10594,-1.09213 0.27965,-0.53812 1.1397,-1.15087 l 2.11101,-1.50402 -0.83556,-1.17278 1.11415,-0.79379 0.83556,1.17279 1.29984,-0.92608 1.17591,1.19551 -1.51485,1.07928 1.53883,2.15988 -1.11415,0.79379 -1.53883,-2.15989 -2.0817,1.48313 q -0.38115,0.27156 -0.51395,0.49878 -0.11606,0.23003 -0.0591,0.45469 0.0667,0.21769 0.22685,0.44248 0.27155,0.38115 0.51539,0.61999 0.24383,0.23883 0.6913,0.49465 l -1.03071,1.0143 q -0.42097,-0.25998 -0.79295,-0.65799 -0.37478,-0.38129 -0.66027,-0.78199 z m -4.67432,-6.40538 q -0.41235,-0.5607 -0.62394,-1.03071 -0.20448,-0.46034 -0.28753,-0.81634 -0.0734,-0.36311 -0.10469,-0.60821 l 1.36711,-0.40956 q 0.0489,0.41087 0.19286,0.93065 0.15103,0.52944 0.57759,1.10948 0.33415,0.45436 0.62789,0.61073 0.30341,0.14926 0.56785,0.10374 0.27411,-0.0526 0.49645,-0.21614 0.29002,-0.21328 0.33407,-0.55848 0.0512,-0.33553 -0.0339,-0.73475 -0.0683,-0.39666 -0.17266,-0.78166 -0.10439,-0.385 -0.20366,-0.80355 -0.0896,-0.42566 -0.0831,-0.86242 0.0136,-0.42709 0.20467,-0.83571 0.20783,-0.40607 0.68152,-0.75443 0.93773,-0.68961 1.92443,-0.46192 0.9867,0.22769 1.76163,1.28142 0.44789,0.60904 0.64413,1.17971 0.20336,0.58034 0.26651,1.01055 l -1.3091,0.36691 q -0.0444,-0.38444 -0.18688,-0.801 -0.13538,-0.40689 -0.4553,-0.84192 -0.26305,-0.35768 -0.52068,-0.52571 -0.25763,-0.16803 -0.51696,-0.15607 -0.25932,0.012 -0.51067,0.1968 -0.25135,0.18485 -0.30706,0.49394 -0.0389,0.31165 0.0345,0.67475 0.0805,0.37278 0.17322,0.72166 0.1186,0.40434 0.21276,0.85644 0.10382,0.445 0.0851,0.90564 -0.0187,0.46065 -0.26778,0.91192 -0.23228,0.45384 -0.78332,0.85908 -0.93772,0.68961 -1.91476,0.45481 -0.96026,-0.23224 -1.87026,-1.46965 z"
   transform="rotate(0.94905122,1017.0258,374.9608)" /><path
   id="path1150"
   style="font-weight:bold;font-size:13.3333px;line-height:1;font-family:monospace;-inkscape-font-specification:'monospace Bold';text-align:center;letter-spacing:0px;text-anchor:middle;white-space:pre;display:inline;fill:#ffffff;stroke:none;stroke-width:0.5;stop-color:#000000"
   d="m 869.25794,223.9904 q -0.57137,-0.43505 -1.0379,-0.96164 -0.46652,-0.52658 -0.8545,-1.18964 -0.92391,-1.57898 -0.57094,-2.90942 0.36188,-1.32811 1.9521,-2.2586 1.53964,-0.90089 2.90326,-0.62014 1.36362,0.28076 2.17574,1.66869 0.8187,1.39916 0.43751,2.6556 -0.37228,1.25877 -1.87821,2.13994 l -0.66868,0.39126 -2.49554,-4.26493 q -0.73844,0.43963 -0.85051,1.08602 -0.11208,0.64639 0.39098,1.50612 0.33208,0.56753 0.81725,1.02286 0.48517,0.45532 1.19099,0.84943 z m 2.72465,-3.46494 q 0.64525,-0.39264 0.78608,-0.91254 0.14973,-0.51757 -0.21852,-1.14691 -0.33208,-0.56754 -0.87774,-0.70083 -0.54004,-0.13659 -1.21117,0.17314 z m -6.79718,-3.46102 q -0.58001,-0.42348 -1.05703,-0.94057 -0.47703,-0.51709 -0.87827,-1.17221 -0.95549,-1.56006 -0.62936,-2.89734 0.33508,-1.33512 1.90625,-2.29742 1.52121,-0.93169 2.8902,-0.67843 1.36899,0.25326 2.20887,1.62457 0.84669,1.38241 0.49086,2.64626 -0.34688,1.26601 -1.83477,2.1773 l -0.66067,0.40464 -2.58086,-4.21386 q -0.72944,0.4544 -0.82848,1.10291 -0.099,0.64852 0.4212,1.49795 0.34344,0.56074 0.83767,1.00621 0.49424,0.44547 1.20784,0.8253 z m 2.65439,-3.51907 q 0.63721,-0.40555 0.76755,-0.92817 0.13929,-0.52048 -0.24155,-1.14229 -0.34343,-0.56073 -0.89166,-0.68302 -0.54269,-0.12569 -1.20745,0.19747 z m -2.54884,-5.70952 q 0.0727,-0.41765 -0.035,-0.85125 -0.10411,-0.42812 -0.37449,-0.85026 -0.32655,-0.50985 -0.75327,-0.77774 -0.41771,-0.26592 -0.89105,-0.25654 -0.2926,0.002 -0.62376,0.13664 -0.32764,0.14028 -0.9307,0.52653 l -2.82887,1.81185 -1.02882,-1.60631 6.14018,-3.93272 1.02883,1.60632 -0.95392,0.61097 q 0.67729,-0.10135 1.27488,0.20399 0.60307,0.30182 1.02092,0.95422 0.21068,0.32894 0.32859,0.6941 0.12691,0.36713 0.156,0.75053 z m -6.91753,-7.88208 q 0.81158,-0.54314 1.09214,-1.17742 0.28597,-0.63791 -0.0508,-1.14109 -0.33313,-0.49778 -1.02647,-0.4803 -0.68972,0.0229 -1.50672,0.56965 -0.82241,0.55038 -1.10659,1.17925 -0.28056,0.63429 0.0526,1.13206 0.33674,0.50319 1.03009,0.48571 0.69875,-0.0211 1.51575,-0.56786 z m -1.6119,3.37403 q -1.45544,0.97402 -2.54105,0.74482 -1.0874,-0.22017 -2.07591,-1.69726 -0.33313,-0.49777 -0.58326,-1.03541 -0.25554,-0.53403 -0.44079,-1.13859 l 1.45544,-0.97403 q 0.0516,0.61564 0.24402,1.16061 0.19236,0.54497 0.52186,1.03733 0.449,0.67091 0.98186,0.7765 0.52744,0.10921 1.19835,-0.33978 l 0.65468,-0.43813 q -0.58854,0.057 -1.05664,-0.18592 -0.4681,-0.24293 -0.83743,-0.79481 -0.69521,-1.03883 -0.29279,-2.19336 0.40242,-1.15454 1.79294,-2.08511 1.43921,-0.96316 2.69242,-0.91663 1.25321,0.0465 1.94119,1.07454 0.34761,0.51941 0.3757,1.08815 0.0281,0.56873 -0.25988,1.0983 l 0.77372,-0.51779 1.06092,1.5853 z m -3.60384,-10.43228 q -0.61155,-0.87522 -1.07808,-1.06548 -0.46652,-0.19027 -1.01086,0.19009 -0.40559,0.2834 -0.47793,0.69135 -0.0724,0.40796 0.21478,0.81888 0.43256,0.61905 1.13551,0.63618 0.70828,0.0134 1.54614,-0.57205 l 0.10673,-0.0746 z m 2.12447,1.75598 -3.41013,2.38282 -1.08514,-1.55297 0.66709,-0.46612 q -0.59255,-0.007 -1.11553,-0.30069 -0.52297,-0.29378 -0.89587,-0.82745 -0.71223,-1.0193 -0.57223,-1.96695 0.14373,-0.94231 1.10967,-1.61726 1.04599,-0.73088 2.01588,-0.39992 0.97522,0.32723 1.96713,1.74679 l 0.75699,1.08334 0.26149,-0.18272 q 0.37891,-0.26476 0.37712,-0.67651 0.007,-0.41014 -0.36562,-0.94381 -0.39154,-0.56035 -0.9048,-0.98799 -0.5042,-0.42604 -1.21272,-0.78079 l 1.33416,-0.93224 q 0.57518,0.3685 1.04948,0.83131 0.47429,0.46282 0.89194,1.06053 1.01801,1.45691 0.83583,2.45786 -0.17846,1.00628 -1.70474,2.07277 z m -2.7625,-8.96508 -1.3467,0.98191 q -0.0371,-0.62556 -0.23789,-1.18821 -0.19166,-0.56123 -0.52919,-1.02416 -0.37588,-0.51554 -0.72022,-0.66734 -0.33907,-0.15563 -0.63367,0.0592 -0.42084,0.30685 0.13694,1.62439 l 0.0264,0.0694 0.21697,0.5186 q 0.41379,0.98745 0.25048,1.70275 -0.15422,0.71673 -0.91175,1.26906 -0.91008,0.66355 -1.805,0.39754 -0.88583,-0.26459 -1.76034,-1.464 -0.3874,-0.53132 -0.69928,-1.15798 -0.31714,-0.62283 -0.55109,-1.33048 l 1.34671,-0.9819 q 0.0827,0.72123 0.31371,1.35852 0.23484,0.64255 0.59538,1.13704 0.39507,0.54184 0.75617,0.70559 0.3611,0.16374 0.66095,-0.0549 0.2946,-0.21479 0.30666,-0.52976 0.0159,-0.30971 -0.34605,-1.18186 l -0.21599,-0.49514 q -0.44448,-1.02953 -0.31371,-1.74528 0.13077,-0.71575 0.84621,-1.23738 0.85221,-0.62136 1.77443,-0.35108 0.92221,0.27029 1.73535,1.38553 0.36438,0.49976 0.64076,1.05562 0.28547,0.55729 0.46375,1.14438 z m -7.69262,-10.70988 2.28557,3.00576 -4.6382,3.52687 1.4344,1.88637 -1.16603,0.88664 -4.02733,-5.29635 1.16603,-0.88665 1.43833,1.89156 3.47217,-2.64023 -1.13096,-1.48733 z m 3.95534,-0.66032 1.15461,1.51843 -1.77236,1.3477 -1.15461,-1.51843 z m -7.60974,-5.12049 -4.90302,3.8864 0.32353,0.40816 q 0.70367,0.88775 1.55905,0.82449 0.86049,-0.0673 2.20232,-1.13091 1.33162,-1.05551 1.58847,-1.87387 0.25686,-0.81836 -0.44682,-1.70611 z m 0.16412,-2.58082 1.27794,1.61223 q 1.48015,1.86733 1.2384,3.39648 -0.23665,1.5251 -2.25704,3.12657 -2.0255,1.60551 -3.57455,1.49585 -1.54395,-0.1137 -3.0241,-1.98104 l -1.27794,-1.61223 z"
   transform="rotate(-97.865149,493.39534,450.84493)" />
    
    
    
    
    
    
    
    
    
    
    
    
  
</svg>
