<?xml version="1.0" encoding="UTF-8" standalone="no"?>
<!-- Created with Inkscape (http://www.inkscape.org/) -->

<svg
   version="1.1"
   id="svg1"
   xml:space="preserve"
   width="980"
   height="735"
   sodipodi:docname="spectrum_3.svg"
   inkscape:version="1.2.2 (b0a8486541, 2022-12-01)"
   xmlns:inkscape="http://www.inkscape.org/namespaces/inkscape"
   xmlns:sodipodi="http://sodipodi.sourceforge.net/DTD/sodipodi-0.dtd"
   xmlns="http://www.w3.org/2000/svg"
   xmlns:svg="http://www.w3.org/2000/svg"><defs
     id="defs1"><rect
       x="206.85938"
       y="352.59766"
       width="546.30859"
       height="120.02734"
       id="rect690" /><rect
       x="206.85938"
       y="352.59766"
       width="546.30859"
       height="120.02734"
       id="rect696" /></defs><sodipodi:namedview
     id="namedview1"
     pagecolor="#ffffff"
     bordercolor="#000000"
     borderopacity="0.25"
     inkscape:showpageshadow="2"
     inkscape:pageopacity="0"
     inkscape:pagecheckerboard="0"
     inkscape:deskcolor="#d1d1d1"
     showgrid="false"
     inkscape:zoom="1.6277392"
     inkscape:cx="447.55326"
     inkscape:cy="324.37628"
     inkscape:window-width="2880"
     inkscape:window-height="1676"
     inkscape:window-x="0"
     inkscape:window-y="0"
     inkscape:window-maximized="1"
     inkscape:current-layer="svg1"
     inkscape:pageshadow="2"
     showguides="false" /><inkscape:clipboard
     min="38.679246,51.71354"
     max="761.89587,740.75465"
     geom-min="40.288131,53.322266"
     geom-max="760.28712,740.75465" /><path
     id="disagree"
     style="display:inline;fill:#000000;stroke:#ffffff;stroke-width:4.33496;stroke-opacity:1"
     d="M 179.70898 111.98047 A 485.04223 485.04223 0 0 0 46.21875 288.81836 C 17.839108 348.01935 2.3184264 432.95337 6.2578125 507.93555 L 192.13477 508.25781 C 186.72226 460.88024 193.66933 418.3267 209.75 368.22656 A 299.53094 299.53094 0 0 1 290.42969 251.17383 L 179.70898 111.98047 z " /><path
     id="neutral"
     style="display:inline;fill:#000000;stroke:#ffffff;stroke-width:4.33496;stroke-opacity:1"
     d="M 484.27344 2.1972656 C 451.90207 2.586943 418.40496 5.9767704 381.51367 12.304688 A 485.04223 485.04223 0 0 0 179.70898 111.98047 L 290.41797 251.1582 A 299.53094 299.53094 0 0 1 420.39062 183.41602 L 420.39062 183.41797 C 467.67425 172.38742 518.68191 173.03041 569.34961 186.14453 L 569.35547 186.11719 C 594.13655 192.98177 617.82821 202.98009 639.88477 215.79688 C 661.35549 228.27325 681.27718 243.42056 699.14648 260.94922 L 757.25195 188.41992 L 810.64453 121.77539 C 784.34673 98.678532 755.7219 78.578626 725.30664 61.757812 C 688.62299 41.470334 649.33441 25.953252 608.38477 15.699219 C 565.65439 6.1549717 525.89377 1.6962518 484.27344 2.1972656 z " /><path
     id="agree"
     style="display:inline;fill:#000000;stroke:#ffffff;stroke-width:4.33496;stroke-opacity:1"
     d="M 810.64453 121.77539 L 754.39062 191.99219 L 699.14648 260.94922 C 714.64382 276.10999 728.39704 292.85764 740.20312 310.87109 C 753.52161 331.19212 764.36232 353.12405 772.43359 376.21094 L 772.36523 376.24414 C 778.58423 394.38005 783.41893 415.60788 786.19141 437.69336 C 789.18001 461.50038 789.77265 486.30387 787.11914 509.29883 L 891.9707 509.48047 L 972.9375 509.62109 C 976.43481 473.26145 973.20968 431.83001 965.63672 392.7168 C 958.78831 357.34575 948.38422 323.87 936.18359 297.75391 L 936.18164 297.75391 C 923.33144 266.92466 907.3731 237.60436 888.61328 210.22266 C 866.38651 177.78065 840.22697 148.06002 810.64453 121.77539 z " /><path
     style="display:inline;fill:#cccccc;stroke:none;stroke-width:2.96414;stroke-opacity:1"
     d="m 490.3123,376.06525 c -39.40349,0.0201 -74.83213,17.28019 -99.07942,44.69453 -20.13764,22.76785 -32.56291,52.54022 -33.14781,85.25997 H 622.6002 C 622.01236,473.1343 609.46415,443.22709 589.14728,420.41593 564.8952,393.1865 529.57366,376.06831 490.3123,376.06525 Z"
     id="indifferent"
     sodipodi:nodetypes="csccsc" /><path
     style="display:inline;fill:#cccccc;stroke:none;stroke-width:2.96414;stroke-opacity:1"
     d="m 490.3123,642.18192 c -40.5289,-0.0201 -76.85264,-18.28014 -101.12947,-47.06814 -18.92823,-22.44553 -30.53308,-51.2921 -31.09776,-82.88676 H 622.6002 c -0.58784,32.89153 -13.14048,62.80373 -33.46387,85.6165 -24.25176,27.22227 -59.56858,44.33534 -98.82403,44.3384 z"
     id="notReplied"
     sodipodi:nodetypes="csccsc" /><g
     aria-label="Indifferent or no opinion"
     transform="translate(10.322832,131.05799)"
     id="text688"
     style="font-weight:bold;font-size:13.3333px;line-height:1;font-family:Ubuntu;-inkscape-font-specification:'Ubuntu Bold';text-align:center;letter-spacing:0px;text-anchor:middle;white-space:pre;shape-inside:url(#rect690);display:inline;fill:#666766;stroke:#666766;stroke-width:0.5;stop-color:#000000"><path
       d="m 380.79192,355.65565 v -1.69271 h 5.78774 v 1.69271 h -1.93359 v 6.33461 h 1.93359 v 1.69271 h -5.78774 v -1.69271 h 1.93359 v -6.33461 z"
       style="font-family:monospace;-inkscape-font-specification:'monospace Bold';fill:#ffffff;stroke:none"
       id="path1190" /><path
       d="m 394.67209,358.94991 v 4.73306 h -1.89453 v -4.44009 q 0,-0.79427 -0.22786,-1.13281 -0.22135,-0.34506 -0.72916,-0.34506 -0.51433,0 -0.8138,0.46224 -0.29297,0.46224 -0.29297,1.28255 v 4.17317 h -1.89453 v -7.29165 h 1.89453 v 1.09375 q 0.20182,-0.60547 0.6901,-0.9375 0.48828,-0.33203 1.17838,-0.33203 1.03516,0 1.5625,0.6901 0.52734,0.68359 0.52734,2.04427 z"
       style="font-family:monospace;-inkscape-font-specification:'monospace Bold';fill:#ffffff;stroke:none"
       id="path1192" /><path
       d="m 400.8765,357.42647 v -3.87368 h 1.90104 v 10.13018 h -1.90104 v -1.08073 q -0.30599,0.63151 -0.79427,0.95052 -0.48177,0.31901 -1.13932,0.31901 -1.24999,0 -1.9401,-1.0026 -0.6901,-1.0026 -0.6901,-2.82552 0,-1.84895 0.69661,-2.83853 0.70313,-0.98958 1.9987,-0.98958 0.58593,0 1.04817,0.30599 0.46875,0.29948 0.82031,0.90494 z m -2.65624,2.63021 q 0,1.05468 0.35156,1.65364 0.35156,0.59895 0.97005,0.59895 0.61849,0 0.97656,-0.59895 0.35807,-0.59896 0.35807,-1.65364 0,-1.05469 -0.35807,-1.65365 -0.35807,-0.59895 -0.97656,-0.59895 -0.61849,0 -0.97005,0.59895 -0.35156,0.59896 -0.35156,1.65365 z"
       style="font-family:monospace;-inkscape-font-specification:'monospace Bold';fill:#ffffff;stroke:none"
       id="path1194" /><path
       d="m 405.1929,356.39132 h 3.77603 v 5.82681 h 2.36979 v 1.46484 h -6.65363 v -1.46484 h 2.37629 v -4.36197 h -1.86848 z m 1.86848,-3.54817 h 1.90755 v 2.22656 h -1.90755 z"
       style="font-family:monospace;-inkscape-font-specification:'monospace Bold';fill:#ffffff;stroke:none"
       id="path1196" /><path
       d="m 416.59261,355.7533 v 0.63802 h 2.23958 v 1.46484 h -2.23958 v 5.82681 h -1.90755 v -5.82681 h -1.77083 v -1.46484 h 1.77083 v -0.50781 q 0,-1.3151 0.54688,-1.82291 0.54687,-0.50781 2.03124,-0.50781 h 1.56901 v 1.46484 h -1.49088 q -0.42969,0 -0.58594,0.15625 -0.14974,0.15625 -0.16276,0.57942 z"
       style="font-family:monospace;-inkscape-font-specification:'monospace Bold';fill:#ffffff;stroke:none"
       id="path1198" /><path
       d="m 424.61993,355.7533 v 0.63802 h 2.23958 v 1.46484 h -2.23958 v 5.82681 h -1.90754 v -5.82681 h -1.77083 v -1.46484 h 1.77083 v -0.50781 q 0,-1.3151 0.54687,-1.82291 0.54687,-0.50781 2.03125,-0.50781 h 1.569 v 1.46484 h -1.49088 q -0.42969,0 -0.58594,0.15625 -0.14974,0.15625 -0.16276,0.57942 z"
       style="font-family:monospace;-inkscape-font-specification:'monospace Bold';fill:#ffffff;stroke:none"
       id="path1200" /><path
       d="m 435.01053,363.3249 q -0.66406,0.27343 -1.35416,0.41015 -0.69011,0.13672 -1.45833,0.13672 -1.82943,0 -2.79947,-0.97656 -0.96354,-0.98307 -0.96354,-2.82551 0,-1.78385 0.93098,-2.81901 0.93099,-1.03515 2.53906,-1.03515 1.62109,0 2.51301,0.96354 0.89844,0.95703 0.89844,2.70181 v 0.77474 h -4.94139 q 0.007,0.85938 0.50781,1.28255 0.5013,0.42318 1.49739,0.42318 0.65755,0 1.29557,-0.1888 0.63802,-0.18881 1.33463,-0.59896 z m -1.61458,-4.10156 q -0.013,-0.7552 -0.39062,-1.13932 -0.3711,-0.39062 -1.10026,-0.39062 -0.65755,0 -1.04818,0.40365 -0.39062,0.39713 -0.46223,1.1328 z"
       style="font-family:monospace;-inkscape-font-specification:'monospace Bold';fill:#ffffff;stroke:none"
       id="path1202" /><path
       d="m 443.35686,358.40303 q -0.31249,-0.28645 -0.73567,-0.42968 -0.41667,-0.14323 -0.91797,-0.14323 -0.60546,0 -1.06119,0.21484 -0.44922,0.20833 -0.69662,0.61198 -0.15624,0.24739 -0.22135,0.59896 -0.0586,0.35156 -0.0586,1.0677 v 3.35937 h -1.90755 v -7.29165 h 1.90755 v 1.13281 q 0.27994,-0.625 0.85937,-0.96354 0.57943,-0.34505 1.35416,-0.34505 0.39063,0 0.76172,0.0977 0.3776,0.0911 0.71614,0.27343 z"
       style="font-family:monospace;-inkscape-font-specification:'monospace Bold';fill:#ffffff;stroke:none"
       id="path1204" /><path
       d="m 451.06518,363.3249 q -0.66406,0.27343 -1.35416,0.41015 -0.69011,0.13672 -1.45833,0.13672 -1.82943,0 -2.79948,-0.97656 -0.96353,-0.98307 -0.96353,-2.82551 0,-1.78385 0.93098,-2.81901 0.93099,-1.03515 2.53906,-1.03515 1.62109,0 2.51301,0.96354 0.89844,0.95703 0.89844,2.70181 v 0.77474 h -4.9414 q 0.007,0.85938 0.50782,1.28255 0.5013,0.42318 1.49739,0.42318 0.65755,0 1.29557,-0.1888 0.63802,-0.18881 1.33463,-0.59896 z m -1.61458,-4.10156 q -0.013,-0.7552 -0.39062,-1.13932 -0.3711,-0.39062 -1.10026,-0.39062 -0.65755,0 -1.04818,0.40365 -0.39062,0.39713 -0.46223,1.1328 z"
       style="font-family:monospace;-inkscape-font-specification:'monospace Bold';fill:#ffffff;stroke:none"
       id="path1206" /><path
       d="m 458.89068,358.94991 v 4.73306 h -1.89453 v -4.44009 q 0,-0.79427 -0.22786,-1.13281 -0.22136,-0.34506 -0.72917,-0.34506 -0.51432,0 -0.8138,0.46224 -0.29297,0.46224 -0.29297,1.28255 v 4.17317 h -1.89452 v -7.29165 h 1.89452 v 1.09375 q 0.20183,-0.60547 0.69011,-0.9375 0.48828,-0.33203 1.17838,-0.33203 1.03515,0 1.5625,0.6901 0.52734,0.68359 0.52734,2.04427 z"
       style="font-family:monospace;-inkscape-font-specification:'monospace Bold';fill:#ffffff;stroke:none"
       id="path1208" /><path
       d="m 464.43754,354.32101 v 2.07031 h 2.49349 v 1.46484 h -2.49349 v 3.45051 q 0,0.48828 0.23438,0.70313 0.24088,0.20833 0.79427,0.20833 h 1.46484 v 1.46484 h -1.60156 q -1.64062,0 -2.22005,-0.52083 -0.57942,-0.52735 -0.57942,-1.94661 v -3.35937 h -1.86198 v -1.46484 H 462.53 v -2.07031 z"
       style="font-family:monospace;-inkscape-font-specification:'monospace Bold';fill:#ffffff;stroke:none"
       id="path1210" /><path
       d="m 480.01042,357.76501 q -0.6836,0 -1.07422,0.60547 -0.39062,0.59896 -0.39062,1.67317 0,1.07422 0.39062,1.67969 0.39062,0.59896 1.07422,0.59896 0.6901,0 1.08072,-0.59896 0.39063,-0.60547 0.39063,-1.67969 0,-1.07421 -0.39063,-1.67317 -0.39062,-0.60547 -1.08072,-0.60547 z m -3.37239,2.27864 q 0,-1.76431 0.91145,-2.79296 0.91797,-1.03515 2.46094,-1.03515 1.54947,0 2.46093,1.03515 0.91796,1.02865 0.91796,2.79296 0,1.76432 -0.91796,2.79948 -0.91146,1.02864 -2.46093,1.02864 -1.54297,0 -2.46094,-1.02864 -0.91145,-1.03516 -0.91145,-2.79948 z"
       style="font-family:monospace;-inkscape-font-specification:'monospace Bold';fill:#ffffff;stroke:none"
       id="path1212" /><path
       d="m 491.52081,358.40303 q -0.3125,-0.28645 -0.73568,-0.42968 -0.41666,-0.14323 -0.91796,-0.14323 -0.60547,0 -1.0612,0.21484 -0.44922,0.20833 -0.69661,0.61198 -0.15625,0.24739 -0.22135,0.59896 -0.0586,0.35156 -0.0586,1.0677 v 3.35937 h -1.90755 v -7.29165 h 1.90755 v 1.13281 q 0.27995,-0.625 0.85937,-0.96354 0.57943,-0.34505 1.35417,-0.34505 0.39062,0 0.76171,0.0977 0.37761,0.0911 0.71615,0.27343 z"
       style="font-family:monospace;-inkscape-font-specification:'monospace Bold';fill:#ffffff;stroke:none"
       id="path1214" /><path
       d="m 507.05463,358.94991 v 4.73306 h -1.89453 v -4.44009 q 0,-0.79427 -0.22786,-1.13281 -0.22136,-0.34506 -0.72917,-0.34506 -0.51432,0 -0.8138,0.46224 -0.29297,0.46224 -0.29297,1.28255 v 4.17317 h -1.89452 v -7.29165 h 1.89452 v 1.09375 q 0.20182,-0.60547 0.69011,-0.9375 0.48828,-0.33203 1.17838,-0.33203 1.03515,0 1.56249,0.6901 0.52735,0.68359 0.52735,2.04427 z"
       style="font-family:monospace;-inkscape-font-specification:'monospace Bold';fill:#ffffff;stroke:none"
       id="path1216" /><path
       d="m 512.11971,357.76501 q -0.68359,0 -1.07421,0.60547 -0.39063,0.59896 -0.39063,1.67317 0,1.07422 0.39063,1.67969 0.39062,0.59896 1.07421,0.59896 0.69011,0 1.08073,-0.59896 0.39063,-0.60547 0.39063,-1.67969 0,-1.07421 -0.39063,-1.67317 -0.39062,-0.60547 -1.08073,-0.60547 z m -3.37238,2.27864 q 0,-1.76431 0.91145,-2.79296 0.91797,-1.03515 2.46093,-1.03515 1.54948,0 2.46094,1.03515 0.91796,1.02865 0.91796,2.79296 0,1.76432 -0.91796,2.79948 -0.91146,1.02864 -2.46094,1.02864 -1.54296,0 -2.46093,-1.02864 -0.91145,-1.03516 -0.91145,-2.79948 z"
       style="font-family:monospace;-inkscape-font-specification:'monospace Bold';fill:#ffffff;stroke:none"
       id="path1218" /><path
       d="m 528.17436,357.76501 q -0.6836,0 -1.07422,0.60547 -0.39062,0.59896 -0.39062,1.67317 0,1.07422 0.39062,1.67969 0.39062,0.59896 1.07422,0.59896 0.6901,0 1.08072,-0.59896 0.39063,-0.60547 0.39063,-1.67969 0,-1.07421 -0.39063,-1.67317 -0.39062,-0.60547 -1.08072,-0.60547 z m -3.37239,2.27864 q 0,-1.76431 0.91146,-2.79296 0.91796,-1.03515 2.46093,-1.03515 1.54947,0 2.46093,1.03515 0.91796,1.02865 0.91796,2.79296 0,1.76432 -0.91796,2.79948 -0.91146,1.02864 -2.46093,1.02864 -1.54297,0 -2.46093,-1.02864 -0.91146,-1.03516 -0.91146,-2.79948 z"
       style="font-family:monospace;-inkscape-font-specification:'monospace Bold';fill:#ffffff;stroke:none"
       id="path1220" /><path
       d="m 535.06888,362.65433 v 3.80207 h -1.90104 v -10.06508 h 1.90104 v 1.09375 q 0.29947,-0.63151 0.78775,-0.95052 0.48828,-0.31901 1.14583,-0.31901 1.25,0 1.9401,1.0026 0.69011,1.0026 0.69011,2.82551 0,1.84896 -0.70313,2.83854 -0.69661,0.98958 -1.99218,0.98958 -0.58594,0 -1.05468,-0.29948 -0.46224,-0.30599 -0.8138,-0.91796 z m 2.65624,-2.6237 q 0,-1.05468 -0.35156,-1.65364 -0.35156,-0.59895 -0.97005,-0.59895 -0.61849,0 -0.97656,0.59895 -0.35807,0.59896 -0.35807,1.65364 0,1.05469 0.35807,1.65365 0.35807,0.59895 0.97656,0.59895 0.61849,0 0.97005,-0.59895 0.35156,-0.59896 0.35156,-1.65365 z"
       style="font-family:monospace;-inkscape-font-specification:'monospace Bold';fill:#ffffff;stroke:none"
       id="path1222" /><path
       d="m 541.65741,356.39132 h 3.77603 v 5.82681 h 2.36978 v 1.46484 h -6.65363 v -1.46484 h 2.3763 v -4.36197 h -1.86848 z m 1.86848,-3.54817 h 1.90755 v 2.22656 h -1.90755 z"
       style="font-family:monospace;-inkscape-font-specification:'monospace Bold';fill:#ffffff;stroke:none"
       id="path1224" /><path
       d="m 555.21856,358.94991 v 4.73306 h -1.89453 v -4.44009 q 0,-0.79427 -0.22786,-1.13281 -0.22136,-0.34506 -0.72917,-0.34506 -0.51432,0 -0.8138,0.46224 -0.29296,0.46224 -0.29296,1.28255 v 4.17317 h -1.89453 v -7.29165 h 1.89453 v 1.09375 q 0.20182,-0.60547 0.6901,-0.9375 0.48828,-0.33203 1.17838,-0.33203 1.03515,0 1.5625,0.6901 0.52734,0.68359 0.52734,2.04427 z"
       style="font-family:monospace;-inkscape-font-specification:'monospace Bold';fill:#ffffff;stroke:none"
       id="path1226" /><path
       d="m 557.71205,356.39132 h 3.77603 v 5.82681 h 2.36978 v 1.46484 h -6.65362 v -1.46484 h 2.37629 v -4.36197 h -1.86848 z m 1.86848,-3.54817 h 1.90755 v 2.22656 h -1.90755 z"
       style="font-family:monospace;-inkscape-font-specification:'monospace Bold';fill:#ffffff;stroke:none"
       id="path1228" /><path
       d="m 568.31098,357.76501 q -0.68359,0 -1.07421,0.60547 -0.39063,0.59896 -0.39063,1.67317 0,1.07422 0.39063,1.67969 0.39062,0.59896 1.07421,0.59896 0.69011,0 1.08073,-0.59896 0.39062,-0.60547 0.39062,-1.67969 0,-1.07421 -0.39062,-1.67317 -0.39062,-0.60547 -1.08073,-0.60547 z m -3.37238,2.27864 q 0,-1.76431 0.91145,-2.79296 0.91797,-1.03515 2.46093,-1.03515 1.54948,0 2.46093,1.03515 0.91797,1.02865 0.91797,2.79296 0,1.76432 -0.91797,2.79948 -0.91145,1.02864 -2.46093,1.02864 -1.54296,0 -2.46093,-1.02864 -0.91145,-1.03516 -0.91145,-2.79948 z"
       style="font-family:monospace;-inkscape-font-specification:'monospace Bold';fill:#ffffff;stroke:none"
       id="path1230" /><path
       d="m 579.30053,358.94991 v 4.73306 H 577.406 v -4.44009 q 0,-0.79427 -0.22786,-1.13281 -0.22136,-0.34506 -0.72917,-0.34506 -0.51432,0 -0.8138,0.46224 -0.29296,0.46224 -0.29296,1.28255 v 4.17317 h -1.89453 v -7.29165 h 1.89453 v 1.09375 q 0.20182,-0.60547 0.6901,-0.9375 0.48828,-0.33203 1.17838,-0.33203 1.03515,0 1.5625,0.6901 0.52734,0.68359 0.52734,2.04427 z"
       style="font-family:monospace;-inkscape-font-specification:'monospace Bold';fill:#ffffff;stroke:none"
       id="path1232" /></g><g
     aria-label="Not replied yet"
     transform="translate(10.39194,164.45219)"
     id="text694"
     style="font-weight:bold;font-size:13.3333px;line-height:1;font-family:Ubuntu;-inkscape-font-specification:'Ubuntu Bold';text-align:center;letter-spacing:0px;text-anchor:middle;white-space:pre;shape-inside:url(#rect696);display:inline;fill:#666766;stroke:#666766;stroke-width:0.5;stop-color:#000000"><path
       d="m 420.58348,353.96294 h 2.0638 l 2.70833,7.06379 v -7.06379 h 1.6927 v 9.72003 h -2.05078 l -2.72134,-7.06379 v 7.06379 h -1.69271 z"
       style="font-family:monospace;-inkscape-font-specification:'monospace Bold';fill:#ffffff;stroke:none"
       id="path1235" /><path
       d="m 431.84648,357.76501 q -0.6836,0 -1.07422,0.60547 -0.39062,0.59896 -0.39062,1.67317 0,1.07422 0.39062,1.67969 0.39062,0.59896 1.07422,0.59896 0.6901,0 1.08072,-0.59896 0.39063,-0.60547 0.39063,-1.67969 0,-1.07421 -0.39063,-1.67317 -0.39062,-0.60547 -1.08072,-0.60547 z m -3.37239,2.27864 q 0,-1.76431 0.91145,-2.79296 0.91797,-1.03515 2.46094,-1.03515 1.54947,0 2.46093,1.03515 0.91796,1.02865 0.91796,2.79296 0,1.76432 -0.91796,2.79948 -0.91146,1.02864 -2.46093,1.02864 -1.54297,0 -2.46094,-1.02864 -0.91145,-1.03516 -0.91145,-2.79948 z"
       style="font-family:monospace;-inkscape-font-specification:'monospace Bold';fill:#ffffff;stroke:none"
       id="path1237" /><path
       d="m 440.35557,354.32101 v 2.07031 h 2.49348 v 1.46484 h -2.49348 v 3.45051 q 0,0.48828 0.23437,0.70313 0.24089,0.20833 0.79427,0.20833 h 1.46484 v 1.46484 h -1.60156 q -1.64062,0 -2.22004,-0.52083 -0.57943,-0.52735 -0.57943,-1.94661 v -3.35937 h -1.86197 v -1.46484 h 1.86197 v -2.07031 z"
       style="font-family:monospace;-inkscape-font-specification:'monospace Bold';fill:#ffffff;stroke:none"
       id="path1239" /><path
       d="m 459.41151,358.40303 q -0.3125,-0.28645 -0.73567,-0.42968 -0.41667,-0.14323 -0.91797,-0.14323 -0.60547,0 -1.0612,0.21484 -0.44921,0.20833 -0.69661,0.61198 -0.15625,0.24739 -0.22135,0.59896 -0.0586,0.35156 -0.0586,1.0677 v 3.35937 h -1.90754 v -7.29165 h 1.90754 v 1.13281 q 0.27995,-0.625 0.85938,-0.96354 0.57942,-0.34505 1.35416,-0.34505 0.39062,0 0.76172,0.0977 0.3776,0.0911 0.71614,0.27343 z"
       style="font-family:monospace;-inkscape-font-specification:'monospace Bold';fill:#ffffff;stroke:none"
       id="path1241" /><path
       d="m 467.11983,363.3249 q -0.66406,0.27343 -1.35417,0.41015 -0.6901,0.13672 -1.45833,0.13672 -1.82942,0 -2.79947,-0.97656 -0.96354,-0.98307 -0.96354,-2.82551 0,-1.78385 0.93099,-2.81901 0.93099,-1.03515 2.53906,-1.03515 1.62109,0 2.51301,0.96354 0.89844,0.95703 0.89844,2.70181 v 0.77474 h -4.9414 q 0.007,0.85938 0.50781,1.28255 0.5013,0.42318 1.49739,0.42318 0.65756,0 1.29557,-0.1888 0.63802,-0.18881 1.33464,-0.59896 z m -1.61458,-4.10156 q -0.013,-0.7552 -0.39063,-1.13932 -0.37109,-0.39062 -1.10025,-0.39062 -0.65755,0 -1.04818,0.40365 -0.39062,0.39713 -0.46224,1.1328 z"
       style="font-family:monospace;-inkscape-font-specification:'monospace Bold';fill:#ffffff;stroke:none"
       id="path1243" /><path
       d="m 470.85028,362.65433 v 3.80207 h -1.90103 v -10.06508 h 1.90103 v 1.09375 q 0.29948,-0.63151 0.78776,-0.95052 0.48828,-0.31901 1.14583,-0.31901 1.25,0 1.9401,1.0026 0.6901,1.0026 0.6901,2.82551 0,1.84896 -0.70312,2.83854 -0.69661,0.98958 -1.99218,0.98958 -0.58594,0 -1.05469,-0.29948 -0.46224,-0.30599 -0.8138,-0.91796 z m 2.65625,-2.6237 q 0,-1.05468 -0.35157,-1.65364 -0.35156,-0.59895 -0.97004,-0.59895 -0.61849,0 -0.97656,0.59895 -0.35808,0.59896 -0.35808,1.65364 0,1.05469 0.35808,1.65365 0.35807,0.59895 0.97656,0.59895 0.61848,0 0.97004,-0.59895 0.35157,-0.59896 0.35157,-1.65365 z"
       style="font-family:monospace;-inkscape-font-specification:'monospace Bold';fill:#ffffff;stroke:none"
       id="path1245" /><path
       d="m 478.51954,360.64261 v -5.62498 h -1.93359 v -1.46484 h 3.84113 v 7.08982 q 0,0.85937 0.26693,1.21745 0.26693,0.35807 0.90495,0.35807 h 1.52343 v 1.46484 h -2.05729 q -1.36067,0 -1.95312,-0.70312 -0.59244,-0.70313 -0.59244,-2.33724 z"
       style="font-family:monospace;-inkscape-font-specification:'monospace Bold';fill:#ffffff;stroke:none"
       id="path1247" /><path
       d="m 485.46613,356.39132 h 3.77604 v 5.82681 h 2.36978 v 1.46484 h -6.65363 v -1.46484 h 2.3763 v -4.36197 h -1.86849 z m 1.86849,-3.54817 h 1.90755 v 2.22656 h -1.90755 z"
       style="font-family:monospace;-inkscape-font-specification:'monospace Bold';fill:#ffffff;stroke:none"
       id="path1249" /><path
       d="m 499.22912,363.3249 q -0.66406,0.27343 -1.35417,0.41015 -0.6901,0.13672 -1.45833,0.13672 -1.82942,0 -2.79947,-0.97656 -0.96354,-0.98307 -0.96354,-2.82551 0,-1.78385 0.93099,-2.81901 0.93099,-1.03515 2.53906,-1.03515 1.62109,0 2.51301,0.96354 0.89844,0.95703 0.89844,2.70181 v 0.77474 h -4.9414 q 0.007,0.85938 0.50781,1.28255 0.5013,0.42318 1.4974,0.42318 0.65755,0 1.29557,-0.1888 0.63801,-0.18881 1.33463,-0.59896 z m -1.61458,-4.10156 q -0.013,-0.7552 -0.39063,-1.13932 -0.37109,-0.39062 -1.10025,-0.39062 -0.65755,0 -1.04818,0.40365 -0.39062,0.39713 -0.46224,1.1328 z"
       style="font-family:monospace;-inkscape-font-specification:'monospace Bold';fill:#ffffff;stroke:none"
       id="path1251" /><path
       d="m 505.23171,357.42647 v -3.87368 h 1.90104 v 10.13018 h -1.90104 v -1.08073 q -0.30599,0.63151 -0.79427,0.95052 -0.48177,0.31901 -1.13932,0.31901 -1.24999,0 -1.9401,-1.0026 -0.6901,-1.0026 -0.6901,-2.82552 0,-1.84895 0.69661,-2.83853 0.70313,-0.98958 1.9987,-0.98958 0.58593,0 1.04817,0.30599 0.46875,0.29948 0.82031,0.90494 z m -2.65624,2.63021 q 0,1.05468 0.35156,1.65364 0.35156,0.59895 0.97005,0.59895 0.61849,0 0.97656,-0.59895 0.35807,-0.59896 0.35807,-1.65364 0,-1.05469 -0.35807,-1.65365 -0.35807,-0.59895 -0.97656,-0.59895 -0.61849,0 -0.97005,0.59895 -0.35156,0.59896 -0.35156,1.65365 z"
       style="font-family:monospace;-inkscape-font-specification:'monospace Bold';fill:#ffffff;stroke:none"
       id="path1253" /><path
       d="m 520.76552,364.47073 q -0.38411,1.02864 -0.92448,1.49739 -0.53385,0.47526 -1.30208,0.47526 h -1.57551 v -1.45182 h 0.77474 q 0.58593,0 0.85937,-0.20182 0.27343,-0.19532 0.55338,-0.91797 l 0.14323,-0.39062 -2.77343,-7.08983 h 2.0052 l 1.66667,4.73306 1.59504,-4.73306 h 2.00521 z"
       style="font-family:monospace;-inkscape-font-specification:'monospace Bold';fill:#ffffff;stroke:none"
       id="path1255" /><path
       d="m 531.33842,363.3249 q -0.66406,0.27343 -1.35417,0.41015 -0.6901,0.13672 -1.45833,0.13672 -1.82942,0 -2.79947,-0.97656 -0.96354,-0.98307 -0.96354,-2.82551 0,-1.78385 0.93099,-2.81901 0.93099,-1.03515 2.53906,-1.03515 1.62109,0 2.51301,0.96354 0.89844,0.95703 0.89844,2.70181 v 0.77474 h -4.9414 q 0.007,0.85938 0.50781,1.28255 0.5013,0.42318 1.49739,0.42318 0.65756,0 1.29557,-0.1888 0.63802,-0.18881 1.33464,-0.59896 z m -1.61458,-4.10156 q -0.013,-0.7552 -0.39063,-1.13932 -0.37109,-0.39062 -1.10025,-0.39062 -0.65756,0 -1.04818,0.40365 -0.39062,0.39713 -0.46224,1.1328 z"
       style="font-family:monospace;-inkscape-font-specification:'monospace Bold';fill:#ffffff;stroke:none"
       id="path1257" /><path
       d="m 536.68345,354.32101 v 2.07031 h 2.49349 v 1.46484 h -2.49349 v 3.45051 q 0,0.48828 0.23438,0.70313 0.24088,0.20833 0.79427,0.20833 h 1.46484 v 1.46484 h -1.60156 q -1.64062,0 -2.22005,-0.52083 -0.57943,-0.52735 -0.57943,-1.94661 v -3.35937 h -1.86197 v -1.46484 h 1.86197 v -2.07031 z"
       style="font-family:monospace;-inkscape-font-specification:'monospace Bold';fill:#ffffff;stroke:none"
       id="path1259" /></g><path
     id="path1562"
     style="font-weight:bold;font-size:8px;line-height:1;font-family:monospace;-inkscape-font-specification:'monospace Bold';text-align:center;letter-spacing:0px;white-space:pre;display:inline;fill:#ffffff;stroke-width:2.32094;stroke-linecap:round"
     d="m 521.35763,22.481274 q -0.93325,0.359284 -1.8984,0.527487 -0.96519,0.168141 -2.03466,0.143445 -2.54698,-0.05856 -3.86602,-1.449526 -1.30988,-1.399592 -1.25066,-3.964628 0.061,-2.483453 1.38674,-3.894666 1.32942,-1.411213 3.56809,-1.359528 2.25689,0.05193 3.46763,1.422203 1.22002,1.361241 1.16394,3.790315 l -0.0241,1.078584 -6.87935,-0.158783 q -0.0181,1.196621 0.66605,1.801874 0.68439,0.605271 2.071,0.637277 0.9155,0.02114 1.80983,-0.221211 0.89431,-0.24234 1.87725,-0.790968 z m -2.11593,-5.762032 q 0.006,-1.051809 -0.50713,-1.598711 -0.50412,-0.555741 -1.51925,-0.579226 -0.91539,-0.02113 -1.47222,0.52827 -0.55663,0.540346 -0.6798,1.562233 z m -8.5782,-1.327423 q -0.43228,-0.401786 -1.02045,-0.605193 -0.57898,-0.203338 -1.27702,-0.207986 -0.84312,-0.0055 -1.47971,0.289371 -0.62788,0.285931 -0.97575,0.845728 -0.21976,0.343044 -0.31395,0.832011 -0.085,0.489029 -0.0918,1.486271 l -0.0301,4.678022 -2.65627,-0.0175 0.0688,-10.15384 2.65632,0.0175 -0.0181,1.57747 q 0.39544,-0.867728 1.20565,-1.333783 0.81005,-0.475081 1.88892,-0.467958 0.54398,0.0038 1.05975,0.143085 0.52464,0.13047 0.99477,0.387418 z m -15.534,-5.705776 0.0301,2.88289 3.47216,-0.03381 0.0242,2.039789 -3.47222,0.03381 0.0483,4.804831 q 0.006,0.679899 0.33629,0.975924 0.3387,0.286836 1.10875,0.27935 l 2.03979,-0.01992 0.0242,2.039784 -2.2302,0.02114 q -2.28454,0.02234 -3.0985,-0.695253 -0.81396,-0.72649 -0.8331,-2.70282 l -0.0483,-4.677901 -2.59281,0.02535 -0.0242,-2.039783 2.59281,-0.02537 -0.0301,-2.8828905 z m -15.94533,9.806752 -0.17206,-6.606977 2.65554,-0.06949 0.1612,6.19914 q 0.0301,1.096629 0.34896,1.559889 0.32058,0.463249 1.03649,0.444654 0.71568,-0.0181 1.09815,-0.663401 0.39121,-0.645069 0.36103,-1.78698 l -0.15214,-5.827551 2.65542,-0.06949 0.26443,10.150637 -2.65554,0.06949 -0.0363,-1.504472 q -0.259,0.850177 -0.92673,1.330095 -0.65844,0.47967 -1.61023,0.504423 -1.45013,0.03744 -2.21832,-0.903585 -0.75926,-0.941565 -0.80822,-2.826689 z m -2.56606,3.133533 q -0.90785,0.419598 -1.85988,0.650414 -0.95216,0.23081 -2.02101,0.27615 -2.54531,0.10776 -3.95244,-1.193838 -1.39844,-1.31101 -1.50699,-3.874434 -0.1056,-2.481901 1.12929,-3.976956 1.23435,-1.495054 3.47167,-1.589757 2.25545,-0.09544 3.55319,1.192595 1.3063,1.278613 1.40907,3.706165 l 0.0483,1.077909 -6.87507,0.291002 q 0.0611,1.195275 0.78208,1.754523 0.72261,0.559303 2.10819,0.500619 0.91491,-0.03924 1.79147,-0.338999 0.87657,-0.300298 1.8216,-0.91194 z m -2.48795,-5.611472 q -0.061,-1.049961 -0.61032,-1.562148 -0.53914,-0.52163 -1.55377,-0.478704 -0.91479,0.03924 -1.43456,0.623299 -0.52041,0.575542 -0.57657,1.603311 z m -18.34711,-6.389547 2.86908,-0.168141 4.3404,9.599314 -0.57537,-9.819921 2.35318,-0.137895 0.79175,13.512558 -2.85092,0.167053 -4.35856,-9.598245 0.57537,9.819914 -2.3532,0.137895 z" /><path
     id="path700"
     d="m 933.4333,340.02846 5.37823,-1.84182 0.90391,2.63941 -14.06483,4.81656 -0.90385,-2.63939 1.50048,-0.51386 q -1.0223,-0.1245 -1.69734,-0.65085 -0.672,-0.51719 -0.98464,-1.43015 -0.59434,-1.7355 0.46956,-3.17034 1.06392,-1.43485 3.59484,-2.30158 2.56709,-0.87912 4.27227,-0.38246 1.70822,0.50579 2.32425,2.30447 0.2786,0.81351 0.0735,1.60077 -0.19284,0.79326 -0.86634,1.56926 z m -4.91475,-2.4374 q -1.4643,0.50148 -2.12876,1.27437 -0.66444,0.77289 -0.37035,1.63161 0.29408,0.85869 1.29593,1.07106 1.00173,0.21294 2.46618,-0.28911 1.46435,-0.50148 2.1257,-1.28341 0.66132,-0.78194 0.36721,-1.64064 -0.29406,-0.85871 -1.29283,-1.06203 -0.99881,-0.2031 -2.46306,0.29816 z m 0.80259,-5.10435 q 0.23994,-0.57402 0.22689,-1.22956 -0.009,-0.64655 -0.25931,-1.33857 -0.30147,-0.83586 -0.82495,-1.35804 -0.51126,-0.51645 -1.19159,-0.65718 -0.41923,-0.0928 -0.93709,-0.007 -0.51452,0.0942 -1.50317,0.45071 l -4.63767,1.6726 -0.94977,-2.6334 10.06631,-3.63045 0.94974,2.6334 -1.56387,0.564 q 1.00222,0.0753 1.75807,0.70667 0.76488,0.62805 1.15058,1.69765 0.1945,0.53924 0.24442,1.10019 0.0622,0.56668 -0.0208,1.12479 z m -4.98888,-16.30854 q -0.35553,-0.93811 -1.38959,-1.15923 -1.02522,-0.2241 -2.49927,0.33417 -1.47415,0.55872 -2.10187,1.40969 -0.61886,0.84754 -0.26328,1.78567 0.35893,0.94703 1.38408,1.17154 1.03405,0.22114 2.50821,-0.33756 1.47414,-0.55871 2.09292,-1.4063 0.62776,-0.85092 0.26883,-1.79799 z m -4.88099,-3.44281 q 2.4212,-0.91765 4.30686,-0.20186 1.89798,0.72134 2.70051,2.83874 0.80591,2.12637 -0.14055,3.91555 -0.93415,1.79477 -3.35535,2.71239 -2.42118,0.91766 -4.31917,0.19631 -1.88565,-0.7158 -2.69157,-2.84212 -0.80252,-2.11743 0.1317,-3.91217 0.94642,-1.78923 3.36766,-2.70684 z m -5.42638,-0.70898 q -0.64293,-0.50528 -1.12941,-1.18581 -0.49535,-0.67704 -0.84123,-1.54714 -0.91412,-2.29955 -0.0444,-4.14642 0.86974,-1.84687 3.32025,-2.82101 2.45938,-0.97765 4.36327,-0.22309 1.91277,0.75104 2.8269,3.05056 0.31767,0.79907 0.42417,1.61013 0.10995,0.8199 0.012,1.71213 l -2.37947,0.94592 q 0.26247,-0.76236 0.24807,-1.54839 -0.002,-0.78063 -0.2913,-1.50872 -0.50469,-1.26963 -1.58445,-1.63207 -1.07972,-0.36248 -2.57131,0.23047 -1.49162,0.59295 -2.01895,1.59428 -0.52722,1.00134 -0.0225,2.27094 0.30001,0.75465 0.80978,1.31287 0.51866,0.55467 1.26657,0.93593 z m -4.38196,-10.95136 q -0.65098,-0.49489 -1.1483,-1.16754 -0.50613,-0.66898 -0.86597,-1.53342 -0.95092,-2.28459 -0.11085,-4.14519 0.84,-1.8606 3.27455,-2.87394 2.44336,-1.01704 4.35912,-0.29313 1.9246,0.72019 2.87553,3.00481 0.33043,0.79385 0.44994,1.60308 0.12315,0.81806 0.0398,1.71174 l -2.36399,0.98399 q 0.25016,-0.76649 0.22325,-1.55216 -0.015,-0.7805 -0.31548,-1.50382 -0.52503,-1.2614 -1.61042,-1.6065 -1.0854,-0.34514 -2.56729,0.27175 -1.4819,0.6168 -1.99308,1.62645 -0.51119,1.00963 0.0135,2.27102 0.31207,0.74977 0.83076,1.2997 0.52751,0.54627 1.28143,0.91548 z m -1.82167,-15.82269 q -0.62535,-1.43675 -1.24113,-1.84604 -0.61591,-0.40909 -1.50936,-0.0204 -0.66579,0.28979 -0.88845,0.85562 -0.22254,0.56583 0.071,1.24038 0.44231,1.01622 1.44852,1.24515 1.01499,0.22498 2.39037,-0.37352 l 0.17517,-0.0762 z m 2.54565,3.14345 -5.598,2.43651 -1.10959,-2.54934 1.09507,-0.47662 q -0.85038,-0.18214 -1.51722,-0.75684 -0.66688,-0.57466 -1.04821,-1.45066 -0.7283,-1.67327 -0.25148,-2.99577 0.48066,-1.31373 2.06631,-2.0039 1.71708,-0.74734 3.01607,0.0105 1.30777,0.75414 2.32201,3.0845 l 0.77405,1.77838 0.42925,-0.18685 q 0.62201,-0.27071 0.7391,-0.86354 0.129,-0.58801 -0.25163,-1.46392 -0.40036,-0.91985 -1.01439,-1.68423 -0.60143,-0.75941 -1.51756,-1.47561 l 2.19014,-0.95325 q 0.72028,0.69727 1.26805,1.50085 0.54774,0.80364 0.9748,1.78479 1.04096,2.39165 0.48795,3.77856 -0.54916,1.39568 -3.05469,2.48621 z m 1.22489,-17.43746 -4.82733,2.19442 -1.01222,-2.22664 4.82733,-2.19444 z m -8.61122,-12.49854 -8.29603,3.93462 0.32754,0.69062 q 0.71241,1.5021 1.95634,1.69461 1.25256,0.18856 3.52301,-0.88833 2.25312,-1.06863 2.89111,-2.15372 0.63773,-1.08526 -0.0744,-2.58718 z m 1.08849,-3.63572 1.29378,2.7279 q 1.49855,3.15961 0.64698,5.26597 -0.84292,2.10225 -4.26145,3.72361 -3.4272,1.62543 -5.60573,0.95615 -2.16988,-0.67338 -3.66841,-3.83292 l -1.2938,-2.72795 z"
     style="font-weight:bold;font-size:3.24105px;line-height:1;font-family:monospace;-inkscape-font-specification:'monospace Bold';text-align:center;letter-spacing:0px;text-anchor:middle;white-space:pre;display:inline;fill:#ffffff;stroke-width:6.03738;stroke-linecap:round" /><path
     id="path814"
     style="font-weight:bold;font-size:3.24106px;line-height:1;font-family:monospace;-inkscape-font-specification:'monospace Bold';text-align:center;letter-spacing:0px;text-anchor:middle;white-space:pre;display:inline;fill:#ffffff;stroke-width:6.03738;stroke-linecap:round"
     d="m 85.358389,245.22905 -5.086796,-2.53822 1.245618,-2.49637 13.302644,6.6377 -1.245647,2.49639 -1.419172,-0.70815 q 0.628801,0.81561 0.727735,1.66587 0.103245,0.84166 -0.327604,1.70514 -0.819051,1.64148 -2.587824,1.89073 -1.768769,0.24927 -4.162545,-0.94518 -2.427996,-1.2115 -3.271041,-2.7747 -0.838737,-1.57179 0.0102,-3.27304 0.383818,-0.76959 1.088641,-1.17593 0.701739,-0.41718 1.725897,-0.48411 z m 1.713412,5.21149 q 1.384982,0.69108 2.401884,0.62188 1.017054,-0.069 1.421961,-0.88165 0.405269,-0.81216 -0.14664,-1.67486 -0.551644,-0.86283 -1.936866,-1.55369 -1.384995,-0.69108 -2.406139,-0.61333 -1.021086,0.0779 -1.426413,0.88992 -0.405278,0.81218 0.150906,1.66629 0.555978,0.85422 1.941144,1.54519 z m -4.199563,3.01199 q -0.577292,0.23202 -1.033958,0.70318 -0.453624,0.46077 -0.771378,1.12427 -0.383665,0.80152 -0.388155,1.54084 -0.0088,0.72663 0.368547,1.3099 0.228326,0.3635 0.652559,0.67262 0.428275,0.30048 1.376124,0.75423 l 4.446706,2.12906 -1.208952,2.52493 -9.651696,-4.62117 1.208912,-2.52497 1.499454,0.71793 q -0.649844,-0.76665 -0.730749,-1.74813 -0.08952,-0.98565 0.401488,-2.01117 0.247524,-0.51709 0.611999,-0.94638 0.359959,-0.4421 0.815788,-0.77468 z m -8.111915,14.99863 q -0.418552,0.91161 0.149955,1.80342 0.559998,0.88752 1.992566,1.54532 1.432762,0.6576 2.479473,0.50727 1.037863,-0.15461 1.456389,-1.06626 0.422482,-0.92046 -0.137295,-1.80813 -0.568034,-0.8919 -2.001185,-1.54927 -1.432788,-0.65763 -2.470791,-0.50326 -1.046799,0.15023 -1.469304,1.07061 z m 0.974745,5.89299 q -2.353246,-1.08009 -3.167257,-2.92549 -0.818724,-1.85804 0.125865,-3.91602 0.948526,-2.0667 2.887185,-2.64871 1.934106,-0.59443 4.287175,0.4854 2.353245,1.08011 3.171962,2.93816 0.814023,1.84539 -0.134535,3.91212 -0.94457,2.05795 -2.878526,2.65261 -1.938519,0.58225 -4.291878,-0.49807 z m 3.303497,4.36502 q 0.09162,0.81252 -0.05147,1.63675 -0.134325,0.82809 -0.51107,1.68531 -0.995698,2.26542 -2.921508,2.94273 -1.925718,0.67744 -4.339932,-0.3837 -2.422872,-1.06485 -3.222295,-2.95041 -0.808137,-1.88937 0.187561,-4.15479 0.345996,-0.78722 0.84875,-1.4325 0.506565,-0.65406 1.210563,-1.21082 l 2.344159,1.03023 q -0.727159,0.34835 -1.276752,0.91046 -0.554547,0.54951 -0.869823,1.26669 -0.549736,1.25083 -0.0498,2.27415 0.50001,1.02334 1.969449,1.66924 1.469484,0.64583 2.55272,0.31832 1.08325,-0.32753 1.633114,-1.57815 0.326897,-0.74327 0.366336,-1.49838 0.03084,-0.75876 -0.222802,-1.55904 z m -4.719996,10.8055 q 0.10485,0.81098 -0.02504,1.6374 -0.12093,0.8301 -0.483786,1.69332 -0.959,2.2812 -2.873598,2.98956 -1.91466,0.70824 -4.345596,-0.31363 -2.439756,-1.02561 -3.269481,-2.89799 -0.838535,-1.87606 0.120465,-4.15726 0.333199,-0.79278 0.825492,-1.44603 0.495862,-0.66233 1.190728,-1.23047 l 2.360504,0.99234 q -0.721527,0.35985 -1.261836,0.93104 -0.545697,0.55821 -0.849255,1.28053 -0.529493,1.25952 -0.01305,2.27468 0.516457,1.01512 1.99614,1.63719 1.479715,0.62206 2.557512,0.27708 1.077937,-0.34475 1.607188,-1.60467 0.314814,-0.7485 0.342125,-1.50407 0.01856,-0.75918 -0.247923,-1.55526 z m -9.986966,12.40713 q -0.583914,1.4541 -0.442971,2.1799 0.141,0.72587 1.045314,1.08906 0.67395,0.27083 1.23303,0.0318 0.559352,-0.23841 0.833259,-0.92162 0.413018,-1.02848 -0.13047,-1.90566 -0.552276,-0.88082 -1.944393,-1.43979 l -0.177454,-0.0714 z m 0.450758,-4.01974 5.665543,2.27511 -1.03606,2.58012 -1.108302,-0.4451 q 0.467259,0.73347 0.526467,1.61172 0.05913,0.87836 -0.296904,1.76496 -0.680046,1.69346 -1.956501,2.28255 -1.272752,0.58046 -2.877701,-0.0642 -1.737781,-0.69783 -2.110182,-2.15497 -0.380926,-1.46078 0.565821,-3.81915 l 0.722789,-1.79982 -0.434327,-0.17423 q -0.629613,-0.25295 -1.133895,0.0799 -0.509679,0.32032 -0.865828,1.20682 -0.373985,0.93074 -0.486933,1.90485 -0.11841,0.96148 0.01485,2.11668 l -2.216576,-0.89013 q -0.0093,-1.00247 0.178271,-1.95675 0.18759,-0.95428 0.586372,-1.94728 0.971999,-2.42047 2.347812,-3.00057 1.379481,-0.58875 3.915113,0.42933 z m -8.789438,10.55595 2.284107,0.87492 q -0.740836,0.5449 -1.273375,1.24152 -0.538289,0.68386 -0.838991,1.46913 -0.334972,0.8743 -0.247048,1.41961 0.07891,0.54161 0.578521,0.7332 0.713835,0.27344 1.891467,-1.46479 l 0.06339,-0.0894 0.465537,-0.68109 q 0.885861,-1.29773 1.897052,-1.66764 1.005732,-0.38217 2.29059,0.10995 1.543552,0.59124 1.930176,1.90572 0.381129,1.30219 -0.39809,3.33642 -0.345093,0.90129 -0.868024,1.78543 -0.513843,0.88785 -1.198776,1.74056 l -2.284107,-0.87492 q 0.822145,-0.67764 1.422631,-1.4708 0.604059,-0.80184 0.925178,-1.64074 0.35194,-0.91911 0.265477,-1.49444 -0.08644,-0.57532 -0.595087,-0.77017 -0.499529,-0.19118 -0.897131,0.0453 -0.395353,0.22563 -1.17943,1.36933 l -0.43656,0.6626 q -0.913217,1.36905 -1.899083,1.77925 -0.985768,0.41033 -2.199313,-0.0546 -1.445394,-0.55365 -1.848531,-1.90515 -0.403175,-1.35151 0.321412,-3.243 0.324534,-0.84784 0.788643,-1.63167 0.458532,-0.79632 1.039298,-1.48444 z m 5.371914,13.54387 q 0.04308,1.05305 -0.11544,2.07324 -0.158478,1.02025 -0.544765,2.07942 -0.919905,2.52228 -2.75408,3.36869 -1.840059,0.83389 -4.380136,-0.0923 -2.459453,-0.89697 -3.418554,-2.70108 -0.959115,-1.80405 -0.150491,-4.02119 0.815144,-2.23504 2.59208,-2.98029 1.771282,-0.75746 4.176852,0.11985 l 1.068187,0.38956 -2.484693,6.81289 q 1.188134,0.42312 2.023632,-0.0553 0.83498,-0.47922 1.336409,-1.85169 0.330663,-0.90651 0.391144,-1.88118 0.06047,-0.97456 -0.154753,-2.14131 z m -6.466818,0.16369 q -1.047795,-0.36179 -1.767247,-0.0343 -0.725217,0.31516 -1.091933,1.32036 -0.330679,0.90651 0.02946,1.64812 0.351186,0.73823 1.329407,1.20687 z m -8.760505,-2.55424 0.923167,-2.53128 2.170361,4.53411 -0.644918,1.76823 z m 2.054248,13.44836 -5.371567,-1.86137 0.91348,-2.63608 14.047269,4.8676 -0.913456,2.63613 -1.49861,-0.51931 q 0.728657,0.72778 0.936194,1.55821 0.2109,0.82134 -0.10506,1.73319 -0.600644,1.73331 -2.322516,2.20851 -1.721876,0.47519 -4.249667,-0.40069 -2.563894,-0.88845 -3.601417,-2.32994 -1.034294,-1.45056 -0.41183,-3.24706 0.281553,-0.81246 0.927959,-1.30643 0.640351,-0.50635 1.649146,-0.70249 z m 2.370896,4.94716 q 1.462495,0.50679 2.461989,0.30708 0.999517,-0.19962 1.296631,-1.05741 0.297098,-0.85779 -0.361258,-1.64194 -0.65847,-0.78443 -2.121006,-1.29113 -1.462511,-0.50679 -2.465136,-0.29806 -1.002617,0.20877 -1.299734,1.06648 -0.297105,0.85776 0.364377,1.63295 0.661626,0.7753 2.124137,1.28209 z m -6.938592,15.80969 6.633561,2.06019 -0.824646,2.65524 -6.222948,-1.93266 q -1.113179,-0.34571 -1.686821,-0.1737 -0.579783,0.1605 -0.801094,0.87159 -0.223833,0.72085 0.293559,1.34179 0.520333,0.61179 1.670002,0.96884 l 5.848809,1.81645 -0.824631,2.65524 -10.219456,-3.17382 0.824632,-2.65524 1.532885,0.47604 q -0.760703,-0.54634 -1.013564,-1.37523 -0.252768,-0.82882 0.04755,-1.79608 0.450585,-1.45077 1.647339,-1.88946 1.187468,-0.44177 3.094629,0.1507 z m 3.235684,13.07158 -2.496865,8.52762 -13.690037,-4.00841 2.496849,-8.52762 2.384085,0.69809 -1.704858,5.82258 2.95257,0.86451 1.543766,-5.27246 2.384044,0.69804 -1.543716,5.2725 3.585248,1.04975 1.70484,-5.82264 z" /></svg>
