<?xml version="1.0" encoding="UTF-8" standalone="no"?>
<!-- Created with Inkscape (http://www.inkscape.org/) -->

<svg
   width="980"
   height="735"
   viewBox="0 0 980 735"
   version="1.1"
   id="svg221"
   inkscape:version="1.2.2 (b0a8486541, 2022-12-01)"
   sodipodi:docname="spectrum_en_5.svg"
   xmlns:inkscape="http://www.inkscape.org/namespaces/inkscape"
   xmlns:sodipodi="http://sodipodi.sourceforge.net/DTD/sodipodi-0.dtd"
   xmlns="http://www.w3.org/2000/svg"
   xmlns:svg="http://www.w3.org/2000/svg">
  <sodipodi:namedview
     id="namedview223"
     pagecolor="#ffffff"
     bordercolor="#000000"
     borderopacity="0.25"
     inkscape:showpageshadow="2"
     inkscape:pageopacity="0.0"
     inkscape:pagecheckerboard="0"
     inkscape:deskcolor="#d1d1d1"
     inkscape:document-units="px"
     showgrid="false"
     inkscape:zoom="1.4065511"
     inkscape:cx="521.48835"
     inkscape:cy="179.8726"
     inkscape:window-width="2560"
     inkscape:window-height="1340"
     inkscape:window-x="2880"
     inkscape:window-y="0"
     inkscape:window-maximized="1"
     inkscape:current-layer="layer1" />
  <defs
     id="defs218" />
  <g
     inkscape:label="Calque 1"
     inkscape:groupmode="layer"
     id="layer1">
    <path
       style="fill:#000000;stroke-width:1.79483"
       d="M 903.86775,234.8042 743.583,334.9602 c 14.15138,22.99286 25.04438,47.69212 32.47544,73.39168 7.47535,25.85271 11.44738,52.71768 11.70886,79.87608 h 188.7492 c -0.21352,-43.84997 -6.3502,-87.25467 -18.08505,-129.08043 -12.22998,-43.59054 -30.54051,-85.46609 -54.5637,-124.34333 z"
       id="agree"
       sodipodi:nodetypes="ccsccsc" />
    <path
       style="fill:#000000;stroke-width:1.79483"
       d="M 94.999165,206.56829 C 68.607886,243.27394 47.621993,283.24774 32.438793,325.26689 13.662401,377.23012 3.7601692,432.32135 3.4835005,488.22796 H 192.23272 c 0.2911,-31.28936 5.50603,-62.14441 15.29189,-91.48304 9.36455,-28.07552 22.91493,-54.76237 40.34187,-79.11228 z"
       id="disagree"
       sodipodi:nodetypes="csccscc" />
    <path
       style="fill:#000000;stroke-width:1.79483"
       d="M 337.39348,28.641507 C 289.3191,44.525214 244.32017,67.710173 203.85781,97.134836 163.5112,126.47532 127.67524,162.01986 97.798532,202.71599 L 250.70296,313.80767 c 18.1723,-24.59644 39.90983,-46.09767 64.35319,-63.87883 24.48031,-17.80803 51.67463,-31.88473 80.71966,-41.6024 z"
       id="slightlyDisagree"
       sodipodi:nodetypes="csccscc" />
    <path
       style="fill:#000000;stroke-width:1.79483"
       d="M 642.60652,28.639507 584.22226,208.32644 c 33.30693,11.12316 64.12832,27.95712 91.20355,49.51732 25.6097,20.39317 47.8678,45.01479 65.70751,73.03165 L 901.21881,230.8425 C 870.3206,181.90179 831.19037,139.24845 785.94134,104.53477 743.05897,71.636716 694.68113,45.869509 642.60652,28.639507 Z"
       id="slightlyAgree"
       sodipodi:nodetypes="ccsccsc" />
    <path
       style="fill:#000000;stroke-width:1.79483"
       d="M 489.99902,4 A 486.61014,486.61014 0 0 0 341.92365,27.170477 L 400.263,206.72067 a 297.88412,297.88412 0 0 1 89.73602,-13.99488 297.88412,297.88412 0 0 1 89.73603,13.99488 L 638.07638,27.168523 A 486.61014,486.61014 0 0 0 489.99902,4 Z"
       id="neutral" />
    <path
       style="display:inline;fill:#cccccc;stroke:none;stroke-width:2.96414;stroke-opacity:1"
       d="m 490.31223,376.065 c -39.40349,0.0201 -74.83213,17.28019 -99.07942,44.69453 -20.13764,22.76785 -32.56291,52.54022 -33.14781,85.25997 H 622.60013 C 622.01229,473.13405 609.46408,443.22684 589.14721,420.41568 564.89513,393.18625 529.57359,376.06806 490.31223,376.065 Z"
       id="indifferent"
       sodipodi:nodetypes="csccsc" />
    <path
       style="display:inline;fill:#cccccc;stroke:none;stroke-width:2.96414;stroke-opacity:1"
       d="M 490.31223,642.18167 C 449.78333,642.16157 413.45959,623.90153 389.18276,595.11353 370.25453,572.668 358.64968,543.82143 358.085,512.22677 h 264.51513 c -0.58784,32.89153 -13.14048,62.80373 -33.46387,85.6165 -24.25176,27.22227 -59.56858,44.33534 -98.82403,44.3384 z"
       id="notReplied"
       sodipodi:nodetypes="csccsc" />
    <g
       aria-label="Disagree"
       transform="rotate(-129.86989,483.41953,465.01427)"
       id="text652"
       style="font-weight:bold;font-size:13.3333px;line-height:1;font-family:Ubuntu;-inkscape-font-specification:'Ubuntu Bold';text-align:center;letter-spacing:0px;text-anchor:middle;white-space:pre;display:inline;fill:#666766;stroke:#666766;stroke-width:0.5;stop-color:#000000">
      <path
         d="m 841.17264,169.19573 -4.90302,3.8864 0.32353,0.40816 q 0.70367,0.88775 1.55905,0.82449 0.86049,-0.0673 2.20232,-1.13091 1.33162,-1.05551 1.58847,-1.87387 0.25686,-0.81836 -0.44682,-1.70611 z m 0.16412,-2.58082 1.27794,1.61223 q 1.48015,1.86733 1.2384,3.39648 -0.23665,1.5251 -2.25704,3.12657 -2.0255,1.60551 -3.57455,1.49585 -1.54395,-0.1137 -3.0241,-1.98104 l -1.27794,-1.61223 z"
         style="font-family:monospace;-inkscape-font-specification:'monospace Bold';fill:#ffffff;stroke:none"
         id="path1136" />
      <path
         d="m 844.82704,174.97654 2.28557,3.00576 -4.6382,3.52687 1.4344,1.88637 -1.16603,0.88664 -4.02733,-5.29635 1.16603,-0.88665 1.43833,1.89156 3.47217,-2.64023 -1.13096,-1.48733 z m 3.95534,-0.66032 1.15461,1.51843 -1.77236,1.3477 -1.15461,-1.51843 z"
         style="font-family:monospace;-inkscape-font-specification:'monospace Bold';fill:#ffffff;stroke:none"
         id="path1138" />
      <path
         d="m 852.51966,185.68642 -1.3467,0.98191 q -0.0371,-0.62556 -0.23789,-1.18821 -0.19166,-0.56123 -0.52919,-1.02416 -0.37588,-0.51554 -0.72022,-0.66734 -0.33907,-0.15563 -0.63367,0.0592 -0.42084,0.30685 0.13694,1.62439 l 0.0264,0.0694 0.21697,0.5186 q 0.41379,0.98745 0.25048,1.70275 -0.15422,0.71673 -0.91175,1.26906 -0.91008,0.66355 -1.805,0.39754 -0.88583,-0.26459 -1.76034,-1.464 -0.3874,-0.53132 -0.69928,-1.15798 -0.31714,-0.62283 -0.55109,-1.33048 l 1.34671,-0.9819 q 0.0827,0.72123 0.31371,1.35852 0.23484,0.64255 0.59538,1.13704 0.39507,0.54184 0.75617,0.70559 0.3611,0.16374 0.66095,-0.0549 0.2946,-0.21479 0.30666,-0.52976 0.0159,-0.30971 -0.34605,-1.18186 l -0.21599,-0.49514 q -0.44448,-1.02953 -0.31371,-1.74528 0.13077,-0.71575 0.84621,-1.23738 0.85221,-0.62136 1.77443,-0.35108 0.92221,0.27029 1.73535,1.38553 0.36438,0.49976 0.64076,1.05562 0.28547,0.55729 0.46375,1.14438 z"
         style="font-family:monospace;-inkscape-font-specification:'monospace Bold';fill:#ffffff;stroke:none"
         id="path1140" />
      <path
         d="m 853.15769,192.89552 q -0.61155,-0.87522 -1.07808,-1.06548 -0.46652,-0.19027 -1.01086,0.19009 -0.40559,0.2834 -0.47793,0.69135 -0.0724,0.40796 0.21478,0.81888 0.43256,0.61905 1.13551,0.63618 0.70828,0.0134 1.54614,-0.57205 l 0.10673,-0.0746 z m 2.12447,1.75598 -3.41013,2.38282 -1.08514,-1.55297 0.66709,-0.46612 q -0.59255,-0.007 -1.11553,-0.30069 -0.52297,-0.29378 -0.89587,-0.82745 -0.71223,-1.0193 -0.57223,-1.96695 0.14373,-0.94231 1.10967,-1.61726 1.04599,-0.73088 2.01588,-0.39992 0.97522,0.32723 1.96713,1.74679 l 0.75699,1.08334 0.26149,-0.18272 q 0.37891,-0.26476 0.37712,-0.67651 0.007,-0.41014 -0.36562,-0.94381 -0.39154,-0.56035 -0.9048,-0.98799 -0.5042,-0.42604 -1.21272,-0.78079 l 1.33416,-0.93224 q 0.57518,0.3685 1.04948,0.83131 0.47429,0.46282 0.89194,1.06053 1.01801,1.45691 0.83583,2.45786 -0.17846,1.00628 -1.70474,2.07277 z"
         style="font-family:monospace;-inkscape-font-specification:'monospace Bold';fill:#ffffff;stroke:none"
         id="path1142" />
      <path
         d="m 858.37343,199.95377 q 0.81158,-0.54314 1.09214,-1.17742 0.28597,-0.63791 -0.0508,-1.14109 -0.33313,-0.49778 -1.02647,-0.4803 -0.68972,0.0229 -1.50672,0.56965 -0.82241,0.55038 -1.10659,1.17925 -0.28056,0.63429 0.0526,1.13206 0.33674,0.50319 1.03009,0.48571 0.69875,-0.0211 1.51575,-0.56786 z m -1.6119,3.37403 q -1.45544,0.97402 -2.54105,0.74482 -1.0874,-0.22017 -2.07591,-1.69726 -0.33313,-0.49777 -0.58326,-1.03541 -0.25554,-0.53403 -0.44079,-1.13859 l 1.45544,-0.97403 q 0.0516,0.61564 0.24402,1.16061 0.19236,0.54497 0.52186,1.03733 0.449,0.67091 0.98186,0.7765 0.52744,0.10921 1.19835,-0.33978 l 0.65468,-0.43813 q -0.58854,0.057 -1.05664,-0.18592 -0.4681,-0.24293 -0.83743,-0.79481 -0.69521,-1.03883 -0.29279,-2.19336 0.40242,-1.15454 1.79294,-2.08511 1.43921,-0.96316 2.69242,-0.91663 1.25321,0.0465 1.94119,1.07454 0.34761,0.51941 0.3757,1.08815 0.0281,0.56873 -0.25988,1.0983 l 0.77372,-0.51779 1.06092,1.5853 z"
         style="font-family:monospace;-inkscape-font-specification:'monospace Bold';fill:#ffffff;stroke:none"
         id="path1144" />
      <path
         d="m 865.29096,207.83585 q 0.0727,-0.41765 -0.035,-0.85125 -0.10411,-0.42812 -0.37449,-0.85026 -0.32655,-0.50985 -0.75327,-0.77774 -0.41771,-0.26592 -0.89105,-0.25654 -0.2926,0.002 -0.62376,0.13664 -0.32764,0.14028 -0.9307,0.52653 l -2.82887,1.81185 -1.02882,-1.60631 6.14018,-3.93272 1.02883,1.60632 -0.95392,0.61097 q 0.67729,-0.10135 1.27488,0.20399 0.60307,0.30182 1.02092,0.95422 0.21068,0.32894 0.32859,0.6941 0.12691,0.36713 0.156,0.75053 z"
         style="font-family:monospace;-inkscape-font-specification:'monospace Bold';fill:#ffffff;stroke:none"
         id="path1146" />
      <path
         d="m 865.18541,217.06444 q -0.58001,-0.42348 -1.05703,-0.94057 -0.47703,-0.51709 -0.87827,-1.17221 -0.95549,-1.56006 -0.62936,-2.89734 0.33508,-1.33512 1.90625,-2.29742 1.52121,-0.93169 2.8902,-0.67843 1.36899,0.25326 2.20887,1.62457 0.84669,1.38241 0.49086,2.64626 -0.34688,1.26601 -1.83477,2.1773 l -0.66067,0.40464 -2.58086,-4.21386 q -0.72944,0.4544 -0.82848,1.10291 -0.099,0.64852 0.4212,1.49795 0.34344,0.56074 0.83767,1.00621 0.49424,0.44547 1.20784,0.8253 z m 2.65439,-3.51907 q 0.63721,-0.40555 0.76755,-0.92817 0.13929,-0.52048 -0.24155,-1.14229 -0.34343,-0.56073 -0.89166,-0.68302 -0.54269,-0.12569 -1.20745,0.19747 z"
         style="font-family:monospace;-inkscape-font-specification:'monospace Bold';fill:#ffffff;stroke:none"
         id="path1148" />
      <path
         d="m 869.25794,223.9904 q -0.57137,-0.43505 -1.0379,-0.96164 -0.46652,-0.52658 -0.8545,-1.18964 -0.92391,-1.57898 -0.57094,-2.90942 0.36188,-1.32811 1.9521,-2.2586 1.53964,-0.90089 2.90326,-0.62014 1.36362,0.28076 2.17574,1.66869 0.8187,1.39916 0.43751,2.6556 -0.37228,1.25877 -1.87821,2.13994 l -0.66868,0.39126 -2.49554,-4.26493 q -0.73844,0.43963 -0.85051,1.08602 -0.11208,0.64639 0.39098,1.50612 0.33208,0.56753 0.81725,1.02286 0.48517,0.45532 1.19099,0.84943 z m 2.72465,-3.46494 q 0.64525,-0.39264 0.78608,-0.91254 0.14973,-0.51757 -0.21852,-1.14691 -0.33208,-0.56754 -0.87774,-0.70083 -0.54004,-0.13659 -1.21117,0.17314 z"
         style="font-family:monospace;-inkscape-font-specification:'monospace Bold';fill:#ffffff;stroke:none"
         id="path1150" />
    </g>
    <g
       aria-label="Slightly disagree"
       transform="rotate(-64.83412,490.21812,460.44564)"
       id="text658"
       style="font-weight:bold;font-size:13.3333px;line-height:1;font-family:Ubuntu;-inkscape-font-specification:'Ubuntu Bold';text-align:center;letter-spacing:0px;text-anchor:middle;white-space:pre;display:inline;fill:#666766;stroke:#666766;stroke-width:0.5;stop-color:#000000">
      <path
         d="m 628.44272,32.306636 q -1.20919,-0.975631 -1.51082,-1.710572 -0.29961,-0.741131 0.0188,-1.719247 0.40912,-1.256692 1.44768,-1.712803 1.03856,-0.45611 2.44383,0.0014 0.63763,0.207584 1.2269,0.563742 0.59127,0.349968 1.12382,0.838289 l -0.58043,1.782894 q -0.45308,-0.606232 -0.98922,-1.02041 -0.53614,-0.414178 -1.13044,-0.607655 -0.66239,-0.215645 -1.10192,-0.06433 -0.43952,0.15132 -0.60075,0.646568 -0.12496,0.383817 0.0462,0.720262 0.17939,0.33227 0.89779,0.90164 l 0.68947,0.553102 q 0.98129,0.771348 1.28782,1.617431 0.30652,0.846083 -0.028,1.873723 -0.45547,1.399076 -1.51074,1.822363 -1.04705,0.419111 -2.71852,-0.125041 -0.68715,-0.223707 -1.32609,-0.616576 -0.63475,-0.384663 -1.17378,-0.916173 l 0.61469,-1.888134 q 0.5612,0.757825 1.15954,1.233331 0.60453,0.477522 1.27311,0.695183 0.67478,0.219676 1.14497,0.03726 0.4722,-0.188608 0.65157,-0.739571 0.13503,-0.414771 -0.0118,-0.804916 -0.14483,-0.396336 -0.55687,-0.729032 z"
         style="font-family:monospace;-inkscape-font-specification:'monospace Bold';fill:#ffffff;stroke:none"
         id="path1103" />
      <path
         d="m 634.97741,35.775041 1.84834,-5.312635 -1.82621,-0.635369 0.48134,-1.383498 3.62784,1.262179 -2.32969,6.696134 q -0.28238,0.811652 -0.14794,1.237552 0.13444,0.425899 0.73703,0.635549 l 1.43884,0.500594 -0.48134,1.383498 -1.94304,-0.676015 q -1.28512,-0.447111 -1.61363,-1.305865 -0.3285,-0.858755 0.20846,-2.402124 z"
         style="font-family:monospace;-inkscape-font-specification:'monospace Bold';fill:#ffffff;stroke:none"
         id="path1105" />
      <path
         d="m 643.06357,34.119267 3.5407,1.312206 -2.02487,5.463661 2.22209,0.823523 -0.50904,1.373546 -6.23895,-2.312198 0.50904,-1.373546 2.2282,0.825785 1.51582,-4.090115 -1.75203,-0.649316 z m 2.98506,-2.677719 1.78866,0.662891 -0.77375,2.08779 -1.78866,-0.66289 z"
         style="font-family:monospace;-inkscape-font-specification:'monospace Bold';fill:#ffffff;stroke:none"
         id="path1107" />
      <path
         d="m 652.95069,41.659581 q 0.35771,-0.908688 0.22703,-1.58983 -0.12829,-0.6872 -0.69167,-0.908979 -0.55733,-0.219394 -1.11726,0.18989 -0.55387,0.411669 -0.91396,1.326415 -0.36248,0.920805 -0.23786,1.599562 0.13068,0.681142 0.68801,0.900536 0.56338,0.221779 1.12331,-0.187505 0.56231,-0.415342 0.9224,-1.330089 z m 0.59692,3.691337 q -0.64149,1.629581 -1.66433,2.059538 -1.01918,0.4384 -2.67299,-0.212628 -0.55733,-0.219394 -1.06916,-0.51883 -0.51421,-0.293377 -1.01082,-0.684778 l 0.64149,-1.629581 q 0.39311,0.476596 0.86162,0.814956 0.46852,0.33836 1.01979,0.555369 0.75118,0.295705 1.2493,0.07899 0.49573,-0.210661 0.79144,-0.961843 l 0.28855,-0.733009 q -0.45127,0.382091 -0.97439,0.449035 -0.52311,0.06694 -1.14102,-0.176297 -1.16312,-0.457866 -1.48996,-1.636028 -0.32684,-1.178161 0.28603,-2.735048 0.63434,-1.611407 1.6909,-2.28697 1.05656,-0.675563 2.20757,-0.222466 0.58156,0.228933 0.92859,0.680393 0.34703,0.451461 0.41198,1.050753 l 0.34101,-0.866283 1.77497,0.698723 z"
         style="font-family:monospace;-inkscape-font-specification:'monospace Bold';fill:#ffffff;stroke:none"
         id="path1109" />
      <path
         d="m 662.43476,44.50227 -1.82193,4.368344 -1.74854,-0.729274 1.70915,-4.097951 q 0.30324,-0.727056 0.22325,-1.127223 -0.074,-0.397661 -0.54266,-0.593137 -0.4807,-0.200488 -0.92902,0.113358 -0.44582,0.307836 -0.75908,1.058927 l -1.60641,3.851593 -1.74854,-0.729274 3.89949,-9.349578 1.74854,0.729275 -1.51369,3.62927 q 0.41934,-0.481122 0.99781,-0.59961 0.57846,-0.118488 1.21539,0.147158 0.95538,0.39847 1.17645,1.238389 0.22356,0.83391 -0.30021,2.089733 z"
         style="font-family:monospace;-inkscape-font-specification:'monospace Bold';fill:#ffffff;stroke:none"
         id="path1111" />
      <path
         d="m 669.47382,42.522701 -0.83523,1.894354 2.28157,1.005945 -0.59096,1.340344 -2.28157,-1.005945 -1.39204,3.157256 q -0.19698,0.446781 -0.0692,0.737918 0.13636,0.287807 0.64272,0.511059 l 1.34034,0.590959 -0.59096,1.340345 -1.46544,-0.646116 q -1.50119,-0.661875 -1.82125,-1.372199 -0.31744,-0.716282 0.25514,-2.014927 l 1.35527,-3.073856 -1.70373,-0.751175 0.59096,-1.340345 1.70373,0.751176 0.83522,-1.894354 z"
         style="font-family:monospace;-inkscape-font-specification:'monospace Bold';fill:#ffffff;stroke:none"
         id="path1113" />
      <path
         d="m 672.49865,50.821221 2.37238,-5.10022 -1.7532,-0.815508 0.61781,-1.328183 3.48279,1.620034 -2.9902,6.428402 q -0.36244,0.7792 -0.27144,1.216445 0.091,0.437246 0.6695,0.706336 l 1.38131,0.642522 -0.61781,1.328182 -1.86536,-0.867679 q -1.23373,-0.573876 -1.47436,-1.461273 -0.24063,-0.887397 0.44858,-2.369058 z"
         style="font-family:monospace;-inkscape-font-specification:'monospace Bold';fill:#ffffff;stroke:none"
         id="path1115" />
      <path
         d="m 680.02101,58.644802 q -0.79747,0.754786 -1.48894,0.938027 -0.6885,0.191952 -1.3784,-0.146002 l -1.41487,-0.693092 0.63867,-1.303792 0.69575,0.340819 q 0.52619,0.257761 0.86053,0.196805 0.33148,-0.05511 0.90079,-0.580928 l 0.30047,-0.287788 0.62826,-7.587017 1.80075,0.882118 -0.58541,4.983665 3.51456,-3.548792 1.80075,0.882118 z"
         style="font-family:monospace;-inkscape-font-specification:'monospace Bold';fill:#ffffff;stroke:none"
         id="path1117" />
      <path
         d="m 698.06236,60.05452 1.84261,-3.407385 1.67219,0.90427 -4.81864,8.91074 -1.6722,-0.90427 0.51408,-0.950631 q -0.56955,0.409939 -1.1508,0.458286 -0.57552,0.05144 -1.15391,-0.261334 -1.09953,-0.594589 -1.22965,-1.804762 -0.13012,-1.210174 0.73699,-2.813649 0.87949,-1.626382 1.96297,-2.16548 1.0892,-0.536002 2.22881,0.08026 0.5154,0.278713 0.77645,0.767741 0.26987,0.486399 0.2911,1.18621 z m -3.5876,1.050085 q -0.50169,0.927725 -0.47735,1.621809 0.0243,0.694084 0.56837,0.988281 0.54404,0.294198 1.14391,-0.06233 0.59988,-0.356531 1.10156,-1.284256 0.50168,-0.927725 0.47162,-1.624906 -0.0301,-0.69718 -0.57409,-0.991378 -0.54404,-0.294197 -1.13819,0.06543 -0.59415,0.359628 -1.09583,1.287353 z"
         style="font-family:monospace;-inkscape-font-specification:'monospace Bold';fill:#ffffff;stroke:none"
         id="path1119" />
      <path
         d="m 702.46612,61.293711 3.28468,1.862609 -2.8742,5.068598 2.06142,1.168947 -0.72256,1.274229 -5.78783,-3.282046 0.72256,-1.274228 2.06709,1.172159 2.15163,-3.794369 -1.62535,-0.92167 z m 3.37556,-2.164794 1.65933,0.940939 -1.09829,1.936827 -1.65933,-0.940938 z"
         style="font-family:monospace;-inkscape-font-specification:'monospace Bold';fill:#ffffff;stroke:none"
         id="path1121" />
      <path
         d="m 713.75521,68.108141 -0.85112,1.432953 q -0.28051,-0.560369 -0.68665,-0.998476 -0.39721,-0.44038 -0.88979,-0.732954 -0.54855,-0.32582 -0.92484,-0.329728 -0.37297,-0.0095 -0.55915,0.303953 -0.26598,0.447798 0.76565,1.439157 l 0.0516,0.05336 0.40369,0.391224 q 0.76926,0.744655 0.90087,1.466468 0.14054,0.71954 -0.33822,1.525576 -0.57517,0.968363 -1.50253,1.076328 -0.91844,0.105692 -2.19466,-0.652339 -0.56535,-0.335794 -1.09884,-0.788966 -0.53681,-0.447575 -1.03057,-1.005878 l 0.85112,-1.432953 q 0.3601,0.630356 0.82343,1.125152 0.46893,0.498121 0.99509,0.810643 0.57654,0.342443 0.97295,0.350728 0.39641,0.0083 0.58591,-0.310772 0.18619,-0.313458 0.0732,-0.607721 -0.10736,-0.290938 -0.78357,-0.950034 l -0.39355,-0.370055 q -0.81403,-0.771252 -0.97574,-1.480649 -0.1617,-0.709397 0.29045,-1.470654 0.53861,-0.90679 1.49273,-1.021574 0.95413,-0.114783 2.14079,0.590052 0.53176,0.315846 1.00473,0.717927 0.48189,0.399808 0.877,0.869228 z"
         style="font-family:monospace;-inkscape-font-specification:'monospace Bold';fill:#ffffff;stroke:none"
         id="path1123" />
      <path
         d="m 717.18102,74.483293 q -0.90683,-0.56361 -1.41058,-0.554755 -0.50375,0.0089 -0.85429,0.572858 -0.26118,0.420238 -0.16701,0.823712 0.0942,0.403474 0.51995,0.668096 0.64141,0.398651 1.29428,0.137535 0.65631,-0.266646 1.19587,-1.134769 l 0.0687,-0.110589 z m 2.64436,0.777324 -2.19602,3.533316 -1.60907,-1.000064 0.42958,-0.69118 q -0.54737,0.227036 -1.14378,0.162973 -0.59641,-0.06406 -1.14935,-0.407729 -1.05613,-0.656399 -1.30068,-1.582594 -0.23902,-0.922759 0.38302,-1.923589 0.67358,-1.083771 1.69543,-1.161555 1.02528,-0.08331 2.49611,0.830833 l 1.12248,0.697639 0.1684,-0.270942 q 0.244,-0.392591 0.0802,-0.770357 -0.15485,-0.379858 -0.70779,-0.723523 -0.5806,-0.360848 -1.2208,-0.55178 -0.63124,-0.193026 -1.42221,-0.240039 l 0.85916,-1.382362 q 0.67382,0.112177 1.29206,0.350782 0.61824,0.238605 1.23754,0.623509 1.50954,0.938205 1.73631,1.930004 0.2323,0.995237 -0.75058,2.576658 z"
         style="font-family:monospace;-inkscape-font-specification:'monospace Bold';fill:#ffffff;stroke:none"
         id="path1125" />
      <path
         d="m 724.75479,78.916642 q 0.53208,-0.81888 0.54015,-1.512396 0.0116,-0.698977 -0.49608,-1.028864 -0.50225,-0.326341 -1.13267,-0.0372 -0.62496,0.292686 -1.16058,1.117024 -0.53918,0.829798 -0.55271,1.519768 -0.008,0.693517 0.49418,1.019857 0.5077,0.329888 1.13812,0.04075 0.63397,-0.294598 1.16959,-1.118936 z m -0.15276,3.736167 q -0.95419,1.468523 -2.04233,1.685412 -1.08622,0.225894 -2.57658,-0.742486 -0.50225,-0.326341 -0.94391,-0.722016 -0.44522,-0.390216 -0.8536,-0.872961 l 0.95419,-1.468524 q 0.28994,0.545539 0.68139,0.970699 0.39146,0.42516 0.88824,0.747954 0.67694,0.43985 1.20832,0.327041 0.52783,-0.10735 0.96768,-0.78429 l 0.42921,-0.660563 q -0.51852,0.284207 -1.04446,0.245266 -0.52595,-0.03894 -1.08278,-0.400754 -1.04817,-0.681058 -1.13298,-1.900769 -0.0848,-1.219711 0.82681,-2.622724 0.94355,-1.452146 2.1138,-1.902949 1.17025,-0.450804 2.2075,0.223161 0.52408,0.340529 0.7739,0.852231 0.24981,0.511703 0.19369,1.111886 l 0.50725,-0.780665 1.59954,1.039324 z"
         style="font-family:monospace;-inkscape-font-specification:'monospace Bold';fill:#ffffff;stroke:none"
         id="path1127" />
      <path
         d="m 734.21755,83.437156 q -0.0977,-0.412517 -0.36739,-0.768681 -0.26432,-0.352508 -0.6791,-0.634038 -0.50097,-0.34003 -0.9987,-0.418203 -0.48869,-0.0799 -0.92007,0.115139 -0.26822,0.116947 -0.51952,0.37127 -0.24592,0.257979 -0.64811,0.850524 l -1.88661,2.779571 -1.57833,-1.071277 4.09499,-6.033178 1.57832,1.071277 -0.63618,0.937297 q 0.58262,-0.359911 1.25217,-0.314618 0.6732,0.03991 1.31423,0.474998 0.3232,0.219375 0.57541,0.508582 0.26124,0.287476 0.43898,0.62843 z"
         style="font-family:monospace;-inkscape-font-specification:'monospace Bold';fill:#ffffff;stroke:none"
         id="path1129" />
      <path
         d="m 737.75532,91.96128 q -0.69993,-0.160791 -1.34206,-0.448192 -0.64213,-0.287401 -1.26897,-0.731524 -1.49273,-1.057614 -1.71968,-2.415243 -0.21788,-1.359178 0.84726,-2.862531 1.03127,-1.455543 2.38935,-1.761967 1.35808,-0.306424 2.67019,0.623223 1.32274,0.937174 1.49348,2.239014 0.17981,1.300291 -0.82888,2.723961 l -0.44788,0.632152 -4.03196,-2.856687 q -0.49151,0.704974 -0.32711,1.340076 0.1644,0.635102 0.97716,1.210956 0.53653,0.380139 1.16628,0.594933 0.62974,0.214794 1.43527,0.282846 z m 1.05373,-4.280098 q 0.42597,-0.623743 0.33993,-1.15546 -0.077,-0.533266 -0.67194,-0.954806 -0.53653,-0.380139 -1.08862,-0.276608 -0.54832,0.09822 -1.03205,0.657097 z"
         style="font-family:monospace;-inkscape-font-specification:'monospace Bold';fill:#ffffff;stroke:none"
         id="path1131" />
      <path
         d="m 744.22684,96.723077 q -0.69655,-0.174813 -1.33278,-0.475051 -0.63623,-0.300238 -1.25403,-0.756859 -1.47119,-1.087377 -1.67083,-2.44929 -0.19054,-1.363279 0.90457,-2.844939 1.06029,-1.434541 2.42425,-1.713631 1.36396,-0.27909 2.65714,0.676718 1.30365,0.963547 1.44821,2.268553 0.15367,1.30364 -0.8834,2.706768 l -0.46049,0.62303 -3.97378,-2.937078 q -0.50557,0.694962 -0.35396,1.333238 0.15161,0.638275 0.95265,1.230334 0.52879,0.390836 1.1541,0.618233 0.6253,0.227396 1.42929,0.311611 z m 1.13948,-4.258074 q 0.43841,-0.615063 0.36306,-1.148401 -0.0662,-0.534704 -0.65263,-0.968107 -0.52879,-0.390836 -1.08284,-0.298412 -0.55019,0.08719 -1.04505,0.636239 z"
         style="font-family:monospace;-inkscape-font-specification:'monospace Bold';fill:#ffffff;stroke:none"
         id="path1133" />
    </g>
    <g
       aria-label="Agree"
       transform="rotate(126.93022,494.72627,494.73517)"
       id="text668"
       style="font-weight:bold;font-size:13.3333px;line-height:1;font-family:Ubuntu;-inkscape-font-specification:'Ubuntu Bold';text-align:center;letter-spacing:0px;text-anchor:middle;white-space:pre;display:inline;fill:#666766;stroke:#666766;stroke-width:0.5;stop-color:#000000">
      <path
         d="m 105.30558,230.09579 2.97383,2.79259 0.91871,-1.56694 z m -2.10911,0.12186 1.18872,-2.02747 9.71211,2.65286 -0.97139,1.6568 -2.37535,-0.69836 -1.30067,2.21842 1.77604,1.72053 -0.97139,1.6568 z"
         style="font-family:monospace;-inkscape-font-specification:'monospace Bold';fill:#ffffff;stroke:none"
         id="path1050" />
      <path
         d="m 113.73323,224.23348 q -0.83233,-0.51077 -1.52583,-0.50095 -0.69904,0.006 -1.01572,0.52246 -0.31328,0.5105 -0.008,1.13325 0.30871,0.6172 1.14659,1.13138 0.84343,0.51759 1.53352,0.51332 0.69349,-0.01 1.00677,-0.52032 0.31668,-0.51605 0.0114,-1.1388 -0.31086,-0.62616 -1.14874,-1.14034 z m 3.73886,0.0563 q 1.49265,0.91599 1.73754,1.99817 0.25384,1.08004 -0.67577,2.59488 -0.31327,0.5105 -0.69742,0.96223 -0.3786,0.45513 -0.85065,0.87583 l -1.49265,-0.91599 q 0.53787,-0.30392 0.95279,-0.70621 0.41492,-0.40229 0.72479,-0.90724 0.42224,-0.68806 0.29576,-1.21635 -0.12093,-0.52488 -0.80899,-0.94712 l -0.67141,-0.41203 q 0.29749,0.51102 0.27213,1.03779 -0.0254,0.52677 -0.37269,1.09276 -0.65379,1.06538 -1.87091,1.18163 -1.21712,0.11625 -2.64318,-0.75888 -1.47601,-0.90577 -1.95685,-2.064 -0.48084,-1.15823 0.16614,-2.21252 0.3269,-0.53269 0.83198,-0.79563 0.50509,-0.26293 1.10652,-0.22231 l -0.79349,-0.48694 0.99772,-1.62582 z"
         style="font-family:monospace;-inkscape-font-specification:'monospace Bold';fill:#ffffff;stroke:none"
         id="path1052" />
      <path
         d="m 118.0082,214.65716 q -0.40986,0.1083 -0.75895,0.3871 -0.34558,0.27332 -0.61631,0.69523 -0.327,0.50957 -0.39231,1.00915 -0.0673,0.49059 0.13884,0.9168 0.12382,0.26511 0.38454,0.50977 0.26424,0.23918 0.86696,0.62595 l 2.82731,1.81429 -1.03021,1.60543 -6.13679,-3.938 1.0302,-1.60543 0.9534,0.6118 q -0.37482,-0.57315 -0.34681,-1.24365 0.0225,-0.674 0.44094,-1.32604 0.21096,-0.32876 0.49357,-0.58833 0.28064,-0.26858 0.6169,-0.45505 z"
         style="font-family:monospace;-inkscape-font-specification:'monospace Bold';fill:#ffffff;stroke:none"
         id="path1054" />
      <path
         d="m 126.43834,210.90068 q -0.14269,0.70384 -0.41344,1.35316 -0.27076,0.64933 -0.69857,1.28741 -1.01878,1.5195 -2.37011,1.78138 -1.35311,0.25285 -2.88342,-0.77319 -1.48165,-0.9934 -1.82298,-2.34313 -0.34133,-1.34973 0.55418,-2.68537 0.90276,-1.34646 2.19977,-1.5507 1.29522,-0.21328 2.74442,0.75837 l 0.64349,0.43144 -2.75179,4.10427 q 0.71741,0.47316 1.34806,0.29245 0.63065,-0.18071 1.18536,-1.00806 0.36618,-0.54615 0.56467,-1.18122 0.19849,-0.63507 0.24575,-1.44208 z m -4.30584,-0.94305 q -0.63452,-0.40975 -1.16384,-0.31002 -0.5311,0.0907 -0.93717,0.69633 -0.36618,0.54615 -0.24845,1.09538 0.11233,0.54561 0.68349,1.01478 z"
         style="font-family:monospace;-inkscape-font-specification:'monospace Bold';fill:#ffffff;stroke:none"
         id="path1056" />
      <path
         d="m 131.03198,204.30864 q -0.15683,0.70082 -0.44059,1.34457 -0.28376,0.64375 -0.72432,1.2731 -1.04915,1.49869 -2.40547,1.73333 -1.35792,0.22558 -2.86728,-0.83103 -1.46136,-1.02301 -1.77547,-2.37933 -0.31411,-1.35633 0.60809,-2.67369 0.92966,-1.32802 2.23052,-1.50613 1.29925,-0.18717 2.72861,0.81343 l 0.63468,0.4443 -2.83381,4.04808 q 0.70775,0.4875 1.34191,0.31951 0.63416,-0.16799 1.2054,-0.984 0.37709,-0.53868 0.58832,-1.16963 0.21122,-0.63095 0.27471,-1.43685 z m -4.286,-1.02948 q -0.62615,-0.42243 -1.15737,-0.33337 -0.53282,0.08 -0.95098,0.67733 -0.3771,0.53868 -0.27044,1.09017 0.10132,0.54775 0.66293,1.02832 z"
         style="font-family:monospace;-inkscape-font-specification:'monospace Bold';fill:#ffffff;stroke:none"
         id="path1058" />
    </g>
    <g
       aria-label="Slightly agree"
       transform="rotate(70.650677,489.23081,461.80649)"
       id="text672"
       style="font-weight:bold;font-size:13.3333px;line-height:1;font-family:Ubuntu;-inkscape-font-specification:'Ubuntu Bold';text-align:center;letter-spacing:0px;text-anchor:middle;white-space:pre;display:inline;fill:#666766;stroke:#666766;stroke-width:0.5;stop-color:#000000">
      <path
         d="m 219.24284,107.00599 q -1.48258,0.46473 -2.26138,0.30792 -0.78283,-0.16192 -1.41993,-0.96952 -0.81855,-1.03761 -0.62181,-2.15472 0.19673,-1.11711 1.35701,-2.03244 0.52648,-0.41532 1.14972,-0.70797 0.61921,-0.29777 1.32095,-0.4699 l 1.16129,1.47207 q -0.75574,0.0406 -1.39778,0.25687 -0.64205,0.21627 -1.13274,0.60336 -0.54692,0.43146 -0.66488,0.88108 -0.11796,0.44963 0.20462,0.85854 0.25,0.31691 0.62489,0.36115 0.37597,0.0351 1.24825,-0.2467 l 0.8427,-0.26675 q 1.18617,-0.38846 2.06016,-0.17407 0.87398,0.2144 1.54334,1.06289 0.91129,1.15517 0.67798,2.26796 -0.23223,1.10366 -1.6123,2.19237 -0.56736,0.44758 -1.24871,0.76119 -0.6722,0.31469 -1.41346,0.46825 l -1.22984,-1.55897 q 0.94185,-0.0464 1.66943,-0.28043 0.73268,-0.23802 1.28471,-0.6735 0.55714,-0.43952 0.66624,-0.93191 0.10507,-0.49751 -0.2538,-0.95242 -0.27016,-0.34246 -0.67623,-0.43674 -0.4101,-0.0994 -0.9155,0.0588 z"
         style="font-family:monospace;-inkscape-font-specification:'monospace Bold';fill:#ffffff;stroke:none"
         id="path1061" />
      <path
         d="m 225.7541,103.49361 -3.3944,-4.485366 -1.54185,1.166826 -0.88396,-1.168065 3.06293,-2.317936 4.27836,5.653431 q 0.51859,0.68526 0.94751,0.80971 0.42893,0.12445 0.93768,-0.26056 l 1.21479,-0.91932 0.88396,1.16807 -1.64048,1.24147 q -1.085,0.8211 -1.98172,0.61794 -0.89672,-0.20316 -1.88282,-1.5062 z"
         style="font-family:monospace;-inkscape-font-specification:'monospace Bold';fill:#ffffff;stroke:none"
         id="path1063" />
      <path
         d="m 228.86316,95.847454 3.05623,-2.21763 3.42203,4.716078 1.91804,-1.391753 0.86029,1.185606 -5.38528,3.907615 -0.86029,-1.18561 1.92331,-1.395572 -2.56174,-3.530472 -1.51231,1.097344 z m -0.5715,-3.969146 1.54392,-1.120285 1.30764,1.802121 -1.54393,1.120285 z"
         style="font-family:monospace;-inkscape-font-specification:'monospace Bold';fill:#ffffff;stroke:none"
         id="path1065" />
      <path
         d="m 240.62221,91.805567 q -0.5575,-0.801783 -1.19669,-1.071 -0.64289,-0.274562 -1.14,0.07109 -0.49176,0.341938 -0.46193,1.03486 0.0352,0.689206 0.59639,1.496334 0.56494,0.812473 1.19878,1.085407 0.63918,0.269217 1.13094,-0.07272 0.49711,-0.345654 0.46728,-1.038576 -0.0335,-0.698268 -0.59477,-1.505396 z m 3.40221,1.551542 q 0.99979,1.437864 0.78996,2.527383 -0.20076,1.091149 -1.66001,2.105811 -0.49176,0.341938 -1.02486,0.601609 -0.52939,0.265016 -1.13056,0.461004 l -0.9998,-1.437864 q 0.61463,-0.06261 1.15608,-0.264649 0.54146,-0.202043 1.02787,-0.540263 0.66281,-0.460873 0.75889,-0.995527 0.0998,-0.529308 -0.36107,-1.192115 l -0.44972,-0.646772 q 0.0675,0.587436 -0.16707,1.059786 -0.23456,0.47235 -0.77977,0.851455 -1.02628,0.713609 -2.1878,0.331814 -1.16152,-0.381794 -2.11671,-1.755515 -0.98865,-1.421828 -0.96444,-2.675671 0.0242,-1.253843 1.03979,-1.960018 0.51314,-0.356804 1.08129,-0.395023 0.56814,-0.03822 1.10275,0.240271 l -0.53149,-0.764366 1.56615,-1.088997 z"
         style="font-family:monospace;-inkscape-font-specification:'monospace Bold';fill:#ffffff;stroke:none"
         id="path1067" />
      <path
         d="m 248.24947,85.492624 2.62331,3.939557 -1.57691,1.050046 -2.46093,-3.695705 q -0.43662,-0.65569 -0.81392,-0.811179 -0.37188,-0.159099 -0.79455,0.122357 -0.43352,0.288673 -0.42117,0.835794 0.009,0.541703 0.45978,1.219068 l 2.31299,3.47353 -1.5769,1.050046 -5.61468,-8.431843 1.5769,-1.050046 2.17948,3.273029 q -0.16759,-0.615821 0.0548,-1.162816 0.22239,-0.546996 0.79679,-0.929487 0.86161,-0.573736 1.68303,-0.291611 0.81782,0.276706 1.57198,1.40926 z"
         style="font-family:monospace;-inkscape-font-specification:'monospace Bold';fill:#ffffff;stroke:none"
         id="path1069" />
      <path
         d="m 250.50822,78.538181 1.11257,1.745956 2.10283,-1.339982 0.78719,1.235346 -2.10283,1.339982 1.85428,2.909926 q 0.2624,0.411782 0.57551,0.467015 0.3151,0.04624 0.78179,-0.251141 l 1.23535,-0.787196 0.78719,1.235346 -1.35064,0.860667 q -1.38359,0.881659 -2.15213,0.753805 -0.77204,-0.133345 -1.53474,-1.330258 l -1.8053,-2.833061 -1.57027,1.000613 -0.78719,-1.235346 1.57026,-1.000613 -1.11257,-1.745955 z"
         style="font-family:monospace;-inkscape-font-specification:'monospace Bold';fill:#ffffff;stroke:none"
         id="path1071" />
      <path
         d="m 259.09041,80.626186 -2.9268,-4.803572 -1.65123,1.006088 -0.76219,-1.25093 3.28022,-1.998626 3.68899,6.054502 q 0.44715,0.733879 0.86141,0.900774 0.41426,0.166895 0.95911,-0.16508 l 1.30096,-0.792675 0.76219,1.25093 -1.75686,1.07045 q -1.16197,0.707988 -2.03376,0.415804 -0.87178,-0.292183 -1.72204,-1.687665 z"
         style="font-family:monospace;-inkscape-font-specification:'monospace Bold';fill:#ffffff;stroke:none"
         id="path1073" />
      <path
         d="m 269.7733,78.708674 q 0.18548,1.082242 -0.0457,1.75919 -0.22231,0.679299 -0.88626,1.065751 l -1.36166,0.792555 -0.73033,-1.25475 0.66958,-0.389727 q 0.5064,-0.294752 0.64119,-0.60673 0.13807,-0.306351 0.0165,-1.071739 l -0.0727,-0.409651 -5.96346,-4.732299 1.73301,-1.008706 3.82137,3.252193 -1.0024,-4.892978 1.73302,-1.008706 z"
         style="font-family:monospace;-inkscape-font-specification:'monospace Bold';fill:#ffffff;stroke:none"
         id="path1075" />
      <path
         d="m 281.75761,67.261548 q -0.94363,0.499549 -1.1897,0.939203 -0.24607,0.439654 0.0646,1.026549 0.2315,0.437294 0.6275,0.559147 0.39599,0.121853 0.83904,-0.112691 0.66745,-0.353339 0.77069,-1.048872 0.1002,-0.701286 -0.37803,-1.604644 l -0.0609,-0.115077 z m 2.00338,-1.892967 1.94641,3.676724 -1.67438,0.886394 -0.38075,-0.719234 q -0.0795,0.587226 -0.43528,1.070201 -0.35573,0.482975 -0.93112,0.787578 -1.09898,0.581791 -2.0223,0.326575 -0.91756,-0.258262 -1.46889,-1.299712 -0.59702,-1.127759 -0.14956,-2.049715 0.44442,-0.927709 1.97495,-1.737952 l 1.16803,-0.618344 -0.14925,-0.28194 q -0.21627,-0.408524 -0.62513,-0.45727 -0.40615,-0.05755 -0.98154,0.247057 -0.60415,0.319833 -1.09154,0.776744 -0.48469,0.448111 -0.92368,1.107761 l -0.76151,-1.438468 q 0.43629,-0.525619 0.9538,-0.939546 0.51751,-0.413926 1.16194,-0.755081 1.57081,-0.831566 2.54185,-0.527949 0.97679,0.30057 1.84795,1.946177 z"
         style="font-family:monospace;-inkscape-font-specification:'monospace Bold';fill:#ffffff;stroke:none"
         id="path1077" />
      <path
         d="m 289.40215,62.95145 q -0.43945,-0.8721 -1.03451,-1.22837 -0.598,-0.362084 -1.1387,-0.08963 -0.53489,0.269526 -0.60262,0.959775 -0.0619,0.687319 0.38046,1.565232 0.44531,0.883728 1.03456,1.242928 0.59506,0.35627 1.12995,0.08674 0.5407,-0.272456 0.60843,-0.962705 0.0648,-0.696063 -0.37757,-1.573976 z m 3.15074,2.013731 q 0.78807,1.563965 0.42739,2.613246 -0.35194,1.052165 -1.93916,1.851956 -0.53489,0.269526 -1.09916,0.451797 -0.56135,0.188085 -1.18408,0.297749 l -0.78807,-1.563965 q 0.61733,0.02428 1.18178,-0.09976 0.56446,-0.124041 1.09353,-0.390637 0.72094,-0.363275 0.89111,-0.879149 0.17311,-0.510061 -0.19016,-1.230996 l -0.35449,-0.703494 q -0.0156,0.591094 -0.31417,1.025844 -0.29854,0.43475 -0.89156,0.733573 -1.11629,0.56249 -2.21272,0.02144 -1.09642,-0.541051 -1.84934,-2.035248 -0.77928,-1.546523 -0.57933,-2.784555 0.19996,-1.238032 1.30462,-1.794662 0.55815,-0.281245 1.12603,-0.239338 0.56788,0.04191 1.05811,0.39268 l -0.41893,-0.831401 1.7035,-0.858383 z"
         style="font-family:monospace;-inkscape-font-specification:'monospace Bold';fill:#ffffff;stroke:none"
         id="path1079" />
      <path
         d="m 298.07353,57.05341 q -0.40558,-0.123378 -0.84911,-0.06977 -0.43765,0.05079 -0.88978,0.267323 -0.54607,0.261523 -0.8643,0.652136 -0.31516,0.381929 -0.36394,0.852837 -0.0341,0.290616 0.0591,0.635812 0.099,0.342384 0.40833,0.988277 l 1.45103,3.029828 -1.72042,0.823937 -3.14952,-6.576371 1.72042,-0.823937 0.4893,1.021686 q -0.0175,-0.684608 0.35889,-1.240213 0.37354,-0.561478 1.07228,-0.896115 0.35231,-0.168724 0.72918,-0.240935 0.37993,-0.0809 0.764,-0.06271 z"
         style="font-family:monospace;-inkscape-font-specification:'monospace Bold';fill:#ffffff;stroke:none"
         id="path1081" />
      <path
         d="m 307.21939,58.290578 q -0.49144,0.523667 -1.06315,0.933638 -0.57172,0.409971 -1.27112,0.727793 -1.66552,0.756847 -2.95268,0.269096 -1.28392,-0.496372 -2.04615,-2.17375 -0.73799,-1.624034 -0.31867,-2.951605 0.41933,-1.32757 1.88333,-1.992842 1.47586,-0.670659 2.6865,-0.16244 1.21387,0.499597 1.93571,2.088068 l 0.32051,0.705328 -4.49869,2.044297 q 0.36146,0.779688 0.99292,0.957559 0.63146,0.177871 1.53831,-0.234221 0.59864,-0.272034 1.10139,-0.707875 0.50275,-0.43584 0.96727,-1.097444 z m -3.16677,-3.066127 q -0.32429,-0.68216 -0.82697,-0.875643 -0.49946,-0.202103 -1.16329,0.09956 -0.59864,0.272034 -0.78728,0.801121 -0.19133,0.523159 0.0478,1.222552 z"
         style="font-family:monospace;-inkscape-font-specification:'monospace Bold';fill:#ffffff;stroke:none"
         id="path1083" />
      <path
         d="m 314.5928,55.098473 q -0.50188,0.513682 -1.08172,0.912078 -0.57984,0.398395 -1.28548,0.702093 -1.68041,0.723214 -2.95749,0.209686 -1.27369,-0.522081 -2.00205,-2.214443 -0.7052,-1.638541 -0.25927,-2.957414 0.44593,-1.318873 1.92301,-1.95458 1.48904,-0.640855 2.68922,-0.108403 1.20359,0.523898 1.89334,2.126559 l 0.30628,0.711629 -4.53888,1.953449 q 0.34571,0.786796 0.97347,0.977325 0.62775,0.190529 1.54271,-0.203249 0.60398,-0.259945 1.11539,-0.685592 0.51141,-0.425646 0.98914,-1.077778 z m -3.1045,-3.129166 q -0.31051,-0.688542 -0.80921,-0.892091 -0.49528,-0.212102 -1.16505,0.07615 -0.60399,0.259945 -0.80323,0.785132 -0.2018,0.519208 0.0233,1.223267 z"
         style="font-family:monospace;-inkscape-font-specification:'monospace Bold';fill:#ffffff;stroke:none"
         id="path1085" />
    </g>
    <g
       aria-label="Neutral"
       transform="translate(3.7477939,3.3471052)"
       id="text682"
       style="font-weight:bold;font-size:13.3333px;line-height:1;font-family:Ubuntu;-inkscape-font-specification:'Ubuntu Bold';text-align:center;letter-spacing:0px;text-anchor:middle;white-space:pre;display:inline;fill:#666766;stroke:#666766;stroke-width:0.5;stop-color:#000000">
      <path
         d="m 458.7228,9.995483 2.05903,-0.1400814 3.18154,6.8636644 -0.47945,-7.0474936 1.6888,-0.1148933 0.65975,9.6976109 -2.04605,0.139198 -3.19453,-6.862781 0.47946,7.047494 -1.6888,0.114893 z"
         style="font-family:monospace;-inkscape-font-specification:'monospace Bold';fill:#ffffff;stroke:none"
         id="path1088" />
      <path
         d="m 473.76788,18.500294 q -0.65024,0.304858 -1.33302,0.474398 -0.68278,0.16954 -1.45013,0.206252 -1.82733,0.08742 -2.84294,-0.841666 -1.00942,-0.935902 -1.09746,-2.776241 -0.0853,-1.781811 0.79521,-2.860272 0.88046,-1.07846 2.48669,-1.155305 1.61924,-0.07747 2.55619,0.842349 0.94314,0.913002 1.02652,2.655796 l 0.037,0.773852 -4.93575,0.236135 q 0.0476,0.85808 0.56852,1.256817 0.52095,0.398737 1.51591,0.351136 0.65679,-0.03142 1.28506,-0.250497 0.62827,-0.219075 1.30449,-0.662051 z m -1.80874,-4.01971 q -0.0491,-0.753722 -0.44462,-1.119352 -0.38934,-0.372444 -1.11767,-0.337599 -0.6568,0.03142 -1.02769,0.453272 -0.3712,0.415348 -0.40757,1.153605 z"
         style="font-family:monospace;-inkscape-font-specification:'monospace Bold';fill:#ffffff;stroke:none"
         id="path1090" />
      <path
         d="m 475.60801,16.243769 -0.13138,-4.744263 1.90681,-0.05281 0.12328,4.451407 q 0.0218,0.787456 0.25245,1.11974 0.23064,0.332283 0.74476,0.318045 0.51413,-0.01424 0.78786,-0.477721 0.28024,-0.463663 0.25753,-1.28366 l -0.11589,-4.184583 1.90682,-0.05281 0.20185,7.288854 -1.90681,0.05281 -0.0299,-1.080312 q -0.18498,0.610822 -0.66388,0.956242 -0.4724,0.34524 -1.15573,0.364164 -1.04126,0.02884 -1.59402,-0.646223 -0.54624,-0.67524 -0.58373,-2.028884 z"
         style="font-family:monospace;-inkscape-font-specification:'monospace Bold';fill:#ffffff;stroke:none"
         id="path1092" />
      <path
         d="m 487.08295,9.199269 0.0157,2.070248 2.49342,-0.01889 0.0111,1.464798 -2.49341,0.01889 0.0261,3.450413 q 0.004,0.488266 0.2397,0.701328 0.24245,0.206502 0.79582,0.202311 l 1.4648,-0.0111 0.0111,1.464798 -1.60151,0.01213 q -1.64057,0.01243 -2.22393,-0.504002 -0.5834,-0.522938 -0.59415,-1.942165 l -0.0254,-3.35927 -1.86193,0.0141 -0.0111,-1.464798 1.86192,-0.0141 -0.0157,-2.070248 z"
         style="font-family:monospace;-inkscape-font-specification:'monospace Bold';fill:#ffffff;stroke:none"
         id="path1094" />
      <path
         d="m 498.2483,13.348603 q -0.30888,-0.290353 -0.73023,-0.438876 -0.41484,-0.148442 -0.9161,-0.154727 -0.60542,-0.0076 -1.06381,0.201521 -0.45179,0.202685 -0.70423,0.603196 -0.15934,0.245417 -0.22884,0.596135 -0.063,0.350799 -0.072,1.066887 l -0.0421,3.359102 -1.90739,-0.02392 0.0914,-7.291075 1.90739,0.02392 -0.0142,1.132721 q 0.28776,-0.62144 0.87139,-0.952689 0.5837,-0.33776 1.35838,-0.328047 0.39059,0.0049 0.76043,0.107199 0.37643,0.09587 0.71266,0.282394 z"
         style="font-family:monospace;-inkscape-font-specification:'monospace Bold';fill:#ffffff;stroke:none"
         id="path1096" />
      <path
         d="m 503.38292,15.360971 q -1.06714,-0.03486 -1.49901,0.224612 -0.43188,0.259474 -0.45356,0.923181 -0.0162,0.494526 0.26709,0.796904 0.28324,0.302377 0.78428,0.318745 0.7548,0.02466 1.18974,-0.527839 0.43515,-0.559006 0.46852,-1.580593 l 0.004,-0.130139 z m 2.67885,-0.648554 -0.13584,4.157928 -1.89351,-0.06186 0.0266,-0.813367 q -0.3606,0.470247 -0.90918,0.712881 -0.54857,0.242633 -1.19927,0.221376 -1.24282,-0.0406 -1.91759,-0.720546 -0.66827,-0.679733 -0.62979,-1.857487 0.0417,-1.275358 0.88781,-1.853506 0.84636,-0.584654 2.57721,-0.52811 l 1.3209,0.04315 0.0104,-0.31884 q 0.0151,-0.461992 -0.31562,-0.707295 -0.32398,-0.251597 -0.97468,-0.272854 -0.68322,-0.02232 -1.33315,0.132322 -0.6432,0.148348 -1.35178,0.503005 l 0.0532,-1.626733 q 0.63967,-0.239657 1.2944,-0.342032 0.65474,-0.102374 1.38351,-0.07857 1.77639,0.05803 2.46856,0.803684 0.69867,0.745865 0.63788,2.606846 z"
         style="font-family:monospace;-inkscape-font-specification:'monospace Bold';fill:#ffffff;stroke:none"
         id="path1098" />
      <path
         d="m 509.41604,15.993723 0.29675,-5.617153 -1.9309,-0.102006 0.0773,-1.4628006 3.83579,0.2026389 -0.37402,7.0799527 q -0.0453,0.858177 0.20232,1.229832 0.24767,0.371655 0.8848,0.405313 l 1.52131,0.08037 -0.0773,1.4628 -2.05442,-0.108532 q -1.35878,-0.07178 -1.9133,-0.805181 -0.55453,-0.733398 -0.46833,-2.365233 z"
         style="font-family:monospace;-inkscape-font-specification:'monospace Bold';fill:#ffffff;stroke:none"
         id="path1100" />
    </g>
    <g
       aria-label="Indifferent or no opinion"
       transform="translate(10.396724,132.4051)"
       id="text688"
       style="font-weight:bold;font-size:13.3333px;line-height:1;font-family:Ubuntu;-inkscape-font-specification:'Ubuntu Bold';text-align:center;letter-spacing:0px;text-anchor:middle;white-space:pre;shape-inside:url(#rect690);display:inline;fill:#666766;stroke:#666766;stroke-width:0.5;stop-color:#000000">
      <path
         d="m 380.79192,355.65565 v -1.69271 h 5.78774 v 1.69271 h -1.93359 v 6.33461 h 1.93359 v 1.69271 h -5.78774 v -1.69271 h 1.93359 v -6.33461 z"
         style="font-family:monospace;-inkscape-font-specification:'monospace Bold';fill:#ffffff;stroke:none"
         id="path1190" />
      <path
         d="m 394.67209,358.94991 v 4.73306 h -1.89453 v -4.44009 q 0,-0.79427 -0.22786,-1.13281 -0.22135,-0.34506 -0.72916,-0.34506 -0.51433,0 -0.8138,0.46224 -0.29297,0.46224 -0.29297,1.28255 v 4.17317 h -1.89453 v -7.29165 h 1.89453 v 1.09375 q 0.20182,-0.60547 0.6901,-0.9375 0.48828,-0.33203 1.17838,-0.33203 1.03516,0 1.5625,0.6901 0.52734,0.68359 0.52734,2.04427 z"
         style="font-family:monospace;-inkscape-font-specification:'monospace Bold';fill:#ffffff;stroke:none"
         id="path1192" />
      <path
         d="m 400.8765,357.42647 v -3.87368 h 1.90104 v 10.13018 h -1.90104 v -1.08073 q -0.30599,0.63151 -0.79427,0.95052 -0.48177,0.31901 -1.13932,0.31901 -1.24999,0 -1.9401,-1.0026 -0.6901,-1.0026 -0.6901,-2.82552 0,-1.84895 0.69661,-2.83853 0.70313,-0.98958 1.9987,-0.98958 0.58593,0 1.04817,0.30599 0.46875,0.29948 0.82031,0.90494 z m -2.65624,2.63021 q 0,1.05468 0.35156,1.65364 0.35156,0.59895 0.97005,0.59895 0.61849,0 0.97656,-0.59895 0.35807,-0.59896 0.35807,-1.65364 0,-1.05469 -0.35807,-1.65365 -0.35807,-0.59895 -0.97656,-0.59895 -0.61849,0 -0.97005,0.59895 -0.35156,0.59896 -0.35156,1.65365 z"
         style="font-family:monospace;-inkscape-font-specification:'monospace Bold';fill:#ffffff;stroke:none"
         id="path1194" />
      <path
         d="m 405.1929,356.39132 h 3.77603 v 5.82681 h 2.36979 v 1.46484 h -6.65363 v -1.46484 h 2.37629 v -4.36197 h -1.86848 z m 1.86848,-3.54817 h 1.90755 v 2.22656 h -1.90755 z"
         style="font-family:monospace;-inkscape-font-specification:'monospace Bold';fill:#ffffff;stroke:none"
         id="path1196" />
      <path
         d="m 416.59261,355.7533 v 0.63802 h 2.23958 v 1.46484 h -2.23958 v 5.82681 h -1.90755 v -5.82681 h -1.77083 v -1.46484 h 1.77083 v -0.50781 q 0,-1.3151 0.54688,-1.82291 0.54687,-0.50781 2.03124,-0.50781 h 1.56901 v 1.46484 h -1.49088 q -0.42969,0 -0.58594,0.15625 -0.14974,0.15625 -0.16276,0.57942 z"
         style="font-family:monospace;-inkscape-font-specification:'monospace Bold';fill:#ffffff;stroke:none"
         id="path1198" />
      <path
         d="m 424.61993,355.7533 v 0.63802 h 2.23958 v 1.46484 h -2.23958 v 5.82681 h -1.90754 v -5.82681 h -1.77083 v -1.46484 h 1.77083 v -0.50781 q 0,-1.3151 0.54687,-1.82291 0.54687,-0.50781 2.03125,-0.50781 h 1.569 v 1.46484 h -1.49088 q -0.42969,0 -0.58594,0.15625 -0.14974,0.15625 -0.16276,0.57942 z"
         style="font-family:monospace;-inkscape-font-specification:'monospace Bold';fill:#ffffff;stroke:none"
         id="path1200" />
      <path
         d="m 435.01053,363.3249 q -0.66406,0.27343 -1.35416,0.41015 -0.69011,0.13672 -1.45833,0.13672 -1.82943,0 -2.79947,-0.97656 -0.96354,-0.98307 -0.96354,-2.82551 0,-1.78385 0.93098,-2.81901 0.93099,-1.03515 2.53906,-1.03515 1.62109,0 2.51301,0.96354 0.89844,0.95703 0.89844,2.70181 v 0.77474 h -4.94139 q 0.007,0.85938 0.50781,1.28255 0.5013,0.42318 1.49739,0.42318 0.65755,0 1.29557,-0.1888 0.63802,-0.18881 1.33463,-0.59896 z m -1.61458,-4.10156 q -0.013,-0.7552 -0.39062,-1.13932 -0.3711,-0.39062 -1.10026,-0.39062 -0.65755,0 -1.04818,0.40365 -0.39062,0.39713 -0.46223,1.1328 z"
         style="font-family:monospace;-inkscape-font-specification:'monospace Bold';fill:#ffffff;stroke:none"
         id="path1202" />
      <path
         d="m 443.35686,358.40303 q -0.31249,-0.28645 -0.73567,-0.42968 -0.41667,-0.14323 -0.91797,-0.14323 -0.60546,0 -1.06119,0.21484 -0.44922,0.20833 -0.69662,0.61198 -0.15624,0.24739 -0.22135,0.59896 -0.0586,0.35156 -0.0586,1.0677 v 3.35937 h -1.90755 v -7.29165 h 1.90755 v 1.13281 q 0.27994,-0.625 0.85937,-0.96354 0.57943,-0.34505 1.35416,-0.34505 0.39063,0 0.76172,0.0977 0.3776,0.0911 0.71614,0.27343 z"
         style="font-family:monospace;-inkscape-font-specification:'monospace Bold';fill:#ffffff;stroke:none"
         id="path1204" />
      <path
         d="m 451.06518,363.3249 q -0.66406,0.27343 -1.35416,0.41015 -0.69011,0.13672 -1.45833,0.13672 -1.82943,0 -2.79948,-0.97656 -0.96353,-0.98307 -0.96353,-2.82551 0,-1.78385 0.93098,-2.81901 0.93099,-1.03515 2.53906,-1.03515 1.62109,0 2.51301,0.96354 0.89844,0.95703 0.89844,2.70181 v 0.77474 h -4.9414 q 0.007,0.85938 0.50782,1.28255 0.5013,0.42318 1.49739,0.42318 0.65755,0 1.29557,-0.1888 0.63802,-0.18881 1.33463,-0.59896 z m -1.61458,-4.10156 q -0.013,-0.7552 -0.39062,-1.13932 -0.3711,-0.39062 -1.10026,-0.39062 -0.65755,0 -1.04818,0.40365 -0.39062,0.39713 -0.46223,1.1328 z"
         style="font-family:monospace;-inkscape-font-specification:'monospace Bold';fill:#ffffff;stroke:none"
         id="path1206" />
      <path
         d="m 458.89068,358.94991 v 4.73306 h -1.89453 v -4.44009 q 0,-0.79427 -0.22786,-1.13281 -0.22136,-0.34506 -0.72917,-0.34506 -0.51432,0 -0.8138,0.46224 -0.29297,0.46224 -0.29297,1.28255 v 4.17317 h -1.89452 v -7.29165 h 1.89452 v 1.09375 q 0.20183,-0.60547 0.69011,-0.9375 0.48828,-0.33203 1.17838,-0.33203 1.03515,0 1.5625,0.6901 0.52734,0.68359 0.52734,2.04427 z"
         style="font-family:monospace;-inkscape-font-specification:'monospace Bold';fill:#ffffff;stroke:none"
         id="path1208" />
      <path
         d="m 464.43754,354.32101 v 2.07031 h 2.49349 v 1.46484 h -2.49349 v 3.45051 q 0,0.48828 0.23438,0.70313 0.24088,0.20833 0.79427,0.20833 h 1.46484 v 1.46484 h -1.60156 q -1.64062,0 -2.22005,-0.52083 -0.57942,-0.52735 -0.57942,-1.94661 v -3.35937 h -1.86198 v -1.46484 H 462.53 v -2.07031 z"
         style="font-family:monospace;-inkscape-font-specification:'monospace Bold';fill:#ffffff;stroke:none"
         id="path1210" />
      <path
         d="m 480.01042,357.76501 q -0.6836,0 -1.07422,0.60547 -0.39062,0.59896 -0.39062,1.67317 0,1.07422 0.39062,1.67969 0.39062,0.59896 1.07422,0.59896 0.6901,0 1.08072,-0.59896 0.39063,-0.60547 0.39063,-1.67969 0,-1.07421 -0.39063,-1.67317 -0.39062,-0.60547 -1.08072,-0.60547 z m -3.37239,2.27864 q 0,-1.76431 0.91145,-2.79296 0.91797,-1.03515 2.46094,-1.03515 1.54947,0 2.46093,1.03515 0.91796,1.02865 0.91796,2.79296 0,1.76432 -0.91796,2.79948 -0.91146,1.02864 -2.46093,1.02864 -1.54297,0 -2.46094,-1.02864 -0.91145,-1.03516 -0.91145,-2.79948 z"
         style="font-family:monospace;-inkscape-font-specification:'monospace Bold';fill:#ffffff;stroke:none"
         id="path1212" />
      <path
         d="m 491.52081,358.40303 q -0.3125,-0.28645 -0.73568,-0.42968 -0.41666,-0.14323 -0.91796,-0.14323 -0.60547,0 -1.0612,0.21484 -0.44922,0.20833 -0.69661,0.61198 -0.15625,0.24739 -0.22135,0.59896 -0.0586,0.35156 -0.0586,1.0677 v 3.35937 h -1.90755 v -7.29165 h 1.90755 v 1.13281 q 0.27995,-0.625 0.85937,-0.96354 0.57943,-0.34505 1.35417,-0.34505 0.39062,0 0.76171,0.0977 0.37761,0.0911 0.71615,0.27343 z"
         style="font-family:monospace;-inkscape-font-specification:'monospace Bold';fill:#ffffff;stroke:none"
         id="path1214" />
      <path
         d="m 507.05463,358.94991 v 4.73306 h -1.89453 v -4.44009 q 0,-0.79427 -0.22786,-1.13281 -0.22136,-0.34506 -0.72917,-0.34506 -0.51432,0 -0.8138,0.46224 -0.29297,0.46224 -0.29297,1.28255 v 4.17317 h -1.89452 v -7.29165 h 1.89452 v 1.09375 q 0.20182,-0.60547 0.69011,-0.9375 0.48828,-0.33203 1.17838,-0.33203 1.03515,0 1.56249,0.6901 0.52735,0.68359 0.52735,2.04427 z"
         style="font-family:monospace;-inkscape-font-specification:'monospace Bold';fill:#ffffff;stroke:none"
         id="path1216" />
      <path
         d="m 512.11971,357.76501 q -0.68359,0 -1.07421,0.60547 -0.39063,0.59896 -0.39063,1.67317 0,1.07422 0.39063,1.67969 0.39062,0.59896 1.07421,0.59896 0.69011,0 1.08073,-0.59896 0.39063,-0.60547 0.39063,-1.67969 0,-1.07421 -0.39063,-1.67317 -0.39062,-0.60547 -1.08073,-0.60547 z m -3.37238,2.27864 q 0,-1.76431 0.91145,-2.79296 0.91797,-1.03515 2.46093,-1.03515 1.54948,0 2.46094,1.03515 0.91796,1.02865 0.91796,2.79296 0,1.76432 -0.91796,2.79948 -0.91146,1.02864 -2.46094,1.02864 -1.54296,0 -2.46093,-1.02864 -0.91145,-1.03516 -0.91145,-2.79948 z"
         style="font-family:monospace;-inkscape-font-specification:'monospace Bold';fill:#ffffff;stroke:none"
         id="path1218" />
      <path
         d="m 528.17436,357.76501 q -0.6836,0 -1.07422,0.60547 -0.39062,0.59896 -0.39062,1.67317 0,1.07422 0.39062,1.67969 0.39062,0.59896 1.07422,0.59896 0.6901,0 1.08072,-0.59896 0.39063,-0.60547 0.39063,-1.67969 0,-1.07421 -0.39063,-1.67317 -0.39062,-0.60547 -1.08072,-0.60547 z m -3.37239,2.27864 q 0,-1.76431 0.91146,-2.79296 0.91796,-1.03515 2.46093,-1.03515 1.54947,0 2.46093,1.03515 0.91796,1.02865 0.91796,2.79296 0,1.76432 -0.91796,2.79948 -0.91146,1.02864 -2.46093,1.02864 -1.54297,0 -2.46093,-1.02864 -0.91146,-1.03516 -0.91146,-2.79948 z"
         style="font-family:monospace;-inkscape-font-specification:'monospace Bold';fill:#ffffff;stroke:none"
         id="path1220" />
      <path
         d="m 535.06888,362.65433 v 3.80207 h -1.90104 v -10.06508 h 1.90104 v 1.09375 q 0.29947,-0.63151 0.78775,-0.95052 0.48828,-0.31901 1.14583,-0.31901 1.25,0 1.9401,1.0026 0.69011,1.0026 0.69011,2.82551 0,1.84896 -0.70313,2.83854 -0.69661,0.98958 -1.99218,0.98958 -0.58594,0 -1.05468,-0.29948 -0.46224,-0.30599 -0.8138,-0.91796 z m 2.65624,-2.6237 q 0,-1.05468 -0.35156,-1.65364 -0.35156,-0.59895 -0.97005,-0.59895 -0.61849,0 -0.97656,0.59895 -0.35807,0.59896 -0.35807,1.65364 0,1.05469 0.35807,1.65365 0.35807,0.59895 0.97656,0.59895 0.61849,0 0.97005,-0.59895 0.35156,-0.59896 0.35156,-1.65365 z"
         style="font-family:monospace;-inkscape-font-specification:'monospace Bold';fill:#ffffff;stroke:none"
         id="path1222" />
      <path
         d="m 541.65741,356.39132 h 3.77603 v 5.82681 h 2.36978 v 1.46484 h -6.65363 v -1.46484 h 2.3763 v -4.36197 h -1.86848 z m 1.86848,-3.54817 h 1.90755 v 2.22656 h -1.90755 z"
         style="font-family:monospace;-inkscape-font-specification:'monospace Bold';fill:#ffffff;stroke:none"
         id="path1224" />
      <path
         d="m 555.21856,358.94991 v 4.73306 h -1.89453 v -4.44009 q 0,-0.79427 -0.22786,-1.13281 -0.22136,-0.34506 -0.72917,-0.34506 -0.51432,0 -0.8138,0.46224 -0.29296,0.46224 -0.29296,1.28255 v 4.17317 h -1.89453 v -7.29165 h 1.89453 v 1.09375 q 0.20182,-0.60547 0.6901,-0.9375 0.48828,-0.33203 1.17838,-0.33203 1.03515,0 1.5625,0.6901 0.52734,0.68359 0.52734,2.04427 z"
         style="font-family:monospace;-inkscape-font-specification:'monospace Bold';fill:#ffffff;stroke:none"
         id="path1226" />
      <path
         d="m 557.71205,356.39132 h 3.77603 v 5.82681 h 2.36978 v 1.46484 h -6.65362 v -1.46484 h 2.37629 v -4.36197 h -1.86848 z m 1.86848,-3.54817 h 1.90755 v 2.22656 h -1.90755 z"
         style="font-family:monospace;-inkscape-font-specification:'monospace Bold';fill:#ffffff;stroke:none"
         id="path1228" />
      <path
         d="m 568.31098,357.76501 q -0.68359,0 -1.07421,0.60547 -0.39063,0.59896 -0.39063,1.67317 0,1.07422 0.39063,1.67969 0.39062,0.59896 1.07421,0.59896 0.69011,0 1.08073,-0.59896 0.39062,-0.60547 0.39062,-1.67969 0,-1.07421 -0.39062,-1.67317 -0.39062,-0.60547 -1.08073,-0.60547 z m -3.37238,2.27864 q 0,-1.76431 0.91145,-2.79296 0.91797,-1.03515 2.46093,-1.03515 1.54948,0 2.46093,1.03515 0.91797,1.02865 0.91797,2.79296 0,1.76432 -0.91797,2.79948 -0.91145,1.02864 -2.46093,1.02864 -1.54296,0 -2.46093,-1.02864 -0.91145,-1.03516 -0.91145,-2.79948 z"
         style="font-family:monospace;-inkscape-font-specification:'monospace Bold';fill:#ffffff;stroke:none"
         id="path1230" />
      <path
         d="m 579.30053,358.94991 v 4.73306 H 577.406 v -4.44009 q 0,-0.79427 -0.22786,-1.13281 -0.22136,-0.34506 -0.72917,-0.34506 -0.51432,0 -0.8138,0.46224 -0.29296,0.46224 -0.29296,1.28255 v 4.17317 h -1.89453 v -7.29165 h 1.89453 v 1.09375 q 0.20182,-0.60547 0.6901,-0.9375 0.48828,-0.33203 1.17838,-0.33203 1.03515,0 1.5625,0.6901 0.52734,0.68359 0.52734,2.04427 z"
         style="font-family:monospace;-inkscape-font-specification:'monospace Bold';fill:#ffffff;stroke:none"
         id="path1232" />
    </g>
    <g
       aria-label="Not replied yet"
       transform="translate(10.465834,165.7993)"
       id="text694"
       style="font-weight:bold;font-size:13.3333px;line-height:1;font-family:Ubuntu;-inkscape-font-specification:'Ubuntu Bold';text-align:center;letter-spacing:0px;text-anchor:middle;white-space:pre;shape-inside:url(#rect696);display:inline;fill:#666766;stroke:#666766;stroke-width:0.5;stop-color:#000000">
      <path
         d="m 420.58348,353.96294 h 2.0638 l 2.70833,7.06379 v -7.06379 h 1.6927 v 9.72003 h -2.05078 l -2.72134,-7.06379 v 7.06379 h -1.69271 z"
         style="font-family:monospace;-inkscape-font-specification:'monospace Bold';fill:#ffffff;stroke:none"
         id="path1235" />
      <path
         d="m 431.84648,357.76501 q -0.6836,0 -1.07422,0.60547 -0.39062,0.59896 -0.39062,1.67317 0,1.07422 0.39062,1.67969 0.39062,0.59896 1.07422,0.59896 0.6901,0 1.08072,-0.59896 0.39063,-0.60547 0.39063,-1.67969 0,-1.07421 -0.39063,-1.67317 -0.39062,-0.60547 -1.08072,-0.60547 z m -3.37239,2.27864 q 0,-1.76431 0.91145,-2.79296 0.91797,-1.03515 2.46094,-1.03515 1.54947,0 2.46093,1.03515 0.91796,1.02865 0.91796,2.79296 0,1.76432 -0.91796,2.79948 -0.91146,1.02864 -2.46093,1.02864 -1.54297,0 -2.46094,-1.02864 -0.91145,-1.03516 -0.91145,-2.79948 z"
         style="font-family:monospace;-inkscape-font-specification:'monospace Bold';fill:#ffffff;stroke:none"
         id="path1237" />
      <path
         d="m 440.35557,354.32101 v 2.07031 h 2.49348 v 1.46484 h -2.49348 v 3.45051 q 0,0.48828 0.23437,0.70313 0.24089,0.20833 0.79427,0.20833 h 1.46484 v 1.46484 h -1.60156 q -1.64062,0 -2.22004,-0.52083 -0.57943,-0.52735 -0.57943,-1.94661 v -3.35937 h -1.86197 v -1.46484 h 1.86197 v -2.07031 z"
         style="font-family:monospace;-inkscape-font-specification:'monospace Bold';fill:#ffffff;stroke:none"
         id="path1239" />
      <path
         d="m 459.41151,358.40303 q -0.3125,-0.28645 -0.73567,-0.42968 -0.41667,-0.14323 -0.91797,-0.14323 -0.60547,0 -1.0612,0.21484 -0.44921,0.20833 -0.69661,0.61198 -0.15625,0.24739 -0.22135,0.59896 -0.0586,0.35156 -0.0586,1.0677 v 3.35937 h -1.90754 v -7.29165 h 1.90754 v 1.13281 q 0.27995,-0.625 0.85938,-0.96354 0.57942,-0.34505 1.35416,-0.34505 0.39062,0 0.76172,0.0977 0.3776,0.0911 0.71614,0.27343 z"
         style="font-family:monospace;-inkscape-font-specification:'monospace Bold';fill:#ffffff;stroke:none"
         id="path1241" />
      <path
         d="m 467.11983,363.3249 q -0.66406,0.27343 -1.35417,0.41015 -0.6901,0.13672 -1.45833,0.13672 -1.82942,0 -2.79947,-0.97656 -0.96354,-0.98307 -0.96354,-2.82551 0,-1.78385 0.93099,-2.81901 0.93099,-1.03515 2.53906,-1.03515 1.62109,0 2.51301,0.96354 0.89844,0.95703 0.89844,2.70181 v 0.77474 h -4.9414 q 0.007,0.85938 0.50781,1.28255 0.5013,0.42318 1.49739,0.42318 0.65756,0 1.29557,-0.1888 0.63802,-0.18881 1.33464,-0.59896 z m -1.61458,-4.10156 q -0.013,-0.7552 -0.39063,-1.13932 -0.37109,-0.39062 -1.10025,-0.39062 -0.65755,0 -1.04818,0.40365 -0.39062,0.39713 -0.46224,1.1328 z"
         style="font-family:monospace;-inkscape-font-specification:'monospace Bold';fill:#ffffff;stroke:none"
         id="path1243" />
      <path
         d="m 470.85028,362.65433 v 3.80207 h -1.90103 v -10.06508 h 1.90103 v 1.09375 q 0.29948,-0.63151 0.78776,-0.95052 0.48828,-0.31901 1.14583,-0.31901 1.25,0 1.9401,1.0026 0.6901,1.0026 0.6901,2.82551 0,1.84896 -0.70312,2.83854 -0.69661,0.98958 -1.99218,0.98958 -0.58594,0 -1.05469,-0.29948 -0.46224,-0.30599 -0.8138,-0.91796 z m 2.65625,-2.6237 q 0,-1.05468 -0.35157,-1.65364 -0.35156,-0.59895 -0.97004,-0.59895 -0.61849,0 -0.97656,0.59895 -0.35808,0.59896 -0.35808,1.65364 0,1.05469 0.35808,1.65365 0.35807,0.59895 0.97656,0.59895 0.61848,0 0.97004,-0.59895 0.35157,-0.59896 0.35157,-1.65365 z"
         style="font-family:monospace;-inkscape-font-specification:'monospace Bold';fill:#ffffff;stroke:none"
         id="path1245" />
      <path
         d="m 478.51954,360.64261 v -5.62498 h -1.93359 v -1.46484 h 3.84113 v 7.08982 q 0,0.85937 0.26693,1.21745 0.26693,0.35807 0.90495,0.35807 h 1.52343 v 1.46484 h -2.05729 q -1.36067,0 -1.95312,-0.70312 -0.59244,-0.70313 -0.59244,-2.33724 z"
         style="font-family:monospace;-inkscape-font-specification:'monospace Bold';fill:#ffffff;stroke:none"
         id="path1247" />
      <path
         d="m 485.46613,356.39132 h 3.77604 v 5.82681 h 2.36978 v 1.46484 h -6.65363 v -1.46484 h 2.3763 v -4.36197 h -1.86849 z m 1.86849,-3.54817 h 1.90755 v 2.22656 h -1.90755 z"
         style="font-family:monospace;-inkscape-font-specification:'monospace Bold';fill:#ffffff;stroke:none"
         id="path1249" />
      <path
         d="m 499.22912,363.3249 q -0.66406,0.27343 -1.35417,0.41015 -0.6901,0.13672 -1.45833,0.13672 -1.82942,0 -2.79947,-0.97656 -0.96354,-0.98307 -0.96354,-2.82551 0,-1.78385 0.93099,-2.81901 0.93099,-1.03515 2.53906,-1.03515 1.62109,0 2.51301,0.96354 0.89844,0.95703 0.89844,2.70181 v 0.77474 h -4.9414 q 0.007,0.85938 0.50781,1.28255 0.5013,0.42318 1.4974,0.42318 0.65755,0 1.29557,-0.1888 0.63801,-0.18881 1.33463,-0.59896 z m -1.61458,-4.10156 q -0.013,-0.7552 -0.39063,-1.13932 -0.37109,-0.39062 -1.10025,-0.39062 -0.65755,0 -1.04818,0.40365 -0.39062,0.39713 -0.46224,1.1328 z"
         style="font-family:monospace;-inkscape-font-specification:'monospace Bold';fill:#ffffff;stroke:none"
         id="path1251" />
      <path
         d="m 505.23171,357.42647 v -3.87368 h 1.90104 v 10.13018 h -1.90104 v -1.08073 q -0.30599,0.63151 -0.79427,0.95052 -0.48177,0.31901 -1.13932,0.31901 -1.24999,0 -1.9401,-1.0026 -0.6901,-1.0026 -0.6901,-2.82552 0,-1.84895 0.69661,-2.83853 0.70313,-0.98958 1.9987,-0.98958 0.58593,0 1.04817,0.30599 0.46875,0.29948 0.82031,0.90494 z m -2.65624,2.63021 q 0,1.05468 0.35156,1.65364 0.35156,0.59895 0.97005,0.59895 0.61849,0 0.97656,-0.59895 0.35807,-0.59896 0.35807,-1.65364 0,-1.05469 -0.35807,-1.65365 -0.35807,-0.59895 -0.97656,-0.59895 -0.61849,0 -0.97005,0.59895 -0.35156,0.59896 -0.35156,1.65365 z"
         style="font-family:monospace;-inkscape-font-specification:'monospace Bold';fill:#ffffff;stroke:none"
         id="path1253" />
      <path
         d="m 520.76552,364.47073 q -0.38411,1.02864 -0.92448,1.49739 -0.53385,0.47526 -1.30208,0.47526 h -1.57551 v -1.45182 h 0.77474 q 0.58593,0 0.85937,-0.20182 0.27343,-0.19532 0.55338,-0.91797 l 0.14323,-0.39062 -2.77343,-7.08983 h 2.0052 l 1.66667,4.73306 1.59504,-4.73306 h 2.00521 z"
         style="font-family:monospace;-inkscape-font-specification:'monospace Bold';fill:#ffffff;stroke:none"
         id="path1255" />
      <path
         d="m 531.33842,363.3249 q -0.66406,0.27343 -1.35417,0.41015 -0.6901,0.13672 -1.45833,0.13672 -1.82942,0 -2.79947,-0.97656 -0.96354,-0.98307 -0.96354,-2.82551 0,-1.78385 0.93099,-2.81901 0.93099,-1.03515 2.53906,-1.03515 1.62109,0 2.51301,0.96354 0.89844,0.95703 0.89844,2.70181 v 0.77474 h -4.9414 q 0.007,0.85938 0.50781,1.28255 0.5013,0.42318 1.49739,0.42318 0.65756,0 1.29557,-0.1888 0.63802,-0.18881 1.33464,-0.59896 z m -1.61458,-4.10156 q -0.013,-0.7552 -0.39063,-1.13932 -0.37109,-0.39062 -1.10025,-0.39062 -0.65756,0 -1.04818,0.40365 -0.39062,0.39713 -0.46224,1.1328 z"
         style="font-family:monospace;-inkscape-font-specification:'monospace Bold';fill:#ffffff;stroke:none"
         id="path1257" />
      <path
         d="m 536.68345,354.32101 v 2.07031 h 2.49349 v 1.46484 h -2.49349 v 3.45051 q 0,0.48828 0.23438,0.70313 0.24088,0.20833 0.79427,0.20833 h 1.46484 v 1.46484 h -1.60156 q -1.64062,0 -2.22005,-0.52083 -0.57943,-0.52735 -0.57943,-1.94661 v -3.35937 h -1.86197 v -1.46484 h 1.86197 v -2.07031 z"
         style="font-family:monospace;-inkscape-font-specification:'monospace Bold';fill:#ffffff;stroke:none"
         id="path1259" />
    </g>
  </g>
</svg>
