<?xml version="1.0" encoding="UTF-8" standalone="no"?>
<!-- Created with Inkscape (http://www.inkscape.org/) -->

<svg
   version="1.1"
   id="svg1"
   xml:space="preserve"
   width="960"
   height="540"
   sodipodi:docname="spectrum.svg"
   inkscape:version="1.2.2 (b0a8486541, 2022-12-01)"
   xmlns:inkscape="http://www.inkscape.org/namespaces/inkscape"
   xmlns:sodipodi="http://sodipodi.sourceforge.net/DTD/sodipodi-0.dtd"
   xmlns="http://www.w3.org/2000/svg"
   xmlns:svg="http://www.w3.org/2000/svg"><defs
     id="defs1"><rect
       x="561.64258"
       y="194.45117"
       width="145.37891"
       height="82.667969"
       id="rect787" /><rect
       x="81.363281"
       y="226.16406"
       width="97.414062"
       height="38.925781"
       id="rect416" /><rect
       x="242.36636"
       y="345.57632"
       width="211.89725"
       height="102.01396"
       id="rect464" /><rect
       x="119.63915"
       y="470.58508"
       width="234.49704"
       height="88.63694"
       id="rect927" /></defs><sodipodi:namedview
     id="namedview1"
     pagecolor="#ffffff"
     bordercolor="#000000"
     borderopacity="0.25"
     inkscape:showpageshadow="2"
     inkscape:pageopacity="0"
     inkscape:pagecheckerboard="0"
     inkscape:deskcolor="#d1d1d1"
     showgrid="false"
     inkscape:zoom="1"
     inkscape:cx="138"
     inkscape:cy="406"
     inkscape:window-width="3440"
     inkscape:window-height="1303"
     inkscape:window-x="0"
     inkscape:window-y="0"
     inkscape:window-maximized="1"
     inkscape:current-layer="svg1"
     inkscape:pageshadow="2"
     showguides="false" /><inkscape:clipboard
     min="38.679246,51.71354"
     max="761.89587,740.75465"
     geom-min="40.288131,53.322266"
     geom-max="760.28712,740.75465" /><path
     id="disagree"
     style="display:inline;fill:#000000;stroke:#ffffff;stroke-width:4.33496;stroke-opacity:1"
     d="M 740.69783,94.447372 647.67268,211.41717 a 251.65708,251.7097 0 0 1 67.7846,98.36494 L 852.85202,243.05253 A 407.5182,407.60342 0 0 0 740.69783,94.447372 Z" /><path
     id="slightlyDisagree"
     style="display:inline;fill:#000000;stroke:#ffffff;stroke-width:4.33496;stroke-opacity:1"
     d="M 571.14626,10.684921 538.48411,154.4776 a 251.65708,251.7097 0 0 1 109.19875,56.92687 L 740.69783,94.447372 A 407.5182,407.60342 0 0 0 571.14626,10.684921 Z" /><path
     id="stronglyDisagree"
     style="display:inline;fill:#000000;stroke:#ffffff;stroke-width:4.33496;stroke-opacity:1"
     d="m 852.85202,243.05253 -137.39474,66.72958 c 13.51052,42.1015 19.34746,77.8622 14.80003,117.67581 l 156.16834,-0.2716 c 3.30976,-63.01105 -9.72987,-134.38427 -33.57363,-184.13366 z"
     sodipodi:nodetypes="ccccc" /><path
     id="agree"
     style="display:inline;fill:#000000;stroke:#ffffff;stroke-width:4.33496;stroke-opacity:1"
     d="m 210.60348,102.6781 c -24.85432,22.08822 -46.83278,47.06387 -65.50708,74.32642 -15.76214,23.01113 -29.17031,47.65152 -39.96692,73.56003 l 67.74894,32.46651 69.8286,33.46314 c 6.78131,-19.40154 15.88942,-37.83348 27.07951,-54.91061 9.91914,-15.13756 21.47417,-29.21062 34.49459,-41.95093 L 257.8669,161.68548 Z"
     sodipodi:nodetypes="cscccsccc" /><path
     id="stronglyAgree"
     style="display:inline;fill:#000000;stroke:#ffffff;stroke-width:4.33496;stroke-opacity:1"
     d="m 105.12948,250.56202 c -10.250614,21.94659 -18.991171,50.07772 -24.74501,79.80168 -6.362584,32.86867 -9.073044,67.68486 -6.134707,98.23958 l 68.026137,-0.11838 88.09395,-0.15322 c -2.2294,-19.32375 -1.73182,-40.16605 0.77913,-60.17221 2.32935,-18.55946 6.39141,-36.39931 11.61643,-51.63977 l -70.88848,-33.97113 z"
     sodipodi:nodetypes="cscccsccc"
     inkscape:label="stronglyAgree" /><path
     id="slightlyAgree"
     style="display:inline;fill:#000000;stroke:#ffffff;stroke-width:4.33496;stroke-opacity:1"
     d="m 380.5359,13.536851 c -34.40473,8.616948 -67.4132,21.657326 -98.23376,38.70585 -25.55403,14.135321 -49.604,31.026022 -71.69866,50.435399 l 44.85884,56.00532 48.8188,60.94924 c 15.01327,-14.73016 31.75077,-27.45933 49.78987,-37.94382 18.53129,-10.77055 38.43618,-19.17224 59.25654,-24.94087 l -14.4732,-63.208836 z"
     sodipodi:nodetypes="cscccsccc" /><path
     id="neutral"
     style="display:inline;fill:#000000;stroke:#ffffff;stroke-width:4.33496;stroke-opacity:1"
     d="m 380.5359,13.536851 32.7967,143.233979 c 42.56955,-11.02041 85.42516,-11.56018 125.15151,-2.29069 L 571.14626,10.684921 C 500.30052,-1.4697005 444.35961,-0.72178005 380.5359,13.536851 Z"
     sodipodi:nodetypes="ccccc" /><path
     style="display:inline;fill:#cccccc;stroke:none;stroke-width:2.96414;stroke-opacity:1"
     d="m 480.26236,316.36986 c -33.10565,0.0169 -62.87175,14.52134 -83.24361,37.55888 -16.91905,19.13288 -27.3584,44.15198 -27.84981,71.64789 h 222.23782 c -0.49389,-27.63516 -11.03652,-52.76757 -28.10616,-71.93684 -20.37588,-22.88215 -50.052,-37.26736 -83.03824,-37.26993 z"
     id="indifferent"
     sodipodi:nodetypes="csccsc" /><path
     style="display:inline;fill:#cccccc;stroke:none;stroke-width:2.96414;stroke-opacity:1"
     d="m 480.26236,540 c -34.05119,-0.0169 -64.56932,-15.36164 -84.966,-39.55353 -15.90294,-18.86202 -25.653,-43.10312 -26.12742,-69.65358 h 222.23782 c -0.49389,27.64027 -11.04024,52.77688 -28.11536,71.94751 -20.37561,22.87613 -50.04776,37.25703 -83.02904,37.2596 z"
     id="notReplied"
     sodipodi:nodetypes="csccsc" /><path
     id="path1562"
     style="font-weight:bold;font-size:8px;line-height:1;font-family:monospace;-inkscape-font-specification:'monospace Bold';text-align:center;letter-spacing:0px;white-space:pre;display:inline;fill:#ffffff;stroke-width:1.54729;stroke-linecap:round"
     d="m 493.77247,19.362679 q -0.52273,0.201282 -1.06332,0.295514 -0.54061,0.0942 -1.13964,0.08036 -1.4266,-0.03281 -2.16541,-0.81207 -0.73368,-0.784094 -0.70051,-2.221106 0.0342,-1.391307 0.77673,-2.181912 0.74462,-0.790606 1.99854,-0.76165 1.26411,0.02909 1.94226,0.796762 0.68335,0.762609 0.65194,2.123451 l -0.0135,0.604256 -3.85321,-0.08895 q -0.0102,0.670383 0.37306,1.009465 0.38334,0.339091 1.16,0.357022 0.51278,0.01184 1.0137,-0.12393 0.50092,-0.135766 1.05148,-0.443124 z m -1.18516,-3.228068 q 0.003,-0.589256 -0.28405,-0.895647 -0.28237,-0.311344 -0.85095,-0.324501 -0.51272,-0.01184 -0.82461,0.295953 -0.31178,0.302719 -0.38077,0.875212 z m -4.80477,-0.743663 q -0.24213,-0.225094 -0.57156,-0.339048 -0.3243,-0.113917 -0.71528,-0.116521 -0.47225,-0.0031 -0.82881,0.162115 -0.35168,0.160187 -0.54653,0.473803 -0.12309,0.192184 -0.17585,0.466118 -0.0476,0.273969 -0.0514,0.832655 l -0.0169,2.620772 -1.48782,-0.0098 0.0386,-5.688495 1.48784,0.0098 -0.0102,0.883748 q 0.2215,-0.486129 0.67531,-0.747227 0.45371,-0.266155 1.05801,-0.262165 0.30468,0.0021 0.59358,0.08016 0.29385,0.07309 0.55718,0.217044 z m -8.7008,-3.196552 0.0169,1.615084 1.94481,-0.01894 0.0135,1.142752 -1.94483,0.01894 0.027,2.691815 q 0.003,0.380901 0.18836,0.546743 0.18971,0.160694 0.62103,0.1565 l 1.14251,-0.01116 0.0135,1.14275 -1.24917,0.01184 q -1.2796,0.01251 -1.73551,-0.389503 -0.45591,-0.407002 -0.46663,-1.514203 l -0.0271,-2.620704 -1.45226,0.0142 -0.0135,-1.142749 1.45227,-0.01421 -0.0169,-1.615084 z m -8.9312,5.494045 -0.0964,-3.701433 1.48741,-0.03893 0.0903,3.472949 q 0.0169,0.614366 0.19546,0.873898 0.17956,0.259527 0.58055,0.249109 0.40086,-0.01014 0.61509,-0.371657 0.21912,-0.361388 0.20222,-1.001122 l -0.0852,-3.264773 1.48734,-0.03893 0.14811,5.6867 -1.4874,0.03893 -0.0203,-0.842852 q -0.14507,0.476296 -0.51907,0.74516 -0.3688,0.268726 -0.90192,0.282594 -0.81223,0.02097 -1.24251,-0.506217 -0.42527,-0.527493 -0.45269,-1.583598 z m -1.43729,1.755502 q -0.5085,0.235072 -1.04174,0.364381 -0.53332,0.129307 -1.132,0.154708 -1.42566,0.06037 -2.21381,-0.668825 -0.78329,-0.734468 -0.84409,-2.170577 -0.0591,-1.390438 0.63253,-2.228013 0.69138,-0.837576 1.94453,-0.890631 1.26331,-0.05347 1.99019,0.668128 0.73168,0.716319 0.78924,2.076308 l 0.0271,0.603878 -3.85082,0.163028 q 0.0342,0.66963 0.43806,0.982938 0.40474,0.313339 1.18083,0.280462 0.51245,-0.02198 1.00342,-0.189917 0.49098,-0.168237 1.0203,-0.510897 z m -1.39353,-3.14372 q -0.0342,-0.588221 -0.34185,-0.875164 -0.30198,-0.292233 -0.87029,-0.268185 -0.51239,0.02198 -0.80351,0.349192 -0.29149,0.322437 -0.32295,0.898224 z m -10.27647,-3.579622 1.60701,-0.0942 2.43112,5.377832 -0.32228,-5.501423 1.31806,-0.07725 0.44346,7.570152 -1.59683,0.09359 -2.4413,-5.377233 0.32228,5.501419 -1.31806,0.07725 z" /><path
     id="path1595"
     style="font-weight:bold;font-size:8px;line-height:1;font-family:monospace;-inkscape-font-specification:'monospace Bold';text-align:center;letter-spacing:0px;white-space:pre;display:inline;fill:#ffffff;stroke-width:1.54729;stroke-linecap:round"
     d="m 704.05571,86.373039 1.7555,-2.459661 1.20683,0.861701 -4.59081,6.432329 -1.20683,-0.861699 0.48976,-0.686227 q -0.48046,0.262264 -0.93499,0.243532 -0.4504,-0.01588 -0.86786,-0.313886 -0.79353,-0.566595 -0.7773,-1.516018 0.0169,-0.949432 0.8424,-2.106916 0.83793,-1.174031 1.72858,-1.486615 0.89484,-0.309655 1.71732,0.277584 0.37181,0.265583 0.52676,0.669403 0.16164,0.402643 0.11091,0.94644 z m -2.87823,0.466081 q -0.47796,0.669689 -0.52621,1.20936 -0.0483,0.539678 0.34438,0.820018 0.39278,0.280331 0.89136,0.06235 0.4988,-0.217985 0.97675,-0.887699 0.47796,-0.669689 0.52209,-1.212317 0.0439,-0.54262 -0.34871,-0.822968 -0.39275,-0.280323 -0.88724,-0.05941 -0.49463,0.220927 -0.97259,0.89065 z m -1.23226,-2.455785 q -0.0737,-0.322367 -0.28237,-0.601716 -0.2039,-0.276471 -0.52614,-0.498416 -0.38892,-0.26805 -0.77666,-0.331807 -0.3808,-0.06504 -0.71825,0.08469 -0.21,0.08973 -0.40732,0.286754 -0.19343,0.199894 -0.51026,0.659919 l -1.48696,2.157946 -1.22512,-0.844523 3.22755,-4.683915 1.22512,0.844522 -0.50143,0.727684 q 0.45643,-0.277554 0.97845,-0.238488 0.52482,0.03508 1.02239,0.37786 0.25059,0.172938 0.44594,0.399987 0.20222,0.225737 0.33887,0.4927 z m -7.20218,-5.505775 q -0.44397,-0.295346 -0.95922,-0.07082 -0.51239,0.220291 -0.97641,0.918109 -0.46403,0.697801 -0.47191,1.259883 -0.003,0.557847 0.43897,0.853195 0.44817,0.298186 0.96059,0.07782 0.51525,-0.224519 0.97927,-0.922336 0.46403,-0.697802 0.46904,-1.255653 0.0102,-0.562081 -0.44033,-0.860244 z m -3.17452,0.023 q 0.76215,-1.146088 1.79841,-1.420486 1.04333,-0.275795 2.04544,0.390828 1.0063,0.669464 1.15114,1.735692 0.15183,1.06481 -0.61032,2.210901 -0.76211,1.146089 -1.80544,1.421901 -1.0363,0.274408 -2.04264,-0.395063 -1.00204,-0.666654 -1.15388,-1.731467 -0.14507,-1.066225 0.61729,-2.212313 z m -2.56537,1.37293 q -0.43419,-0.01928 -0.85511,-0.162487 -0.42355,-0.13908 -0.84246,-0.407858 -1.10697,-0.710342 -1.30324,-1.777659 -0.19648,-1.067327 0.56053,-2.247224 0.75955,-1.184173 1.81563,-1.447907 1.05875,-0.268016 2.16576,0.442331 0.38463,0.246841 0.68187,0.564246 0.3013,0.320171 0.53551,0.735896 l -0.73486,1.145696 q -0.12275,-0.410641 -0.37222,-0.74581 -0.24245,-0.336677 -0.59307,-0.561584 -0.61119,-0.392198 -1.18981,-0.214339 -0.57864,0.177843 -1.03931,0.896043 -0.46068,0.7182 -0.37824,1.314132 0.0822,0.595932 0.69351,0.988123 0.36322,0.233144 0.75636,0.316383 0.39575,0.07901 0.83692,0.01184 z m -5.28182,-3.372084 q -0.4345,-0.01184 -0.85768,-0.148315 -0.42568,-0.132047 -0.84909,-0.393866 -1.11857,-0.691949 -1.33243,-1.755884 -0.21405,-1.063931 0.52334,-2.256174 0.73987,-1.196562 1.79145,-1.477712 1.05422,-0.285468 2.1728,0.406492 0.38848,0.240449 0.69106,0.552905 0.30672,0.315132 0.54762,0.726944 l -0.71585,1.157682 q -0.12952,-0.408589 -0.38463,-0.739552 -0.24821,-0.332619 -0.60223,-0.551709 -0.61759,-0.382057 -1.19321,-0.194652 -0.57562,0.18738 -1.02433,0.913092 -0.44876,0.725712 -0.35638,1.3202 0.092,0.594491 0.70974,0.976535 0.36707,0.22709 0.76147,0.303835 0.39704,0.07241 0.83702,-0.0018 z m -5.69251,-6.269153 q -0.71545,-0.42639 -1.10816,-0.41214 -0.39274,0.01421 -0.65789,0.459316 -0.19749,0.331603 -0.11802,0.644953 0.0791,0.313339 0.41503,0.513532 0.50601,0.301602 1.01137,0.08838 0.50792,-0.217552 0.91598,-0.902611 l 0.0521,-0.08726 z m 2.07357,0.567703 -1.66102,2.788127 -1.26942,-0.756563 0.32463,-0.54541 q -0.42354,0.185081 -0.88957,0.143817 -0.46602,-0.04109 -0.90232,-0.301265 -0.83316,-0.496579 -1.03741,-1.215455 -0.19985,-0.716276 0.27053,-1.506032 0.50948,-0.855201 1.30521,-0.930799 0.79836,-0.07999 1.95877,0.611609 l 0.88557,0.527777 0.12749,-0.213796 q 0.1843,-0.309787 0.0514,-0.602065 -0.12614,-0.294025 -0.56257,-0.554025 -0.45804,-0.272987 -0.96011,-0.412565 -0.4951,-0.141348 -1.11258,-0.166479 l 0.64978,-1.090817 q 0.52715,0.07766 1.01275,0.254757 0.48564,0.177065 0.97425,0.468276 1.19094,0.709772 1.38224,1.480079 0.19546,0.772909 -0.54772,2.020809 z m -4.81881,-5.484355 -0.64694,1.127843 q -0.22555,-0.433813 -0.54731,-0.770778 -0.31483,-0.338834 -0.7026,-0.561253 -0.43163,-0.247688 -0.72515,-0.246267 -0.29083,-0.003 -0.43248,0.243697 -0.20188,0.352442 0.61411,1.1136 l 0.0429,0.04109 0.31957,0.300418 q 0.60875,0.571806 0.71994,1.133313 0.11802,0.55963 -0.24551,1.19404 -0.43717,0.762179 -1.15915,0.857341 -0.71501,0.09329 -1.71931,-0.482969 -0.44489,-0.255264 -0.8663,-0.60248 -0.424,-0.342816 -0.81558,-0.772493 l 0.64686,-1.12784 q 0.28846,0.487467 0.65546,0.867979 0.37137,0.383039 0.78565,0.620609 0.45369,0.260304 0.76297,0.262097 0.30942,0.0018 0.45327,-0.249345 0.14169,-0.246706 0.0501,-0.474926 -0.0873,-0.225703 -0.62236,-0.731844 l -0.31145,-0.284014 q -0.64396,-0.592025 -0.77848,-1.143494 -0.13425,-0.551471 0.20932,-1.150637 0.40945,-0.713708 1.15219,-0.814508 0.74273,-0.100793 1.67654,0.435018 0.41841,0.240111 0.79204,0.548174 0.3808,0.306167 0.69428,0.667705 z m -7.55443,1.709259 q -0.55655,-0.06359 -1.07931,-0.23037 -0.52277,-0.166749 -1.04739,-0.456381 -1.24931,-0.689656 -1.54371,-1.722362 -0.28744,-1.034701 0.40687,-2.293146 0.67237,-1.218423 1.69828,-1.574501 1.02588,-0.356078 2.124,0.250123 1.10704,0.611119 1.35299,1.605479 0.25294,0.992375 -0.40475,2.184117 l -0.29217,0.529169 -3.37442,-1.862806 q -0.31956,0.589431 -0.13661,1.067455 0.1826,0.478025 0.86302,0.853527 0.44901,0.247891 0.95588,0.359463 0.50687,0.11155 1.13717,0.09403 z m 0.44333,-3.41015 q 0.2756,-0.520733 0.16265,-0.925445 -0.10618,-0.406704 -0.60413,-0.681583 -0.44901,-0.247891 -0.86792,-0.11943 -0.41628,0.123963 -0.74261,0.59949 z m 2.05832,-4.392418 1.25377,0.692108 -2.5587,0.768824 -0.87584,-0.483497 z m -7.2317,-0.02131 1.4161,-2.669623 1.30986,0.695098 -3.70321,6.981387 -1.3099,-0.695096 0.39491,-0.744798 q -0.44165,0.32335 -0.89475,0.364639 -0.44854,0.0437 -0.90164,-0.196717 -0.86127,-0.457047 -0.97025,-1.400337 -0.10923,-0.94329 0.55746,-2.199578 0.67588,-1.274238 1.51763,-1.701513 0.84622,-0.424891 1.73887,0.04884 0.40386,0.214236 0.61034,0.594129 0.21339,0.377775 0.23435,0.923595 z m -2.79169,0.841418 q -0.38547,0.726852 -0.36237,1.268176 0.0203,0.541328 0.44945,0.767474 0.42611,0.226142 0.89176,-0.05571 0.46572,-0.281848 0.85126,-1.008707 0.38547,-0.726859 0.35767,-1.270565 -0.0304,-0.543705 -0.45391,-0.769851 -0.42612,-0.226142 -0.88734,0.05811 -0.46122,0.284217 -0.84672,1.011093 z m -7.74019,-4.934673 -1.62152,3.317278 -1.32755,-0.64918 1.52115,-3.11195 q 0.27222,-0.556684 0.2286,-0.872039 -0.0386,-0.317701 -0.39274,-0.491695 -0.36025,-0.17622 -0.72864,0.04509 -0.36366,0.223605 -0.64467,0.798519 l -1.42972,2.924864 -1.32752,-0.649183 2.49807,-5.11053 1.32755,0.649183 -0.37478,0.766581 q 0.34868,-0.355181 0.80476,-0.420613 0.45591,-0.06538 0.93944,0.171078 0.72537,0.354712 0.85847,1.019089 0.13525,0.65981 -0.33073,1.613474 z m -6.99153,0.392625 q -0.55953,-0.02639 -1.09219,-0.158497 -0.53265,-0.131843 -1.07523,-0.386166 -1.29215,-0.605603 -1.65405,-1.616604 -0.3551,-1.013443 0.25464,-2.315023 0.59043,-1.260188 1.59058,-1.683276 1.00011,-0.423095 2.13593,0.109249 1.14491,0.536637 1.45602,1.51258 0.31787,0.973498 -0.2597,2.206085 l -0.25633,0.547308 -3.49007,-1.635767 q -0.27966,0.609251 -0.0659,1.074145 0.21406,0.464894 0.91754,0.794638 0.46443,0.217685 0.97755,0.29548 0.5131,0.07782 1.14086,0.01894 z m 0.2171,-3.431987 q 0.24077,-0.53782 0.10111,-0.934175 -0.13256,-0.398787 -0.64785,-0.640173 -0.46437,-0.217686 -0.87391,-0.06183 -0.40729,0.151223 -0.70138,0.647249 z m -15.34089,-5.226666 1.45917,-3.402915 1.36742,0.586584 -1.36908,3.192865 q -0.24212,0.564816 -0.18734,0.875618 0.0548,0.310802 0.42314,0.468959 0.3688,0.158157 0.71413,-0.08053 0.35,-0.236628 0.60234,-0.824822 l 1.28701,-3.001477 1.36742,0.586584 -2.24178,5.22808 -1.36738,-0.586587 0.33241,-0.774874 q -0.33072,0.372042 -0.78294,0.459965 -0.44746,0.0899 -0.93746,-0.120309 -0.74676,-0.320306 -0.91726,-0.979282 -0.16604,-0.656963 0.25023,-1.62789 z m -2.03932,0.994096 q -0.56016,0.0011 -1.09875,-0.104208 -0.53852,-0.105326 -1.09305,-0.332416 -1.32052,-0.540813 -1.73209,-1.532637 -0.40475,-0.994597 0.13932,-2.324801 0.52723,-1.287899 1.50519,-1.760038 0.97796,-0.47214 2.13874,0.0033 1.17014,0.479229 1.52914,1.438558 0.36582,0.956546 -0.15015,2.216242 l -0.22894,0.559346 -3.56682,-1.46078 q -0.24957,0.622379 -0.0135,1.076095 0.23671,0.453718 0.95574,0.748183 0.47465,0.194382 0.99102,0.246707 0.51631,0.05229 1.14042,-0.03808 z m 0.0467,-3.438533 q 0.21406,-0.549091 0.0548,-0.938041 -0.15217,-0.391728 -0.67876,-0.607281 -0.47464,-0.194382 -0.87591,-0.01826 -0.3992,0.171246 -0.66847,0.681214 z m -8.78153,-0.632195 -1.07822,2.763209 -1.38133,-0.539237 2.85436,-7.314924 1.38132,0.539237 -0.31009,0.79489 q 0.3966,-0.37401 0.84199,-0.467349 0.44525,-0.09332 0.92301,0.09315 0.90827,0.354583 1.12534,1.27897 0.2171,0.924403 -0.29995,2.24923 -0.52436,1.343751 -1.31589,1.863496 -0.7868,0.521592 -1.72818,0.154099 -0.42571,-0.166208 -0.68143,-0.516816 -0.24888,-0.353514 -0.33106,-0.897984 z m 2.67416,-1.15335 q 0.29893,-0.766502 0.21337,-1.301525 -0.0856,-0.53502 -0.53497,-0.710455 -0.44941,-0.175441 -0.87942,0.158293 -0.43007,0.333735 -0.72917,1.100237 -0.29895,0.766507 -0.20865,1.303376 0.0903,0.536867 0.53971,0.712301 0.44941,0.175442 0.87471,-0.160119 0.42528,-0.335594 0.72445,-1.102091 z m -10.4745,-4.851724 -1.22797,3.482268 -1.39357,-0.491632 1.15195,-3.266718 q 0.20628,-0.584375 0.12614,-0.89258 -0.073,-0.311308 -0.44681,-0.443084 -0.37824,-0.133467 -0.71853,0.1289 -0.33546,0.264059 -0.5483,0.867588 l -1.08269,3.070333 -1.3936,-0.491631 1.89184,-5.364705 1.39357,0.491631 -0.28372,0.804707 q 0.30536,-0.393097 0.75086,-0.510667 0.44536,-0.117536 0.95297,0.06149 0.76144,0.268625 0.97033,0.913205 0.21033,0.63979 -0.14237,1.640881 z m -10.89771,-2.796071 1.51649,-4.537747 1.42079,0.475004 -1.63566,4.894217 q -0.18025,0.539521 -0.0102,0.939597 0.1728,0.395279 0.65952,0.557887 0.4864,0.162622 0.86237,-0.04908 0.37736,-0.216537 0.55783,-0.756038 l 1.63563,-4.894217 1.42075,0.475004 -1.51649,4.53775 q -0.48938,1.464408 -1.29428,1.934342 -0.80489,0.469934 -2.09565,0.03852 -1.2859,-0.429917 -1.65132,-1.291129 -0.36065,-0.859594 0.12884,-2.324006 z" /><path
     id="path1704"
     style="font-weight:bold;font-size:8px;line-height:1;font-family:monospace;-inkscape-font-specification:'monospace Bold';text-align:center;letter-spacing:0px;text-anchor:middle;white-space:pre;shape-inside:url(#rect464);display:inline;fill:#ffffff;stroke-width:1.54729;stroke-linecap:round"
     d="m 535.71663,443.57055 q -0.51794,0.21309 -1.05622,0.31996 -0.53828,0.10655 -1.13748,0.10655 -1.42693,0 -2.18358,-0.76187 -0.7516,-0.76695 -0.7516,-2.20437 0,-1.39165 0.72621,-2.19925 0.72617,-0.8076 1.98045,-0.8076 1.26445,0 1.96011,0.75176 0.70082,0.74661 0.70082,2.1078 v 0.60445 h -3.85431 q 0.003,0.67044 0.39619,1.00059 0.39106,0.32978 1.16798,0.32978 0.51289,0 1.01053,-0.14713 0.49764,-0.14713 1.041,-0.46727 z m -1.25935,-3.19989 q -0.0102,-0.58913 -0.30469,-0.88881 -0.2898,-0.30474 -0.85815,-0.30474 -0.51289,0 -0.81758,0.31489 -0.30468,0.30982 -0.36064,0.88377 z m -4.75304,-0.63997 q -0.24381,-0.22323 -0.57386,-0.33519 -0.32531,-0.11162 -0.71599,-0.11162 -0.47224,0 -0.82775,0.16777 -0.35041,0.16269 -0.54336,0.47745 -0.12208,0.19313 -0.17246,0.46723 -0.0456,0.27431 -0.0456,0.83304 v 2.6208 h -1.48791 v -5.68864 h 1.48791 v 0.88376 q 0.21811,-0.48759 0.67027,-0.75171 0.45196,-0.26924 1.05622,-0.26924 0.30468,0 0.59415,0.0761 0.29454,0.071 0.55857,0.21309 z m -8.97806,-0.49774 q -0.53318,0 -0.83783,0.47238 -0.30469,0.4673 -0.30469,1.30534 0,0.838 0.30469,1.31041 0.30468,0.46727 0.83783,0.46727 0.53832,0 0.84297,-0.46727 0.30468,-0.47241 0.30468,-1.31041 0,-0.83804 -0.30468,-1.30534 -0.30468,-0.47238 -0.84297,-0.47238 z m -2.63043,1.77772 q 0,-1.37645 0.71091,-2.17897 0.71603,-0.8076 1.91952,-0.8076 1.20859,0 1.91951,0.8076 0.71602,0.80252 0.71602,2.17897 0,1.37644 -0.71602,2.18403 -0.71092,0.80249 -1.91951,0.80249 -1.20349,0 -1.91952,-0.80249 -0.71091,-0.80759 -0.71091,-2.18403 z m -1.37108,2.54969 q -0.37566,0.21817 -0.80743,0.32505 -0.43159,0.11161 -0.92927,0.11161 -1.31521,0 -2.05663,-0.79237 -0.74139,-0.79235 -0.74139,-2.19416 0,-1.40694 0.74649,-2.19925 0.7465,-0.79746 2.06168,-0.79746 0.45706,0 0.87851,0.10655 0.42655,0.10654 0.84804,0.33045 v 1.36122 q -0.32531,-0.27937 -0.71599,-0.42664 -0.38591,-0.15221 -0.80232,-0.15221 -0.7262,0 -1.11719,0.46219 -0.39104,0.46224 -0.39104,1.31553 0,0.85326 0.39104,1.31038 0.39105,0.45712 1.11719,0.45712 0.43159,0 0.80739,-0.14206 0.37567,-0.14713 0.71092,-0.4419 z m -6.21045,-3.40299 v 3.69252 h -1.47773 v -3.46394 q 0,-0.61971 -0.17787,-0.8838 -0.1728,-0.26923 -0.56872,-0.26923 -0.40134,0 -0.63477,0.36075 -0.22859,0.36076 -0.22859,1.0006 v 3.25572 h -1.4777 v -5.68863 h 1.4777 v 0.85329 q 0.15758,-0.47234 0.53829,-0.73139 0.38076,-0.25875 0.91912,-0.25875 0.80739,0 1.21873,0.53843 0.41117,0.53326 0.41117,1.59484 z m -6.10385,3.41318 q -0.51796,0.21309 -1.05625,0.31996 -0.53829,0.10655 -1.13747,0.10655 -1.42695,0 -2.18359,-0.76187 -0.75156,-0.76695 -0.75156,-2.20437 0,-1.39165 0.72621,-2.19925 0.7261,-0.8076 1.9804,-0.8076 1.26446,0 1.96016,0.75176 0.70077,0.74661 0.70077,2.1078 v 0.60445 h -3.85426 q 0.003,0.67044 0.39619,1.00059 0.39105,0.32978 1.16797,0.32978 0.51289,0 1.01057,-0.14713 0.49764,-0.14713 1.04099,-0.46727 z m -1.25938,-3.19989 q -0.0102,-0.58913 -0.30468,-0.88881 -0.28981,-0.30474 -0.85823,-0.30474 -0.51289,0 -0.81754,0.31489 -0.30468,0.30982 -0.36068,0.88377 z m -16.04667,1.4933 v -3.7027 h 1.48785 v 3.47416 q 0,0.61453 0.1728,0.87865 0.1728,0.26417 0.57379,0.26417 0.40133,0 0.62459,-0.35562 0.22859,-0.35558 0.22859,-0.99553 v -3.26587 h 1.48785 v 5.68863 h -1.48785 v -0.84314 q -0.15758,0.47234 -0.53832,0.73143 -0.37562,0.25875 -0.90894,0.25875 -0.8125,0 -1.22888,-0.5384 -0.41117,-0.5384 -0.41117,-1.59484 z m -3.05702,-2.89511 v -3.0221 h 1.48281 v 7.90314 h -1.48281 v -0.84315 q -0.23874,0.49267 -0.61951,0.74158 -0.37563,0.24894 -0.88865,0.24894 -0.97503,0 -1.51328,-0.78219 -0.53828,-0.78221 -0.53828,-2.20433 0,-1.4425 0.54335,-2.21455 0.54847,-0.77202 1.559,-0.77202 0.45699,0 0.81753,0.23879 0.36583,0.23372 0.63984,0.706 z m -2.07185,2.05196 q 0,0.82282 0.27425,1.29009 0.27425,0.4673 0.75657,0.4673 0.48246,0 0.76175,-0.4673 0.27932,-0.46727 0.27932,-1.29009 0,-0.82281 -0.27932,-1.29012 -0.27933,-0.46727 -0.76175,-0.46727 -0.48239,0 -0.75657,0.46727 -0.27425,0.46731 -0.27425,1.29012 z m -2.76754,-0.86344 v 3.69252 h -1.4777 v -3.46394 q 0,-0.61971 -0.17754,-0.8838 -0.17281,-0.26923 -0.56875,-0.26923 -0.40134,0 -0.63477,0.36075 -0.2286,0.36076 -0.2286,1.0006 v 3.25572 h -1.4777 v -5.68863 h 1.4777 v 0.85329 q 0.15759,-0.47234 0.53829,-0.73139 0.38077,-0.25875 0.91912,-0.25875 0.80743,0 1.21874,0.53843 0.41117,0.53326 0.41117,1.59484 z m -8.57177,-0.92442 q -0.53318,0 -0.8379,0.47238 -0.30468,0.4673 -0.30468,1.30534 0,0.838 0.30468,1.31041 0.30469,0.46727 0.8379,0.46727 0.53825,0 0.84297,-0.46727 0.30469,-0.47241 0.30469,-1.31041 0,-0.83804 -0.30469,-1.30534 -0.30469,-0.47238 -0.84297,-0.47238 z m -2.63046,1.77772 q 0,-1.37645 0.71095,-2.17897 0.71603,-0.8076 1.91951,-0.8076 1.20855,0 1.91951,0.8076 0.71602,0.80252 0.71602,2.17897 0,1.37644 -0.71602,2.18403 -0.71096,0.80249 -1.91951,0.80249 -1.20348,0 -1.91951,-0.80249 -0.71095,-0.80759 -0.71095,-2.18403 z m -4.5144,2.03673 v 2.9662 h -1.48277 v -7.85234 h 1.48277 v 0.85329 q 0.23368,-0.49267 0.61448,-0.74158 0.38077,-0.24893 0.89373,-0.24893 0.97498,0 1.51324,0.78219 0.53829,0.7822 0.53829,2.20436 0,1.44247 -0.54843,2.21452 -0.54337,0.77202 -1.55386,0.77202 -0.45706,0 -0.82265,-0.23372 -0.36069,-0.23879 -0.6348,-0.71614 z m 2.07185,-2.04692 q 0,-0.82281 -0.27425,-1.29008 -0.27424,-0.46731 -0.75663,-0.46731 -0.48242,0 -0.76171,0.46731 -0.27933,0.46727 -0.27933,1.29008 0,0.82282 0.27933,1.2901 0.27932,0.4673 0.76171,0.4673 0.48245,0 0.75663,-0.4673 0.27425,-0.46728 0.27425,-1.2901 z m -4.98156,2.57007 q -0.51797,0.21309 -1.05625,0.31996 -0.53825,0.10655 -1.1375,0.10655 -1.42692,0 -2.18356,-0.76187 -0.75156,-0.76695 -0.75156,-2.20437 0,-1.39165 0.72617,-2.19925 0.7262,-0.8076 1.98044,-0.8076 1.26446,0 1.96016,0.75176 0.70074,0.74661 0.70074,2.1078 v 0.60445 h -3.85423 q 0.003,0.67044 0.39619,1.00059 0.39105,0.32978 1.16794,0.32978 0.51285,0 1.01053,-0.14713 0.49767,-0.14713 1.04103,-0.46727 z m -1.25938,-3.19989 q -0.0102,-0.58913 -0.30468,-0.88881 -0.28981,-0.30474 -0.85823,-0.30474 -0.51286,0 -0.81754,0.31489 -0.30468,0.30982 -0.36068,0.88377 z m -0.31991,-4.84034 h 1.43206 l -1.86879,1.90969 h -1.00039 z m -4.43313,4.20037 q -0.24381,-0.22323 -0.57382,-0.33519 -0.32532,-0.11162 -0.71603,-0.11162 -0.47228,0 -0.82772,0.16777 -0.3504,0.16269 -0.54336,0.47745 -0.12207,0.19313 -0.1728,0.46723 -0.0456,0.27431 -0.0456,0.83304 v 2.6208 h -1.48785 v -5.68864 h 1.48785 v 0.88376 q 0.21811,-0.48759 0.6703,-0.75171 0.45196,-0.26924 1.05625,-0.26924 0.30468,0 0.59408,0.0761 0.2942,0.071 0.55861,0.21309 z m -13.33505,-1.39166 v 1.30027 q -0.41113,-0.26416 -0.85815,-0.39627 -0.44178,-0.13699 -0.88865,-0.13699 -0.49768,0 -0.7516,0.14714 -0.25363,0.14205 -0.25363,0.42664 0,0.40612 1.08672,0.66026 l 0.0561,0.0169 0.42656,0.10147 q 0.8125,0.19313 1.18827,0.62472 0.3808,0.42664 0.3808,1.15804 0,0.8787 -0.57893,1.32059 -0.57383,0.43676 -1.7316,0.43676 -0.51289,0 -1.05117,-0.0917 -0.53829,-0.0866 -1.09179,-0.26416 v -1.30026 q 0.49256,0.27938 1.00038,0.42664 0.51289,0.14714 0.99024,0.14714 0.52304,0 0.79218,-0.15221 0.26917,-0.15221 0.26917,-0.44193 0,-0.28446 -0.19308,-0.4368 -0.18768,-0.1522 -0.90391,-0.32505 l -0.41114,-0.0917 q -0.85311,-0.19313 -1.24413,-0.60439 -0.39105,-0.41125 -0.39105,-1.1022 0,-0.82282 0.59412,-1.27994 0.59412,-0.45715 1.67072,-0.45715 0.48238,0 0.9597,0.0812 0.48246,0.0761 0.93438,0.23371 z m -7.73893,2.83923 q -0.83279,0 -1.16288,0.21309 -0.33038,0.21342 -0.33038,0.73143 0,0.38598 0.2286,0.61457 0.2286,0.22864 0.61951,0.22864 0.58905,0 0.91409,-0.44193 0.32497,-0.44695 0.32497,-1.2444 v -0.10147 z m 2.07185,-0.57395 v 3.24558 h -1.4777 V 443.215 q -0.26918,0.3757 -0.69063,0.57901 -0.42141,0.20328 -0.9293,0.20328 -0.96988,0 -1.51324,-0.51303 -0.53833,-0.513 -0.53833,-1.43231 0,-0.99549 0.64495,-1.4679 0.64491,-0.47738 1.99569,-0.47738 h 1.03086 v -0.24894 q 0,-0.36076 -0.26411,-0.54347 -0.25869,-0.18772 -0.76675,-0.18772 -0.53325,0 -1.03595,0.13698 -0.49764,0.13226 -1.041,0.42665 v -1.26979 q 0.49257,-0.20328 1.00038,-0.29968 0.50779,-0.0964 1.07657,-0.0964 1.38627,0 1.94488,0.5638 0.56368,0.56373 0.56368,2.0164 z m -9.56707,-3.07792 v 2.22463 h 0.61444 q 0.73631,0 1.03081,-0.24894 0.29961,-0.2486 0.29961,-0.86341 0,-0.6146 -0.29961,-0.86343 -0.2942,-0.24895 -1.03081,-0.24895 z m -1.49803,-1.25968 h 2.05663 q 1.56911,0 2.25463,0.55877 0.69063,0.55869 0.69063,1.81323 0,1.2545 -0.69063,1.81326 -0.68552,0.5587 -2.25463,0.5587 h -0.5586 v 2.83922 h -1.49803 z" /><path
     id="path3074"
     style="font-weight:bold;font-size:7.99999px;line-height:1;font-family:monospace;-inkscape-font-specification:'monospace Bold';text-align:center;letter-spacing:0px;white-space:pre;display:inline;fill:#ffffff;stroke-width:5.09229;stroke-linecap:round"
     d="m 111.23191,282.40269 -2.90569,-0.82854 0.40654,-1.42629 7.59873,2.16666 -0.4065,1.42628 -0.81065,-0.23101 q 0.40824,0.36462 0.54314,0.79921 0.13628,0.4297 -0.004,0.923 -0.26728,0.93786 -1.16692,1.24119 -0.89963,0.30339 -2.26701,-0.0866 -1.38691,-0.39539 -1.98024,-1.12974 -0.59194,-0.7392 -0.3149,-1.71121 0.12526,-0.4396 0.45366,-0.72099 0.32487,-0.28749 0.85422,-0.42193 z m 1.40493,2.55541 q 0.79113,0.22561 1.31559,0.09 0.52446,-0.13563 0.65671,-0.59972 0.13225,-0.46399 -0.24043,-0.86077 -0.3727,-0.39669 -1.16384,-0.62235 -0.79113,-0.2256 -1.31698,-0.0852 -0.52585,0.14037 -0.6581,0.60456 -0.13226,0.46406 0.24185,0.8559 0.3741,0.39201 1.16523,0.61744 z m -1.89933,1.98556 q -0.27878,0.17791 -0.47191,0.46798 -0.1918,0.28547 -0.29274,0.66305 -0.12191,0.45634 -0.0517,0.84311 0.0666,0.3804 0.32092,0.64825 0.15497,0.16776 0.40679,0.2875 0.25311,0.115 0.79278,0.25942 l 2.5315,0.67647 -0.38403,1.43776 -5.49472,-1.46827 0.38403,-1.43776 0.85364,0.22797 q -0.41462,-0.33688 -0.55308,-0.84176 -0.14338,-0.5062 0.0125,-1.09012 0.0786,-0.29426 0.22694,-0.55447 0.1447,-0.26619 0.35023,-0.48472 z m -2.7668,8.63477 q -0.12904,0.51743 0.25545,0.9274 0.37958,0.40868 1.19255,0.61159 0.81298,0.20294 1.34493,0.0203 0.52703,-0.18264 0.65605,-0.7001 0.13029,-0.52237 -0.24929,-0.93119 -0.3845,-0.40994 -1.19748,-0.61275 -0.81297,-0.20293 -1.34,-0.0203 -0.53196,0.1813 -0.66221,0.70376 z m 1.08798,2.98297 q -1.33526,-0.33282 -1.94171,-1.21726 -0.61015,-0.89026 -0.31892,-2.05825 0.29248,-1.17292 1.24791,-1.66745 0.95175,-0.50065 2.287,-0.16777 1.33526,0.33282 1.94541,1.22336 0.60646,0.88414 0.31398,2.05706 -0.29122,1.16795 -1.24297,1.66864 -0.95545,0.4945 -2.29071,0.16133 z m 2.1546,1.95594 q 0.12789,0.41552 0.13428,0.86012 0.0112,0.44579 -0.10101,0.93068 -0.29697,1.2815 -1.23609,1.82504 -0.93912,0.54347 -2.30447,0.22695 -1.37029,-0.3176 -1.97346,-1.22393 -0.60812,-0.90741 -0.31118,-2.18894 0.10321,-0.44528 0.30221,-0.83188 0.2002,-0.39157 0.51304,-0.75176 l 1.32577,0.30712 q -0.34548,0.25368 -0.57721,0.60134 -0.23556,0.34148 -0.32957,0.74736 -0.16394,0.70755 0.19792,1.19291 0.36187,0.48537 1.19297,0.67803 0.83108,0.19245 1.36459,-0.0852 0.53351,-0.27768 0.69747,-0.98531 0.0975,-0.42066 0.0438,-0.81885 -0.0586,-0.39925 -0.26985,-0.79248 z m -1.40062,6.10875 q 0.13476,0.41335 0.14859,0.85775 0.0189,0.4456 -0.0855,0.93228 -0.2756,1.2863 -1.20554,1.84536 -0.92995,0.55903 -2.30038,0.26517 -1.37539,-0.29493 -1.99357,-1.19088 -0.62313,-0.89716 -0.34753,-2.18349 0.0958,-0.44698 0.28835,-0.83679 0.19363,-0.39499 0.50045,-0.76025 l 1.33071,0.28513 q -0.34121,0.25943 -0.56713,0.61085 -0.22984,0.34534 -0.31706,0.75277 -0.15217,0.71015 0.21775,1.18943 0.36991,0.47931 1.20408,0.65806 0.83418,0.17893 1.36299,-0.10789 0.52881,-0.28682 0.68098,-0.99681 0.0904,-0.42194 0.0301,-0.81943 -0.0652,-0.39841 -0.28301,-0.78788 z m -3.98971,7.46993 q -0.1609,0.81727 -0.0156,1.1824 0.14547,0.36505 0.65367,0.46527 0.37864,0.0744 0.64703,-0.10519 0.26836,-0.18027 0.34389,-0.5638 0.11386,-0.57807 -0.25683,-0.9824 -0.37564,-0.40523 -1.15787,-0.55937 l -0.0997,-0.0203 z m -0.16266,-2.14416 3.18372,0.62719 -0.28555,1.45017 -0.62279,-0.12278 q 0.31669,0.33689 0.43453,0.78961 0.11782,0.45289 0.0196,0.95124 -0.18744,0.95186 -0.79564,1.38595 -0.60723,0.42908 -1.50904,0.25165 -0.97654,-0.19246 -1.31527,-0.91655 -0.34373,-0.72517 -0.0827,-2.05074 l 0.19921,-1.01165 -0.24412,-0.048 q -0.35373,-0.0697 -0.58413,0.1539 -0.23442,0.21781 -0.33252,0.71617 -0.10304,0.52328 -0.0657,1.04314 0.0335,0.51388 0.21734,1.10407 L 102.63165,316.03 q -0.10415,-0.52267 -0.10064,-1.03966 0.003,-0.51699 0.11339,-1.07513 0.26792,-1.36048 0.92887,-1.79971 0.66196,-0.44416 2.08692,-0.16337 z m -5.805722,7.25723 2.773882,0.49862 -0.22995,1.27978 -2.773875,-0.49863 z m 1.617612,6.48822 -2.982281,-0.48503 0.237964,-1.46387 7.799027,1.26837 -0.23796,1.46387 -0.83203,-0.13529 q 0.44788,0.31455 0.63236,0.73064 0.18531,0.41082 0.10297,0.91729 -0.1565,0.96255 -1.01476,1.36843 -0.85827,0.40567 -2.2617,0.17757 -1.42347,-0.23135 -2.09812,-0.89186 -0.67385,-0.66536 -0.51166,-1.66298 0.0734,-0.4512 0.36679,-0.76883 0.28926,-0.32336 0.79939,-0.51838 z m 1.69242,2.37472 q 0.81198,0.13226 1.31711,-0.0639 0.50514,-0.1955 0.58256,-0.67196 0.0774,-0.47627 -0.33889,-0.82698 -0.41629,-0.35092 -1.22828,-0.4828 -0.81198,-0.13224 -1.31793,0.0683 -0.50595,0.20058 -0.58338,0.67701 -0.0774,0.47624 0.33971,0.82198 0.4171,0.34574 1.22909,0.47775 z m -6.016876,10.37509 1.601623,0.20633 0.248177,-1.92939 1.133216,0.14578 -0.248172,1.92941 2.669362,0.34361 q 0.37774,0.0487 0.56728,-0.11128 0.18514,-0.16573 0.24023,-0.59383 l 0.14582,-1.13349 1.13322,0.14612 -0.15941,1.23922 q -0.1633,1.26945 -0.62391,1.666 -0.46564,0.39583 -1.56361,0.25468 l -2.59885,-0.3345 -0.185346,1.44069 -1.133222,-0.14577 0.185347,-1.44071 -1.60162,-0.20632 z m 3.035086,4.81531 3.66887,0.41042 -0.16425,1.46891 -3.44177,-0.38515 q -0.615685,-0.069 -0.897865,0.0785 -0.286659,0.14172 -0.330689,0.53539 -0.04457,0.39884 0.287777,0.67105 0.332886,0.26687 0.968787,0.33847 l 3.23486,0.36205 -0.16425,1.46887 -5.65218,-0.63233 0.164245,-1.4688 0.847833,0.0947 q -0.451838,-0.20869 -0.666878,-0.61636 -0.215038,-0.4074 -0.155217,-0.94241 0.08971,-0.8026 0.670406,-1.15162 0.575612,-0.34964 1.630351,-0.23135 z m 2.72335,6.45254 q 0.16326,0.53593 0.21848,1.08201 0.0552,0.54604 -0.002,1.14268 -0.1351,1.42081 -0.96501,2.10208 -0.8345,0.67572 -2.265131,0.53962 -1.385142,-0.13191 -2.120177,-0.93119 -0.73504,-0.79954 -0.616294,-2.04847 0.11971,-1.259 0.93375,-1.88054 0.809468,-0.62708 2.164282,-0.49825 l 0.60157,0.0575 -0.36491,3.83776 q 0.66778,0.0582 1.03338,-0.29968 0.36559,-0.35815 0.43917,-1.13169 0.0486,-0.5107 -0.0509,-1.02014 -0.0995,-0.50948 -0.36653,-1.08083 z m -3.304037,0.95101 q -0.58737,-0.0456 -0.913514,0.21918 -0.330722,0.25942 -0.384585,0.82565 -0.04856,0.51066 0.236038,0.84386 0.27949,0.33248 0.845479,0.44265 z m -2.266351,6.99708 q -0.346336,-0.19515 -0.498207,-0.46703 -0.151869,-0.2716 -0.122482,-0.64646 0.05759,-0.7342 0.585663,-0.973 0.528489,-0.24386 2.128241,-0.11804 l 3.194443,0.25063 -0.0953,1.21527 -3.639951,-0.28547 q -0.632812,-0.0497 -0.85298,0.0304 -0.220177,0.0795 -0.240027,0.33248 -0.01961,0.25334 0.189878,0.37145 0.209728,0.11804 0.832436,0.16742 l 3.639944,0.28547 -0.0941,1.20005 -3.639947,-0.28546 q -0.622688,-0.0487 -0.848317,0.0341 -0.225656,0.0842 -0.245505,0.33722 -0.01961,0.25334 0.185211,0.36587 0.205061,0.11297 0.837897,0.16269 l 3.639951,0.28547 -0.0953,1.21526 -5.670012,-0.44477 0.08457,-1.07856 0.587249,0.0463 q -0.32423,-0.15289 -0.494735,-0.44637 -0.175573,-0.29392 -0.148588,-0.63834 0.02705,-0.3445 0.2568,-0.6116 0.224742,-0.26788 0.523126,-0.30542 z m 4.509258,4.54091 q 0.18088,0.53025 0.25413,1.0742 0.0732,0.54397 0.0363,1.14214 -0.088,1.42454 -0.89502,2.13283 -0.81171,0.70298 -2.246059,0.61426 -1.388736,-0.0859 -2.149794,-0.8607 -0.761057,-0.77475 -0.683645,-2.02689 0.07805,-1.26231 0.871092,-1.91041 0.788303,-0.65349 2.146628,-0.56948 l 0.603136,0.0386 -0.237863,3.8477 q 0.669345,0.0342 1.022915,-0.33383 0.35357,-0.37017 0.40153,-1.14563 0.0318,-0.51202 -0.0846,-1.01791 -0.11629,-0.5059 -0.40204,-1.06807 z m -3.270804,1.05976 q -0.588557,-0.0271 -0.905767,0.24961 -0.321964,0.26991 -0.357075,0.8379 -0.03178,0.51202 0.263766,0.83568 0.29038,0.32334 0.859645,0.41463 z m -4.215348,6.96887 1.613171,0.073 0.08802,-1.94331 1.141391,0.0518 -0.08802,1.94331 2.688612,0.1221 q 0.380478,0.0169 0.556148,-0.15795 0.17084,-0.18061 0.19035,-0.61163 l 0.0517,-1.14163 1.14139,0.0518 -0.0565,1.24818 q -0.0579,1.27863 -0.48419,1.7118 -0.43136,0.43297 -1.537241,0.38301 l -2.617594,-0.11838 -0.0657,1.45112 -1.141394,-0.0518 0.0657,-1.45115 -1.613171,-0.073 z m 6.837882,4.48876 q 0.19826,0.52399 0.28933,1.06523 0.0911,0.54123 0.0738,1.14035 -0.0411,1.42663 -0.82432,2.16114 -0.788119,0.72932 -2.224618,0.68789 -1.390805,-0.0386 -2.176958,-0.7894 -0.786149,-0.74925 -0.750009,-2.00332 0.03635,-1.26414 0.807726,-1.93804 0.76636,-0.67913 2.126711,-0.6399 l 0.604038,0.0169 -0.111052,3.8535 q 0.670173,0.0135 1.011372,-0.36719 0.34121,-0.38126 0.36359,-1.15818 0.0149,-0.51279 -0.11809,-1.0146 -0.13283,-0.50177 -0.436988,-1.05424 z m -3.234144,1.1669 q -0.589102,-0.0102 -0.897073,0.27904 -0.312935,0.28074 -0.329301,0.84924 -0.01488,0.51279 0.291157,0.82647 0.300862,0.31354 0.872823,0.38599 z m -4.886257,1.55621 1.94997,-1.38172 -0.02874,1.00016 -1.962412,1.8133 z m 5.813771,7.14696 -4.387104,-0.0545 -0.01894,1.50838 -1.142478,-0.0135 0.03724,-2.99644 5.529583,0.0683 q 0.67025,0.0102 0.952109,-0.19651 0.28186,-0.20463 0.28801,-0.70251 l 0.0145,-1.18838 1.14247,0.0135 -0.02,1.60488 q -0.0132,1.06147 -0.5673,1.51684 -0.55412,0.45536 -1.828609,0.43953 z m 1.56052,6.01614 2.96557,-0.0135 0.006,1.48312 -7.850616,0.0304 -0.006,-1.48312 0.853112,-0.003 q -0.4935,-0.23135 -0.743828,-0.61166 -0.250342,-0.37997 -0.252371,-0.8929 -0.004,-0.97516 0.776018,-1.51667 0.779879,-0.54148 2.201728,-0.54713 1.442156,-0.003 2.216187,0.53976 0.77402,0.54042 0.77802,1.55117 0.002,0.45712 -0.23029,0.82373 -0.23722,0.3616 -0.71348,0.63774 z m -2.054652,-2.06416 q -0.82264,0.003 -1.288735,0.27937 -0.466089,0.276 -0.464175,0.75862 0.0019,0.4825 0.470197,0.76001 0.468283,0.27736 1.290923,0.27431 0.822637,-0.003 1.288711,-0.28445 0.466071,-0.28107 0.464151,-0.76373 -0.002,-0.48249 -0.470173,-0.7549 -0.468263,-0.27262 -1.290899,-0.26923 z m -2.195781,7.16697 q -0.363879,-0.15998 -0.541742,-0.41551 -0.177907,-0.25537 -0.185515,-0.63125 -0.01488,-0.73633 0.487098,-1.02592 0.501933,-0.29494 2.106272,-0.32741 l 3.20359,-0.065 0.0247,1.21875 -3.650375,0.074 q -0.634629,0.0135 -0.845906,0.11365 -0.211283,0.10113 -0.206143,0.35477 0.005,0.25367 0.22552,0.35088 0.22038,0.0971 0.844844,0.0842 l 3.65037,-0.074 0.0244,1.20349 -3.650372,0.074 q -0.624474,0.0135 -0.840724,0.11871 -0.216221,0.10621 -0.211081,0.35988 0.005,0.25367 0.220346,0.34619 0.215206,0.092 0.849818,0.0792 l 3.650373,-0.0741 0.0247,1.21875 -5.686259,0.11568 -0.02198,-1.08164 0.588936,-0.0135 q -0.337654,-0.12041 -0.536249,-0.3954 -0.203642,-0.27532 -0.210676,-0.62058 -0.0068,-0.34534 0.19539,-0.63388 0.197318,-0.28852 0.490542,-0.35562 z m 0.690425,6.70083 q 0.01962,0.53293 0.502577,0.82021 0.478006,0.2875 1.315328,0.25673 0.83732,-0.0304 1.298123,-0.35261 0.45573,-0.32166 0.43624,-0.85455 -0.0196,-0.53802 -0.497684,-0.82552 -0.483081,-0.28716 -1.320404,-0.25672 -0.837316,0.0304 -1.293051,0.3522 -0.460803,0.32166 -0.441129,0.85983 z m 1.872292,2.56424 q -1.375234,0.0504 -2.203021,-0.63093 -0.833041,-0.68621 -0.877043,-1.88916 -0.0442,-1.208 0.736703,-1.94816 0.775625,-0.74496 2.150858,-0.79529 1.375234,-0.0504 2.208279,0.63582 0.82779,0.6813 0.87197,1.8893 0.044,1.20295 -0.73163,1.94798 -0.78088,0.74012 -2.156116,0.79044 z m 2.677656,1.17611 q 0.2013,0.34533 0.3132,0.73113 0.11193,0.38558 0.13469,0.81686 0.0809,1.53175 -0.88561,2.39155 -0.96653,0.85978 -2.873219,0.96054 -1.911761,0.10113 -2.963489,-0.65208 -1.051728,-0.75311 -1.132643,-2.2849 -0.02266,-0.43114 0.04761,-0.83154 0.07037,-0.40057 0.234719,-0.75501 l 1.66328,-0.0876 q -0.334612,0.4044 -0.477583,0.77797 -0.148352,0.36888 -0.12796,0.75446 0.04342,0.82167 0.719797,1.20807 0.671059,0.38173 1.954015,0.31354 1.277894,-0.0677 1.910078,-0.51801 0.626855,-0.45525 0.583445,-1.27692 -0.0206,-0.38559 -0.20164,-0.73705 -0.18664,-0.35646 -0.561975,-0.72307 z" /><path
     id="path3142"
     style="font-weight:bold;font-size:7.99999px;line-height:1;font-family:monospace;-inkscape-font-specification:'monospace Bold';text-align:center;letter-spacing:0px;white-space:pre;display:inline;fill:#ffffff;stroke-width:5.09229;stroke-linecap:round"
     d="m 865.73994,414.90478 3.01965,0.1035 -0.0511,1.48225 -7.89683,-0.2706 0.0511,-1.48223 0.84246,0.0304 q -0.48411,-0.25537 -0.71978,-0.64466 -0.23569,-0.38431 -0.21811,-0.89686 0.0342,-0.97462 0.8334,-1.48593 0.79995,-0.51128 2.22102,-0.46257 1.44128,0.0491 2.19412,0.619 0.75265,0.57466 0.71803,1.58479 -0.0169,0.45685 -0.26648,0.80909 -0.24618,0.3573 -0.72732,0.61541 z m -1.9794,-2.14132 q -0.82213,-0.0304 -1.29847,0.22967 -0.4763,0.25807 -0.49284,0.74035 -0.0169,0.48225 0.44086,0.77743 0.45733,0.29528 1.27951,0.32369 0.82214,0.0304 1.29861,-0.23507 0.4765,-0.26315 0.493,-0.7454 0.0169,-0.48225 -0.441,-0.77232 -0.45749,-0.2902 -1.27967,-0.31827 z m 1.36486,-2.3845 q 0.22758,-0.23947 0.34527,-0.56789 0.11767,-0.32302 0.12443,-0.71411 0.0102,-0.47224 -0.15284,-0.83074 -0.15623,-0.35304 -0.46765,-0.55186 -0.19072,-0.12548 -0.46402,-0.18095 -0.27357,-0.0504 -0.83185,-0.0602 l -2.61991,-0.0466 0.0271,-1.48795 5.68654,0.10114 -0.0271,1.48795 -0.88344,-0.0169 q 0.48353,0.22729 0.73952,0.6837 0.26106,0.45676 0.25024,1.06107 -0.003,0.30475 -0.0869,0.59283 -0.0761,0.29324 -0.22284,0.55479 z m 0.60582,-9.04657 q 6.7e-4,-0.5333 -0.47123,-0.83862 -0.46684,-0.30508 -1.3047,-0.30643 -0.8379,-8.4e-4 -1.31051,0.30305 -0.46757,0.30441 -0.46819,0.8375 -6.4e-4,0.5384 0.46613,0.84372 0.4719,0.30508 1.30977,0.30644 0.83789,8.4e-4 1.30544,-0.30306 0.47264,-0.30441 0.47329,-0.84257 z m -1.7741,-2.63315 q 1.37614,0.002 2.17763,0.71374 0.80651,0.71716 0.80502,1.92089 -0.002,1.20885 -0.80972,1.91893 -0.80324,0.71516 -2.17939,0.71351 -1.37615,-0.002 -2.18267,-0.71885 -0.80148,-0.71208 -0.79998,-1.92089 0.002,-1.20377 0.80469,-1.91893 0.80827,-0.71008 2.18442,-0.7084 z m -2.56199,-1.37927 q -0.2242,-0.37233 -0.33714,-0.80256 -0.11802,-0.42993 -0.1258,-0.92767 -0.0203,-1.31532 0.76063,-2.0689 0.78075,-0.75358 2.18216,-0.775 1.40645,-0.0202 2.20992,0.7129 0.80858,0.73437 0.8287,2.04968 0.0102,0.45709 -0.0933,0.88022 -0.10009,0.42824 -0.31686,0.85316 l -1.36076,0.0203 q 0.27425,-0.32909 0.41543,-0.72256 0.14642,-0.38812 0.14,-0.80476 -0.0135,-0.72625 -0.47915,-1.11018 -0.46801,-0.38386 -1.32105,-0.371 -0.85299,0.0135 -1.30399,0.41122 -0.45101,0.39796 -0.43988,1.12425 0.0102,0.43165 0.15453,0.80533 0.15319,0.37358 0.4526,0.70423 z m -0.11024,-6.26644 q -0.23029,-0.36888 -0.3504,-0.79687 -0.12546,-0.42793 -0.14135,-0.92544 -0.0429,-1.31482 0.72641,-2.08118 0.76816,-0.76641 2.169,-0.81099 1.40594,-0.0446 2.22145,0.67633 0.82059,0.72092 0.86238,2.03572 0.0135,0.45693 -0.0788,0.88168 -0.0933,0.42979 -0.30299,0.85826 l -1.36023,0.0433 q 0.26884,-0.33384 0.40343,-0.72936 0.14,-0.3907 0.12647,-0.8069 -0.0203,-0.72594 -0.4974,-1.10216 -0.47431,-0.37615 -1.32699,-0.34919 -0.85267,0.0271 -1.29705,0.43257 -0.44434,0.40526 -0.42141,1.13138 0.0135,0.43149 0.16772,0.80267 0.15928,0.371 0.4642,0.69662 z m 2.07652,-8.21019 q -0.0386,-0.83199 -0.26917,-1.15145 -0.22894,-0.31929 -0.74633,-0.29426 -0.3855,0.0169 -0.6027,0.25807 -0.21744,0.23913 -0.19817,0.62996 0.0304,0.58849 0.48543,0.89185 0.46207,0.30306 1.25837,0.2645 l 0.10145,-0.003 z m 0.67325,2.04214 -3.24111,0.15661 -0.0713,-1.47632 0.63402,-0.0304 q -0.38848,-0.25064 -0.6116,-0.66196 -0.22319,-0.41122 -0.24788,-0.91857 -0.0466,-0.96897 0.43918,-1.53659 0.48631,-0.56255 1.40439,-0.60693 0.99412,-0.0484 1.49697,0.57337 0.50792,0.62124 0.57318,1.97071 l 0.0497,1.02986 0.24855,-0.0135 q 0.36024,-0.0169 0.52997,-0.29021 0.17483,-0.26788 0.15048,-0.77516 -0.0271,-0.53268 -0.18701,-1.02832 -0.15589,-0.49078 -0.47636,-1.01938 l 1.26803,-0.0613 q 0.22691,0.48229 0.3474,0.98494 0.12106,0.50264 0.14845,1.07084 0.0666,1.385 -0.46906,1.97028 -0.53575,0.59032 -1.9864,0.66049 z m 1.90568,-7.04812 -1.29726,0.0842 q 0.23706,-0.42752 0.33972,-0.88224 0.10821,-0.44982 0.0791,-0.89588 -0.0342,-0.4967 -0.19546,-0.7406 -0.15825,-0.24454 -0.4421,-0.22594 -0.4056,0.0271 -0.58837,1.1274 l -0.0135,0.0565 -0.0737,0.43236 q -0.14,0.82346 -0.54631,1.22647 -0.40089,0.40783 -1.13071,0.45515 -0.87662,0.0568 -1.35498,-0.49219 -0.47299,-0.54446 -0.54799,-1.70009 -0.0342,-0.51188 0.0203,-1.05505 0.0514,-0.5429 0.1931,-1.10687 l 1.29722,-0.0842 q -0.24686,0.50975 -0.36109,1.02613 -0.11396,0.52149 -0.0825,0.99789 0.0342,0.52203 0.20323,0.78081 0.16942,0.25875 0.45831,0.24015 0.28372,-0.0169 0.42314,-0.22087 0.14,-0.19719 0.2658,-0.9232 l 0.0646,-0.41637 q 0.13729,-0.86405 0.52242,-1.28099 0.38506,-0.4168 1.07427,-0.46165 0.82096,-0.0534 1.31549,0.51009 0.49452,0.56339 0.56433,1.63792 0.0304,0.48151 -0.0169,0.96318 -0.0449,0.48642 -0.17246,0.94773 z m -5.59986,-5.35183 q -0.25464,-0.49905 -0.40475,-1.02693 -0.15015,-0.52798 -0.1985,-1.12534 -0.11599,-1.4225 0.58174,-2.2387 0.7032,-0.81155 2.13553,-0.92838 1.3868,-0.11296 2.25057,0.5452 0.86373,0.65834 0.96565,1.90868 0.1028,1.26053 -0.58979,2.01519 -0.68708,0.75927 -2.04344,0.86991 l -0.60233,0.0491 -0.31314,-3.84232 q -0.66771,0.0595 -0.96492,0.47616 -0.29724,0.41681 -0.23401,1.19119 0.0426,0.5113 0.22894,0.99542 0.18734,0.48415 0.55026,0.99982 z m 3.08626,-1.51544 q 0.58628,-0.0582 0.86093,-0.37618 0.28033,-0.31321 0.23401,-0.88029 -0.0429,-0.51128 -0.38037,-0.78944 -0.33343,-0.2787 -0.90996,-0.28749 z m 4.79738,-0.71232 0.11633,1.42758 -2.05489,-1.70774 -0.0812,-0.99728 z m -3.97943,-6.03949 3.00697,-0.29527 0.14507,1.47598 -7.86362,0.77222 -0.14507,-1.47595 0.83891,-0.0825 q -0.51353,-0.18941 -0.79833,-0.54425 -0.28439,-0.34963 -0.33444,-0.86026 -0.0954,-0.97056 0.6304,-1.58279 0.72566,-0.61224 2.14077,-0.75119 1.43522,-0.1407 2.25652,0.32437 0.82173,0.47048 0.92048,1.47638 0.0446,0.45496 -0.15759,0.83713 -0.19681,0.38687 -0.63997,0.70593 z m -2.24421,-1.8619 q -0.81872,0.0805 -1.25681,0.39884 -0.43816,0.31896 -0.39105,0.79888 0.0471,0.48016 0.53937,0.71252 0.49222,0.23236 1.31095,0.15187 0.81872,-0.0805 1.25637,-0.40399 0.43765,-0.32369 0.39061,-0.80384 -0.047,-0.48023 -0.53886,-0.70755 -0.49179,-0.2273 -1.31048,-0.1468 z m -0.16671,-9.17926 -3.66017,0.48198 -0.19309,-1.46536 3.43356,-0.45218 q 0.61424,-0.0808 0.85285,-0.29156 0.24415,-0.20632 0.19242,-0.59915 -0.0521,-0.39799 -0.44033,-0.58237 -0.38719,-0.17926 -1.02166,-0.0957 l -3.22721,0.42492 -0.19309,-1.46536 5.63878,-0.74259 0.19309,1.46536 -0.84581,0.11128 q 0.48878,0.0947 0.79522,0.43832 0.30638,0.34404 0.37696,0.87764 0.10516,0.80066 -0.37438,1.27882 -0.47495,0.47752 -1.52717,0.61609 z m -4.19155,-5.6105 q -0.28711,-0.48114 -0.47161,-0.99803 -0.1843,-0.51685 -0.27256,-1.1097 -0.20965,-1.41175 0.43268,-2.27221 0.64809,-0.85624 2.06959,-1.0674 1.37628,-0.20464 2.28161,0.39539 0.90536,0.59979 1.08956,1.84077 0.18565,1.25095 -0.45544,2.04969 -0.6354,0.80296 -1.98156,1.00293 l -0.59774,0.089 -0.56621,-3.81323 q -0.66229,0.10349 -0.93133,0.53883 -0.26918,0.43538 -0.15489,1.20408 0.0754,0.50738 0.29387,0.9781 0.21879,0.47075 0.61508,0.96132 z m 2.97947,-1.71606 q 0.58117,-0.0967 0.83425,-0.43199 0.25869,-0.33113 0.1755,-0.89382 -0.0754,-0.50744 -0.4315,-0.7626 -0.35127,-0.25605 -0.92696,-0.22696 z m 1.58882,-13.98247 -1.58854,0.2902 0.34911,1.91369 -1.12405,0.20497 -0.34912,-1.91372 -2.64764,0.48323 q -0.37478,0.0683 -0.5067,0.27803 -0.12613,0.2141 -0.0487,0.63875 l 0.20493,1.12422 -1.12399,0.20497 -0.2242,-1.22914 q -0.22961,-1.25914 0.0889,-1.77681 0.32362,-0.51851 1.41257,-0.71728 l 2.57771,-0.47049 -0.26073,-1.42903 1.12399,-0.20497 0.26072,1.42907 1.58855,-0.29021 z m -4.35333,-3.66648 -3.62033,0.72277 -0.28912,-1.44943 3.39626,-0.67802 q 0.60751,-0.12143 0.83171,-0.34746 0.23028,-0.22222 0.15284,-0.61058 -0.0785,-0.3937 -0.47778,-0.55203 -0.39832,-0.15356 -1.02578,-0.0304 l -3.19208,0.63729 -0.28913,-1.44946 5.57744,-1.11346 0.28913,1.44943 -0.83658,0.16708 q 0.49392,0.0619 0.82248,0.38471 0.32869,0.32267 0.43386,0.85085 0.15792,0.79191 -0.28912,1.30078 -0.44243,0.50783 -1.48319,0.71563 z m -4.55294,-5.32131 q -0.31821,-0.46108 -0.53647,-0.96464 -0.2181,-0.50353 -0.34526,-1.08924 -0.30231,-1.39484 0.28135,-2.2959 0.59013,-0.89716 1.99455,-1.20173 1.35982,-0.29494 2.30275,0.24386 0.94296,0.53863 1.20879,1.7647 0.26783,1.236 -0.31922,2.07536 -0.58106,0.84321 -1.91106,1.13166 l -0.59053,0.12785 -0.81683,-3.76751 q -0.65401,0.14713 -0.89369,0.59921 -0.23942,0.45223 -0.0755,1.21165 0.10855,0.50134 0.35808,0.95656 0.24957,0.45523 0.67721,0.91854 z m 2.85966,-1.90905 q 0.5735,-0.13496 0.80392,-0.48625 0.23671,-0.34747 0.11599,-0.90341 -0.10855,-0.50137 -0.48097,-0.73245 -0.36708,-0.23203 -0.93992,-0.16506 z m 0.0386,-7.35474 q 0.38936,0.0808 0.61643,0.29359 0.22724,0.21275 0.3128,0.57874 0.16806,0.7171 -0.26275,1.10488 -0.42957,0.39286 -1.99191,0.75883 l -3.11988,0.73081 -0.27797,-1.18685 3.55493,-0.83277 q 0.61805,-0.14476 0.80367,-0.2875 0.18565,-0.14239 0.12783,-0.38984 -0.0578,-0.24725 -0.29353,-0.29596 -0.2357,-0.0491 -0.84391,0.0934 l -3.55493,0.83276 -0.27425,-1.17204 3.55493,-0.83277 q 0.60811,-0.1424 0.79759,-0.29088 0.1897,-0.14882 0.1312,-0.39583 -0.0578,-0.24725 -0.28744,-0.29257 -0.22961,-0.0453 -0.84767,0.0994 l -3.55493,0.8328 -0.27797,-1.18687 5.53758,-1.29725 0.24652,1.05335 -0.57353,0.13428 q 0.35511,0.047 0.6068,0.27532 0.25666,0.22662 0.33546,0.5631 0.0788,0.33654 -0.0592,0.66073 -0.13324,0.32302 -0.40603,0.44978 z m -5.6744,-2.95838 q -0.33343,-0.45033 -0.56808,-0.94641 -0.23502,-0.49606 -0.38121,-1.07724 -0.34827,-1.38412 0.20594,-2.30394 0.56014,-0.9162 1.9538,-1.26705 1.34927,-0.33979 2.30951,0.16742 0.96025,0.50718 1.26642,1.72377 0.3084,1.22647 -0.25024,2.08476 -0.55283,0.862 -1.8726,1.19424 l -0.58597,0.14747 -0.94087,-3.73845 q -0.64876,0.16844 -0.87344,0.6284 -0.22454,0.45986 -0.0342,1.21348 0.12545,0.49747 0.38932,0.9442 0.26445,0.44674 0.7072,0.89568 z m 2.79498,-2.00264 q 0.56876,-0.15357 0.78741,-0.5125 0.22454,-0.35518 0.0859,-0.90676 -0.12545,-0.49748 -0.50484,-0.71615 -0.37478,-0.21985 -0.94489,-0.13393 z m 1.90189,-7.91983 -1.55927,0.42023 0.5059,1.87834 -1.10329,0.2973 -0.50583,-1.87837 -2.59874,0.70014 q -0.36751,0.0991 -0.48201,0.31929 -0.10788,0.22391 0.003,0.64061 l 0.29724,1.10349 -1.10322,0.2973 -0.32463,-1.20647 q -0.33275,-1.23587 -0.0581,-1.77806 0.28,-0.5435 1.34856,-0.83147 l 2.53013,-0.68165 -0.3778,-1.40265 1.10329,-0.2973 0.3778,1.40265 1.55919,-0.42022 z m -7.87745,-2.20104 q -0.34783,-0.43907 -0.59905,-0.9271 -0.25126,-0.48804 -0.41628,-1.06408 -0.39406,-1.3718 0.12951,-2.30949 0.52954,-0.93416 1.91082,-1.33095 1.33737,-0.38429 2.31388,0.091 0.97644,0.47522 1.32265,1.68102 0.34912,1.21558 -0.18125,2.09186 -0.52408,0.87978 -1.83213,1.25546 l -0.58079,0.16675 -1.06383,-3.70528 q -0.64284,0.19009 -0.8522,0.65695 -0.20933,0.467 0.003,1.21396 0.14169,0.49307 0.42057,0.93081 0.27899,0.43778 0.73639,0.8718 z m 2.72728,-2.09393 q 0.56337,-0.1725 0.77006,-0.5382 0.21304,-0.36245 0.0561,-0.90913 -0.1417,-0.49312 -0.52828,-0.69907 -0.38205,-0.20767 -0.94878,-0.10282 z m 4.18327,-2.96654 -1.43851,1.90872 -0.27595,-0.96174 1.31938,-2.32361 z m -7.70929,-5.04456 4.19646,-1.28076 -0.44022,-1.44283 1.09284,-0.33349 0.87441,2.86621 -5.28926,1.61429 q -0.64108,0.1955 -0.84746,0.47637 -0.20628,0.28073 -0.0613,0.75679 l 0.34695,1.1368 -1.09284,0.3335 -0.46835,-1.53504 q -0.30975,-1.01531 0.0802,-1.6175 0.38977,-0.60216 1.60881,-0.97425 z m -3.31392,-5.25746 -2.82179,0.91246 -0.45611,-1.41121 7.46996,-2.41549 0.45618,1.41117 -0.81175,0.26247 q 0.54055,0.0707 0.89447,0.35646 0.35381,0.28581 0.51167,0.77401 0.29995,0.92791 -0.27865,1.68082 -0.57853,0.7529 -1.93144,1.19038 -1.37223,0.44373 -2.27536,0.1593 -0.90157,-0.27938 -1.21244,-1.24131 -0.14068,-0.435 -0.0304,-0.85481 0.11633,-0.41637 0.48605,-0.82445 z m 2.58461,1.34218 q 0.78271,-0.25333 1.14292,-0.65786 0.36024,-0.40484 0.21169,-0.86382 -0.14845,-0.45915 -0.67886,-0.58121 -0.53044,-0.12211 -1.31322,0.13089 -0.78275,0.25334 -1.14137,0.6627 -0.35851,0.40953 -0.21,0.86865 0.14846,0.45912 0.67735,0.57635 0.52884,0.11737 1.31162,-0.13597 z m -0.0859,-7.49659 q 0.39534,0.0429 0.6425,0.23135 0.24686,0.18908 0.36837,0.54496 0.23772,0.69693 -0.15218,1.1255 -0.38848,0.43339 -1.9071,0.95223 l -3.03219,1.03611 -0.39403,-1.15351 3.45506,-1.18064 q 0.60068,-0.2053 0.77132,-0.36546 0.17078,-0.15998 0.0886,-0.40053 -0.0822,-0.24048 -0.32193,-0.26585 -0.23942,-0.0271 -0.83056,0.17622 l -3.45503,1.1806 -0.38889,-1.1391 3.45503,-1.1806 q 0.59111,-0.20193 0.76489,-0.36888 0.17382,-0.16675 0.092,-0.40696 -0.0822,-0.24048 -0.3155,-0.2628 -0.23334,-0.0203 -0.83367,0.18264 l -3.45507,1.1806 -0.39406,-1.15351 5.38204,-1.83907 0.34953,1.02373 -0.55743,0.19043 q 0.35812,0.0135 0.63111,0.21342 0.27764,0.20023 0.38933,0.52717 0.11159,0.32707 0.0102,0.66334 -0.1001,0.33451 -0.3594,0.48769 z m -2.69553,-6.17437 q -0.18058,-0.5018 -0.72826,-0.62843 -0.54278,-0.12853 -1.33107,0.15592 -0.78833,0.28411 -1.1294,0.73075 -0.33613,0.44505 -0.1559,0.94682 0.18228,0.50653 0.7252,0.63493 0.54754,0.1265 1.33587,-0.15762 0.78832,-0.28412 1.12459,-0.72903 0.341,-0.4468 0.1586,-0.95334 z m -2.5635,-1.87293 q 1.29472,-0.46646 2.29047,-0.0693 1.00225,0.40013 1.41013,1.53264 0.40942,1.1373 -0.10922,2.08 -0.51222,0.94572 -1.80694,1.41211 -1.29472,0.46646 -2.29703,0.0663 -0.99575,-0.39713 -1.40533,-1.53437 -0.40773,-1.13256 0.10449,-2.07823 0.51877,-0.94269 1.81349,-1.40914 z m -2.90863,-0.30542 q -0.29691,-0.26788 -0.52094,-0.60101 -0.2242,-0.3335 -0.37695,-0.73704 -0.54343,-1.43438 0.11565,-2.5477 0.65888,-1.11333 2.44434,-1.79003 1.79019,-0.6785 3.0213,-0.28141 1.23101,0.39711 1.77444,1.83139 0.15285,0.40354 0.20797,0.80658 0.0548,0.40267 0.0102,0.79059 l -1.5575,0.59032 q 0.19545,-0.48692 0.21811,-0.88647 0.0304,-0.39672 -0.10787,-0.75758 -0.2915,-0.76941 -1.05338,-0.93149 -0.75539,-0.15931 -1.95677,0.29628 -1.19662,0.45351 -1.66166,1.07519 -0.45845,0.62454 -0.16672,1.39402 0.13696,0.36117 0.41631,0.64055 0.28609,0.28242 0.75543,0.51759 z" /><path
     id="path1522"
     style="font-weight:bold;font-size:8px;line-height:1;font-family:monospace;-inkscape-font-specification:'monospace Bold';text-align:center;letter-spacing:0px;white-space:pre;display:inline;fill:#ffffff;stroke-width:1.54729;stroke-linecap:round"
     d="m 338.01028,43.179928 -1.15142,-2.794038 1.3709,-0.56518 3.01112,7.306763 -1.37091,0.56518 -0.32122,-0.779509 q -0.0328,0.546466 -0.29025,0.921742 -0.2526,0.373327 -0.72677,0.568816 -0.90142,0.371613 -1.69709,-0.146354 -0.79565,-0.51804 -1.33752,-1.832838 -0.54958,-1.333618 -0.34137,-2.254507 0.21291,-0.922797 1.14718,-1.30799 0.42253,-0.174223 0.84682,-0.09095 0.42703,0.07665 0.86052,0.408887 z m -1.13371,2.686843 q 0.31347,0.760733 0.74505,1.088223 0.43156,0.327544 0.87758,0.143614 0.44601,-0.18383 0.52618,-0.72236 0.0802,-0.538481 -0.23329,-1.299203 -0.31348,-0.760733 -0.74976,-1.086302 -0.43625,-0.325515 -0.88226,-0.141685 -0.44602,0.183897 -0.5215,0.720428 -0.0754,0.536539 0.23799,1.297265 z m -2.73512,-0.259661 q -0.31232,-0.108607 -0.65967,-0.08023 -0.34265,0.02604 -0.70163,0.181327 -0.43356,0.187211 -0.69348,0.482065 -0.25727,0.288175 -0.30952,0.653811 -0.0355,0.225533 0.0264,0.497449 0.0667,0.269944 0.28815,0.782863 l 1.03869,2.406112 -1.36598,0.589929 -2.25452,-5.222593 1.36598,-0.589925 0.35027,0.811372 q 0.008,-0.534214 0.31747,-0.955906 0.3082,-0.426345 0.86301,-0.665922 0.27974,-0.120817 0.57564,-0.165599 0.2986,-0.05151 0.59737,-0.02571 z m -8.48897,3.181379 q -0.48594,0.219479 -0.56921,0.775442 -0.0854,0.55131 0.25947,1.315069 0.34488,0.763784 0.81694,1.068829 0.46997,0.300452 0.9559,0.08091 0.49057,-0.221576 0.57593,-0.772902 0.0833,-0.555926 -0.26157,-1.3197 -0.34488,-0.76377 -0.81484,-1.064199 -0.47208,-0.305018 -0.96262,-0.08344 z m -1.66572,2.703057 q -0.56643,-1.254437 -0.24878,-2.278487 0.32021,-1.030774 1.41702,-1.526244 1.10146,-0.497574 2.08171,-0.05425 0.98278,0.436608 1.54923,1.691021 0.56643,1.254445 0.24622,2.285225 -0.31764,1.024054 -1.41912,1.521614 -1.09682,0.495468 -2.07961,0.05888 -0.98024,-0.443328 -1.54668,-1.697752 z m -0.19886,2.903522 q -0.24669,0.357877 -0.59156,0.638559 -0.34271,0.285265 -0.79278,0.497655 -1.18948,0.561294 -2.19803,0.1611 -1.00854,-0.400156 -1.60654,-1.668014 -0.60017,-1.272424 -0.26308,-2.307589 0.33491,-1.039768 1.52442,-1.601069 0.41334,-0.195058 0.84002,-0.278466 0.43128,-0.08557 0.90781,-0.06332 l 0.58068,1.231075 q -0.41313,-0.11395 -0.82956,-0.08029 -0.41407,0.02706 -0.79062,0.204597 -0.65675,0.309923 -0.8132,0.894811 -0.15644,0.584889 0.20753,1.356607 0.364,0.771705 0.91264,1.018261 0.54871,0.246402 1.20538,-0.06332 0.39036,-0.184167 0.66955,-0.47321 0.27702,-0.293621 0.45447,-0.703037 z m -5.66072,2.687285 q -0.24074,0.361943 -0.58087,0.648298 -0.33789,0.290913 -0.78442,0.510738 -1.18002,0.580958 -2.19503,0.197527 -1.01501,-0.383424 -1.63399,-1.641131 -0.62121,-1.262278 -0.30134,-2.302909 0.31767,-1.045175 1.49766,-1.626138 0.41005,-0.201857 0.83529,-0.292368 0.42983,-0.09274 0.90663,-0.0784 l 0.60102,1.221273 q -0.41492,-0.107083 -0.83079,-0.0665 -0.4135,0.03382 -0.78712,0.217686 -0.65153,0.32078 -0.79826,0.908172 -0.1467,0.587399 0.23002,1.352967 0.37676,0.76558 0.9294,1.002989 0.55267,0.237372 1.20416,-0.08337 0.38728,-0.190695 0.66164,-0.484241 0.27211,-0.298152 0.44274,-0.710485 z m -8.3336,1.498229 q -0.741,0.380217 -0.93734,0.720689 -0.1963,0.340506 0.0402,0.801446 0.17614,0.343455 0.48378,0.442476 0.30756,0.09904 0.65553,-0.07949 0.52412,-0.268895 0.61161,-0.810453 0.0852,-0.546066 -0.27868,-1.255581 l -0.0463,-0.09038 z m 1.58154,-1.456514 1.48106,2.887772 -1.31481,0.674609 -0.28973,-0.564906 q -0.068,0.457281 -0.35028,0.830462 -0.2823,0.373197 -0.73415,0.605001 -0.86299,0.44279 -1.58054,0.234429 -0.71303,-0.210685 -1.13256,-1.02867 -0.45428,-0.885767 -0.096,-1.600474 0.35588,-0.719269 1.55781,-1.335877 l 0.91721,-0.470606 -0.11355,-0.221441 q -0.16455,-0.320882 -0.48297,-0.362972 -0.31618,-0.04894 -0.76801,0.182849 -0.47442,0.243393 -0.85915,0.594941 -0.38253,0.3447 -0.73153,0.85487 l -0.57944,-1.129816 q 0.34552,-0.405632 0.75334,-0.723324 0.40777,-0.317702 0.91383,-0.577333 1.23348,-0.63288 1.98776,-0.386251 0.75879,0.244305 1.42169,1.536797 z m -9.29195,-0.06 1.32767,2.486531 -1.14669,0.612526 -1.32768,-2.486531 z m -4.08822,5.289898 -1.46719,-2.641864 1.29625,-0.720179 3.83685,6.908815 -1.29623,0.720182 -0.40932,-0.737063 q 0.0304,0.546604 -0.18152,0.949155 -0.2077,0.400031 -0.65606,0.64918 -0.85232,0.473529 -1.70261,0.05118 -0.85027,-0.422413 -1.54073,-1.66558 -0.7003,-1.260986 -0.60011,-2.199791 0.10459,-0.941261 0.98803,-1.432053 0.39956,-0.221983 0.8306,-0.18843 0.43304,0.02638 0.90209,0.306405 z m -0.81499,2.800079 q 0.39948,0.719296 0.86604,0.994604 0.46666,0.275152 0.8883,0.04109 0.42172,-0.234294 0.43893,-0.778504 0.0172,-0.544131 -0.3822,-1.263431 -0.39947,-0.719295 -0.87047,-0.992145 -0.47113,-0.272648 -0.89273,-0.03852 -0.42173,0.234293 -0.43472,0.775915 -0.0129,0.54166 0.38659,1.260969 z m -11.44404,7.647336 -1.90319,-3.175883 1.27618,-0.765085 1.78571,2.979833 q 0.31588,0.527146 0.59975,0.664894 0.28392,0.137661 0.62792,-0.06853 0.34408,-0.206254 0.35302,-0.626106 0.0132,-0.422496 -0.31571,-0.97138 l -1.67867,-2.80123 1.27618,-0.765085 2.92397,4.879266 -1.27618,0.765089 -0.43338,-0.723172 q 0.10775,0.486112 -0.0858,0.904124 -0.18931,0.415349 -0.64651,0.689581 -0.69688,0.417789 -1.33078,0.170132 -0.62951,-0.250293 -1.17256,-1.156424 z m -0.38848,2.23538 q -0.32717,0.454754 -0.72794,0.829664 -0.40076,0.374911 -0.9096,0.691432 -1.21172,0.753742 -2.2565,0.506457 -1.04317,-0.254284 -1.80211,-1.474864 -0.73482,-1.181778 -0.5446,-2.251125 0.19022,-1.069362 1.25532,-1.73192 1.07373,-0.667911 2.0614,-0.397075 0.9893,0.263855 1.70803,1.419746 l 0.31912,0.51324 -3.27291,2.035928 q 0.35831,0.566624 0.86466,0.640457 0.50635,0.07376 1.1661,-0.33661 0.43553,-0.270924 0.78035,-0.65886 0.34484,-0.387963 0.63727,-0.946703 z m -2.75895,-2.05199 q -0.31974,-0.494942 -0.72805,-0.593845 -0.40666,-0.105969 -0.88966,0.194552 -0.43552,0.270924 -0.528,0.699262 -0.0952,0.424035 0.16049,0.940919 z m -5.65649,6.748402 1.6072,2.492832 -1.24616,0.803759 -4.25468,-6.599183 1.24617,-0.803776 0.46233,0.71713 q -0.0707,-0.540681 0.11458,-0.956292 0.1851,-0.415647 0.61624,-0.693627 0.81939,-0.528505 1.69558,-0.162927 0.87618,0.365583 1.64676,1.560785 0.78158,1.21227 0.73899,2.158365 -0.0386,0.943351 -0.88763,1.491122 -0.38406,0.247722 -0.81795,0.249582 -0.43234,-0.005 -0.92149,-0.257767 z m 0.63213,-2.843317 q -0.44583,-0.691512 -0.92948,-0.935551 -0.48371,-0.243967 -0.88908,0.01759 -0.40547,0.261522 -0.38694,0.805606 0.0182,0.544094 0.4643,1.235618 0.44583,0.691513 0.93373,0.932825 0.48772,0.241702 0.89335,-0.01996 0.40541,-0.261521 0.38265,-0.802862 -0.0227,-0.541352 -0.46855,-1.232859 z m -10.06684,5.645835 2.10081,3.036373 -1.21513,0.841069 -1.97077,-2.848427 q -0.35254,-0.509531 -0.64897,-0.625547 -0.29508,-0.123219 -0.62084,0.102349 -0.32987,0.22834 -0.31682,0.657804 0.0172,0.426562 0.38137,0.952842 l 1.8523,2.677183 -1.21513,0.841069 -3.23645,-4.67775 1.21512,-0.841073 0.48548,0.701654 q -0.1393,-0.478008 0.0264,-0.907804 0.1658,-0.429786 0.60843,-0.736146 0.66394,-0.459554 1.30848,-0.250935 0.64167,0.204394 1.2456,1.077332 z m -8.65326,7.19007 -2.78554,-3.889635 1.21784,-0.872515 3.00436,4.195211 q 0.33119,0.462459 0.75576,0.558116 0.42164,0.09152 0.83856,-0.207171 0.41693,-0.298726 0.46595,-0.727446 0.0461,-0.432879 -0.2851,-0.895321 l -3.00437,-4.195196 1.21786,-0.872519 2.78553,3.88965 q 0.89895,1.25525 0.8075,2.182951 -0.0914,0.927708 -1.19783,1.720356 -1.10225,0.789699 -2.01398,0.580705 -0.90758,-0.21191 -1.80653,-1.467203 z" /><path
     id="path1671"
     style="font-weight:bold;font-size:8px;line-height:1;font-family:monospace;-inkscape-font-specification:'monospace Bold';text-align:center;letter-spacing:0px;white-space:pre;shape-inside:url(#rect927);display:inline;fill:#ffffff;stroke-width:1.54729;stroke-linecap:round"
     d="m 554.2008,411.3525 v 1.30023 q -0.41114,-0.26416 -0.85819,-0.39627 -0.44181,-0.13699 -0.88869,-0.13699 -0.4976,0 -0.75154,0.14713 -0.25361,0.14206 -0.25361,0.42665 0,0.40612 1.08668,0.6603 l 0.0561,0.0169 0.42655,0.10146 q 0.81247,0.19314 1.18824,0.62476 0.38077,0.42664 0.38077,1.158 0,0.87873 -0.57886,1.3206 -0.57387,0.43679 -1.73166,0.43679 -0.51289,0 -1.05115,-0.0917 -0.53829,-0.0866 -1.09176,-0.26416 v -1.30026 q 0.49257,0.27937 1.00036,0.42664 0.51286,0.14713 0.9902,0.14713 0.52307,0 0.79218,-0.15221 0.26918,-0.1522 0.26918,-0.44189 0,-0.28446 -0.1931,-0.43683 -0.18767,-0.1522 -0.90383,-0.32505 l -0.41118,-0.0917 q -0.85311,-0.19314 -1.24413,-0.6044 -0.39105,-0.41125 -0.39105,-1.1022 0,-0.82281 0.59412,-1.27994 0.59415,-0.45711 1.67069,-0.45711 0.48242,0 0.95977,0.0812 0.48239,0.0761 0.93438,0.23372 z m -10.17134,-0.17791 h 2.94525 v 4.54584 h 1.84843 v 1.14279 h -5.18977 v -1.14279 h 1.85347 v -3.40302 h -1.45738 z m 1.45738,-2.7681 h 1.48787 v 1.73703 h -1.48787 z m -2.9859,2.7681 -1.80779,5.68863 h -1.83318 l -1.80777,-5.68863 h 1.50817 l 1.21366,4.43917 1.21873,-4.43917 z m -8.56163,3.01703 q -0.83279,0 -1.16287,0.21309 -0.33004,0.21342 -0.33004,0.73136 0,0.38599 0.22859,0.6146 0.2286,0.22865 0.61955,0.22865 0.58908,0 0.91406,-0.44187 0.3253,-0.44697 0.3253,-1.24443 v -0.10146 z m 2.07186,-0.57394 v 3.24554 h -1.47774 v -0.63487 q -0.26917,0.37571 -0.69059,0.57899 -0.42145,0.20328 -0.92927,0.20328 -0.96991,0 -1.51328,-0.51299 -0.53829,-0.51303 -0.53829,-1.43236 0,-0.99548 0.64495,-1.46782 0.64487,-0.47745 1.99566,-0.47745 h 1.03082 v -0.24894 q 0,-0.36076 -0.26411,-0.54348 -0.25869,-0.18805 -0.76678,-0.18805 -0.53318,0 -1.03592,0.13699 -0.49761,0.13224 -1.04096,0.42664 v -1.26975 q 0.49253,-0.20328 1.00038,-0.29968 0.50778,-0.0964 1.0765,-0.0964 1.38633,0 1.94495,0.5638 0.56361,0.5638 0.56361,2.01641 z m -13.11666,-2.26528 v 1.30023 q -0.41114,-0.26416 -0.85816,-0.39627 -0.44177,-0.13699 -0.88865,-0.13699 -0.49768,0 -0.7516,0.14713 -0.25362,0.14206 -0.25362,0.42665 0,0.40608 1.08672,0.6603 l 0.0561,0.0169 0.42655,0.10146 q 0.81251,0.19314 1.18827,0.62476 0.38078,0.42664 0.38078,1.158 0,0.87873 -0.57891,1.3206 -0.57382,0.43679 -1.73159,0.43679 -0.51289,0 -1.05121,-0.0917 -0.53825,-0.0866 -1.09175,-0.26416 v -1.30027 q 0.49257,0.27938 1.00038,0.42665 0.51289,0.14713 0.99021,0.14713 0.52303,0 0.79221,-0.15221 0.26918,-0.1522 0.26918,-0.44186 0,-0.28446 -0.19309,-0.43683 -0.18769,-0.1522 -0.90391,-0.32538 l -0.41114,-0.0917 q -0.85311,-0.19312 -1.24413,-0.60441 -0.39105,-0.41123 -0.39105,-1.10217 0,-0.82282 0.59411,-1.27994 0.59412,-0.45712 1.67069,-0.45712 0.48239,0 0.95975,0.0812 0.48245,0.0761 0.93437,0.23371 z m -5.85501,1.8183 v 3.69252 h -1.4777 v -3.46394 q 0,-0.61965 -0.17754,-0.88377 -0.17279,-0.26924 -0.56875,-0.26924 -0.40133,0 -0.63477,0.36073 -0.22859,0.36076 -0.22859,1.00059 v 3.25573 h -1.4777 v -5.68863 h 1.4777 v 0.85329 q 0.15758,-0.47234 0.53829,-0.73136 0.38077,-0.25908 0.91912,-0.25908 0.8074,0 1.21874,0.5384 0.41117,0.53328 0.41117,1.59483 z m -8.1452,1.02092 q -0.83279,0 -1.16287,0.21309 -0.32971,0.21342 -0.32971,0.73136 0,0.38599 0.22859,0.6146 0.2286,0.22865 0.61952,0.22865 0.58911,0 0.91408,-0.44187 0.32498,-0.44697 0.32498,-1.24443 v -0.10146 z m 2.07184,-0.57394 v 3.24554 h -1.47773 v -0.63487 q -0.26918,0.37571 -0.69059,0.57899 -0.42145,0.20328 -0.92927,0.20328 -0.96992,0 -1.51327,-0.51299 -0.53829,-0.51303 -0.53829,-1.43236 0,-0.99548 0.64491,-1.46782 0.6449,-0.47745 1.9957,-0.47745 h 1.03081 v -0.24894 q 0,-0.36076 -0.2641,-0.54348 -0.2587,-0.18805 -0.76678,-0.18805 -0.53322,0 -1.03593,0.13699 -0.49767,0.13224 -1.04103,0.42664 v -1.26975 q 0.4926,-0.20328 1.00038,-0.29968 0.50786,-0.0964 1.07658,-0.0964 1.38629,0 1.9449,0.5638 0.56365,0.5638 0.56365,2.01641 z m -6.85539,-2.26528 v 1.30023 q -0.41113,-0.26416 -0.85818,-0.39627 -0.44181,-0.13699 -0.88869,-0.13699 -0.49761,0 -0.75153,0.14713 -0.25362,0.14206 -0.25362,0.42665 0,0.40608 1.08671,0.6603 l 0.0561,0.0169 0.42655,0.10146 q 0.81247,0.19314 1.18824,0.62476 0.38076,0.42664 0.38076,1.158 0,0.87873 -0.57889,1.3206 -0.57383,0.43679 -1.7316,0.43679 -0.51292,0 -1.05117,-0.0917 -0.53826,-0.0866 -1.0918,-0.26416 v -1.30027 q 0.49257,0.27938 1.00035,0.42665 0.51289,0.14713 0.99025,0.14713 0.52304,0 0.79221,-0.15221 0.26917,-0.1522 0.26917,-0.44186 0,-0.28446 -0.19308,-0.43683 -0.18768,-0.1522 -0.90391,-0.32538 l -0.41117,-0.0917 q -0.85312,-0.19312 -1.2441,-0.60441 -0.39105,-0.41123 -0.39105,-1.10217 0,-0.82282 0.59415,-1.27994 0.59412,-0.45712 1.67066,-0.45712 0.48246,0 0.95976,0.0812 0.4824,0.0761 0.93438,0.23371 z m -16.74236,3.52489 v -3.7027 h 1.48785 v 3.47416 q 0,0.61453 0.1728,0.87865 0.17246,0.26417 0.57383,0.26417 0.40133,0 0.62454,-0.35559 0.22861,-0.35561 0.22861,-0.99555 v -3.26588 h 1.48784 v 5.68864 h -1.48784 v -0.84315 q -0.15759,0.47241 -0.53833,0.73143 -0.37563,0.25874 -0.90894,0.25874 -0.81251,0 -1.22888,-0.53836 -0.41117,-0.53836 -0.41117,-1.59486 z m -3.94567,-2.63098 q -0.53318,0 -0.8379,0.47234 -0.30468,0.46731 -0.30468,1.30534 0,0.83808 0.30468,1.31042 0.30469,0.4673 0.8379,0.4673 0.53825,0 0.84297,-0.4673 0.30468,-0.47234 0.30468,-1.31042 0,-0.83803 -0.30468,-1.30534 -0.30469,-0.47234 -0.84297,-0.47234 z m -2.63046,1.77768 q 0,-1.37644 0.71095,-2.17892 0.71599,-0.8076 1.91951,-0.8076 1.20855,0 1.91951,0.8076 0.71602,0.80248 0.71602,2.17892 0,1.37644 -0.71602,2.18404 -0.71096,0.80249 -1.91951,0.80249 -1.20352,0 -1.91951,-0.80249 -0.71095,-0.8076 -0.71095,-2.18404 z m -9.51629,-4.46453 v 1.61513 h 1.94491 v 1.14282 h -1.94491 v 2.69195 q 0,0.38086 0.18261,0.54855 0.18768,0.16269 0.61951,0.16269 h 1.14258 v 1.14279 h -1.2492 q -1.27967,0 -1.73162,-0.40612 -0.45192,-0.41122 -0.45192,-1.51866 v -2.62083 h -1.45238 v -1.14282 h 1.45238 v -1.61513 z m -4.32651,3.61124 v 3.69252 h -1.4777 v -3.46394 q 0,-0.61965 -0.17787,-0.88377 -0.1728,-0.26924 -0.56872,-0.26924 -0.4013,0 -0.63473,0.36073 -0.22859,0.36076 -0.22859,1.00059 v 3.25573 h -1.47774 v -5.68863 h 1.47774 v 0.85329 q 0.15758,-0.47234 0.53824,-0.73136 0.38078,-0.25908 0.91913,-0.25908 0.80743,0 1.21877,0.5384 0.41114,0.53328 0.41114,1.59483 z m -6.10382,3.41317 q -0.518,0.21343 -1.05625,0.31997 -0.53828,0.10655 -1.13751,0.10655 -1.42694,0 -2.18358,-0.76184 -0.75153,-0.76698 -0.75153,-2.20436 0,-1.39169 0.72617,-2.19926 0.72613,-0.8076 1.98045,-0.8076 1.26442,0 1.96015,0.75173 0.70074,0.74664 0.70074,2.10783 v 0.60442 h -3.85424 q 0.003,0.67044 0.39619,1.00059 0.39105,0.33046 1.16792,0.33046 0.51289,0 1.01056,-0.14714 0.49767,-0.14713 1.04103,-0.4673 z m -1.25938,-3.19984 q -0.0102,-0.58917 -0.30469,-0.88885 -0.2898,-0.30475 -0.85822,-0.30475 -0.51285,0 -0.81757,0.3149 -0.30468,0.30982 -0.36066,0.8838 z m -4.75307,-0.63998 q -0.24382,-0.22323 -0.57383,-0.33519 -0.32497,-0.11161 -0.71603,-0.11161 -0.47224,0 -0.82767,0.16776 -0.35041,0.16269 -0.54337,0.47745 -0.12207,0.19313 -0.1728,0.46727 -0.0456,0.27431 -0.0456,0.833 v 2.62083 H 450.466 v -5.68864 h 1.48787 v 0.88377 q 0.21812,-0.48756 0.67027,-0.75172 0.45199,-0.26923 1.05628,-0.26923 0.30469,0 0.59412,0.0761 0.29454,0.071 0.55861,0.21343 z m -6.51006,3.83982 q -0.51799,0.21343 -1.05625,0.31997 -0.53829,0.10655 -1.13751,0.10655 -1.42694,0 -2.18357,-0.76184 -0.75154,-0.76698 -0.75154,-2.20436 0,-1.39169 0.72617,-2.19926 0.72614,-0.8076 1.98044,-0.8076 1.26443,0 1.96016,0.75173 0.70074,0.74664 0.70074,2.10783 v 0.60442 h -3.85423 q 0.003,0.67044 0.39619,1.00059 0.39105,0.33046 1.16791,0.33046 0.51289,0 1.01056,-0.14714 0.49767,-0.14713 1.04104,-0.4673 z m -1.25939,-3.19984 q -0.0102,-0.58917 -0.30467,-0.88885 -0.28981,-0.30475 -0.85823,-0.30475 -0.51289,0 -0.81757,0.3149 -0.30469,0.30982 -0.36065,0.8838 z m -0.31989,-4.84039 h 1.43198 l -1.86872,1.9097 h -1.00038 z m -6.52534,2.13324 v 0.49771 h 1.74687 v 1.14282 h -1.74687 v 4.54581 h -1.48785 v -4.54581 h -1.38125 v -1.14282 h 1.38125 v -0.39628 q 0,-1.02596 0.42656,-1.42213 0.42655,-0.39627 1.58432,-0.39627 h 1.22384 v 1.14285 h -1.16287 q -0.33512,0 -0.45703,0.1221 -0.11666,0.12177 -0.12714,0.45202 z m -6.26124,0 v 0.49771 h 1.74684 v 1.14282 h -1.74684 v 4.54581 h -1.48788 v -4.54581 h -1.38126 v -1.14282 h 1.38126 v -0.39628 q 0,-1.02596 0.42656,-1.42213 0.42655,-0.39627 1.58435,-0.39627 h 1.22381 v 1.14285 h -1.16287 q -0.33512,0 -0.45703,0.1221 -0.11667,0.12177 -0.12714,0.45202 z m -8.89174,0.49771 h 2.94533 v 4.54584 h 1.84839 v 1.14279 h -5.18974 v -1.14279 h 1.85347 v -3.40302 h -1.45745 z m 1.45745,-2.7681 h 1.48788 v 1.73703 h -1.48788 z m -4.82415,3.5757 v -3.02208 h 1.48277 v 7.90311 h -1.48277 v -0.84315 q -0.23875,0.49267 -0.61954,0.74158 -0.37567,0.24894 -0.88869,0.24894 -0.97496,0 -1.51322,-0.78217 -0.53828,-0.78219 -0.53828,-2.20436 0,-1.44246 0.54332,-2.21447 0.54847,-0.77205 1.55896,-0.77205 0.45706,0 0.81762,0.23879 0.36538,0.23372 0.63983,0.70599 z m -2.07185,2.05195 q 0,0.82282 0.27424,1.29012 0.27425,0.46727 0.75664,0.46727 0.48242,0 0.76171,-0.46727 0.27932,-0.4673 0.27932,-1.29012 0,-0.82282 -0.27932,-1.29009 -0.27932,-0.4673 -0.76171,-0.4673 -0.48246,0 -0.75664,0.4673 -0.27424,0.46727 -0.27424,1.29009 z m -2.76759,-0.86344 v 3.69252 h -1.4777 v -3.46394 q 0,-0.61965 -0.17753,-0.88377 -0.1728,-0.26924 -0.56872,-0.26924 -0.40133,0 -0.63477,0.36073 -0.22859,0.36076 -0.22859,1.00059 v 3.25573 h -1.47777 v -5.68863 h 1.47777 v 0.85329 q 0.15758,-0.47234 0.53828,-0.73136 0.38077,-0.25908 0.91913,-0.25908 0.80743,0 1.2187,0.5384 0.41114,0.53328 0.41114,1.59483 z m -10.82642,-2.56999 v -1.3206 h 4.51439 v 1.3206 h -1.50816 v 4.94195 h 1.50816 v 1.32056 h -4.51439 v -1.32056 h 1.5082 v -4.94195 z" /><path
     id="path700"
     d="m 176.25504,163.88174 -2.44819,-2.03644 0.99918,-1.20172 6.40233,5.32555 -0.99919,1.20171 -0.68302,-0.56815 q 0.23831,0.52542 0.18325,1.00179 -0.0516,0.47225 -0.39721,0.88792 -0.65699,0.79017 -1.65336,0.69933 -0.99638,-0.0909 -2.14846,-1.04917 -1.16855,-0.97201 -1.42784,-1.9326 -0.25585,-0.9647 0.4251,-1.78369 0.30796,-0.37039 0.7443,-0.50172 0.43566,-0.13888 1.00309,-0.0429 z m 0.26616,3.06184 q 0.66657,0.55445 1.2299,0.6471 0.56332,0.0926 0.8884,-0.29832 0.32507,-0.39097 0.13472,-0.93221 -0.19035,-0.54122 -0.8569,-1.09568 -0.66658,-0.55446 -1.23332,-0.64299 -0.56675,-0.0885 -0.89183,0.30245 -0.32507,0.39097 -0.1313,0.92808 0.19376,0.53712 0.86033,1.09157 z m -2.67554,1.10366 q -0.34448,0.0525 -0.65427,0.24979 -0.30644,0.19309 -0.56475,0.51419 -0.31199,0.38785 -0.40924,0.7905 -0.0981,0.39513 0.0328,0.76165 0.0779,0.2276 0.26954,0.45049 0.19495,0.21874 0.6536,0.58784 l 2.15146,1.73143 -0.98295,1.22192 -4.66983,-3.75815 0.98295,-1.22191 0.72549,0.58385 q -0.25602,-0.50145 -0.17425,-1.0471 0.0776,-0.549 0.47681,-1.04527 0.20127,-0.25023 0.45506,-0.43761 0.25294,-0.19491 0.54413,-0.3178 z m -6.34752,7.14004 q -0.34514,0.44352 -0.1496,1.00271 0.19129,0.55592 0.88811,1.09839 0.69681,0.54247 1.28678,0.59479 0.58575,0.0491 0.93089,-0.39448 0.34842,-0.44774 0.15711,-1.00365 -0.19553,-0.5592 -0.89234,-1.10168 -0.6968,-0.54247 -1.28255,-0.5915 -0.58997,-0.0524 -0.93841,0.39542 z m -0.22461,3.33873 q -1.14446,-0.89097 -1.35152,-2.00179 -0.208,-1.11834 0.57102,-2.11942 0.78232,-1.00531 1.91397,-1.07392 1.13073,-0.0761 2.27519,0.81485 1.14446,0.89097 1.35246,2.00931 0.20705,1.11082 -0.57525,2.11612 -0.77903,1.00109 -1.90975,1.07721 -1.13166,0.0687 -2.27612,-0.82236 z m 1.24205,2.80289 q -0.0544,0.45488 -0.23814,0.88597 -0.17953,0.43432 -0.49495,0.8534 -0.83363,1.10757 -1.97052,1.2297 -1.13689,0.12214 -2.31692,-0.7664 -1.1843,-0.89176 -1.37813,-2.0226 -0.19809,-1.13405 0.63553,-2.24162 0.28967,-0.38487 0.64661,-0.67221 0.36015,-0.29158 0.81542,-0.50489 l 1.14582,0.86278 q -0.44115,0.0966 -0.81297,0.33256 -0.37288,0.2284 -0.63681,0.57908 -0.46027,0.61151 -0.31902,1.23375 0.14122,0.62224 0.8595,1.16308 0.71828,0.54085 1.35091,0.50131 0.63263,-0.0396 1.09289,-0.65106 0.27357,-0.36348 0.39206,-0.77007 0.11419,-0.40981 0.0786,-0.87878 z m -3.96175,5.28832 q -0.0471,0.4557 -0.2239,0.88968 -0.17252,0.43714 -0.48119,0.86124 -0.81574,1.12081 -1.95053,1.26118 -1.13478,0.14038 -2.32892,-0.7291 -1.19846,-0.87261 -1.41042,-2.0002 -0.21628,-1.13073 0.59947,-2.25155 0.28345,-0.38946 0.63573,-0.68249 0.35543,-0.29734 0.80722,-0.51792 l 1.15952,0.84427 q -0.43953,0.1037 -0.80753,0.34555 -0.36916,0.23436 -0.62743,0.58923 -0.4504,0.61883 -0.29921,1.23872 0.1512,0.61989 0.87807,1.14913 0.72686,0.52925 1.35878,0.47956 0.63191,-0.0497 1.0823,-0.66852 0.26773,-0.36784 0.37964,-0.77628 0.10761,-0.4116 0.0645,-0.87992 z m -7.03801,5.48309 q -0.50504,0.71793 -0.5214,1.13184 -0.0162,0.41392 0.43008,0.7281 0.33261,0.23409 0.66816,0.17571 0.33552,-0.0584 0.57266,-0.39546 0.35722,-0.5078 0.17354,-1.05595 -0.18805,-0.55122 -0.8752,-1.03481 l -0.0875,-0.0616 z m 0.7619,-2.13412 2.79671,1.96825 -0.89616,1.27389 -0.54708,-0.38503 q 0.16066,0.45995 0.0801,0.94649 -0.0806,0.48656 -0.3885,0.92432 -0.58819,0.83612 -1.35975,0.99343 -0.76848,0.15291 -1.56066,-0.4046 -0.85784,-0.60372 -0.87377,-1.44614 -0.0203,-0.84549 0.79887,-2.00994 l 0.62515,-0.88865 -0.21446,-0.15092 q -0.31074,-0.2187 -0.62844,-0.10194 -0.31899,0.10927 -0.62696,0.54704 -0.32334,0.45965 -0.51006,0.9762 -0.18802,0.50909 -0.26366,1.15615 l -1.09418,-0.77005 q 0.12367,-0.54784 0.34845,-1.04412 0.22481,-0.49629 0.56971,-0.98658 0.84072,-1.19509 1.66529,-1.33472 0.82765,-0.14402 2.07938,0.73692 z m -8.69815,4.49607 2.45634,1.67008 -0.77018,1.13325 -2.45634,-1.67007 z m -3.46949,7.76275 4.29949,2.82251 0.23493,-0.358 q 0.51093,-0.77864 0.24056,-1.42991 -0.27482,-0.65423 -1.4515,-1.42668 -1.16771,-0.76656 -1.87266,-0.75556 -0.70496,0.0112 -1.21591,0.78964 z m -2.05633,0.53883 0.92791,-1.41406 q 1.07474,-1.63783 2.33046,-1.8443 1.25124,-0.2094 3.02293,0.95366 1.77617,1.16601 2.09083,2.40339 0.31016,1.23445 -0.76456,2.87227 l -0.92791,1.41407 z"
     style="font-weight:bold;font-size:3.24105px;line-height:1;font-family:monospace;-inkscape-font-specification:'monospace Bold';text-align:center;letter-spacing:0px;text-anchor:middle;white-space:pre;display:inline;fill:#ffffff;stroke-width:4.02492;stroke-linecap:round" /><path
     id="path814"
     style="font-weight:bold;font-size:3.24106px;line-height:1;font-family:monospace;-inkscape-font-specification:'monospace Bold';text-align:center;letter-spacing:0px;text-anchor:middle;white-space:pre;display:inline;fill:#ffffff;stroke-width:4.02492;stroke-linecap:round"
     d="m 809.84999,201.57425 2.71564,-1.66298 0.81595,1.33299 -7.10174,4.34892 -0.81594,-1.333 0.75764,-0.46395 q -0.57406,0.0565 -1.00728,-0.1489 -0.43042,-0.20087 -0.71265,-0.66193 -0.53652,-0.87649 -0.12984,-1.79081 0.40666,-0.91431 1.68461,-1.69689 1.29621,-0.79376 2.28896,-0.73013 0.99555,0.0682 1.55161,0.97664 0.2516,0.41085 0.23537,0.86634 -0.0102,0.45725 -0.28236,0.96369 z m -2.98398,-0.73339 q -0.73939,0.45278 -1.00839,0.95643 -0.26919,0.50365 -0.003,0.93733 0.26546,0.43367 0.83905,0.42762 0.57358,-0.006 1.31294,-0.45883 0.73939,-0.45278 1.00559,-0.96099 0.26614,-0.50822 7.5e-4,-0.94189 -0.26546,-0.43369 -0.83625,-0.42307 -0.57077,0.0105 -1.31017,0.4634 z m -0.18396,-2.88943 q 0.0612,-0.34314 -0.0271,-0.69999 -0.0842,-0.35232 -0.30502,-0.70028 -0.26681,-0.42026 -0.61664,-0.64191 -0.34249,-0.21999 -0.73158,-0.21387 -0.24043,5.7e-4 -0.51319,0.1103 -0.26986,0.11426 -0.76675,0.42983 l -2.33129,1.48037 -0.84041,-1.32405 5.06012,-3.21319 0.84044,1.32405 -0.78613,0.49919 q 0.55706,-0.0811 1.04726,0.17189 0.49473,0.25012 0.83607,0.78788 0.17213,0.27113 0.26783,0.57175 0.10314,0.30228 0.12579,0.61758 z m -4.71594,-8.30715 q -0.30874,-0.46952 -0.9011,-0.46423 -0.58779,0.003 -1.32549,0.48779 -0.73767,0.48541 -0.97698,1.02732 -0.23469,0.53896 0.0741,1.00849 0.31178,0.47401 0.89958,0.47165 0.59225,-0.005 1.32992,-0.49072 0.7377,-0.48542 0.97251,-1.02439 0.23943,-0.5419 -0.0723,-1.01591 z m -3.0884,-1.28666 q 1.21161,-0.79727 2.32977,-0.63606 1.12557,0.16273 1.82266,1.22254 0.70006,1.06426 0.401,2.15808 -0.29185,1.09534 -1.50324,1.89261 -1.2116,0.79727 -2.33718,0.63453 -1.11816,-0.1612 -1.81822,-1.22548 -0.69709,-1.0598 -0.40542,-2.15514 0.29893,-1.09381 1.51063,-1.89108 z m -3.05394,0.27336 q -0.41313,-0.19773 -0.76214,-0.51044 -0.35346,-0.30968 -0.64877,-0.74319 -0.78045,-1.14568 -0.53047,-2.26169 0.2499,-1.11602 1.47059,-1.94788 1.22503,-0.83487 2.35794,-0.6548 1.1373,0.17706 1.91775,1.32274 0.2712,0.39811 0.42845,0.82855 0.16029,0.43487 0.21575,0.93463 l -1.18522,0.80776 q 0.0504,-0.44888 -0.0534,-0.87689 -0.0964,-0.42661 -0.34343,-0.78934 -0.43092,-0.63255 -1.06538,-0.69889 -0.6345,-0.0663 -1.3775,0.44002 -0.74298,0.50635 -0.90898,1.11822 -0.16604,0.61186 0.26478,1.24443 0.25599,0.37599 0.60294,0.61894 0.35125,0.23994 0.80665,0.35706 z m -3.73121,-5.45072 q -0.41631,-0.19102 -0.7703,-0.49806 -0.35838,-0.30393 -0.66067,-0.73262 -0.79884,-1.13292 -0.56693,-2.25283 0.23198,-1.1199 1.43899,-1.97137 1.2114,-0.85455 2.34704,-0.69279 1.14002,0.15867 1.93885,1.2916 0.27764,0.39368 0.44178,0.82153 0.16739,0.43222 0.23097,0.93103 l -1.17208,0.82678 q 0.0433,-0.44963 -0.0676,-0.87591 -0.10314,-0.425 -0.35611,-0.78368 -0.44107,-0.62552 -1.07654,-0.68161 -0.63548,-0.056 -1.3702,0.46221 -0.73473,0.51828 -0.89083,1.13275 -0.15623,0.61447 0.28508,1.23999 0.26208,0.37181 0.61285,0.60912 0.35507,0.23423 0.8123,0.344 z m -2.92841,-8.42848 q -0.51733,-0.70916 -0.90391,-0.8577 -0.38662,-0.14856 -0.82758,0.17324 -0.3287,0.23977 -0.38114,0.57634 -0.0528,0.33654 0.19038,0.6695 0.36589,0.50159 0.94388,0.50385 0.58231,-8.4e-4 1.26107,-0.49624 l 0.0866,-0.0631 z m 1.77548,1.40768 -2.76248,2.01605 -0.91794,-1.2583 0.54042,-0.39437 q -0.48709,0.004 -0.92183,-0.22841 -0.43474,-0.23271 -0.75018,-0.6651 -0.60247,-0.82589 -0.50335,-1.60722 0.10212,-0.777 0.88476,-1.34806 0.84733,-0.61837 1.65,-0.36264 0.80696,0.2526 1.64604,1.40278 l 0.64031,0.87779 0.21169,-0.15461 q 0.30704,-0.22401 0.29859,-0.56245 -8.4e-4,-0.33724 -0.31618,-0.76966 -0.33106,-0.45402 -0.76022,-0.79692 -0.42152,-0.34172 -1.00979,-0.62141 l 1.0808,-0.78875 q 0.47891,0.29325 0.87648,0.66569 0.39758,0.37247 0.75086,0.85676 0.86113,1.18046 0.72823,2.00631 -0.12986,0.83018 -1.36614,1.73251 z m -2.40463,-7.30992 -1.09362,0.82535 q -0.0389,-0.51375 -0.21169,-0.97358 -0.16503,-0.45878 -0.44874,-0.83479 -0.31584,-0.41874 -0.60094,-0.53888 -0.28068,-0.12336 -0.52,0.0571 -0.34178,0.25793 0.13425,1.33351 l 0.0237,0.0566 0.18531,0.4234 q 0.35342,0.80617 0.22894,1.3964 -0.117,0.59128 -0.73223,1.05554 -0.73905,0.55775 -1.47817,0.35114 -0.73164,-0.20558 -1.46654,-1.17977 -0.32565,-0.43156 -0.59036,-0.94251 -0.26918,-0.50773 -0.47086,-1.08631 l 1.09362,-0.82534 q 0.0778,0.59178 0.27628,1.11255 0.20154,0.52506 0.50467,0.9267 0.33207,0.4401 0.63101,0.56985 0.29893,0.12974 0.54247,-0.054 0.23909,-0.18055 0.24484,-0.43964 0.0102,-0.25482 -0.30029,-0.9669 l -0.18511,-0.40413 q -0.37918,-0.84035 -0.28135,-1.43051 0.0977,-0.59015 0.67882,-1.02861 0.69205,-0.52229 1.45366,-0.31253 0.76161,0.20977 1.44493,1.1156 0.30638,0.40592 0.5409,0.85915 0.24212,0.45428 0.39656,0.93451 z m -8.02773,-1.46936 q -0.51296,-0.29219 -0.95047,-0.67042 -0.43755,-0.37822 -0.82596,-0.87623 -0.92495,-1.18594 -0.78248,-2.30862 0.15015,-1.12177 1.3441,-2.0535 1.15614,-0.90211 2.29777,-0.82207 1.1416,0.08 1.95465,1.12246 0.8196,1.05088 0.64609,2.11635 -0.16604,1.06639 -1.29685,1.94874 l -0.50214,0.39179 -2.49837,-3.20329 q -0.55368,0.43882 -0.57447,0.97779 -0.0202,0.53898 0.48279,1.1847 0.33241,0.42626 0.7774,0.74438 0.44495,0.3181 1.06302,0.56228 z m 1.84196,-3.12083 q 0.4829,-0.39036 0.54093,-0.82939 0.0656,-0.43811 -0.30299,-0.91079 -0.33242,-0.42626 -0.79158,-0.47536 -0.45489,-0.0524 -0.96788,0.27323 z m 3.81383,-3.40351 0.92825,1.19016 -2.79788,-0.31517 -0.64843,-0.83141 z m -6.99749,-3.01714 2.4787,-1.99924 0.98091,1.21668 -6.48203,5.22825 -0.98094,-1.21668 0.69155,-0.55776 q -0.56199,0.13008 -1.01804,-0.0179 -0.45273,-0.14368 -0.79204,-0.56453 -0.64498,-0.8 -0.35954,-1.75912 0.28541,-0.95912 1.45187,-1.89994 1.18309,-0.95425 2.17576,-1.01915 0.99602,-0.0607 1.66454,0.76846 0.30232,0.37499 0.34506,0.82876 0.0504,0.45456 -0.1559,0.99205 z m -3.0536,-0.34255 q -0.67486,0.54432 -0.87671,1.07846 -0.20189,0.53412 0.11733,0.92996 0.31924,0.39583 0.88714,0.31587 0.56805,-0.0799 1.24288,-0.62428 0.67487,-0.54433 0.87338,-1.08263 0.19849,-0.53829 -0.12073,-0.93413 -0.31922,-0.39583 -0.88379,-0.31171 -0.56466,0.0841 -1.23953,0.62845 z m -5.44948,-7.99055 -2.94775,2.53973 -1.01638,-1.18015 2.76529,-2.38254 q 0.49465,-0.42619 0.58325,-0.74979 0.096,-0.32305 -0.17618,-0.63937 -0.27594,-0.32038 -0.72447,-0.25892 -0.44506,0.0655 -0.95593,0.50571 l -2.59904,2.23929 -1.01638,-1.18015 4.54122,-3.91265 1.01638,1.18014 -0.68116,0.5869 q 0.48532,-0.19918 0.95409,-0.0732 0.46872,0.12598 0.83897,0.55588 0.55533,0.64482 0.40844,1.34363 -0.14271,0.6953 -0.99025,1.42544 z m -7.16923,-2.34401 -3.30922,-3.71821 5.96788,-5.31364 3.30922,3.7182 -1.03931,0.92535 -2.25949,-2.53877 -1.28712,1.146 2.04602,2.2989 -1.03928,0.92535 -2.04605,-2.29889 -1.56291,1.39158 2.25953,2.53878 z" /></svg>
