<?xml version="1.0" encoding="UTF-8" standalone="no"?>
<!-- Created with Inkscape (http://www.inkscape.org/) -->

<svg
   version="1.1"
   id="svg1"
   xml:space="preserve"
   width="980"
   height="735"
   sodipodi:docname="spectrum_en.svg"
   inkscape:version="1.2.2 (b0a8486541, 2022-12-01)"
   xmlns:inkscape="http://www.inkscape.org/namespaces/inkscape"
   xmlns:sodipodi="http://sodipodi.sourceforge.net/DTD/sodipodi-0.dtd"
   xmlns="http://www.w3.org/2000/svg"
   xmlns:svg="http://www.w3.org/2000/svg"><defs
     id="defs1"><rect
       x="206.85938"
       y="352.59766"
       width="546.30859"
       height="120.02734"
       id="rect690" /><rect
       x="206.85938"
       y="352.59766"
       width="546.30859"
       height="120.02734"
       id="rect696" /></defs><sodipodi:namedview
     id="namedview1"
     pagecolor="#ffffff"
     bordercolor="#000000"
     borderopacity="0.25"
     inkscape:showpageshadow="2"
     inkscape:pageopacity="0"
     inkscape:pagecheckerboard="0"
     inkscape:deskcolor="#d1d1d1"
     showgrid="false"
     inkscape:zoom="1"
     inkscape:cx="501"
     inkscape:cy="382"
     inkscape:window-width="3440"
     inkscape:window-height="1303"
     inkscape:window-x="0"
     inkscape:window-y="0"
     inkscape:window-maximized="1"
     inkscape:current-layer="svg1"
     inkscape:pageshadow="2"
     showguides="false" /><inkscape:clipboard
     min="38.679246,51.71354"
     max="761.89587,740.75465"
     geom-min="40.288131,53.322266"
     geom-max="760.28712,740.75465" /><path
     id="disagree"
     style="display:inline;fill:#000000;stroke:#ffffff;stroke-width:4.33496;stroke-opacity:1"
     d="M 800.29158,111.98067 689.56984,251.17306 a 299.53094,299.53094 0 0 1 80.67957,117.05286 L 933.78137,288.81868 A 485.04223,485.04223 0 0 0 800.29158,111.98067 Z" /><path
     id="slightlyDisagree"
     style="display:inline;fill:#000000;stroke:#ffffff;stroke-width:4.33496;stroke-opacity:1"
     d="M 598.48545,12.304553 559.60983,183.41578 a 299.53094,299.53094 0 0 1 129.97213,67.74216 L 800.29158,111.98067 A 485.04223,485.04223 0 0 0 598.48545,12.304553 Z" /><path
     id="stronglyDisagree"
     style="display:inline;fill:#000000;stroke:#ffffff;stroke-width:4.33496;stroke-opacity:1"
     d="m 933.78137,288.81868 -163.53196,79.40724 c 16.08069,50.10019 23.02802,92.65491 17.61551,140.03253 l 185.87694,-0.3232 C 977.68125,432.953 962.16104,348.01989 933.78137,288.81884 Z"
     sodipodi:nodetypes="ccccc" /><path
     id="agree"
     style="display:inline;fill:#000000;stroke:#ffffff;stroke-width:4.33496;stroke-opacity:1"
     d="m 169.35499,121.77512 c -29.58247,26.28466 -55.74199,56.00533 -77.968781,88.44737 -18.760653,27.38292 -34.719511,56.70463 -47.570007,87.53538 l 80.637118,38.63469 83.11241,39.82065 c 8.07135,-23.08755 18.91214,-45.02129 32.23097,-65.34284 11.8061,-18.01347 25.5593,-34.76021 41.05665,-49.921 l -55.24381,-68.95631 z"
     sodipodi:nodetypes="cscccsccc" /><path
     id="stronglyAgree"
     style="display:inline;fill:#000000;stroke:#ffffff;stroke-width:4.33496;stroke-opacity:1"
     d="M 43.816202,297.75487 C 31.615562,323.87099 21.212249,357.34664 14.363831,392.71772 6.7908634,431.83097 3.5647811,473.26173 7.0620907,509.62141 l 80.9670573,-0.14087 104.852462,-0.18233 c -2.65351,-22.99498 -2.06127,-47.79702 0.92734,-71.60406 2.77248,-22.0855 7.60728,-43.31466 13.82628,-61.45059 L 123.26132,335.8184 Z"
     sodipodi:nodetypes="cscccsccc"
     inkscape:label="stronglyAgree" /><path
     id="slightlyAgree"
     style="display:inline;fill:#000000;stroke:#ffffff;stroke-width:4.33496;stroke-opacity:1"
     d="M 371.61442,15.69831 C 330.66473,25.952354 291.3769,41.470217 254.69321,61.757716 224.27792,78.578546 195.65282,98.678238 169.35499,121.77512 l 53.39254,66.64553 58.10582,72.52872 c 17.86932,-17.52868 37.79087,-32.67621 59.26162,-45.1526 22.05658,-12.8168 45.74807,-22.81469 70.52918,-29.67928 l -17.2265,-75.21761 z"
     sodipodi:nodetypes="cscccsccc" /><path
     id="neutral"
     style="display:inline;fill:#000000;stroke:#ffffff;stroke-width:4.33496;stroke-opacity:1"
     d="m 371.61442,15.69831 39.03577,170.44638 c 50.66775,-13.11413 101.67597,-13.75645 148.95964,-2.72589 L 598.48545,12.304553 C 514.16241,-2.1592719 447.5796,-1.2692573 371.61442,15.69831 Z"
     sodipodi:nodetypes="ccccc" /><path
     style="display:inline;fill:#cccccc;stroke:none;stroke-width:2.96414;stroke-opacity:1"
     d="m 490.3123,376.06525 c -39.40349,0.0201 -74.83213,17.28019 -99.07942,44.69453 -20.13764,22.76785 -32.56291,52.54022 -33.14781,85.25997 H 622.6002 C 622.01236,473.1343 609.46415,443.22709 589.14728,420.41593 564.8952,393.1865 529.57366,376.06831 490.3123,376.06525 Z"
     id="indifferent"
     sodipodi:nodetypes="csccsc" /><path
     style="display:inline;fill:#cccccc;stroke:none;stroke-width:2.96414;stroke-opacity:1"
     d="m 490.3123,642.18192 c -40.5289,-0.0201 -76.85264,-18.28014 -101.12947,-47.06814 -18.92823,-22.44553 -30.53308,-51.2921 -31.09776,-82.88676 H 622.6002 c -0.58784,32.89153 -13.14048,62.80373 -33.46387,85.6165 -24.25176,27.22227 -59.56858,44.33534 -98.82403,44.3384 z"
     id="notReplied"
     sodipodi:nodetypes="csccsc" /><g
     aria-label="Completely disagree"
     transform="rotate(-3.1828917,932.89081,150.57176)"
     id="text542"
     style="font-weight:bold;font-size:13.3333px;line-height:1;font-family:Ubuntu;-inkscape-font-specification:'Ubuntu Bold';text-align:center;letter-spacing:0px;text-anchor:middle;white-space:pre;display:inline;fill:#666766;stroke:#666766;stroke-width:0.5;stop-color:#000000"><path
       d="m 914.45173,334.62172 q -0.3507,-0.37367 -0.60127,-0.82339 -0.25057,-0.44973 -0.4028,-0.98176 -0.54088,-1.89028 0.41993,-3.2419 0.96082,-1.35162 3.31428,-2.02503 2.35972,-0.6752 3.89007,-0.0364 1.53035,0.63881 2.07123,2.52909 0.15223,0.53204 0.17926,1.05249 0.027,0.52046 -0.0765,1.01056 l -2.05302,0.58744 q 0.30203,-0.60107 0.37337,-1.10904 0.0794,-0.50351 -0.0567,-0.97921 -0.29014,-1.01399 -1.24623,-1.30247 -0.94804,-0.284 -2.53162,0.16912 -1.57732,0.45132 -2.23789,1.19562 -0.65253,0.74876 -0.36239,1.76275 0.13611,0.4757 0.46357,0.86279 0.3355,0.39156 0.90976,0.74189 z"
       style="font-family:monospace;-inkscape-font-specification:'monospace Bold';fill:#ffffff;stroke:none"
       id="path1153" /><path
       d="m 921.20171,338.01386 q -0.17483,-0.66085 -0.86006,-0.88364 -0.67894,-0.22445 -1.71743,0.0503 -1.03849,0.27473 -1.52392,0.80721 -0.47914,0.53082 -0.30431,1.19168 0.1765,0.66715 0.85544,0.8916 0.68523,0.22278 1.72372,-0.052 1.03849,-0.27474 1.51763,-0.80555 0.48543,-0.53249 0.30893,-1.19964 z m -3.06535,-2.67746 q 1.70564,-0.45123 2.93318,0.16684 1.2355,0.62269 1.63011,2.11434 0.39629,1.49795 -0.37134,2.64383 -0.75966,1.15052 -2.4653,1.60174 -1.70564,0.45123 -2.94114,-0.17146 -1.22754,-0.61807 -1.62382,-2.11601 -0.39462,-1.49165 0.36505,-2.64217 0.76762,-1.14588 2.47326,-1.59711 z"
       style="font-family:monospace;-inkscape-font-specification:'monospace Bold';fill:#ffffff;stroke:none"
       id="path1155" /><path
       d="m 923.9461,346.22529 q 0.49992,0.0995 0.79346,0.36987 0.29354,0.27032 0.40737,0.73845 0.22306,0.91728 -0.32494,1.41904 -0.54646,0.50809 -2.54549,0.9942 l -3.99173,0.97068 -0.3692,-1.51825 4.54843,-1.10605 q 0.79075,-0.19229 1.02722,-0.37709 0.23647,-0.18481 0.15955,-0.50111 -0.0769,-0.3163 -0.3797,-0.37668 -0.30279,-0.0604 -1.08089,0.12884 l -4.54843,1.10606 -0.36458,-1.49928 4.54842,-1.10605 q 0.77811,-0.18921 1.01936,-0.38188 0.24126,-0.19267 0.16434,-0.50897 -0.0769,-0.31631 -0.37184,-0.37189 -0.29492,-0.0556 -1.08568,0.1367 l -4.54843,1.10606 -0.36919,-1.51825 7.08517,-1.72292 0.32766,1.34744 -0.73382,0.17845 q 0.45598,0.0566 0.78098,0.3461 0.33132,0.28794 0.43593,0.71811 0.1046,0.43017 -0.0686,0.8475 -0.1669,0.41579 -0.51535,0.58092 z"
       style="font-family:monospace;-inkscape-font-specification:'monospace Bold';fill:#ffffff;stroke:none"
       id="path1157" /><path
       d="m 920.0326,353.79751 -3.71172,0.82395 -0.41197,-1.85586 9.82588,-2.18122 0.41198,1.85586 -1.06775,0.23703 q 0.6814,0.1555 1.09864,0.56304 0.41725,0.40755 0.55975,1.04947 0.27089,1.22029 -0.55834,2.11127 -0.82922,0.89098 -2.60881,1.28603 -1.80501,0.40069 -2.92345,-0.0713 -1.11703,-0.46561 -1.3978,-1.73039 -0.12698,-0.57201 0.0638,-1.09452 0.19855,-0.51756 0.71979,-0.99339 z m 3.13698,2.02453 q 1.02962,-0.22856 1.53816,-0.70157 0.50853,-0.47301 0.3745,-1.0768 -0.13403,-0.60379 -0.79635,-0.82355 -0.66233,-0.21976 -1.69195,0.009 -1.02962,0.22856 -1.53674,0.70793 -0.50713,0.47936 -0.37309,1.08315 0.13403,0.60379 0.79494,0.8172 0.66091,0.2134 1.69053,-0.0152 z"
       style="font-family:monospace;-inkscape-font-specification:'monospace Bold';fill:#ffffff;stroke:none"
       id="path1159" /><path
       d="m 923.62168,360.9191 5.51471,-1.10834 -0.38099,-1.89568 1.43612,-0.28863 0.75685,3.76584 -6.95084,1.39696 q -0.84252,0.16933 -1.14098,0.50158 -0.29846,0.33225 -0.17274,0.95776 l 0.30017,1.49356 -1.43612,0.28863 -0.40536,-2.01695 q -0.26811,-1.334 0.3045,-2.05337 0.5726,-0.71938 2.17468,-1.04136 z"
       style="font-family:monospace;-inkscape-font-specification:'monospace Bold';fill:#ffffff;stroke:none"
       id="path1161" /><path
       d="m 923.35053,373.91562 q -0.38683,-0.60507 -0.64372,-1.26 -0.25689,-0.65494 -0.39308,-1.411 -0.32431,-1.80044 0.46481,-2.92825 0.79669,-1.12255 2.60995,-1.44917 1.7556,-0.31624 2.9394,0.41649 1.1838,0.73274 1.46887,2.31533 0.28738,1.59542 -0.50278,2.64403 -0.7826,1.05386 -2.49975,1.36317 l -0.76247,0.13735 -0.87599,-4.86313 q -0.84461,0.15875 -1.17221,0.72713 -0.32761,0.56838 -0.15102,1.5487 0.11656,0.64713 0.41548,1.24158 0.29892,0.59444 0.82607,1.20731 z m 3.75036,-2.31611 q 0.74094,-0.1467 1.05203,-0.58642 0.31865,-0.43446 0.18939,-1.15208 -0.11657,-0.64713 -0.58307,-0.96001 -0.4601,-0.31404 -1.19681,-0.2541 z"
       style="font-family:monospace;-inkscape-font-specification:'monospace Bold';fill:#ffffff;stroke:none"
       id="path1163" /><path
       d="m 933.10181,377.78094 -2.04449,0.32595 0.39257,2.46239 -1.44657,0.23062 -0.39257,-2.46239 -3.40748,0.54325 q -0.48219,0.0769 -0.65746,0.34215 -0.16781,0.27068 -0.0807,0.81716 l 0.23062,1.44657 -1.44657,0.23062 -0.25215,-1.58158 q -0.2583,-1.62016 0.16481,-2.27436 0.42955,-0.65522 1.83111,-0.87867 l 3.31747,-0.5289 -0.29314,-1.83875 1.44657,-0.23062 0.29315,1.83875 2.04448,-0.32595 z"
       style="font-family:monospace;-inkscape-font-specification:'monospace Bold';fill:#ffffff;stroke:none"
       id="path1165" /><path
       d="m 925.75464,389.80328 q -0.36217,-0.62014 -0.5925,-1.28488 -0.23034,-0.66475 -0.336,-1.42567 -0.25161,-1.81204 0.58225,-2.90718 0.84121,-1.08959 2.66614,-1.343 1.7669,-0.24534 2.92026,0.53442 1.15336,0.77977 1.37453,2.37256 0.22296,1.60568 -0.60875,2.62165 -0.82437,1.02153 -2.55257,1.2615 l -0.76738,0.10656 -0.67962,-4.89444 q -0.85031,0.12465 -1.20052,0.67939 -0.35021,0.55473 -0.21321,1.54136 0.0904,0.6513 0.3652,1.25729 0.27476,0.60599 0.77682,1.23957 z m 3.84051,-2.16335 q 0.74624,-0.11677 1.07477,-0.54361 0.33587,-0.42129 0.23558,-1.14353 -0.0904,-0.6513 -0.54397,-0.9827 -0.44708,-0.33229 -1.18562,-0.30204 z"
       style="font-family:monospace;-inkscape-font-specification:'monospace Bold';fill:#ffffff;stroke:none"
       id="path1167" /><path
       d="m 928.8328,392.84216 5.58597,-0.66141 -0.22736,-1.92017 1.45468,-0.17224 0.45165,3.81449 -7.04064,0.83364 q -0.85342,0.10105 -1.17762,0.40823 -0.3242,0.30717 -0.24918,0.94077 l 0.17913,1.51286 -1.45468,0.17224 -0.2419,-2.04301 q -0.15999,-1.35124 0.46859,-2.02225 0.62859,-0.67101 2.25136,-0.86315 z"
       style="font-family:monospace;-inkscape-font-specification:'monospace Bold';fill:#ffffff;stroke:none"
       id="path1169" /><path
       d="m 926.12892,403.35326 q -1.06122,-0.2819 -1.58047,-0.77394 -0.52509,-0.48492 -0.60005,-1.24948 l -0.15376,-1.568 1.44489,-0.14168 0.0756,0.77104 q 0.0572,0.58314 0.28472,0.83558 0.22107,0.25307 0.96759,0.46116 l 0.40274,0.10442 6.78533,-3.45207 0.19568,1.99563 -4.54782,2.1206 4.86613,1.12555 0.19568,1.99563 z"
       style="font-family:monospace;-inkscape-font-specification:'monospace Bold';fill:#ffffff;stroke:none"
       id="path1171" /><path
       d="m 934.40936,419.444 3.86728,-0.22266 0.10927,1.89789 -10.11343,0.58229 -0.10928,-1.89789 1.07894,-0.0621 q -0.64805,-0.26919 -0.9946,-0.73832 -0.34617,-0.46264 -0.38397,-1.1191 -0.0718,-1.24793 0.88943,-1.99452 0.96128,-0.7466 2.78117,-0.85138 1.8459,-0.10628 2.87389,0.5323 1.02836,0.64508 1.10283,1.93851 0.0337,0.58497 -0.24524,1.06403 -0.27204,0.48519 -0.85629,0.87097 z m -2.77854,-2.50067 q -1.05294,0.0606 -1.6307,0.44604 -0.57776,0.38541 -0.54221,1.00287 0.0356,0.61747 0.6541,0.94052 0.61855,0.32305 1.67149,0.26243 1.05294,-0.0606 1.63033,-0.45254 0.57738,-0.3919 0.54183,-1.00937 -0.0355,-0.61746 -0.65372,-0.93402 -0.61818,-0.31655 -1.67112,-0.25593 z"
       style="font-family:monospace;-inkscape-font-specification:'monospace Bold';fill:#ffffff;stroke:none"
       id="path1173" /><path
       d="m 935.66896,423.84201 0.14115,3.7734 -5.82274,0.21781 0.0886,2.36813 -1.46382,0.0548 -0.24872,-6.64898 1.46382,-0.0548 0.0888,2.37463 4.35892,-0.16305 -0.0698,-1.86718 z m 3.61553,1.73455 0.0713,1.90621 -2.225,0.0832 -0.0713,-1.90621 z"
       style="font-family:monospace;-inkscape-font-specification:'monospace Bold';fill:#ffffff;stroke:none"
       id="path1175" /><path
       d="m 935.80281,437.02767 -1.66642,0.0288 q 0.32939,-0.5331 0.48874,-1.10886 0.16597,-0.56935 0.15608,-1.14218 -0.011,-0.63793 -0.20541,-0.96014 -0.18788,-0.32232 -0.55241,-0.31603 -0.52076,0.009 -0.82217,1.40763 l -0.0183,0.0719 -0.12075,0.54904 q -0.22937,1.04578 -0.77435,1.53703 -0.53836,0.49765 -1.47572,0.51384 -1.12613,0.0195 -1.70527,-0.71285 -0.57251,-0.7259 -0.59814,-2.21005 -0.0114,-0.65745 0.0939,-1.34947 0.0987,-0.69191 0.31432,-1.40538 l 1.66641,-0.0288 q -0.34711,0.63759 -0.52465,1.2918 -0.17741,0.66071 -0.16685,1.2726 0.0116,0.67047 0.21282,1.01209 0.20124,0.34163 0.57228,0.33522 0.36453,-0.006 0.55554,-0.25702 0.19112,-0.24422 0.39659,-1.16588 l 0.10807,-0.52928 q 0.22847,-1.09786 0.74708,-1.60819 0.51861,-0.51033 1.40389,-0.52562 1.05453,-0.0182 1.65353,0.73327 0.599,0.75149 0.62283,2.13149 0.0107,0.6184 -0.0829,1.23208 -0.087,0.62008 -0.27875,1.20291 z"
       style="font-family:monospace;-inkscape-font-specification:'monospace Bold';fill:#ffffff;stroke:none"
       id="path1177" /><path
       d="m 932.17875,443.29221 q 0.003,-1.0677 -0.26918,-1.49166 -0.27223,-0.42395 -0.93629,-0.42584 -0.49479,-0.001 -0.78859,0.29072 -0.2938,0.29213 -0.29523,0.79343 -0.002,0.7552 0.56306,1.17348 0.57173,0.4183 1.59385,0.42121 l 0.13021,3.7e-4 z m 0.72811,2.65833 -4.16013,-0.0119 0.005,-1.89452 0.81379,0.002 q -0.48078,-0.34642 -0.73966,-0.88752 -0.25887,-0.54111 -0.25702,-1.19214 0.004,-1.24348 0.66308,-1.93822 0.65951,-0.68823 1.83789,-0.68487 1.27603,0.004 1.87914,0.83218 0.60962,0.82856 0.60469,2.56032 l -0.004,1.32161 0.31901,9.1e-4 q 0.46224,0.001 0.69757,-0.33656 0.24183,-0.33134 0.24369,-0.98238 0.002,-0.68359 -0.172,-1.32861 -0.16745,-0.6385 -0.54306,-1.33619 l 1.62759,0.005 q 0.25861,0.63225 0.38046,1.28364 0.12184,0.65139 0.11976,1.38055 -0.005,1.77733 -0.72976,2.49141 -0.72471,0.72059 -2.58667,0.71529 z"
       style="font-family:monospace;-inkscape-font-specification:'monospace Bold';fill:#ffffff;stroke:none"
       id="path1179" /><path
       d="m 932.3864,452.06561 q 0.9763,0.0224 1.5706,-0.33513 0.60081,-0.35739 0.61471,-0.9627 0.0137,-0.5988 -0.56351,-0.98325 -0.57741,-0.37793 -1.56022,-0.4005 -0.98932,-0.0227 -1.58348,0.32832 -0.5943,0.35754 -0.60805,0.95634 -0.0139,0.60531 0.56337,0.98975 0.58377,0.3846 1.56658,0.40717 z m -3.25908,1.83321 q -1.75084,-0.0402 -2.50714,-0.85205 -0.76296,-0.80549 -0.72215,-2.58236 0.0138,-0.5988 0.11832,-1.18248 0.0981,-0.58384 0.29421,-1.18497 l 1.75083,0.0402 q -0.3118,0.53334 -0.46785,1.0898 -0.15604,0.55646 -0.16964,1.14875 -0.0185,0.80708 0.35666,1.19991 0.36869,0.39268 1.17576,0.41121 l 0.78755,0.0181 q -0.51426,-0.29183 -0.75749,-0.75978 -0.24323,-0.46794 -0.22798,-1.13183 0.0287,-1.24967 1.02188,-1.96273 0.99319,-0.71306 2.66593,-0.67465 1.73131,0.0398 2.72977,0.79855 0.99847,0.7588 0.97007,1.99545 -0.0143,0.62483 -0.31845,1.10626 -0.3041,0.48142 -0.84424,0.74904 l 0.93075,0.0214 -0.0438,1.90705 z"
       style="font-family:monospace;-inkscape-font-specification:'monospace Bold';fill:#ffffff;stroke:none"
       id="path1181" /><path
       d="m 933.51257,462.49199 q 0.29964,-0.29988 0.46095,-0.7165 0.16103,-0.41011 0.18261,-0.91095 0.0261,-0.60491 -0.16897,-1.06946 -0.1888,-0.45777 -0.58142,-0.72231 -0.24044,-0.16675 -0.58888,-0.24693 -0.34871,-0.0737 -1.06419,-0.10449 l -3.35625,-0.1446 0.0821,-1.90578 7.28489,0.31385 -0.0821,1.90578 -1.13176,-0.0488 q 0.61237,0.30659 0.92565,0.90005 0.31979,0.59374 0.28645,1.36776 -0.0168,0.39027 -0.13036,0.75681 -0.10731,0.37333 -0.304,0.70371 z"
       style="font-family:monospace;-inkscape-font-specification:'monospace Bold';fill:#ffffff;stroke:none"
       id="path1183" /><path
       d="m 928.11922,469.9811 q -0.23099,-0.67999 -0.32389,-1.37735 -0.0929,-0.69735 -0.0444,-1.46405 0.11543,-1.82577 1.15125,-2.73227 1.04191,-0.89959 2.88068,-0.78334 1.78029,0.11256 2.75464,1.107 0.97435,0.99445 0.87289,2.59931 -0.10229,1.61786 -1.12019,2.44721 -1.01181,0.83626 -2.75312,0.72617 l -0.77319,-0.0489 0.31179,-4.93155 q -0.85808,-0.0477 -1.31204,0.42588 -0.45396,0.4736 -0.51681,1.4677 -0.0415,0.65624 0.10668,1.3049 0.14816,0.64867 0.51355,1.36977 z m 4.19525,-1.35257 q 0.75453,0.0347 1.1617,-0.31796 0.41326,-0.3457 0.45927,-1.07341 0.0415,-0.65624 -0.3367,-1.07156 -0.3717,-0.4149 -1.10139,-0.53279 z"
       style="font-family:monospace;-inkscape-font-specification:'monospace Bold';fill:#ffffff;stroke:none"
       id="path1185" /><path
       d="m 927.4686,477.98931 q -0.2173,-0.68449 -0.2962,-1.38357 -0.0789,-0.69908 -0.015,-1.46465 0.15204,-1.82309 1.20584,-2.70862 1.05974,-0.87851 2.89581,-0.72539 1.77768,0.14825 2.73188,1.16205 0.9542,1.01379 0.82056,2.6163 -0.13473,1.61548 -1.16906,2.42424 -1.02838,0.81579 -2.76713,0.67079 l -0.77206,-0.0644 0.41067,-4.9243 q -0.85695,-0.0649 -1.32032,0.39947 -0.46337,0.4644 -0.54616,1.45704 -0.0546,0.65528 0.0805,1.30678 0.13512,0.6515 0.48597,1.37979 z m 4.22155,-1.26813 q 0.75367,0.0498 1.16784,-0.29458 0.42011,-0.33735 0.48071,-1.06399 0.0547,-0.65528 -0.31514,-1.0781 -0.36329,-0.42227 -1.09047,-0.55478 z"
       style="font-family:monospace;-inkscape-font-specification:'monospace Bold';fill:#ffffff;stroke:none"
       id="path1187" /></g><g
     aria-label="Disagree"
     transform="translate(6,8)"
     id="text652"
     style="font-weight:bold;font-size:13.3333px;line-height:1;font-family:Ubuntu;-inkscape-font-specification:'Ubuntu Bold';text-align:center;letter-spacing:0px;text-anchor:middle;white-space:pre;display:inline;fill:#666766;stroke:#666766;stroke-width:0.5;stop-color:#000000"><path
       d="m 841.17264,169.19573 -4.90302,3.8864 0.32353,0.40816 q 0.70367,0.88775 1.55905,0.82449 0.86049,-0.0673 2.20232,-1.13091 1.33162,-1.05551 1.58847,-1.87387 0.25686,-0.81836 -0.44682,-1.70611 z m 0.16412,-2.58082 1.27794,1.61223 q 1.48015,1.86733 1.2384,3.39648 -0.23665,1.5251 -2.25704,3.12657 -2.0255,1.60551 -3.57455,1.49585 -1.54395,-0.1137 -3.0241,-1.98104 l -1.27794,-1.61223 z"
       style="font-family:monospace;-inkscape-font-specification:'monospace Bold';fill:#ffffff;stroke:none"
       id="path1136" /><path
       d="m 844.82704,174.97654 2.28557,3.00576 -4.6382,3.52687 1.4344,1.88637 -1.16603,0.88664 -4.02733,-5.29635 1.16603,-0.88665 1.43833,1.89156 3.47217,-2.64023 -1.13096,-1.48733 z m 3.95534,-0.66032 1.15461,1.51843 -1.77236,1.3477 -1.15461,-1.51843 z"
       style="font-family:monospace;-inkscape-font-specification:'monospace Bold';fill:#ffffff;stroke:none"
       id="path1138" /><path
       d="m 852.51966,185.68642 -1.3467,0.98191 q -0.0371,-0.62556 -0.23789,-1.18821 -0.19166,-0.56123 -0.52919,-1.02416 -0.37588,-0.51554 -0.72022,-0.66734 -0.33907,-0.15563 -0.63367,0.0592 -0.42084,0.30685 0.13694,1.62439 l 0.0264,0.0694 0.21697,0.5186 q 0.41379,0.98745 0.25048,1.70275 -0.15422,0.71673 -0.91175,1.26906 -0.91008,0.66355 -1.805,0.39754 -0.88583,-0.26459 -1.76034,-1.464 -0.3874,-0.53132 -0.69928,-1.15798 -0.31714,-0.62283 -0.55109,-1.33048 l 1.34671,-0.9819 q 0.0827,0.72123 0.31371,1.35852 0.23484,0.64255 0.59538,1.13704 0.39507,0.54184 0.75617,0.70559 0.3611,0.16374 0.66095,-0.0549 0.2946,-0.21479 0.30666,-0.52976 0.0159,-0.30971 -0.34605,-1.18186 l -0.21599,-0.49514 q -0.44448,-1.02953 -0.31371,-1.74528 0.13077,-0.71575 0.84621,-1.23738 0.85221,-0.62136 1.77443,-0.35108 0.92221,0.27029 1.73535,1.38553 0.36438,0.49976 0.64076,1.05562 0.28547,0.55729 0.46375,1.14438 z"
       style="font-family:monospace;-inkscape-font-specification:'monospace Bold';fill:#ffffff;stroke:none"
       id="path1140" /><path
       d="m 853.15769,192.89552 q -0.61155,-0.87522 -1.07808,-1.06548 -0.46652,-0.19027 -1.01086,0.19009 -0.40559,0.2834 -0.47793,0.69135 -0.0724,0.40796 0.21478,0.81888 0.43256,0.61905 1.13551,0.63618 0.70828,0.0134 1.54614,-0.57205 l 0.10673,-0.0746 z m 2.12447,1.75598 -3.41013,2.38282 -1.08514,-1.55297 0.66709,-0.46612 q -0.59255,-0.007 -1.11553,-0.30069 -0.52297,-0.29378 -0.89587,-0.82745 -0.71223,-1.0193 -0.57223,-1.96695 0.14373,-0.94231 1.10967,-1.61726 1.04599,-0.73088 2.01588,-0.39992 0.97522,0.32723 1.96713,1.74679 l 0.75699,1.08334 0.26149,-0.18272 q 0.37891,-0.26476 0.37712,-0.67651 0.007,-0.41014 -0.36562,-0.94381 -0.39154,-0.56035 -0.9048,-0.98799 -0.5042,-0.42604 -1.21272,-0.78079 l 1.33416,-0.93224 q 0.57518,0.3685 1.04948,0.83131 0.47429,0.46282 0.89194,1.06053 1.01801,1.45691 0.83583,2.45786 -0.17846,1.00628 -1.70474,2.07277 z"
       style="font-family:monospace;-inkscape-font-specification:'monospace Bold';fill:#ffffff;stroke:none"
       id="path1142" /><path
       d="m 858.37343,199.95377 q 0.81158,-0.54314 1.09214,-1.17742 0.28597,-0.63791 -0.0508,-1.14109 -0.33313,-0.49778 -1.02647,-0.4803 -0.68972,0.0229 -1.50672,0.56965 -0.82241,0.55038 -1.10659,1.17925 -0.28056,0.63429 0.0526,1.13206 0.33674,0.50319 1.03009,0.48571 0.69875,-0.0211 1.51575,-0.56786 z m -1.6119,3.37403 q -1.45544,0.97402 -2.54105,0.74482 -1.0874,-0.22017 -2.07591,-1.69726 -0.33313,-0.49777 -0.58326,-1.03541 -0.25554,-0.53403 -0.44079,-1.13859 l 1.45544,-0.97403 q 0.0516,0.61564 0.24402,1.16061 0.19236,0.54497 0.52186,1.03733 0.449,0.67091 0.98186,0.7765 0.52744,0.10921 1.19835,-0.33978 l 0.65468,-0.43813 q -0.58854,0.057 -1.05664,-0.18592 -0.4681,-0.24293 -0.83743,-0.79481 -0.69521,-1.03883 -0.29279,-2.19336 0.40242,-1.15454 1.79294,-2.08511 1.43921,-0.96316 2.69242,-0.91663 1.25321,0.0465 1.94119,1.07454 0.34761,0.51941 0.3757,1.08815 0.0281,0.56873 -0.25988,1.0983 l 0.77372,-0.51779 1.06092,1.5853 z"
       style="font-family:monospace;-inkscape-font-specification:'monospace Bold';fill:#ffffff;stroke:none"
       id="path1144" /><path
       d="m 865.29096,207.83585 q 0.0727,-0.41765 -0.035,-0.85125 -0.10411,-0.42812 -0.37449,-0.85026 -0.32655,-0.50985 -0.75327,-0.77774 -0.41771,-0.26592 -0.89105,-0.25654 -0.2926,0.002 -0.62376,0.13664 -0.32764,0.14028 -0.9307,0.52653 l -2.82887,1.81185 -1.02882,-1.60631 6.14018,-3.93272 1.02883,1.60632 -0.95392,0.61097 q 0.67729,-0.10135 1.27488,0.20399 0.60307,0.30182 1.02092,0.95422 0.21068,0.32894 0.32859,0.6941 0.12691,0.36713 0.156,0.75053 z"
       style="font-family:monospace;-inkscape-font-specification:'monospace Bold';fill:#ffffff;stroke:none"
       id="path1146" /><path
       d="m 865.18541,217.06444 q -0.58001,-0.42348 -1.05703,-0.94057 -0.47703,-0.51709 -0.87827,-1.17221 -0.95549,-1.56006 -0.62936,-2.89734 0.33508,-1.33512 1.90625,-2.29742 1.52121,-0.93169 2.8902,-0.67843 1.36899,0.25326 2.20887,1.62457 0.84669,1.38241 0.49086,2.64626 -0.34688,1.26601 -1.83477,2.1773 l -0.66067,0.40464 -2.58086,-4.21386 q -0.72944,0.4544 -0.82848,1.10291 -0.099,0.64852 0.4212,1.49795 0.34344,0.56074 0.83767,1.00621 0.49424,0.44547 1.20784,0.8253 z m 2.65439,-3.51907 q 0.63721,-0.40555 0.76755,-0.92817 0.13929,-0.52048 -0.24155,-1.14229 -0.34343,-0.56073 -0.89166,-0.68302 -0.54269,-0.12569 -1.20745,0.19747 z"
       style="font-family:monospace;-inkscape-font-specification:'monospace Bold';fill:#ffffff;stroke:none"
       id="path1148" /><path
       d="m 869.25794,223.9904 q -0.57137,-0.43505 -1.0379,-0.96164 -0.46652,-0.52658 -0.8545,-1.18964 -0.92391,-1.57898 -0.57094,-2.90942 0.36188,-1.32811 1.9521,-2.2586 1.53964,-0.90089 2.90326,-0.62014 1.36362,0.28076 2.17574,1.66869 0.8187,1.39916 0.43751,2.6556 -0.37228,1.25877 -1.87821,2.13994 l -0.66868,0.39126 -2.49554,-4.26493 q -0.73844,0.43963 -0.85051,1.08602 -0.11208,0.64639 0.39098,1.50612 0.33208,0.56753 0.81725,1.02286 0.48517,0.45532 1.19099,0.84943 z m 2.72465,-3.46494 q 0.64525,-0.39264 0.78608,-0.91254 0.14973,-0.51757 -0.21852,-1.14691 -0.33208,-0.56754 -0.87774,-0.70083 -0.54004,-0.13659 -1.21117,0.17314 z"
       style="font-family:monospace;-inkscape-font-specification:'monospace Bold';fill:#ffffff;stroke:none"
       id="path1150" /></g><g
     aria-label="Slightly disagree"
     transform="translate(8,8)"
     id="text658"
     style="font-weight:bold;font-size:13.3333px;line-height:1;font-family:Ubuntu;-inkscape-font-specification:'Ubuntu Bold';text-align:center;letter-spacing:0px;text-anchor:middle;white-space:pre;display:inline;fill:#666766;stroke:#666766;stroke-width:0.5;stop-color:#000000"><path
       d="m 628.44272,32.306636 q -1.20919,-0.975631 -1.51082,-1.710572 -0.29961,-0.741131 0.0188,-1.719247 0.40912,-1.256692 1.44768,-1.712803 1.03856,-0.45611 2.44383,0.0014 0.63763,0.207584 1.2269,0.563742 0.59127,0.349968 1.12382,0.838289 l -0.58043,1.782894 q -0.45308,-0.606232 -0.98922,-1.02041 -0.53614,-0.414178 -1.13044,-0.607655 -0.66239,-0.215645 -1.10192,-0.06433 -0.43952,0.15132 -0.60075,0.646568 -0.12496,0.383817 0.0462,0.720262 0.17939,0.33227 0.89779,0.90164 l 0.68947,0.553102 q 0.98129,0.771348 1.28782,1.617431 0.30652,0.846083 -0.028,1.873723 -0.45547,1.399076 -1.51074,1.822363 -1.04705,0.419111 -2.71852,-0.125041 -0.68715,-0.223707 -1.32609,-0.616576 -0.63475,-0.384663 -1.17378,-0.916173 l 0.61469,-1.888134 q 0.5612,0.757825 1.15954,1.233331 0.60453,0.477522 1.27311,0.695183 0.67478,0.219676 1.14497,0.03726 0.4722,-0.188608 0.65157,-0.739571 0.13503,-0.414771 -0.0118,-0.804916 -0.14483,-0.396336 -0.55687,-0.729032 z"
       style="font-family:monospace;-inkscape-font-specification:'monospace Bold';fill:#ffffff;stroke:none"
       id="path1103" /><path
       d="m 634.97741,35.775041 1.84834,-5.312635 -1.82621,-0.635369 0.48134,-1.383498 3.62784,1.262179 -2.32969,6.696134 q -0.28238,0.811652 -0.14794,1.237552 0.13444,0.425899 0.73703,0.635549 l 1.43884,0.500594 -0.48134,1.383498 -1.94304,-0.676015 q -1.28512,-0.447111 -1.61363,-1.305865 -0.3285,-0.858755 0.20846,-2.402124 z"
       style="font-family:monospace;-inkscape-font-specification:'monospace Bold';fill:#ffffff;stroke:none"
       id="path1105" /><path
       d="m 643.06357,34.119267 3.5407,1.312206 -2.02487,5.463661 2.22209,0.823523 -0.50904,1.373546 -6.23895,-2.312198 0.50904,-1.373546 2.2282,0.825785 1.51582,-4.090115 -1.75203,-0.649316 z m 2.98506,-2.677719 1.78866,0.662891 -0.77375,2.08779 -1.78866,-0.66289 z"
       style="font-family:monospace;-inkscape-font-specification:'monospace Bold';fill:#ffffff;stroke:none"
       id="path1107" /><path
       d="m 652.95069,41.659581 q 0.35771,-0.908688 0.22703,-1.58983 -0.12829,-0.6872 -0.69167,-0.908979 -0.55733,-0.219394 -1.11726,0.18989 -0.55387,0.411669 -0.91396,1.326415 -0.36248,0.920805 -0.23786,1.599562 0.13068,0.681142 0.68801,0.900536 0.56338,0.221779 1.12331,-0.187505 0.56231,-0.415342 0.9224,-1.330089 z m 0.59692,3.691337 q -0.64149,1.629581 -1.66433,2.059538 -1.01918,0.4384 -2.67299,-0.212628 -0.55733,-0.219394 -1.06916,-0.51883 -0.51421,-0.293377 -1.01082,-0.684778 l 0.64149,-1.629581 q 0.39311,0.476596 0.86162,0.814956 0.46852,0.33836 1.01979,0.555369 0.75118,0.295705 1.2493,0.07899 0.49573,-0.210661 0.79144,-0.961843 l 0.28855,-0.733009 q -0.45127,0.382091 -0.97439,0.449035 -0.52311,0.06694 -1.14102,-0.176297 -1.16312,-0.457866 -1.48996,-1.636028 -0.32684,-1.178161 0.28603,-2.735048 0.63434,-1.611407 1.6909,-2.28697 1.05656,-0.675563 2.20757,-0.222466 0.58156,0.228933 0.92859,0.680393 0.34703,0.451461 0.41198,1.050753 l 0.34101,-0.866283 1.77497,0.698723 z"
       style="font-family:monospace;-inkscape-font-specification:'monospace Bold';fill:#ffffff;stroke:none"
       id="path1109" /><path
       d="m 662.43476,44.50227 -1.82193,4.368344 -1.74854,-0.729274 1.70915,-4.097951 q 0.30324,-0.727056 0.22325,-1.127223 -0.074,-0.397661 -0.54266,-0.593137 -0.4807,-0.200488 -0.92902,0.113358 -0.44582,0.307836 -0.75908,1.058927 l -1.60641,3.851593 -1.74854,-0.729274 3.89949,-9.349578 1.74854,0.729275 -1.51369,3.62927 q 0.41934,-0.481122 0.99781,-0.59961 0.57846,-0.118488 1.21539,0.147158 0.95538,0.39847 1.17645,1.238389 0.22356,0.83391 -0.30021,2.089733 z"
       style="font-family:monospace;-inkscape-font-specification:'monospace Bold';fill:#ffffff;stroke:none"
       id="path1111" /><path
       d="m 669.47382,42.522701 -0.83523,1.894354 2.28157,1.005945 -0.59096,1.340344 -2.28157,-1.005945 -1.39204,3.157256 q -0.19698,0.446781 -0.0692,0.737918 0.13636,0.287807 0.64272,0.511059 l 1.34034,0.590959 -0.59096,1.340345 -1.46544,-0.646116 q -1.50119,-0.661875 -1.82125,-1.372199 -0.31744,-0.716282 0.25514,-2.014927 l 1.35527,-3.073856 -1.70373,-0.751175 0.59096,-1.340345 1.70373,0.751176 0.83522,-1.894354 z"
       style="font-family:monospace;-inkscape-font-specification:'monospace Bold';fill:#ffffff;stroke:none"
       id="path1113" /><path
       d="m 672.49865,50.821221 2.37238,-5.10022 -1.7532,-0.815508 0.61781,-1.328183 3.48279,1.620034 -2.9902,6.428402 q -0.36244,0.7792 -0.27144,1.216445 0.091,0.437246 0.6695,0.706336 l 1.38131,0.642522 -0.61781,1.328182 -1.86536,-0.867679 q -1.23373,-0.573876 -1.47436,-1.461273 -0.24063,-0.887397 0.44858,-2.369058 z"
       style="font-family:monospace;-inkscape-font-specification:'monospace Bold';fill:#ffffff;stroke:none"
       id="path1115" /><path
       d="m 680.02101,58.644802 q -0.79747,0.754786 -1.48894,0.938027 -0.6885,0.191952 -1.3784,-0.146002 l -1.41487,-0.693092 0.63867,-1.303792 0.69575,0.340819 q 0.52619,0.257761 0.86053,0.196805 0.33148,-0.05511 0.90079,-0.580928 l 0.30047,-0.287788 0.62826,-7.587017 1.80075,0.882118 -0.58541,4.983665 3.51456,-3.548792 1.80075,0.882118 z"
       style="font-family:monospace;-inkscape-font-specification:'monospace Bold';fill:#ffffff;stroke:none"
       id="path1117" /><path
       d="m 698.06236,60.05452 1.84261,-3.407385 1.67219,0.90427 -4.81864,8.91074 -1.6722,-0.90427 0.51408,-0.950631 q -0.56955,0.409939 -1.1508,0.458286 -0.57552,0.05144 -1.15391,-0.261334 -1.09953,-0.594589 -1.22965,-1.804762 -0.13012,-1.210174 0.73699,-2.813649 0.87949,-1.626382 1.96297,-2.16548 1.0892,-0.536002 2.22881,0.08026 0.5154,0.278713 0.77645,0.767741 0.26987,0.486399 0.2911,1.18621 z m -3.5876,1.050085 q -0.50169,0.927725 -0.47735,1.621809 0.0243,0.694084 0.56837,0.988281 0.54404,0.294198 1.14391,-0.06233 0.59988,-0.356531 1.10156,-1.284256 0.50168,-0.927725 0.47162,-1.624906 -0.0301,-0.69718 -0.57409,-0.991378 -0.54404,-0.294197 -1.13819,0.06543 -0.59415,0.359628 -1.09583,1.287353 z"
       style="font-family:monospace;-inkscape-font-specification:'monospace Bold';fill:#ffffff;stroke:none"
       id="path1119" /><path
       d="m 702.46612,61.293711 3.28468,1.862609 -2.8742,5.068598 2.06142,1.168947 -0.72256,1.274229 -5.78783,-3.282046 0.72256,-1.274228 2.06709,1.172159 2.15163,-3.794369 -1.62535,-0.92167 z m 3.37556,-2.164794 1.65933,0.940939 -1.09829,1.936827 -1.65933,-0.940938 z"
       style="font-family:monospace;-inkscape-font-specification:'monospace Bold';fill:#ffffff;stroke:none"
       id="path1121" /><path
       d="m 713.75521,68.108141 -0.85112,1.432953 q -0.28051,-0.560369 -0.68665,-0.998476 -0.39721,-0.44038 -0.88979,-0.732954 -0.54855,-0.32582 -0.92484,-0.329728 -0.37297,-0.0095 -0.55915,0.303953 -0.26598,0.447798 0.76565,1.439157 l 0.0516,0.05336 0.40369,0.391224 q 0.76926,0.744655 0.90087,1.466468 0.14054,0.71954 -0.33822,1.525576 -0.57517,0.968363 -1.50253,1.076328 -0.91844,0.105692 -2.19466,-0.652339 -0.56535,-0.335794 -1.09884,-0.788966 -0.53681,-0.447575 -1.03057,-1.005878 l 0.85112,-1.432953 q 0.3601,0.630356 0.82343,1.125152 0.46893,0.498121 0.99509,0.810643 0.57654,0.342443 0.97295,0.350728 0.39641,0.0083 0.58591,-0.310772 0.18619,-0.313458 0.0732,-0.607721 -0.10736,-0.290938 -0.78357,-0.950034 l -0.39355,-0.370055 q -0.81403,-0.771252 -0.97574,-1.480649 -0.1617,-0.709397 0.29045,-1.470654 0.53861,-0.90679 1.49273,-1.021574 0.95413,-0.114783 2.14079,0.590052 0.53176,0.315846 1.00473,0.717927 0.48189,0.399808 0.877,0.869228 z"
       style="font-family:monospace;-inkscape-font-specification:'monospace Bold';fill:#ffffff;stroke:none"
       id="path1123" /><path
       d="m 717.18102,74.483293 q -0.90683,-0.56361 -1.41058,-0.554755 -0.50375,0.0089 -0.85429,0.572858 -0.26118,0.420238 -0.16701,0.823712 0.0942,0.403474 0.51995,0.668096 0.64141,0.398651 1.29428,0.137535 0.65631,-0.266646 1.19587,-1.134769 l 0.0687,-0.110589 z m 2.64436,0.777324 -2.19602,3.533316 -1.60907,-1.000064 0.42958,-0.69118 q -0.54737,0.227036 -1.14378,0.162973 -0.59641,-0.06406 -1.14935,-0.407729 -1.05613,-0.656399 -1.30068,-1.582594 -0.23902,-0.922759 0.38302,-1.923589 0.67358,-1.083771 1.69543,-1.161555 1.02528,-0.08331 2.49611,0.830833 l 1.12248,0.697639 0.1684,-0.270942 q 0.244,-0.392591 0.0802,-0.770357 -0.15485,-0.379858 -0.70779,-0.723523 -0.5806,-0.360848 -1.2208,-0.55178 -0.63124,-0.193026 -1.42221,-0.240039 l 0.85916,-1.382362 q 0.67382,0.112177 1.29206,0.350782 0.61824,0.238605 1.23754,0.623509 1.50954,0.938205 1.73631,1.930004 0.2323,0.995237 -0.75058,2.576658 z"
       style="font-family:monospace;-inkscape-font-specification:'monospace Bold';fill:#ffffff;stroke:none"
       id="path1125" /><path
       d="m 724.75479,78.916642 q 0.53208,-0.81888 0.54015,-1.512396 0.0116,-0.698977 -0.49608,-1.028864 -0.50225,-0.326341 -1.13267,-0.0372 -0.62496,0.292686 -1.16058,1.117024 -0.53918,0.829798 -0.55271,1.519768 -0.008,0.693517 0.49418,1.019857 0.5077,0.329888 1.13812,0.04075 0.63397,-0.294598 1.16959,-1.118936 z m -0.15276,3.736167 q -0.95419,1.468523 -2.04233,1.685412 -1.08622,0.225894 -2.57658,-0.742486 -0.50225,-0.326341 -0.94391,-0.722016 -0.44522,-0.390216 -0.8536,-0.872961 l 0.95419,-1.468524 q 0.28994,0.545539 0.68139,0.970699 0.39146,0.42516 0.88824,0.747954 0.67694,0.43985 1.20832,0.327041 0.52783,-0.10735 0.96768,-0.78429 l 0.42921,-0.660563 q -0.51852,0.284207 -1.04446,0.245266 -0.52595,-0.03894 -1.08278,-0.400754 -1.04817,-0.681058 -1.13298,-1.900769 -0.0848,-1.219711 0.82681,-2.622724 0.94355,-1.452146 2.1138,-1.902949 1.17025,-0.450804 2.2075,0.223161 0.52408,0.340529 0.7739,0.852231 0.24981,0.511703 0.19369,1.111886 l 0.50725,-0.780665 1.59954,1.039324 z"
       style="font-family:monospace;-inkscape-font-specification:'monospace Bold';fill:#ffffff;stroke:none"
       id="path1127" /><path
       d="m 734.21755,83.437156 q -0.0977,-0.412517 -0.36739,-0.768681 -0.26432,-0.352508 -0.6791,-0.634038 -0.50097,-0.34003 -0.9987,-0.418203 -0.48869,-0.0799 -0.92007,0.115139 -0.26822,0.116947 -0.51952,0.37127 -0.24592,0.257979 -0.64811,0.850524 l -1.88661,2.779571 -1.57833,-1.071277 4.09499,-6.033178 1.57832,1.071277 -0.63618,0.937297 q 0.58262,-0.359911 1.25217,-0.314618 0.6732,0.03991 1.31423,0.474998 0.3232,0.219375 0.57541,0.508582 0.26124,0.287476 0.43898,0.62843 z"
       style="font-family:monospace;-inkscape-font-specification:'monospace Bold';fill:#ffffff;stroke:none"
       id="path1129" /><path
       d="m 737.75532,91.96128 q -0.69993,-0.160791 -1.34206,-0.448192 -0.64213,-0.287401 -1.26897,-0.731524 -1.49273,-1.057614 -1.71968,-2.415243 -0.21788,-1.359178 0.84726,-2.862531 1.03127,-1.455543 2.38935,-1.761967 1.35808,-0.306424 2.67019,0.623223 1.32274,0.937174 1.49348,2.239014 0.17981,1.300291 -0.82888,2.723961 l -0.44788,0.632152 -4.03196,-2.856687 q -0.49151,0.704974 -0.32711,1.340076 0.1644,0.635102 0.97716,1.210956 0.53653,0.380139 1.16628,0.594933 0.62974,0.214794 1.43527,0.282846 z m 1.05373,-4.280098 q 0.42597,-0.623743 0.33993,-1.15546 -0.077,-0.533266 -0.67194,-0.954806 -0.53653,-0.380139 -1.08862,-0.276608 -0.54832,0.09822 -1.03205,0.657097 z"
       style="font-family:monospace;-inkscape-font-specification:'monospace Bold';fill:#ffffff;stroke:none"
       id="path1131" /><path
       d="m 744.22684,96.723077 q -0.69655,-0.174813 -1.33278,-0.475051 -0.63623,-0.300238 -1.25403,-0.756859 -1.47119,-1.087377 -1.67083,-2.44929 -0.19054,-1.363279 0.90457,-2.844939 1.06029,-1.434541 2.42425,-1.713631 1.36396,-0.27909 2.65714,0.676718 1.30365,0.963547 1.44821,2.268553 0.15367,1.30364 -0.8834,2.706768 l -0.46049,0.62303 -3.97378,-2.937078 q -0.50557,0.694962 -0.35396,1.333238 0.15161,0.638275 0.95265,1.230334 0.52879,0.390836 1.1541,0.618233 0.6253,0.227396 1.42929,0.311611 z m 1.13948,-4.258074 q 0.43841,-0.615063 0.36306,-1.148401 -0.0662,-0.534704 -0.65263,-0.968107 -0.52879,-0.390836 -1.08284,-0.298412 -0.55019,0.08719 -1.04505,0.636239 z"
       style="font-family:monospace;-inkscape-font-specification:'monospace Bold';fill:#ffffff;stroke:none"
       id="path1133" /></g><g
     aria-label="Completely agree"
     transform="translate(-16,4)"
     id="text664"
     style="font-weight:bold;font-size:13.3333px;line-height:1;font-family:Ubuntu;-inkscape-font-specification:'Ubuntu Bold';text-align:center;letter-spacing:0px;text-anchor:middle;white-space:pre;display:inline;fill:#666766;stroke:#666766;stroke-width:0.5;stop-color:#000000"><path
       d="m 51.137814,459.60664 q 0.24584,0.44965 0.375685,0.94782 0.129846,0.49818 0.14386,1.05138 0.04979,1.96551 -1.219145,3.03314 -1.268939,1.06764 -3.716064,1.12963 -2.453634,0.0622 -3.775004,-0.93985 -1.321369,-1.00201 -1.371162,-2.96752 -0.01402,-0.55321 0.09027,-1.06383 0.104289,-0.51061 0.327377,-0.95911 l 2.134726,-0.0541 q -0.443051,0.50617 -0.639446,0.98005 -0.203068,0.46753 -0.190537,0.96216 0.02671,1.05434 0.879967,1.57327 0.846584,0.51257 2.493187,0.47086 1.640095,-0.0415 2.466147,-0.5965 0.819379,-0.5613 0.792669,-1.61564 -0.01253,-0.49463 -0.232503,-0.95145 -0.226645,-0.46316 -0.694758,-0.94625 z"
       style="font-family:monospace;-inkscape-font-specification:'monospace Bold';fill:#ffffff;stroke:none"
       id="path1019" /><path
       d="m 45.453718,454.63066 q 0.0036,0.68358 0.611085,1.07103 0.600995,0.38748 1.675196,0.38186 1.074201,-0.006 1.677614,-0.39942 0.596903,-0.39376 0.593323,-1.07734 -0.0036,-0.69009 -0.604609,-1.07757 -0.607505,-0.38745 -1.681707,-0.38182 -1.074201,0.006 -1.671104,0.39938 -0.603413,0.39379 -0.599798,1.08388 z m 2.296272,3.36041 q -1.764294,0.009 -2.797697,-0.89682 -1.039948,-0.91253 -1.048029,-2.45547 -0.0081,-1.54946 1.02225,-2.46632 1.023821,-0.92334 2.788115,-0.93259 1.764295,-0.009 2.804242,0.9033 1.033403,0.90605 1.041519,2.45551 0.0081,1.54294 -1.01574,2.46628 -1.030366,0.91687 -2.79466,0.92611 z"
       style="font-family:monospace;-inkscape-font-specification:'monospace Bold';fill:#ffffff;stroke:none"
       id="path1021" /><path
       d="m 44.855562,445.99322 q -0.458994,-0.22169 -0.675387,-0.55697 -0.216393,-0.33528 -0.209232,-0.817 0.01403,-0.9439 0.670324,-1.29226 0.656388,-0.35486 2.713447,-0.32428 l 4.107609,0.0611 -0.02323,1.56232 -4.680461,-0.0696 q -0.81371,-0.0121 -1.088955,0.10752 -0.275246,0.11962 -0.280085,0.4451 -0.0048,0.32548 0.273142,0.45984 0.277981,0.13436 1.078671,0.14626 l 4.680461,0.0696 -0.02294,1.5428 -4.68046,-0.0696 q -0.800691,-0.0119 -1.082543,0.11413 -0.281852,0.12603 -0.286691,0.45152 -0.0048,0.32548 0.266729,0.45323 0.271568,0.12775 1.085278,0.13985 l 4.68046,0.0696 -0.02323,1.56232 -7.290842,-0.10839 0.02061,-1.38656 0.755123,0.0112 q -0.42722,-0.16913 -0.669265,-0.53084 -0.248554,-0.36181 -0.241973,-0.80447 0.0066,-0.44266 0.278897,-0.80323 0.265807,-0.36067 0.64453,-0.43318 z"
       style="font-family:monospace;-inkscape-font-specification:'monospace Bold';fill:#ffffff;stroke:none"
       id="path1023" /><path
       d="m 50.542496,439.64394 3.799748,0.13297 -0.06648,1.89988 -10.058921,-0.352 0.06648,-1.89988 1.093078,0.0383 q -0.620649,-0.32138 -0.922387,-0.82052 -0.301738,-0.49913 -0.278742,-1.15628 0.04371,-1.24923 1.069838,-1.90385 1.026123,-0.65462 2.84792,-0.59087 1.847823,0.0647 2.812208,0.80197 0.964614,0.73079 0.919304,2.02557 -0.02049,0.58558 -0.33618,1.04357 -0.321967,0.45125 -0.945866,0.78119 z m -2.52919,-2.74637 q -1.05404,-0.0369 -1.664925,0.29351 -0.610886,0.3304 -0.632516,0.94851 -0.02163,0.61811 0.564438,0.99691 0.586067,0.3788 1.640107,0.41569 1.05404,0.0369 1.665153,-0.30002 0.611113,-0.33691 0.632743,-0.95502 0.02163,-0.61811 -0.564665,-0.9904 -0.586296,-0.3723 -1.640335,-0.40918 z"
       style="font-family:monospace;-inkscape-font-specification:'monospace Bold';fill:#ffffff;stroke:none"
       id="path1025" /><path
       d="m 48.853625,431.84997 -5.61645,-0.30978 -0.106486,1.93066 -1.462617,-0.0807 0.211539,-3.83531 7.079066,0.39045 q 0.858069,0.0473 1.230297,-0.19947 0.372229,-0.24681 0.407366,-0.88386 l 0.0839,-1.52112 1.462617,0.0807 -0.113298,2.05417 q -0.07493,1.35861 -0.809618,1.91143 -0.734684,0.55283 -2.366314,0.46283 z"
       style="font-family:monospace;-inkscape-font-specification:'monospace Bold';fill:#ffffff;stroke:none"
       id="path1027" /><path
       d="m 52.374819,419.33665 q 0.222759,0.68273 0.307228,1.38116 0.08447,0.69842 0.02674,1.46448 -0.137485,1.82425 -1.184184,2.71816 -1.052702,0.88694 -2.889935,0.74847 -1.778805,-0.13406 -2.741066,-1.1402 -0.962261,-1.00615 -0.841412,-2.60967 0.121828,-1.61651 1.149672,-2.4335 1.021841,-0.82397 2.761694,-0.69285 l 0.772547,0.0582 -0.371354,4.92742 q 0.857432,0.0581 1.317085,-0.40999 0.459653,-0.46808 0.534511,-1.46136 0.04942,-0.65569 -0.0909,-1.30609 -0.140319,-0.65041 -0.496963,-1.37587 z m -4.211292,1.30177 q -0.754049,-0.0438 -1.165454,0.3039 -0.417407,0.34069 -0.472205,1.06779 -0.04942,0.65569 0.323731,1.07555 0.366655,0.41936 1.094868,0.54606 z"
       style="font-family:monospace;-inkscape-font-specification:'monospace Bold';fill:#ffffff;stroke:none"
       id="path1029" /><path
       d="m 43.904218,413.14985 2.060904,0.19709 0.237379,-2.48216 1.458187,0.13946 -0.237379,2.48215 3.434841,0.32849 q 0.486062,0.0465 0.722242,-0.16637 0.230319,-0.21996 0.283001,-0.77083 l 0.139452,-1.45819 1.458187,0.13946 -0.152468,1.59428 q -0.156186,1.63317 -0.729814,2.16038 -0.580108,0.52659 -1.99293,0.39148 l -3.344109,-0.31981 -0.177259,1.85352 -1.458187,-0.13946 0.177259,-1.85351 -2.060904,-0.1971 z"
       style="font-family:monospace;-inkscape-font-specification:'monospace Bold';fill:#ffffff;stroke:none"
       id="path1031" /><path
       d="m 54.031064,403.35378 q 0.195114,0.69114 0.25142,1.3924 0.05631,0.70126 -0.0322,1.46437 -0.210756,1.81725 -1.292567,2.66833 -1.087528,0.84387 -2.917704,0.63162 -1.771973,-0.20551 -2.692981,-1.24955 -0.921009,-1.04404 -0.735754,-2.6414 0.186756,-1.6103 1.246632,-2.38528 1.05416,-0.7822 2.78733,-0.5812 l 0.76958,0.0892 -0.569266,4.9085 q 0.854401,0.0925 1.332511,-0.35668 0.47811,-0.44921 0.592863,-1.43867 0.07575,-0.65317 -0.03829,-1.30869 -0.114043,-0.65553 -0.441215,-1.39475 z m -4.260249,1.13132 q -0.751678,-0.0741 -1.176736,0.25677 -0.430774,0.32362 -0.514776,1.04793 -0.07575,0.65317 0.280203,1.0877 0.349489,0.43377 1.072016,0.58966 z"
       style="font-family:monospace;-inkscape-font-specification:'monospace Bold';fill:#ffffff;stroke:none"
       id="path1033" /><path
       d="m 51.81316,399.63985 -5.573373,-0.76024 -0.261334,1.91585 -1.4514,-0.19798 0.519149,-3.80589 7.024773,0.95822 q 0.851487,0.11615 1.24235,-0.0999 0.390863,-0.21609 0.477094,-0.84825 l 0.2059,-1.50946 1.451399,0.19798 -0.278052,2.03841 q -0.183902,1.34819 -0.960645,1.84017 -0.776744,0.49198 -2.395861,0.27112 z"
       style="font-family:monospace;-inkscape-font-specification:'monospace Bold';fill:#ffffff;stroke:none"
       id="path1035" /><path
       d="m 57.06603,390.1425 q 0.956643,0.53897 1.335935,1.14548 0.386733,0.60109 0.267614,1.36002 l -0.244295,1.55646 -1.434261,-0.22511 0.120129,-0.76537 q 0.09085,-0.57885 -0.06613,-0.88027 -0.150552,-0.30042 -0.821058,-0.68903 l -0.363691,-0.20207 -7.434118,1.64056 0.310921,-1.98095 4.934245,-0.91261 -4.428493,-2.30965 0.310922,-1.98095 z"
       style="font-family:monospace;-inkscape-font-specification:'monospace Bold';fill:#ffffff;stroke:none"
       id="path1037" /><path
       d="m 55.74709,373.62222 q -0.207859,1.04727 -0.02204,1.51558 0.185822,0.46832 0.837177,0.59759 0.485324,0.0963 0.829721,-0.134 0.344397,-0.23033 0.44199,-0.72204 0.147022,-0.74075 -0.32743,-1.25971 -0.480838,-0.52023 -1.483414,-0.71922 l -0.127717,-0.0254 z m -0.204486,-2.74865 4.08055,0.80989 -0.368823,1.85828 -0.79823,-0.15843 q 0.405378,0.43224 0.555614,1.01297 0.150237,0.58072 0.02349,1.2193 -0.24208,1.2197 -1.022665,1.77497 -0.779318,0.54889 -1.935155,0.31948 -1.251624,-0.24842 -1.684542,-1.17729 -0.439305,-0.93014 -0.102167,-2.62877 l 0.25729,-1.29633 -0.312907,-0.0621 q -0.453394,-0.09 -0.749191,0.19645 -0.300915,0.27878 -0.427658,0.91736 -0.133081,0.67052 -0.08614,1.33693 0.04182,0.65877 0.276586,1.41557 L 51.6522,376.09499 q -0.132492,-0.67013 -0.12708,-1.33279 0.0054,-0.66267 0.147366,-1.37788 0.34601,-1.74333 1.194255,-2.30509 0.849514,-0.56814 2.675863,-0.20566 z"
       style="font-family:monospace;-inkscape-font-specification:'monospace Bold';fill:#ffffff;stroke:none"
       id="path1039" /><path
       d="m 57.226815,364.97201 q -0.953856,-0.20935 -1.605723,0.0275 -0.658225,0.23546 -0.788021,0.82685 -0.1284,0.58503 0.364362,1.07311 0.494157,0.48171 1.454373,0.69245 0.966575,0.21214 1.617046,-0.0183 0.651866,-0.23686 0.780266,-0.82189 0.129796,-0.59139 -0.362966,-1.07947 -0.499121,-0.48947 -1.459337,-0.70021 z m 3.550296,-1.17375 q 1.710583,0.37543 2.297039,1.31732 0.594212,0.93692 0.213198,2.67294 -0.1284,0.58503 -0.343035,1.13781 -0.208277,0.55417 -0.516126,1.10648 l -1.710583,-0.37543 q 0.408355,-0.4636 0.66828,-0.97977 0.259926,-0.51618 0.38693,-1.09485 0.173061,-0.78852 -0.119779,-1.24605 -0.286481,-0.45613 -1.075003,-0.62919 l -0.769444,-0.16888 q 0.44871,0.38509 0.597622,0.89102 0.148911,0.50592 0.0066,1.15454 -0.267965,1.22094 -1.379531,1.73016 -1.111566,0.50923 -2.74584,0.15054 -1.691507,-0.37124 -2.525809,-1.30753 -0.834302,-0.9363 -0.569128,-2.14452 0.133983,-0.61046 0.524814,-1.02459 0.390831,-0.41412 0.972286,-0.57312 l -0.909343,-0.19958 0.408926,-1.8632 z"
       style="font-family:monospace;-inkscape-font-specification:'monospace Bold';fill:#ffffff;stroke:none"
       id="path1041" /><path
       d="m 58.122445,354.52319 q -0.351623,0.23681 -0.589889,0.61472 -0.236742,0.37159 -0.354034,0.85898 -0.141663,0.58866 -0.03941,1.08201 0.09744,0.48549 0.432001,0.82046 0.20397,0.2098 0.53054,0.35535 0.328094,0.13922 1.02436,0.30678 l 3.26612,0.78601 -0.446318,1.8546 -7.089252,-1.70606 0.446317,-1.8546 1.101366,0.26505 q -0.542149,-0.41841 -0.735722,-1.06096 -0.199903,-0.64408 -0.01863,-1.39731 0.0914,-0.37978 0.273167,-0.71773 0.176965,-0.34579 0.433407,-0.63229 z"
       style="font-family:monospace;-inkscape-font-specification:'monospace Bold';fill:#ffffff;stroke:none"
       id="path1043" /><path
       d="m 64.852966,348.2083 q 0.09619,0.71169 0.05352,1.41391 -0.04267,0.70222 -0.237391,1.44535 -0.463707,1.76968 -1.654255,2.46052 -1.195196,0.6829 -2.97747,0.21589 -1.725594,-0.45216 -2.490964,-1.61512 -0.76537,-1.16297 -0.35777,-2.71852 0.4109,-1.56815 1.56905,-2.18672 1.153503,-0.62651 2.84131,-0.18426 l 0.749437,0.19637 -1.252502,4.78003 q 0.832958,0.21152 1.36938,-0.16614 0.536422,-0.37767 0.788902,-1.34123 0.166671,-0.63608 0.145754,-1.30112 -0.02092,-0.66504 -0.241105,-1.44286 z m -4.376857,0.52223 q -0.733844,-0.17883 -1.201125,0.0891 -0.471929,0.25996 -0.656751,0.96531 -0.16667,0.63608 0.12478,1.11626 0.285154,0.47853 0.978651,0.73428 z"
       style="font-family:monospace;-inkscape-font-specification:'monospace Bold';fill:#ffffff;stroke:none"
       id="path1045" /><path
       d="m 67.028703,340.47382 q 0.08187,0.71347 0.02511,1.4147 -0.05677,0.70122 -0.26638,1.44029 -0.499164,1.76001 -1.70335,2.42679 -1.208673,0.65875 -2.981206,0.15603 -1.716163,-0.48673 -2.458015,-1.66483 -0.741853,-1.17811 -0.303086,-2.72516 0.44232,-1.55958 1.612663,-2.15476 1.165856,-0.60321 2.844438,-0.12714 l 0.745341,0.21139 -1.348276,4.75389 q 0.828541,0.22822 1.372442,-0.13859 0.5439,-0.36682 0.815687,-1.32511 0.179415,-0.6326 0.171863,-1.29793 -0.0076,-0.66532 -0.212071,-1.44741 z m -4.386464,0.4342 q -0.730104,-0.19354 -1.202673,0.0649 -0.477056,0.25043 -0.676011,0.95193 -0.179414,0.6326 0.102331,1.11853 0.275483,0.48417 0.963703,0.75379 z"
       style="font-family:monospace;-inkscape-font-specification:'monospace Bold';fill:#ffffff;stroke:none"
       id="path1047" /></g><g
     aria-label="Agree"
     transform="translate(-6)"
     id="text668"
     style="font-weight:bold;font-size:13.3333px;line-height:1;font-family:Ubuntu;-inkscape-font-specification:'Ubuntu Bold';text-align:center;letter-spacing:0px;text-anchor:middle;white-space:pre;display:inline;fill:#666766;stroke:#666766;stroke-width:0.5;stop-color:#000000"><path
       d="m 105.30558,230.09579 2.97383,2.79259 0.91871,-1.56694 z m -2.10911,0.12186 1.18872,-2.02747 9.71211,2.65286 -0.97139,1.6568 -2.37535,-0.69836 -1.30067,2.21842 1.77604,1.72053 -0.97139,1.6568 z"
       style="font-family:monospace;-inkscape-font-specification:'monospace Bold';fill:#ffffff;stroke:none"
       id="path1050" /><path
       d="m 113.73323,224.23348 q -0.83233,-0.51077 -1.52583,-0.50095 -0.69904,0.006 -1.01572,0.52246 -0.31328,0.5105 -0.008,1.13325 0.30871,0.6172 1.14659,1.13138 0.84343,0.51759 1.53352,0.51332 0.69349,-0.01 1.00677,-0.52032 0.31668,-0.51605 0.0114,-1.1388 -0.31086,-0.62616 -1.14874,-1.14034 z m 3.73886,0.0563 q 1.49265,0.91599 1.73754,1.99817 0.25384,1.08004 -0.67577,2.59488 -0.31327,0.5105 -0.69742,0.96223 -0.3786,0.45513 -0.85065,0.87583 l -1.49265,-0.91599 q 0.53787,-0.30392 0.95279,-0.70621 0.41492,-0.40229 0.72479,-0.90724 0.42224,-0.68806 0.29576,-1.21635 -0.12093,-0.52488 -0.80899,-0.94712 l -0.67141,-0.41203 q 0.29749,0.51102 0.27213,1.03779 -0.0254,0.52677 -0.37269,1.09276 -0.65379,1.06538 -1.87091,1.18163 -1.21712,0.11625 -2.64318,-0.75888 -1.47601,-0.90577 -1.95685,-2.064 -0.48084,-1.15823 0.16614,-2.21252 0.3269,-0.53269 0.83198,-0.79563 0.50509,-0.26293 1.10652,-0.22231 l -0.79349,-0.48694 0.99772,-1.62582 z"
       style="font-family:monospace;-inkscape-font-specification:'monospace Bold';fill:#ffffff;stroke:none"
       id="path1052" /><path
       d="m 118.0082,214.65716 q -0.40986,0.1083 -0.75895,0.3871 -0.34558,0.27332 -0.61631,0.69523 -0.327,0.50957 -0.39231,1.00915 -0.0673,0.49059 0.13884,0.9168 0.12382,0.26511 0.38454,0.50977 0.26424,0.23918 0.86696,0.62595 l 2.82731,1.81429 -1.03021,1.60543 -6.13679,-3.938 1.0302,-1.60543 0.9534,0.6118 q -0.37482,-0.57315 -0.34681,-1.24365 0.0225,-0.674 0.44094,-1.32604 0.21096,-0.32876 0.49357,-0.58833 0.28064,-0.26858 0.6169,-0.45505 z"
       style="font-family:monospace;-inkscape-font-specification:'monospace Bold';fill:#ffffff;stroke:none"
       id="path1054" /><path
       d="m 126.43834,210.90068 q -0.14269,0.70384 -0.41344,1.35316 -0.27076,0.64933 -0.69857,1.28741 -1.01878,1.5195 -2.37011,1.78138 -1.35311,0.25285 -2.88342,-0.77319 -1.48165,-0.9934 -1.82298,-2.34313 -0.34133,-1.34973 0.55418,-2.68537 0.90276,-1.34646 2.19977,-1.5507 1.29522,-0.21328 2.74442,0.75837 l 0.64349,0.43144 -2.75179,4.10427 q 0.71741,0.47316 1.34806,0.29245 0.63065,-0.18071 1.18536,-1.00806 0.36618,-0.54615 0.56467,-1.18122 0.19849,-0.63507 0.24575,-1.44208 z m -4.30584,-0.94305 q -0.63452,-0.40975 -1.16384,-0.31002 -0.5311,0.0907 -0.93717,0.69633 -0.36618,0.54615 -0.24845,1.09538 0.11233,0.54561 0.68349,1.01478 z"
       style="font-family:monospace;-inkscape-font-specification:'monospace Bold';fill:#ffffff;stroke:none"
       id="path1056" /><path
       d="m 131.03198,204.30864 q -0.15683,0.70082 -0.44059,1.34457 -0.28376,0.64375 -0.72432,1.2731 -1.04915,1.49869 -2.40547,1.73333 -1.35792,0.22558 -2.86728,-0.83103 -1.46136,-1.02301 -1.77547,-2.37933 -0.31411,-1.35633 0.60809,-2.67369 0.92966,-1.32802 2.23052,-1.50613 1.29925,-0.18717 2.72861,0.81343 l 0.63468,0.4443 -2.83381,4.04808 q 0.70775,0.4875 1.34191,0.31951 0.63416,-0.16799 1.2054,-0.984 0.37709,-0.53868 0.58832,-1.16963 0.21122,-0.63095 0.27471,-1.43685 z m -4.286,-1.02948 q -0.62615,-0.42243 -1.15737,-0.33337 -0.53282,0.08 -0.95098,0.67733 -0.3771,0.53868 -0.27044,1.09017 0.10132,0.54775 0.66293,1.02832 z"
       style="font-family:monospace;-inkscape-font-specification:'monospace Bold';fill:#ffffff;stroke:none"
       id="path1058" /></g><g
     aria-label="Slightly agree"
     transform="translate(4)"
     id="text672"
     style="font-weight:bold;font-size:13.3333px;line-height:1;font-family:Ubuntu;-inkscape-font-specification:'Ubuntu Bold';text-align:center;letter-spacing:0px;text-anchor:middle;white-space:pre;display:inline;fill:#666766;stroke:#666766;stroke-width:0.5;stop-color:#000000"><path
       d="m 219.24284,107.00599 q -1.48258,0.46473 -2.26138,0.30792 -0.78283,-0.16192 -1.41993,-0.96952 -0.81855,-1.03761 -0.62181,-2.15472 0.19673,-1.11711 1.35701,-2.03244 0.52648,-0.41532 1.14972,-0.70797 0.61921,-0.29777 1.32095,-0.4699 l 1.16129,1.47207 q -0.75574,0.0406 -1.39778,0.25687 -0.64205,0.21627 -1.13274,0.60336 -0.54692,0.43146 -0.66488,0.88108 -0.11796,0.44963 0.20462,0.85854 0.25,0.31691 0.62489,0.36115 0.37597,0.0351 1.24825,-0.2467 l 0.8427,-0.26675 q 1.18617,-0.38846 2.06016,-0.17407 0.87398,0.2144 1.54334,1.06289 0.91129,1.15517 0.67798,2.26796 -0.23223,1.10366 -1.6123,2.19237 -0.56736,0.44758 -1.24871,0.76119 -0.6722,0.31469 -1.41346,0.46825 l -1.22984,-1.55897 q 0.94185,-0.0464 1.66943,-0.28043 0.73268,-0.23802 1.28471,-0.6735 0.55714,-0.43952 0.66624,-0.93191 0.10507,-0.49751 -0.2538,-0.95242 -0.27016,-0.34246 -0.67623,-0.43674 -0.4101,-0.0994 -0.9155,0.0588 z"
       style="font-family:monospace;-inkscape-font-specification:'monospace Bold';fill:#ffffff;stroke:none"
       id="path1061" /><path
       d="m 225.7541,103.49361 -3.3944,-4.485366 -1.54185,1.166826 -0.88396,-1.168065 3.06293,-2.317936 4.27836,5.653431 q 0.51859,0.68526 0.94751,0.80971 0.42893,0.12445 0.93768,-0.26056 l 1.21479,-0.91932 0.88396,1.16807 -1.64048,1.24147 q -1.085,0.8211 -1.98172,0.61794 -0.89672,-0.20316 -1.88282,-1.5062 z"
       style="font-family:monospace;-inkscape-font-specification:'monospace Bold';fill:#ffffff;stroke:none"
       id="path1063" /><path
       d="m 228.86316,95.847454 3.05623,-2.21763 3.42203,4.716078 1.91804,-1.391753 0.86029,1.185606 -5.38528,3.907615 -0.86029,-1.18561 1.92331,-1.395572 -2.56174,-3.530472 -1.51231,1.097344 z m -0.5715,-3.969146 1.54392,-1.120285 1.30764,1.802121 -1.54393,1.120285 z"
       style="font-family:monospace;-inkscape-font-specification:'monospace Bold';fill:#ffffff;stroke:none"
       id="path1065" /><path
       d="m 240.62221,91.805567 q -0.5575,-0.801783 -1.19669,-1.071 -0.64289,-0.274562 -1.14,0.07109 -0.49176,0.341938 -0.46193,1.03486 0.0352,0.689206 0.59639,1.496334 0.56494,0.812473 1.19878,1.085407 0.63918,0.269217 1.13094,-0.07272 0.49711,-0.345654 0.46728,-1.038576 -0.0335,-0.698268 -0.59477,-1.505396 z m 3.40221,1.551542 q 0.99979,1.437864 0.78996,2.527383 -0.20076,1.091149 -1.66001,2.105811 -0.49176,0.341938 -1.02486,0.601609 -0.52939,0.265016 -1.13056,0.461004 l -0.9998,-1.437864 q 0.61463,-0.06261 1.15608,-0.264649 0.54146,-0.202043 1.02787,-0.540263 0.66281,-0.460873 0.75889,-0.995527 0.0998,-0.529308 -0.36107,-1.192115 l -0.44972,-0.646772 q 0.0675,0.587436 -0.16707,1.059786 -0.23456,0.47235 -0.77977,0.851455 -1.02628,0.713609 -2.1878,0.331814 -1.16152,-0.381794 -2.11671,-1.755515 -0.98865,-1.421828 -0.96444,-2.675671 0.0242,-1.253843 1.03979,-1.960018 0.51314,-0.356804 1.08129,-0.395023 0.56814,-0.03822 1.10275,0.240271 l -0.53149,-0.764366 1.56615,-1.088997 z"
       style="font-family:monospace;-inkscape-font-specification:'monospace Bold';fill:#ffffff;stroke:none"
       id="path1067" /><path
       d="m 248.24947,85.492624 2.62331,3.939557 -1.57691,1.050046 -2.46093,-3.695705 q -0.43662,-0.65569 -0.81392,-0.811179 -0.37188,-0.159099 -0.79455,0.122357 -0.43352,0.288673 -0.42117,0.835794 0.009,0.541703 0.45978,1.219068 l 2.31299,3.47353 -1.5769,1.050046 -5.61468,-8.431843 1.5769,-1.050046 2.17948,3.273029 q -0.16759,-0.615821 0.0548,-1.162816 0.22239,-0.546996 0.79679,-0.929487 0.86161,-0.573736 1.68303,-0.291611 0.81782,0.276706 1.57198,1.40926 z"
       style="font-family:monospace;-inkscape-font-specification:'monospace Bold';fill:#ffffff;stroke:none"
       id="path1069" /><path
       d="m 250.50822,78.538181 1.11257,1.745956 2.10283,-1.339982 0.78719,1.235346 -2.10283,1.339982 1.85428,2.909926 q 0.2624,0.411782 0.57551,0.467015 0.3151,0.04624 0.78179,-0.251141 l 1.23535,-0.787196 0.78719,1.235346 -1.35064,0.860667 q -1.38359,0.881659 -2.15213,0.753805 -0.77204,-0.133345 -1.53474,-1.330258 l -1.8053,-2.833061 -1.57027,1.000613 -0.78719,-1.235346 1.57026,-1.000613 -1.11257,-1.745955 z"
       style="font-family:monospace;-inkscape-font-specification:'monospace Bold';fill:#ffffff;stroke:none"
       id="path1071" /><path
       d="m 259.09041,80.626186 -2.9268,-4.803572 -1.65123,1.006088 -0.76219,-1.25093 3.28022,-1.998626 3.68899,6.054502 q 0.44715,0.733879 0.86141,0.900774 0.41426,0.166895 0.95911,-0.16508 l 1.30096,-0.792675 0.76219,1.25093 -1.75686,1.07045 q -1.16197,0.707988 -2.03376,0.415804 -0.87178,-0.292183 -1.72204,-1.687665 z"
       style="font-family:monospace;-inkscape-font-specification:'monospace Bold';fill:#ffffff;stroke:none"
       id="path1073" /><path
       d="m 269.7733,78.708674 q 0.18548,1.082242 -0.0457,1.75919 -0.22231,0.679299 -0.88626,1.065751 l -1.36166,0.792555 -0.73033,-1.25475 0.66958,-0.389727 q 0.5064,-0.294752 0.64119,-0.60673 0.13807,-0.306351 0.0165,-1.071739 l -0.0727,-0.409651 -5.96346,-4.732299 1.73301,-1.008706 3.82137,3.252193 -1.0024,-4.892978 1.73302,-1.008706 z"
       style="font-family:monospace;-inkscape-font-specification:'monospace Bold';fill:#ffffff;stroke:none"
       id="path1075" /><path
       d="m 281.75761,67.261548 q -0.94363,0.499549 -1.1897,0.939203 -0.24607,0.439654 0.0646,1.026549 0.2315,0.437294 0.6275,0.559147 0.39599,0.121853 0.83904,-0.112691 0.66745,-0.353339 0.77069,-1.048872 0.1002,-0.701286 -0.37803,-1.604644 l -0.0609,-0.115077 z m 2.00338,-1.892967 1.94641,3.676724 -1.67438,0.886394 -0.38075,-0.719234 q -0.0795,0.587226 -0.43528,1.070201 -0.35573,0.482975 -0.93112,0.787578 -1.09898,0.581791 -2.0223,0.326575 -0.91756,-0.258262 -1.46889,-1.299712 -0.59702,-1.127759 -0.14956,-2.049715 0.44442,-0.927709 1.97495,-1.737952 l 1.16803,-0.618344 -0.14925,-0.28194 q -0.21627,-0.408524 -0.62513,-0.45727 -0.40615,-0.05755 -0.98154,0.247057 -0.60415,0.319833 -1.09154,0.776744 -0.48469,0.448111 -0.92368,1.107761 l -0.76151,-1.438468 q 0.43629,-0.525619 0.9538,-0.939546 0.51751,-0.413926 1.16194,-0.755081 1.57081,-0.831566 2.54185,-0.527949 0.97679,0.30057 1.84795,1.946177 z"
       style="font-family:monospace;-inkscape-font-specification:'monospace Bold';fill:#ffffff;stroke:none"
       id="path1077" /><path
       d="m 289.40215,62.95145 q -0.43945,-0.8721 -1.03451,-1.22837 -0.598,-0.362084 -1.1387,-0.08963 -0.53489,0.269526 -0.60262,0.959775 -0.0619,0.687319 0.38046,1.565232 0.44531,0.883728 1.03456,1.242928 0.59506,0.35627 1.12995,0.08674 0.5407,-0.272456 0.60843,-0.962705 0.0648,-0.696063 -0.37757,-1.573976 z m 3.15074,2.013731 q 0.78807,1.563965 0.42739,2.613246 -0.35194,1.052165 -1.93916,1.851956 -0.53489,0.269526 -1.09916,0.451797 -0.56135,0.188085 -1.18408,0.297749 l -0.78807,-1.563965 q 0.61733,0.02428 1.18178,-0.09976 0.56446,-0.124041 1.09353,-0.390637 0.72094,-0.363275 0.89111,-0.879149 0.17311,-0.510061 -0.19016,-1.230996 l -0.35449,-0.703494 q -0.0156,0.591094 -0.31417,1.025844 -0.29854,0.43475 -0.89156,0.733573 -1.11629,0.56249 -2.21272,0.02144 -1.09642,-0.541051 -1.84934,-2.035248 -0.77928,-1.546523 -0.57933,-2.784555 0.19996,-1.238032 1.30462,-1.794662 0.55815,-0.281245 1.12603,-0.239338 0.56788,0.04191 1.05811,0.39268 l -0.41893,-0.831401 1.7035,-0.858383 z"
       style="font-family:monospace;-inkscape-font-specification:'monospace Bold';fill:#ffffff;stroke:none"
       id="path1079" /><path
       d="m 298.07353,57.05341 q -0.40558,-0.123378 -0.84911,-0.06977 -0.43765,0.05079 -0.88978,0.267323 -0.54607,0.261523 -0.8643,0.652136 -0.31516,0.381929 -0.36394,0.852837 -0.0341,0.290616 0.0591,0.635812 0.099,0.342384 0.40833,0.988277 l 1.45103,3.029828 -1.72042,0.823937 -3.14952,-6.576371 1.72042,-0.823937 0.4893,1.021686 q -0.0175,-0.684608 0.35889,-1.240213 0.37354,-0.561478 1.07228,-0.896115 0.35231,-0.168724 0.72918,-0.240935 0.37993,-0.0809 0.764,-0.06271 z"
       style="font-family:monospace;-inkscape-font-specification:'monospace Bold';fill:#ffffff;stroke:none"
       id="path1081" /><path
       d="m 307.21939,58.290578 q -0.49144,0.523667 -1.06315,0.933638 -0.57172,0.409971 -1.27112,0.727793 -1.66552,0.756847 -2.95268,0.269096 -1.28392,-0.496372 -2.04615,-2.17375 -0.73799,-1.624034 -0.31867,-2.951605 0.41933,-1.32757 1.88333,-1.992842 1.47586,-0.670659 2.6865,-0.16244 1.21387,0.499597 1.93571,2.088068 l 0.32051,0.705328 -4.49869,2.044297 q 0.36146,0.779688 0.99292,0.957559 0.63146,0.177871 1.53831,-0.234221 0.59864,-0.272034 1.10139,-0.707875 0.50275,-0.43584 0.96727,-1.097444 z m -3.16677,-3.066127 q -0.32429,-0.68216 -0.82697,-0.875643 -0.49946,-0.202103 -1.16329,0.09956 -0.59864,0.272034 -0.78728,0.801121 -0.19133,0.523159 0.0478,1.222552 z"
       style="font-family:monospace;-inkscape-font-specification:'monospace Bold';fill:#ffffff;stroke:none"
       id="path1083" /><path
       d="m 314.5928,55.098473 q -0.50188,0.513682 -1.08172,0.912078 -0.57984,0.398395 -1.28548,0.702093 -1.68041,0.723214 -2.95749,0.209686 -1.27369,-0.522081 -2.00205,-2.214443 -0.7052,-1.638541 -0.25927,-2.957414 0.44593,-1.318873 1.92301,-1.95458 1.48904,-0.640855 2.68922,-0.108403 1.20359,0.523898 1.89334,2.126559 l 0.30628,0.711629 -4.53888,1.953449 q 0.34571,0.786796 0.97347,0.977325 0.62775,0.190529 1.54271,-0.203249 0.60398,-0.259945 1.11539,-0.685592 0.51141,-0.425646 0.98914,-1.077778 z m -3.1045,-3.129166 q -0.31051,-0.688542 -0.80921,-0.892091 -0.49528,-0.212102 -1.16505,0.07615 -0.60399,0.259945 -0.80323,0.785132 -0.2018,0.519208 0.0233,1.223267 z"
       style="font-family:monospace;-inkscape-font-specification:'monospace Bold';fill:#ffffff;stroke:none"
       id="path1085" /></g><g
     aria-label="Neutral"
     transform="translate(0,2)"
     id="text682"
     style="font-weight:bold;font-size:13.3333px;line-height:1;font-family:Ubuntu;-inkscape-font-specification:'Ubuntu Bold';text-align:center;letter-spacing:0px;text-anchor:middle;white-space:pre;display:inline;fill:#666766;stroke:#666766;stroke-width:0.5;stop-color:#000000"><path
       d="m 458.7228,9.995483 2.05903,-0.1400814 3.18154,6.8636644 -0.47945,-7.0474936 1.6888,-0.1148933 0.65975,9.6976109 -2.04605,0.139198 -3.19453,-6.862781 0.47946,7.047494 -1.6888,0.114893 z"
       style="font-family:monospace;-inkscape-font-specification:'monospace Bold';fill:#ffffff;stroke:none"
       id="path1088" /><path
       d="m 473.76788,18.500294 q -0.65024,0.304858 -1.33302,0.474398 -0.68278,0.16954 -1.45013,0.206252 -1.82733,0.08742 -2.84294,-0.841666 -1.00942,-0.935902 -1.09746,-2.776241 -0.0853,-1.781811 0.79521,-2.860272 0.88046,-1.07846 2.48669,-1.155305 1.61924,-0.07747 2.55619,0.842349 0.94314,0.913002 1.02652,2.655796 l 0.037,0.773852 -4.93575,0.236135 q 0.0476,0.85808 0.56852,1.256817 0.52095,0.398737 1.51591,0.351136 0.65679,-0.03142 1.28506,-0.250497 0.62827,-0.219075 1.30449,-0.662051 z m -1.80874,-4.01971 q -0.0491,-0.753722 -0.44462,-1.119352 -0.38934,-0.372444 -1.11767,-0.337599 -0.6568,0.03142 -1.02769,0.453272 -0.3712,0.415348 -0.40757,1.153605 z"
       style="font-family:monospace;-inkscape-font-specification:'monospace Bold';fill:#ffffff;stroke:none"
       id="path1090" /><path
       d="m 475.60801,16.243769 -0.13138,-4.744263 1.90681,-0.05281 0.12328,4.451407 q 0.0218,0.787456 0.25245,1.11974 0.23064,0.332283 0.74476,0.318045 0.51413,-0.01424 0.78786,-0.477721 0.28024,-0.463663 0.25753,-1.28366 l -0.11589,-4.184583 1.90682,-0.05281 0.20185,7.288854 -1.90681,0.05281 -0.0299,-1.080312 q -0.18498,0.610822 -0.66388,0.956242 -0.4724,0.34524 -1.15573,0.364164 -1.04126,0.02884 -1.59402,-0.646223 -0.54624,-0.67524 -0.58373,-2.028884 z"
       style="font-family:monospace;-inkscape-font-specification:'monospace Bold';fill:#ffffff;stroke:none"
       id="path1092" /><path
       d="m 487.08295,9.199269 0.0157,2.070248 2.49342,-0.01889 0.0111,1.464798 -2.49341,0.01889 0.0261,3.450413 q 0.004,0.488266 0.2397,0.701328 0.24245,0.206502 0.79582,0.202311 l 1.4648,-0.0111 0.0111,1.464798 -1.60151,0.01213 q -1.64057,0.01243 -2.22393,-0.504002 -0.5834,-0.522938 -0.59415,-1.942165 l -0.0254,-3.35927 -1.86193,0.0141 -0.0111,-1.464798 1.86192,-0.0141 -0.0157,-2.070248 z"
       style="font-family:monospace;-inkscape-font-specification:'monospace Bold';fill:#ffffff;stroke:none"
       id="path1094" /><path
       d="m 498.2483,13.348603 q -0.30888,-0.290353 -0.73023,-0.438876 -0.41484,-0.148442 -0.9161,-0.154727 -0.60542,-0.0076 -1.06381,0.201521 -0.45179,0.202685 -0.70423,0.603196 -0.15934,0.245417 -0.22884,0.596135 -0.063,0.350799 -0.072,1.066887 l -0.0421,3.359102 -1.90739,-0.02392 0.0914,-7.291075 1.90739,0.02392 -0.0142,1.132721 q 0.28776,-0.62144 0.87139,-0.952689 0.5837,-0.33776 1.35838,-0.328047 0.39059,0.0049 0.76043,0.107199 0.37643,0.09587 0.71266,0.282394 z"
       style="font-family:monospace;-inkscape-font-specification:'monospace Bold';fill:#ffffff;stroke:none"
       id="path1096" /><path
       d="m 503.38292,15.360971 q -1.06714,-0.03486 -1.49901,0.224612 -0.43188,0.259474 -0.45356,0.923181 -0.0162,0.494526 0.26709,0.796904 0.28324,0.302377 0.78428,0.318745 0.7548,0.02466 1.18974,-0.527839 0.43515,-0.559006 0.46852,-1.580593 l 0.004,-0.130139 z m 2.67885,-0.648554 -0.13584,4.157928 -1.89351,-0.06186 0.0266,-0.813367 q -0.3606,0.470247 -0.90918,0.712881 -0.54857,0.242633 -1.19927,0.221376 -1.24282,-0.0406 -1.91759,-0.720546 -0.66827,-0.679733 -0.62979,-1.857487 0.0417,-1.275358 0.88781,-1.853506 0.84636,-0.584654 2.57721,-0.52811 l 1.3209,0.04315 0.0104,-0.31884 q 0.0151,-0.461992 -0.31562,-0.707295 -0.32398,-0.251597 -0.97468,-0.272854 -0.68322,-0.02232 -1.33315,0.132322 -0.6432,0.148348 -1.35178,0.503005 l 0.0532,-1.626733 q 0.63967,-0.239657 1.2944,-0.342032 0.65474,-0.102374 1.38351,-0.07857 1.77639,0.05803 2.46856,0.803684 0.69867,0.745865 0.63788,2.606846 z"
       style="font-family:monospace;-inkscape-font-specification:'monospace Bold';fill:#ffffff;stroke:none"
       id="path1098" /><path
       d="m 509.41604,15.993723 0.29675,-5.617153 -1.9309,-0.102006 0.0773,-1.4628006 3.83579,0.2026389 -0.37402,7.0799527 q -0.0453,0.858177 0.20232,1.229832 0.24767,0.371655 0.8848,0.405313 l 1.52131,0.08037 -0.0773,1.4628 -2.05442,-0.108532 q -1.35878,-0.07178 -1.9133,-0.805181 -0.55453,-0.733398 -0.46833,-2.365233 z"
       style="font-family:monospace;-inkscape-font-specification:'monospace Bold';fill:#ffffff;stroke:none"
       id="path1100" /></g><g
     aria-label="Indifferent or no opinion"
     transform="translate(10.322832,131.05799)"
     id="text688"
     style="font-weight:bold;font-size:13.3333px;line-height:1;font-family:Ubuntu;-inkscape-font-specification:'Ubuntu Bold';text-align:center;letter-spacing:0px;text-anchor:middle;white-space:pre;shape-inside:url(#rect690);display:inline;fill:#666766;stroke:#666766;stroke-width:0.5;stop-color:#000000"><path
       d="m 380.79192,355.65565 v -1.69271 h 5.78774 v 1.69271 h -1.93359 v 6.33461 h 1.93359 v 1.69271 h -5.78774 v -1.69271 h 1.93359 v -6.33461 z"
       style="font-family:monospace;-inkscape-font-specification:'monospace Bold';fill:#ffffff;stroke:none"
       id="path1190" /><path
       d="m 394.67209,358.94991 v 4.73306 h -1.89453 v -4.44009 q 0,-0.79427 -0.22786,-1.13281 -0.22135,-0.34506 -0.72916,-0.34506 -0.51433,0 -0.8138,0.46224 -0.29297,0.46224 -0.29297,1.28255 v 4.17317 h -1.89453 v -7.29165 h 1.89453 v 1.09375 q 0.20182,-0.60547 0.6901,-0.9375 0.48828,-0.33203 1.17838,-0.33203 1.03516,0 1.5625,0.6901 0.52734,0.68359 0.52734,2.04427 z"
       style="font-family:monospace;-inkscape-font-specification:'monospace Bold';fill:#ffffff;stroke:none"
       id="path1192" /><path
       d="m 400.8765,357.42647 v -3.87368 h 1.90104 v 10.13018 h -1.90104 v -1.08073 q -0.30599,0.63151 -0.79427,0.95052 -0.48177,0.31901 -1.13932,0.31901 -1.24999,0 -1.9401,-1.0026 -0.6901,-1.0026 -0.6901,-2.82552 0,-1.84895 0.69661,-2.83853 0.70313,-0.98958 1.9987,-0.98958 0.58593,0 1.04817,0.30599 0.46875,0.29948 0.82031,0.90494 z m -2.65624,2.63021 q 0,1.05468 0.35156,1.65364 0.35156,0.59895 0.97005,0.59895 0.61849,0 0.97656,-0.59895 0.35807,-0.59896 0.35807,-1.65364 0,-1.05469 -0.35807,-1.65365 -0.35807,-0.59895 -0.97656,-0.59895 -0.61849,0 -0.97005,0.59895 -0.35156,0.59896 -0.35156,1.65365 z"
       style="font-family:monospace;-inkscape-font-specification:'monospace Bold';fill:#ffffff;stroke:none"
       id="path1194" /><path
       d="m 405.1929,356.39132 h 3.77603 v 5.82681 h 2.36979 v 1.46484 h -6.65363 v -1.46484 h 2.37629 v -4.36197 h -1.86848 z m 1.86848,-3.54817 h 1.90755 v 2.22656 h -1.90755 z"
       style="font-family:monospace;-inkscape-font-specification:'monospace Bold';fill:#ffffff;stroke:none"
       id="path1196" /><path
       d="m 416.59261,355.7533 v 0.63802 h 2.23958 v 1.46484 h -2.23958 v 5.82681 h -1.90755 v -5.82681 h -1.77083 v -1.46484 h 1.77083 v -0.50781 q 0,-1.3151 0.54688,-1.82291 0.54687,-0.50781 2.03124,-0.50781 h 1.56901 v 1.46484 h -1.49088 q -0.42969,0 -0.58594,0.15625 -0.14974,0.15625 -0.16276,0.57942 z"
       style="font-family:monospace;-inkscape-font-specification:'monospace Bold';fill:#ffffff;stroke:none"
       id="path1198" /><path
       d="m 424.61993,355.7533 v 0.63802 h 2.23958 v 1.46484 h -2.23958 v 5.82681 h -1.90754 v -5.82681 h -1.77083 v -1.46484 h 1.77083 v -0.50781 q 0,-1.3151 0.54687,-1.82291 0.54687,-0.50781 2.03125,-0.50781 h 1.569 v 1.46484 h -1.49088 q -0.42969,0 -0.58594,0.15625 -0.14974,0.15625 -0.16276,0.57942 z"
       style="font-family:monospace;-inkscape-font-specification:'monospace Bold';fill:#ffffff;stroke:none"
       id="path1200" /><path
       d="m 435.01053,363.3249 q -0.66406,0.27343 -1.35416,0.41015 -0.69011,0.13672 -1.45833,0.13672 -1.82943,0 -2.79947,-0.97656 -0.96354,-0.98307 -0.96354,-2.82551 0,-1.78385 0.93098,-2.81901 0.93099,-1.03515 2.53906,-1.03515 1.62109,0 2.51301,0.96354 0.89844,0.95703 0.89844,2.70181 v 0.77474 h -4.94139 q 0.007,0.85938 0.50781,1.28255 0.5013,0.42318 1.49739,0.42318 0.65755,0 1.29557,-0.1888 0.63802,-0.18881 1.33463,-0.59896 z m -1.61458,-4.10156 q -0.013,-0.7552 -0.39062,-1.13932 -0.3711,-0.39062 -1.10026,-0.39062 -0.65755,0 -1.04818,0.40365 -0.39062,0.39713 -0.46223,1.1328 z"
       style="font-family:monospace;-inkscape-font-specification:'monospace Bold';fill:#ffffff;stroke:none"
       id="path1202" /><path
       d="m 443.35686,358.40303 q -0.31249,-0.28645 -0.73567,-0.42968 -0.41667,-0.14323 -0.91797,-0.14323 -0.60546,0 -1.06119,0.21484 -0.44922,0.20833 -0.69662,0.61198 -0.15624,0.24739 -0.22135,0.59896 -0.0586,0.35156 -0.0586,1.0677 v 3.35937 h -1.90755 v -7.29165 h 1.90755 v 1.13281 q 0.27994,-0.625 0.85937,-0.96354 0.57943,-0.34505 1.35416,-0.34505 0.39063,0 0.76172,0.0977 0.3776,0.0911 0.71614,0.27343 z"
       style="font-family:monospace;-inkscape-font-specification:'monospace Bold';fill:#ffffff;stroke:none"
       id="path1204" /><path
       d="m 451.06518,363.3249 q -0.66406,0.27343 -1.35416,0.41015 -0.69011,0.13672 -1.45833,0.13672 -1.82943,0 -2.79948,-0.97656 -0.96353,-0.98307 -0.96353,-2.82551 0,-1.78385 0.93098,-2.81901 0.93099,-1.03515 2.53906,-1.03515 1.62109,0 2.51301,0.96354 0.89844,0.95703 0.89844,2.70181 v 0.77474 h -4.9414 q 0.007,0.85938 0.50782,1.28255 0.5013,0.42318 1.49739,0.42318 0.65755,0 1.29557,-0.1888 0.63802,-0.18881 1.33463,-0.59896 z m -1.61458,-4.10156 q -0.013,-0.7552 -0.39062,-1.13932 -0.3711,-0.39062 -1.10026,-0.39062 -0.65755,0 -1.04818,0.40365 -0.39062,0.39713 -0.46223,1.1328 z"
       style="font-family:monospace;-inkscape-font-specification:'monospace Bold';fill:#ffffff;stroke:none"
       id="path1206" /><path
       d="m 458.89068,358.94991 v 4.73306 h -1.89453 v -4.44009 q 0,-0.79427 -0.22786,-1.13281 -0.22136,-0.34506 -0.72917,-0.34506 -0.51432,0 -0.8138,0.46224 -0.29297,0.46224 -0.29297,1.28255 v 4.17317 h -1.89452 v -7.29165 h 1.89452 v 1.09375 q 0.20183,-0.60547 0.69011,-0.9375 0.48828,-0.33203 1.17838,-0.33203 1.03515,0 1.5625,0.6901 0.52734,0.68359 0.52734,2.04427 z"
       style="font-family:monospace;-inkscape-font-specification:'monospace Bold';fill:#ffffff;stroke:none"
       id="path1208" /><path
       d="m 464.43754,354.32101 v 2.07031 h 2.49349 v 1.46484 h -2.49349 v 3.45051 q 0,0.48828 0.23438,0.70313 0.24088,0.20833 0.79427,0.20833 h 1.46484 v 1.46484 h -1.60156 q -1.64062,0 -2.22005,-0.52083 -0.57942,-0.52735 -0.57942,-1.94661 v -3.35937 h -1.86198 v -1.46484 H 462.53 v -2.07031 z"
       style="font-family:monospace;-inkscape-font-specification:'monospace Bold';fill:#ffffff;stroke:none"
       id="path1210" /><path
       d="m 480.01042,357.76501 q -0.6836,0 -1.07422,0.60547 -0.39062,0.59896 -0.39062,1.67317 0,1.07422 0.39062,1.67969 0.39062,0.59896 1.07422,0.59896 0.6901,0 1.08072,-0.59896 0.39063,-0.60547 0.39063,-1.67969 0,-1.07421 -0.39063,-1.67317 -0.39062,-0.60547 -1.08072,-0.60547 z m -3.37239,2.27864 q 0,-1.76431 0.91145,-2.79296 0.91797,-1.03515 2.46094,-1.03515 1.54947,0 2.46093,1.03515 0.91796,1.02865 0.91796,2.79296 0,1.76432 -0.91796,2.79948 -0.91146,1.02864 -2.46093,1.02864 -1.54297,0 -2.46094,-1.02864 -0.91145,-1.03516 -0.91145,-2.79948 z"
       style="font-family:monospace;-inkscape-font-specification:'monospace Bold';fill:#ffffff;stroke:none"
       id="path1212" /><path
       d="m 491.52081,358.40303 q -0.3125,-0.28645 -0.73568,-0.42968 -0.41666,-0.14323 -0.91796,-0.14323 -0.60547,0 -1.0612,0.21484 -0.44922,0.20833 -0.69661,0.61198 -0.15625,0.24739 -0.22135,0.59896 -0.0586,0.35156 -0.0586,1.0677 v 3.35937 h -1.90755 v -7.29165 h 1.90755 v 1.13281 q 0.27995,-0.625 0.85937,-0.96354 0.57943,-0.34505 1.35417,-0.34505 0.39062,0 0.76171,0.0977 0.37761,0.0911 0.71615,0.27343 z"
       style="font-family:monospace;-inkscape-font-specification:'monospace Bold';fill:#ffffff;stroke:none"
       id="path1214" /><path
       d="m 507.05463,358.94991 v 4.73306 h -1.89453 v -4.44009 q 0,-0.79427 -0.22786,-1.13281 -0.22136,-0.34506 -0.72917,-0.34506 -0.51432,0 -0.8138,0.46224 -0.29297,0.46224 -0.29297,1.28255 v 4.17317 h -1.89452 v -7.29165 h 1.89452 v 1.09375 q 0.20182,-0.60547 0.69011,-0.9375 0.48828,-0.33203 1.17838,-0.33203 1.03515,0 1.56249,0.6901 0.52735,0.68359 0.52735,2.04427 z"
       style="font-family:monospace;-inkscape-font-specification:'monospace Bold';fill:#ffffff;stroke:none"
       id="path1216" /><path
       d="m 512.11971,357.76501 q -0.68359,0 -1.07421,0.60547 -0.39063,0.59896 -0.39063,1.67317 0,1.07422 0.39063,1.67969 0.39062,0.59896 1.07421,0.59896 0.69011,0 1.08073,-0.59896 0.39063,-0.60547 0.39063,-1.67969 0,-1.07421 -0.39063,-1.67317 -0.39062,-0.60547 -1.08073,-0.60547 z m -3.37238,2.27864 q 0,-1.76431 0.91145,-2.79296 0.91797,-1.03515 2.46093,-1.03515 1.54948,0 2.46094,1.03515 0.91796,1.02865 0.91796,2.79296 0,1.76432 -0.91796,2.79948 -0.91146,1.02864 -2.46094,1.02864 -1.54296,0 -2.46093,-1.02864 -0.91145,-1.03516 -0.91145,-2.79948 z"
       style="font-family:monospace;-inkscape-font-specification:'monospace Bold';fill:#ffffff;stroke:none"
       id="path1218" /><path
       d="m 528.17436,357.76501 q -0.6836,0 -1.07422,0.60547 -0.39062,0.59896 -0.39062,1.67317 0,1.07422 0.39062,1.67969 0.39062,0.59896 1.07422,0.59896 0.6901,0 1.08072,-0.59896 0.39063,-0.60547 0.39063,-1.67969 0,-1.07421 -0.39063,-1.67317 -0.39062,-0.60547 -1.08072,-0.60547 z m -3.37239,2.27864 q 0,-1.76431 0.91146,-2.79296 0.91796,-1.03515 2.46093,-1.03515 1.54947,0 2.46093,1.03515 0.91796,1.02865 0.91796,2.79296 0,1.76432 -0.91796,2.79948 -0.91146,1.02864 -2.46093,1.02864 -1.54297,0 -2.46093,-1.02864 -0.91146,-1.03516 -0.91146,-2.79948 z"
       style="font-family:monospace;-inkscape-font-specification:'monospace Bold';fill:#ffffff;stroke:none"
       id="path1220" /><path
       d="m 535.06888,362.65433 v 3.80207 h -1.90104 v -10.06508 h 1.90104 v 1.09375 q 0.29947,-0.63151 0.78775,-0.95052 0.48828,-0.31901 1.14583,-0.31901 1.25,0 1.9401,1.0026 0.69011,1.0026 0.69011,2.82551 0,1.84896 -0.70313,2.83854 -0.69661,0.98958 -1.99218,0.98958 -0.58594,0 -1.05468,-0.29948 -0.46224,-0.30599 -0.8138,-0.91796 z m 2.65624,-2.6237 q 0,-1.05468 -0.35156,-1.65364 -0.35156,-0.59895 -0.97005,-0.59895 -0.61849,0 -0.97656,0.59895 -0.35807,0.59896 -0.35807,1.65364 0,1.05469 0.35807,1.65365 0.35807,0.59895 0.97656,0.59895 0.61849,0 0.97005,-0.59895 0.35156,-0.59896 0.35156,-1.65365 z"
       style="font-family:monospace;-inkscape-font-specification:'monospace Bold';fill:#ffffff;stroke:none"
       id="path1222" /><path
       d="m 541.65741,356.39132 h 3.77603 v 5.82681 h 2.36978 v 1.46484 h -6.65363 v -1.46484 h 2.3763 v -4.36197 h -1.86848 z m 1.86848,-3.54817 h 1.90755 v 2.22656 h -1.90755 z"
       style="font-family:monospace;-inkscape-font-specification:'monospace Bold';fill:#ffffff;stroke:none"
       id="path1224" /><path
       d="m 555.21856,358.94991 v 4.73306 h -1.89453 v -4.44009 q 0,-0.79427 -0.22786,-1.13281 -0.22136,-0.34506 -0.72917,-0.34506 -0.51432,0 -0.8138,0.46224 -0.29296,0.46224 -0.29296,1.28255 v 4.17317 h -1.89453 v -7.29165 h 1.89453 v 1.09375 q 0.20182,-0.60547 0.6901,-0.9375 0.48828,-0.33203 1.17838,-0.33203 1.03515,0 1.5625,0.6901 0.52734,0.68359 0.52734,2.04427 z"
       style="font-family:monospace;-inkscape-font-specification:'monospace Bold';fill:#ffffff;stroke:none"
       id="path1226" /><path
       d="m 557.71205,356.39132 h 3.77603 v 5.82681 h 2.36978 v 1.46484 h -6.65362 v -1.46484 h 2.37629 v -4.36197 h -1.86848 z m 1.86848,-3.54817 h 1.90755 v 2.22656 h -1.90755 z"
       style="font-family:monospace;-inkscape-font-specification:'monospace Bold';fill:#ffffff;stroke:none"
       id="path1228" /><path
       d="m 568.31098,357.76501 q -0.68359,0 -1.07421,0.60547 -0.39063,0.59896 -0.39063,1.67317 0,1.07422 0.39063,1.67969 0.39062,0.59896 1.07421,0.59896 0.69011,0 1.08073,-0.59896 0.39062,-0.60547 0.39062,-1.67969 0,-1.07421 -0.39062,-1.67317 -0.39062,-0.60547 -1.08073,-0.60547 z m -3.37238,2.27864 q 0,-1.76431 0.91145,-2.79296 0.91797,-1.03515 2.46093,-1.03515 1.54948,0 2.46093,1.03515 0.91797,1.02865 0.91797,2.79296 0,1.76432 -0.91797,2.79948 -0.91145,1.02864 -2.46093,1.02864 -1.54296,0 -2.46093,-1.02864 -0.91145,-1.03516 -0.91145,-2.79948 z"
       style="font-family:monospace;-inkscape-font-specification:'monospace Bold';fill:#ffffff;stroke:none"
       id="path1230" /><path
       d="m 579.30053,358.94991 v 4.73306 H 577.406 v -4.44009 q 0,-0.79427 -0.22786,-1.13281 -0.22136,-0.34506 -0.72917,-0.34506 -0.51432,0 -0.8138,0.46224 -0.29296,0.46224 -0.29296,1.28255 v 4.17317 h -1.89453 v -7.29165 h 1.89453 v 1.09375 q 0.20182,-0.60547 0.6901,-0.9375 0.48828,-0.33203 1.17838,-0.33203 1.03515,0 1.5625,0.6901 0.52734,0.68359 0.52734,2.04427 z"
       style="font-family:monospace;-inkscape-font-specification:'monospace Bold';fill:#ffffff;stroke:none"
       id="path1232" /></g><g
     aria-label="Not replied yet"
     transform="translate(10.39194,164.45219)"
     id="text694"
     style="font-weight:bold;font-size:13.3333px;line-height:1;font-family:Ubuntu;-inkscape-font-specification:'Ubuntu Bold';text-align:center;letter-spacing:0px;text-anchor:middle;white-space:pre;shape-inside:url(#rect696);display:inline;fill:#666766;stroke:#666766;stroke-width:0.5;stop-color:#000000"><path
       d="m 420.58348,353.96294 h 2.0638 l 2.70833,7.06379 v -7.06379 h 1.6927 v 9.72003 h -2.05078 l -2.72134,-7.06379 v 7.06379 h -1.69271 z"
       style="font-family:monospace;-inkscape-font-specification:'monospace Bold';fill:#ffffff;stroke:none"
       id="path1235" /><path
       d="m 431.84648,357.76501 q -0.6836,0 -1.07422,0.60547 -0.39062,0.59896 -0.39062,1.67317 0,1.07422 0.39062,1.67969 0.39062,0.59896 1.07422,0.59896 0.6901,0 1.08072,-0.59896 0.39063,-0.60547 0.39063,-1.67969 0,-1.07421 -0.39063,-1.67317 -0.39062,-0.60547 -1.08072,-0.60547 z m -3.37239,2.27864 q 0,-1.76431 0.91145,-2.79296 0.91797,-1.03515 2.46094,-1.03515 1.54947,0 2.46093,1.03515 0.91796,1.02865 0.91796,2.79296 0,1.76432 -0.91796,2.79948 -0.91146,1.02864 -2.46093,1.02864 -1.54297,0 -2.46094,-1.02864 -0.91145,-1.03516 -0.91145,-2.79948 z"
       style="font-family:monospace;-inkscape-font-specification:'monospace Bold';fill:#ffffff;stroke:none"
       id="path1237" /><path
       d="m 440.35557,354.32101 v 2.07031 h 2.49348 v 1.46484 h -2.49348 v 3.45051 q 0,0.48828 0.23437,0.70313 0.24089,0.20833 0.79427,0.20833 h 1.46484 v 1.46484 h -1.60156 q -1.64062,0 -2.22004,-0.52083 -0.57943,-0.52735 -0.57943,-1.94661 v -3.35937 h -1.86197 v -1.46484 h 1.86197 v -2.07031 z"
       style="font-family:monospace;-inkscape-font-specification:'monospace Bold';fill:#ffffff;stroke:none"
       id="path1239" /><path
       d="m 459.41151,358.40303 q -0.3125,-0.28645 -0.73567,-0.42968 -0.41667,-0.14323 -0.91797,-0.14323 -0.60547,0 -1.0612,0.21484 -0.44921,0.20833 -0.69661,0.61198 -0.15625,0.24739 -0.22135,0.59896 -0.0586,0.35156 -0.0586,1.0677 v 3.35937 h -1.90754 v -7.29165 h 1.90754 v 1.13281 q 0.27995,-0.625 0.85938,-0.96354 0.57942,-0.34505 1.35416,-0.34505 0.39062,0 0.76172,0.0977 0.3776,0.0911 0.71614,0.27343 z"
       style="font-family:monospace;-inkscape-font-specification:'monospace Bold';fill:#ffffff;stroke:none"
       id="path1241" /><path
       d="m 467.11983,363.3249 q -0.66406,0.27343 -1.35417,0.41015 -0.6901,0.13672 -1.45833,0.13672 -1.82942,0 -2.79947,-0.97656 -0.96354,-0.98307 -0.96354,-2.82551 0,-1.78385 0.93099,-2.81901 0.93099,-1.03515 2.53906,-1.03515 1.62109,0 2.51301,0.96354 0.89844,0.95703 0.89844,2.70181 v 0.77474 h -4.9414 q 0.007,0.85938 0.50781,1.28255 0.5013,0.42318 1.49739,0.42318 0.65756,0 1.29557,-0.1888 0.63802,-0.18881 1.33464,-0.59896 z m -1.61458,-4.10156 q -0.013,-0.7552 -0.39063,-1.13932 -0.37109,-0.39062 -1.10025,-0.39062 -0.65755,0 -1.04818,0.40365 -0.39062,0.39713 -0.46224,1.1328 z"
       style="font-family:monospace;-inkscape-font-specification:'monospace Bold';fill:#ffffff;stroke:none"
       id="path1243" /><path
       d="m 470.85028,362.65433 v 3.80207 h -1.90103 v -10.06508 h 1.90103 v 1.09375 q 0.29948,-0.63151 0.78776,-0.95052 0.48828,-0.31901 1.14583,-0.31901 1.25,0 1.9401,1.0026 0.6901,1.0026 0.6901,2.82551 0,1.84896 -0.70312,2.83854 -0.69661,0.98958 -1.99218,0.98958 -0.58594,0 -1.05469,-0.29948 -0.46224,-0.30599 -0.8138,-0.91796 z m 2.65625,-2.6237 q 0,-1.05468 -0.35157,-1.65364 -0.35156,-0.59895 -0.97004,-0.59895 -0.61849,0 -0.97656,0.59895 -0.35808,0.59896 -0.35808,1.65364 0,1.05469 0.35808,1.65365 0.35807,0.59895 0.97656,0.59895 0.61848,0 0.97004,-0.59895 0.35157,-0.59896 0.35157,-1.65365 z"
       style="font-family:monospace;-inkscape-font-specification:'monospace Bold';fill:#ffffff;stroke:none"
       id="path1245" /><path
       d="m 478.51954,360.64261 v -5.62498 h -1.93359 v -1.46484 h 3.84113 v 7.08982 q 0,0.85937 0.26693,1.21745 0.26693,0.35807 0.90495,0.35807 h 1.52343 v 1.46484 h -2.05729 q -1.36067,0 -1.95312,-0.70312 -0.59244,-0.70313 -0.59244,-2.33724 z"
       style="font-family:monospace;-inkscape-font-specification:'monospace Bold';fill:#ffffff;stroke:none"
       id="path1247" /><path
       d="m 485.46613,356.39132 h 3.77604 v 5.82681 h 2.36978 v 1.46484 h -6.65363 v -1.46484 h 2.3763 v -4.36197 h -1.86849 z m 1.86849,-3.54817 h 1.90755 v 2.22656 h -1.90755 z"
       style="font-family:monospace;-inkscape-font-specification:'monospace Bold';fill:#ffffff;stroke:none"
       id="path1249" /><path
       d="m 499.22912,363.3249 q -0.66406,0.27343 -1.35417,0.41015 -0.6901,0.13672 -1.45833,0.13672 -1.82942,0 -2.79947,-0.97656 -0.96354,-0.98307 -0.96354,-2.82551 0,-1.78385 0.93099,-2.81901 0.93099,-1.03515 2.53906,-1.03515 1.62109,0 2.51301,0.96354 0.89844,0.95703 0.89844,2.70181 v 0.77474 h -4.9414 q 0.007,0.85938 0.50781,1.28255 0.5013,0.42318 1.4974,0.42318 0.65755,0 1.29557,-0.1888 0.63801,-0.18881 1.33463,-0.59896 z m -1.61458,-4.10156 q -0.013,-0.7552 -0.39063,-1.13932 -0.37109,-0.39062 -1.10025,-0.39062 -0.65755,0 -1.04818,0.40365 -0.39062,0.39713 -0.46224,1.1328 z"
       style="font-family:monospace;-inkscape-font-specification:'monospace Bold';fill:#ffffff;stroke:none"
       id="path1251" /><path
       d="m 505.23171,357.42647 v -3.87368 h 1.90104 v 10.13018 h -1.90104 v -1.08073 q -0.30599,0.63151 -0.79427,0.95052 -0.48177,0.31901 -1.13932,0.31901 -1.24999,0 -1.9401,-1.0026 -0.6901,-1.0026 -0.6901,-2.82552 0,-1.84895 0.69661,-2.83853 0.70313,-0.98958 1.9987,-0.98958 0.58593,0 1.04817,0.30599 0.46875,0.29948 0.82031,0.90494 z m -2.65624,2.63021 q 0,1.05468 0.35156,1.65364 0.35156,0.59895 0.97005,0.59895 0.61849,0 0.97656,-0.59895 0.35807,-0.59896 0.35807,-1.65364 0,-1.05469 -0.35807,-1.65365 -0.35807,-0.59895 -0.97656,-0.59895 -0.61849,0 -0.97005,0.59895 -0.35156,0.59896 -0.35156,1.65365 z"
       style="font-family:monospace;-inkscape-font-specification:'monospace Bold';fill:#ffffff;stroke:none"
       id="path1253" /><path
       d="m 520.76552,364.47073 q -0.38411,1.02864 -0.92448,1.49739 -0.53385,0.47526 -1.30208,0.47526 h -1.57551 v -1.45182 h 0.77474 q 0.58593,0 0.85937,-0.20182 0.27343,-0.19532 0.55338,-0.91797 l 0.14323,-0.39062 -2.77343,-7.08983 h 2.0052 l 1.66667,4.73306 1.59504,-4.73306 h 2.00521 z"
       style="font-family:monospace;-inkscape-font-specification:'monospace Bold';fill:#ffffff;stroke:none"
       id="path1255" /><path
       d="m 531.33842,363.3249 q -0.66406,0.27343 -1.35417,0.41015 -0.6901,0.13672 -1.45833,0.13672 -1.82942,0 -2.79947,-0.97656 -0.96354,-0.98307 -0.96354,-2.82551 0,-1.78385 0.93099,-2.81901 0.93099,-1.03515 2.53906,-1.03515 1.62109,0 2.51301,0.96354 0.89844,0.95703 0.89844,2.70181 v 0.77474 h -4.9414 q 0.007,0.85938 0.50781,1.28255 0.5013,0.42318 1.49739,0.42318 0.65756,0 1.29557,-0.1888 0.63802,-0.18881 1.33464,-0.59896 z m -1.61458,-4.10156 q -0.013,-0.7552 -0.39063,-1.13932 -0.37109,-0.39062 -1.10025,-0.39062 -0.65756,0 -1.04818,0.40365 -0.39062,0.39713 -0.46224,1.1328 z"
       style="font-family:monospace;-inkscape-font-specification:'monospace Bold';fill:#ffffff;stroke:none"
       id="path1257" /><path
       d="m 536.68345,354.32101 v 2.07031 h 2.49349 v 1.46484 h -2.49349 v 3.45051 q 0,0.48828 0.23438,0.70313 0.24088,0.20833 0.79427,0.20833 h 1.46484 v 1.46484 h -1.60156 q -1.64062,0 -2.22005,-0.52083 -0.57943,-0.52735 -0.57943,-1.94661 v -3.35937 h -1.86197 v -1.46484 h 1.86197 v -2.07031 z"
       style="font-family:monospace;-inkscape-font-specification:'monospace Bold';fill:#ffffff;stroke:none"
       id="path1259" /></g></svg>
