<?xml version="1.0" encoding="UTF-8" standalone="no"?>
<!-- Created with Inkscape (http://www.inkscape.org/) -->

<svg
   width="980"
   height="735"
   viewBox="0 0 980 735"
   version="1.1"
   id="svg221"
   inkscape:version="1.2.2 (b0a8486541, 2022-12-01)"
   sodipodi:docname="spectrum_5.svg"
   xmlns:inkscape="http://www.inkscape.org/namespaces/inkscape"
   xmlns:sodipodi="http://sodipodi.sourceforge.net/DTD/sodipodi-0.dtd"
   xmlns="http://www.w3.org/2000/svg"
   xmlns:svg="http://www.w3.org/2000/svg">
  <sodipodi:namedview
     id="namedview223"
     pagecolor="#ffffff"
     bordercolor="#000000"
     borderopacity="0.25"
     inkscape:showpageshadow="2"
     inkscape:pageopacity="0.0"
     inkscape:pagecheckerboard="0"
     inkscape:deskcolor="#d1d1d1"
     inkscape:document-units="px"
     showgrid="false"
     inkscape:zoom="2.4116976"
     inkscape:cx="816.64469"
     inkscape:cy="395.57199"
     inkscape:window-width="2560"
     inkscape:window-height="1340"
     inkscape:window-x="2880"
     inkscape:window-y="0"
     inkscape:window-maximized="1"
     inkscape:current-layer="layer1" />
  <defs
     id="defs218" />
  <g
     inkscape:label="Calque 1"
     inkscape:groupmode="layer"
     id="layer1">
    <path
       style="fill:#000000;stroke-width:1.79483"
       d="M 903.86775,234.8042 743.583,334.9602 c 14.15138,22.99286 25.04438,47.69212 32.47544,73.39168 7.47535,25.85271 11.44738,52.71768 11.70886,79.87608 h 188.7492 c -0.21352,-43.84997 -6.3502,-87.25467 -18.08505,-129.08043 -12.22998,-43.59054 -30.54051,-85.46609 -54.5637,-124.34333 z"
       id="agree"
       sodipodi:nodetypes="ccsccsc" />
    <path
       style="fill:#000000;stroke-width:1.79483"
       d="M 94.999165,206.56829 C 68.607886,243.27394 47.621993,283.24774 32.438793,325.26689 13.662401,377.23012 3.7601692,432.32135 3.4835005,488.22796 H 192.23272 c 0.2911,-31.28936 5.50603,-62.14441 15.29189,-91.48304 9.36455,-28.07552 22.91493,-54.76237 40.34187,-79.11228 z"
       id="disagree"
       sodipodi:nodetypes="csccscc" />
    <path
       style="fill:#000000;stroke-width:1.79483"
       d="M 337.39348,28.641507 C 289.3191,44.525214 244.32017,67.710173 203.85781,97.134836 163.5112,126.47532 127.67524,162.01986 97.798532,202.71599 L 250.70296,313.80767 c 18.1723,-24.59644 39.90983,-46.09767 64.35319,-63.87883 24.48031,-17.80803 51.67463,-31.88473 80.71966,-41.6024 z"
       id="slightlyDisagree"
       sodipodi:nodetypes="csccscc" />
    <path
       style="fill:#000000;stroke-width:1.79483"
       d="M 642.60652,28.639507 584.22226,208.32644 c 33.30693,11.12316 64.12832,27.95712 91.20355,49.51732 25.6097,20.39317 47.8678,45.01479 65.70751,73.03165 L 901.21881,230.8425 C 870.3206,181.90179 831.19037,139.24845 785.94134,104.53477 743.05897,71.636716 694.68113,45.869509 642.60652,28.639507 Z"
       id="slightlyAgree"
       sodipodi:nodetypes="ccsccsc" />
    <path
       style="fill:#000000;stroke-width:1.79483"
       d="M 489.99902,4 A 486.61014,486.61014 0 0 0 341.92365,27.170477 L 400.263,206.72067 a 297.88412,297.88412 0 0 1 89.73602,-13.99488 297.88412,297.88412 0 0 1 89.73603,13.99488 L 638.07638,27.168523 A 486.61014,486.61014 0 0 0 489.99902,4 Z"
       id="neutral" />
    <path
       style="display:inline;fill:#cccccc;stroke:none;stroke-width:2.96414;stroke-opacity:1"
       d="m 490.31223,376.065 c -39.40349,0.0201 -74.83213,17.28019 -99.07942,44.69453 -20.13764,22.76785 -32.56291,52.54022 -33.14781,85.25997 H 622.60013 C 622.01229,473.13405 609.46408,443.22684 589.14721,420.41568 564.89513,393.18625 529.57359,376.06806 490.31223,376.065 Z"
       id="indifferent"
       sodipodi:nodetypes="csccsc" />
    <path
       style="display:inline;fill:#cccccc;stroke:none;stroke-width:2.96414;stroke-opacity:1"
       d="M 490.31223,642.18167 C 449.78333,642.16157 413.45959,623.90153 389.18276,595.11353 370.25453,572.668 358.64968,543.82143 358.085,512.22677 h 264.51513 c -0.58784,32.89153 -13.14048,62.80373 -33.46387,85.6165 -24.25176,27.22227 -59.56858,44.33534 -98.82403,44.3384 z"
       id="notReplied"
       sodipodi:nodetypes="csccsc" />
    <path
       id="path1704"
       style="font-weight:bold;font-size:8px;line-height:1;font-family:monospace;-inkscape-font-specification:'monospace Bold';text-align:center;letter-spacing:0px;text-anchor:middle;white-space:pre;shape-inside:url(#rect464);display:inline;fill:#ffffff;stroke-width:1.54729;stroke-linecap:round"
       d="m 556.31581,527.432 q -0.61646,0.25357 -1.25714,0.38075 -0.64069,0.12679 -1.35387,0.12679 -1.69839,0 -2.59897,-0.90661 -0.89458,-0.91266 -0.89458,-2.62317 0,-1.65605 0.86435,-2.61708 0.86432,-0.96103 2.3572,-0.96103 1.505,0 2.333,0.89458 0.83413,0.88846 0.83413,2.50825 v 0.71929 h -4.58753 q 0.004,0.79782 0.47156,1.19069 0.46545,0.39243 1.39017,0.39243 0.61046,0 1.20277,-0.17508 0.59231,-0.17508 1.23903,-0.55604 z m -1.49892,-3.80782 q -0.0121,-0.70106 -0.36265,-1.05767 -0.34493,-0.36264 -1.0214,-0.36264 -0.61046,0 -0.97311,0.37472 -0.36264,0.36868 -0.42925,1.05167 z m -5.65723,-0.76156 q -0.29019,-0.26564 -0.68303,-0.39887 -0.38719,-0.13282 -0.85219,-0.13282 -0.56208,0 -0.98522,0.19964 -0.41707,0.1936 -0.64673,0.56816 -0.1453,0.22982 -0.20527,0.556 -0.0543,0.32642 -0.0543,0.9913 v 3.11871 h -1.77097 v -6.7694 h 1.77097 v 1.05167 q 0.2596,-0.58023 0.79777,-0.89453 0.53794,-0.32039 1.25715,-0.32039 0.36264,0 0.70718,0.0906 0.35057,0.0845 0.66483,0.25357 z m -10.686,-0.5923 q -0.63461,0 -0.99721,0.56212 -0.36265,0.55608 -0.36265,1.55334 0,0.99721 0.36265,1.55937 0.36264,0.55604 0.99721,0.55604 0.64073,0 1.00333,-0.55604 0.36265,-0.56216 0.36265,-1.55937 0,-0.99726 -0.36265,-1.55334 -0.36264,-0.56212 -1.00333,-0.56212 z m -3.13083,2.11546 q 0,-1.63795 0.84616,-2.59294 0.85224,-0.96103 2.28467,-0.96103 1.43851,0 2.28467,0.96103 0.85223,0.95499 0.85223,2.59294 0,1.63794 -0.85223,2.59897 -0.84616,0.95495 -2.28467,0.95495 -1.43243,0 -2.28467,-0.95495 -0.84616,-0.96103 -0.84616,-2.59897 z m -1.6319,3.0341 q -0.44713,0.25961 -0.96103,0.3868 -0.5137,0.13282 -1.10605,0.13282 -1.56541,0 -2.44787,-0.94292 -0.88243,-0.94288 -0.88243,-2.61101 0,-1.67424 0.8885,-2.61708 0.88851,-0.94896 2.45388,-0.94896 0.54401,0 1.04563,0.12679 0.5077,0.12678 1.00937,0.39323 v 1.61983 q -0.3872,-0.33245 -0.8522,-0.5077 -0.45932,-0.18112 -0.95495,-0.18112 -0.86435,0 -1.32971,0.55 -0.46544,0.55005 -0.46544,1.56546 0,1.01536 0.46544,1.55933 0.46544,0.54397 1.32971,0.54397 0.5137,0 0.96099,-0.16905 0.44713,-0.17508 0.84616,-0.52585 z m -7.39189,-4.04951 v 4.39404 h -1.75885 v -4.12204 q 0,-0.73744 -0.21171,-1.05171 -0.20567,-0.32038 -0.67691,-0.32038 -0.47768,0 -0.75552,0.42929 -0.27208,0.4293 -0.27208,1.1907 v 3.87426 h -1.75881 v -6.76939 h 1.75881 v 1.01541 q 0.18756,-0.56208 0.64069,-0.87035 0.4532,-0.30791 1.09397,-0.30791 0.96099,0 1.45058,0.64073 0.48939,0.63457 0.48939,1.89783 z m -7.26502,4.06163 q -0.61649,0.25357 -1.25718,0.38075 -0.64069,0.12679 -1.35386,0.12679 -1.6984,0 -2.59898,-0.90661 -0.89453,-0.91266 -0.89453,-2.62317 0,-1.65605 0.86435,-2.61708 0.86423,-0.96103 2.35715,-0.96103 1.505,0 2.33305,0.89458 0.83408,0.88846 0.83408,2.50825 v 0.71929 h -4.58748 q 0.004,0.79782 0.47156,1.19069 0.46544,0.39243 1.39016,0.39243 0.61046,0 1.20281,-0.17508 0.59231,-0.17508 1.23903,-0.55604 z m -1.49896,-3.80782 q -0.0121,-0.70106 -0.36264,-1.05767 -0.34494,-0.36264 -1.02149,-0.36264 -0.61046,0 -0.97306,0.37472 -0.36265,0.36868 -0.4293,1.05167 z m -19.09929,1.777 v -4.40616 h 1.77088 v 4.1342 q 0,0.73129 0.20568,1.04559 0.20567,0.31435 0.68294,0.31435 0.47768,0 0.74341,-0.42318 0.27208,-0.42314 0.27208,-1.18466 v -3.88634 h 1.77089 v 6.76939 h -1.77089 v -1.00333 q -0.18756,0.56208 -0.64073,0.87039 -0.44708,0.30791 -1.08185,0.30791 -0.96707,0 -1.46266,-0.64069 -0.48939,-0.64069 -0.48939,-1.89783 z m -3.63857,-3.44513 v -3.59626 h 1.76489 v 9.40462 h -1.76489 v -1.00333 q -0.28416,0.58627 -0.73737,0.88247 -0.44708,0.29623 -1.0577,0.29623 -1.16051,0 -1.80116,-0.9308 -0.64068,-0.93081 -0.64068,-2.62312 0,-1.71655 0.64672,-2.63528 0.6528,-0.91869 1.85557,-0.91869 0.54393,0 0.97306,0.28416 0.43542,0.27812 0.76156,0.84012 z m -2.46599,2.4418 q 0,0.97914 0.32642,1.53519 0.32642,0.55608 0.9005,0.55608 0.57423,0 0.90665,-0.55608 0.33246,-0.55605 0.33246,-1.53519 0,-0.97914 -0.33246,-1.53523 -0.33246,-0.55604 -0.90665,-0.55604 -0.57416,0 -0.9005,0.55604 -0.32642,0.55609 -0.32642,1.53523 z m -3.29403,-1.02748 v 4.39404 h -1.75881 v -4.12204 q 0,-0.73744 -0.21131,-1.05171 -0.20568,-0.32038 -0.67695,-0.32038 -0.47768,0 -0.75552,0.42929 -0.27209,0.4293 -0.27209,1.1907 v 3.87426 h -1.75881 v -6.76939 h 1.75881 v 1.01541 q 0.18757,-0.56208 0.64069,-0.87035 0.45321,-0.30791 1.09397,-0.30791 0.96103,0 1.45059,0.64073 0.48939,0.63457 0.48939,1.89783 z m -10.20241,-1.10005 q -0.63461,0 -0.9973,0.56212 -0.36264,0.55608 -0.36264,1.55334 0,0.99721 0.36264,1.55937 0.36265,0.55604 0.9973,0.55604 0.64064,0 1.00333,-0.55604 0.36265,-0.56216 0.36265,-1.55937 0,-0.99726 -0.36265,-1.55334 -0.36265,-0.56212 -1.00333,-0.56212 z m -3.13087,2.11546 q 0,-1.63795 0.8462,-2.59294 0.85224,-0.96103 2.28467,-0.96103 1.43846,0 2.28466,0.96103 0.85224,0.95499 0.85224,2.59294 0,1.63794 -0.85224,2.59897 -0.8462,0.95495 -2.28466,0.95495 -1.43243,0 -2.28467,-0.95495 -0.8462,-0.96103 -0.8462,-2.59897 z m -5.37319,2.42368 v 3.52974 h -1.76484 v -9.34418 h 1.76484 v 1.01541 q 0.27813,-0.58627 0.73137,-0.88247 0.45321,-0.29623 1.06375,-0.29623 1.16046,0 1.80111,0.9308 0.64069,0.93081 0.64069,2.62316 0,1.71651 -0.65276,2.63524 -0.64673,0.91869 -1.84945,0.91869 -0.54401,0 -0.97915,-0.27812 -0.4293,-0.28416 -0.75556,-0.8522 z m 2.46599,-2.4358 q 0,-0.97914 -0.32642,-1.53518 -0.32642,-0.55609 -0.90057,-0.55609 -0.5742,0 -0.90662,0.55609 -0.33246,0.55604 -0.33246,1.53518 0,0.97914 0.33246,1.53519 0.33246,0.55608 0.90662,0.55608 0.57423,0 0.90057,-0.55608 0.32642,-0.55605 0.32642,-1.53519 z m -5.92923,3.05834 q -0.6165,0.25357 -1.25718,0.38075 -0.64065,0.12679 -1.3539,0.12679 -1.69836,0 -2.59894,-0.90661 -0.89453,-0.91266 -0.89453,-2.62317 0,-1.65605 0.86431,-2.61708 0.86435,-0.96103 2.35719,-0.96103 1.505,0 2.33305,0.89458 0.83404,0.88846 0.83404,2.50825 v 0.71929 h -4.58744 q 0.004,0.79782 0.47156,1.19069 0.46544,0.39243 1.39012,0.39243 0.61042,0 1.20277,-0.17508 0.59235,-0.17508 1.23907,-0.55604 z m -1.49896,-3.80782 q -0.0121,-0.70106 -0.36264,-1.05767 -0.34494,-0.36264 -1.02149,-0.36264 -0.61042,0 -0.97306,0.37472 -0.36265,0.36868 -0.4293,1.05167 z m -0.38076,-5.75994 h 1.70448 l -2.22429,2.27251 h -1.1907 z m -5.27647,4.99838 q -0.29019,-0.26564 -0.68298,-0.39887 -0.3872,-0.13282 -0.85224,-0.13282 -0.56212,0 -0.98518,0.19964 -0.41706,0.1936 -0.64673,0.56816 -0.14529,0.22982 -0.20567,0.556 -0.0543,0.32642 -0.0543,0.9913 v 3.11871 h -1.77089 v -6.7694 h 1.77089 v 1.05167 q 0.2596,-0.58023 0.79781,-0.89453 0.53794,-0.32039 1.25719,-0.32039 0.36264,0 0.7071,0.0906 0.35016,0.0845 0.66487,0.25357 z m -15.87183,-1.65605 v 1.5473 q -0.48935,-0.31435 -1.0214,-0.47156 -0.52582,-0.16301 -1.05771,-0.16301 -0.59235,0 -0.89458,0.17509 -0.30187,0.16904 -0.30187,0.5077 0,0.48327 1.29345,0.7857 l 0.0668,0.0201 0.50771,0.12075 q 0.96707,0.22982 1.41432,0.7434 0.45324,0.5077 0.45324,1.37805 0,1.04564 -0.68906,1.57149 -0.68299,0.51974 -2.06101,0.51974 -0.61046,0 -1.25114,-0.10908 -0.64069,-0.10303 -1.29949,-0.31434 v -1.5473 q 0.58627,0.33246 1.19069,0.5077 0.61046,0.17509 1.17862,0.17509 0.62254,0 0.94288,-0.18113 0.32038,-0.18112 0.32038,-0.52589 0,-0.3385 -0.22982,-0.51978 -0.22338,-0.18112 -1.07586,-0.3868 l -0.48935,-0.10907 q -1.01541,-0.22982 -1.48081,-0.71921 -0.46544,-0.48939 -0.46544,-1.3116 0,-0.97915 0.70714,-1.52311 0.70714,-0.54401 1.98855,-0.54401 0.57415,0 1.14227,0.0966 0.57424,0.0906 1.11213,0.27812 z m -9.21115,3.37864 q -0.99121,0 -1.38409,0.25357 -0.39323,0.25397 -0.39323,0.87039 0,0.45932 0.27208,0.73133 0.27209,0.27208 0.73737,0.27208 0.7011,0 1.08797,-0.52589 0.3868,-0.53186 0.3868,-1.48081 v -0.12075 z m 2.46599,-0.68299 v 3.86219 h -1.75881 v -0.75551 q -0.32038,0.44708 -0.82201,0.68902 -0.50158,0.2419 -1.10609,0.2419 -1.15438,0 -1.80111,-0.6105 -0.64073,-0.61046 -0.64073,-1.70443 0,-1.18462 0.76764,-1.74678 0.76759,-0.56808 2.37534,-0.56808 h 1.22696 v -0.29623 q 0,-0.4293 -0.31435,-0.64672 -0.3079,-0.22339 -0.91261,-0.22339 -0.63469,0 -1.23303,0.16301 -0.59231,0.15738 -1.23903,0.50771 v -1.51104 q 0.58627,-0.2419 1.19069,-0.35661 0.60438,-0.11471 1.28137,-0.11471 1.64998,0 2.31486,0.67092 0.67091,0.67083 0.67091,2.39949 z m -11.38706,-3.66268 v 2.64727 h 0.73133 q 0.87638,0 1.22691,-0.29623 0.35661,-0.29583 0.35661,-1.02744 0,-0.73137 -0.35661,-1.02748 -0.35017,-0.29624 -1.22691,-0.29624 z m -1.783,-1.499 h 2.44787 q 1.86761,0 2.68354,0.66492 0.82201,0.66484 0.82201,2.15772 0,1.49284 -0.82201,2.15776 -0.81593,0.66484 -2.68354,0.66484 h -0.66487 v 3.37863 h -1.783 z" />
    <path
       id="path1671"
       style="font-weight:bold;font-size:8px;line-height:1;font-family:monospace;-inkscape-font-specification:'monospace Bold';text-align:center;letter-spacing:0px;white-space:pre;shape-inside:url(#rect927);display:inline;fill:#ffffff;stroke-width:1.54729;stroke-linecap:round"
       d="m 578.31631,489.09298 v 1.54726 q -0.48935,-0.31435 -1.02145,-0.47156 -0.52585,-0.16301 -1.05775,-0.16301 -0.59226,0 -0.8945,0.17508 -0.30186,0.16905 -0.30186,0.50771 0,0.48327 1.2934,0.78574 l 0.0668,0.0201 0.5077,0.12074 q 0.96703,0.22983 1.41428,0.74345 0.4532,0.5077 0.4532,1.37801 0,1.04567 -0.68898,1.57149 -0.68303,0.51978 -2.06108,0.51978 -0.61046,0 -1.25111,-0.10908 -0.64069,-0.10304 -1.29945,-0.31434 v -1.5473 q 0.58627,0.33245 1.19066,0.5077 0.61042,0.17508 1.17857,0.17508 0.62258,0 0.94288,-0.18112 0.32039,-0.18112 0.32039,-0.52585 0,-0.3385 -0.22983,-0.51982 -0.22338,-0.18112 -1.07578,-0.3868 l -0.48939,-0.10907 q -1.01541,-0.22983 -1.48081,-0.71922 -0.46544,-0.48939 -0.46544,-1.3116 0,-0.97914 0.70714,-1.52311 0.70718,-0.54396 1.98851,-0.54396 0.5742,0 1.14235,0.0966 0.57416,0.0906 1.11213,0.27813 z m -12.10628,-0.21171 h 3.50554 v 5.40949 h 2.20007 v 1.3599 h -6.17705 v -1.3599 h 2.20606 v -4.04955 h -1.73462 z m 1.73462,-3.294 h 1.77092 v 2.06704 h -1.77092 z m -3.55392,3.294 -2.15169,6.76939 h -2.18191 l -2.15168,-6.76939 h 1.79508 l 1.44454,5.28255 1.45058,-5.28255 z m -10.19034,3.59023 q -0.99122,0 -1.38409,0.25357 -0.39283,0.25397 -0.39283,0.87031 0,0.45932 0.27208,0.73136 0.27209,0.27209 0.73741,0.27209 0.70114,0 1.08794,-0.52582 0.38719,-0.53189 0.38719,-1.48085 v -0.12074 z m 2.46599,-0.68299 v 3.86215 h -1.75885 v -0.75548 q -0.32038,0.44709 -0.82197,0.68899 -0.50162,0.2419 -1.10605,0.2419 -1.15442,0 -1.80115,-0.61046 -0.64069,-0.6105 -0.64069,-1.70448 0,-1.18461 0.76764,-1.74669 0.76755,-0.56816 2.3753,-0.56816 h 1.22692 v -0.29623 q 0,-0.4293 -0.31435,-0.64673 -0.3079,-0.22378 -0.91265,-0.22378 -0.63461,0 -1.23299,0.16301 -0.59227,0.15737 -1.23899,0.5077 v -1.51099 q 0.58623,-0.2419 1.19069,-0.35661 0.60438,-0.11471 1.28129,-0.11471 1.65006,0 2.31494,0.67091 0.67083,0.67091 0.67083,2.3995 z m -15.6119,-2.69565 v 1.54726 q -0.48935,-0.31435 -1.02141,-0.47156 -0.52581,-0.16301 -1.0577,-0.16301 -0.59235,0 -0.89458,0.17508 -0.30187,0.16905 -0.30187,0.50771 0,0.48323 1.29345,0.78574 l 0.0668,0.0201 0.5077,0.12074 q 0.96707,0.22983 1.41432,0.74345 0.45321,0.5077 0.45321,1.37801 0,1.04567 -0.68903,1.57149 -0.68299,0.51978 -2.061,0.51978 -0.61046,0 -1.25119,-0.10908 -0.64064,-0.10304 -1.29944,-0.31434 v -1.5473 q 0.58627,0.33245 1.19069,0.5077 0.61046,0.17508 1.17858,0.17508 0.62253,0 0.94291,-0.18112 0.32039,-0.18112 0.32039,-0.52581 0,-0.3385 -0.22982,-0.51982 -0.22339,-0.18112 -1.07587,-0.3872 l -0.48935,-0.10908 q -1.0154,-0.22982 -1.4808,-0.71925 -0.46545,-0.48935 -0.46545,-1.31156 0,-0.97914 0.70714,-1.52311 0.70714,-0.54397 1.98851,-0.54397 0.57416,0 1.14232,0.0966 0.57423,0.0906 1.11212,0.27812 z m -6.96883,2.16376 v 4.39404 h -1.75881 v -4.12204 q 0,-0.73737 -0.21131,-1.05167 -0.20567,-0.32039 -0.67695,-0.32039 -0.47768,0 -0.75552,0.42926 -0.27208,0.4293 -0.27208,1.19069 v 3.87427 h -1.75881 v -6.76939 h 1.75881 v 1.01541 q 0.18756,-0.56208 0.64069,-0.87031 0.4532,-0.30831 1.09397,-0.30831 0.96099,0 1.45058,0.64069 0.48939,0.6346 0.48939,1.89783 z m -9.6947,1.21488 q -0.99122,0 -1.38409,0.25357 -0.39243,0.25397 -0.39243,0.87031 0,0.45932 0.27208,0.73136 0.27209,0.27209 0.73737,0.27209 0.70118,0 1.08797,-0.52582 0.3868,-0.53189 0.3868,-1.48085 v -0.12074 z m 2.46598,-0.68299 v 3.86215 h -1.75885 v -0.75548 q -0.32038,0.44709 -0.82196,0.68899 -0.50163,0.2419 -1.10605,0.2419 -1.15443,0 -1.80115,-0.61046 -0.64069,-0.6105 -0.64069,-1.70448 0,-1.18461 0.76759,-1.74669 0.76759,-0.56816 2.37535,-0.56816 h 1.22691 v -0.29623 q 0,-0.4293 -0.31434,-0.64673 -0.30791,-0.22378 -0.91265,-0.22378 -0.63465,0 -1.233,0.16301 -0.59234,0.15737 -1.23907,0.5077 v -1.51099 q 0.58631,-0.2419 1.19069,-0.35661 0.60447,-0.11471 1.28138,-0.11471 1.65001,0 2.31489,0.67091 0.67087,0.67091 0.67087,2.3995 z m -8.15952,-2.69565 v 1.54726 q -0.48935,-0.31435 -1.02144,-0.47156 -0.52586,-0.16301 -1.05775,-0.16301 -0.59227,0 -0.8945,0.17508 -0.30187,0.16905 -0.30187,0.50771 0,0.48323 1.29345,0.78574 l 0.0668,0.0201 0.5077,0.12074 q 0.96703,0.22983 1.41428,0.74345 0.4532,0.5077 0.4532,1.37801 0,1.04567 -0.68902,1.57149 -0.68299,0.51978 -2.06101,0.51978 -0.61049,0 -1.25114,-0.10908 -0.64065,-0.10304 -1.29949,-0.31434 v -1.5473 q 0.58627,0.33245 1.19065,0.5077 0.61046,0.17508 1.17862,0.17508 0.62254,0 0.94292,-0.18112 0.32038,-0.18112 0.32038,-0.52581 0,-0.3385 -0.22982,-0.51982 -0.22338,-0.18112 -1.07586,-0.3872 l -0.48939,-0.10908 q -1.01541,-0.22982 -1.48077,-0.71925 -0.46544,-0.48935 -0.46544,-1.31156 0,-0.97914 0.70718,-1.52311 0.70714,-0.54397 1.98847,-0.54397 0.57424,0 1.14235,0.0966 0.57416,0.0906 1.11213,0.27812 z m -19.92734,4.19457 v -4.40616 h 1.77089 v 4.1342 q 0,0.73128 0.20567,1.04559 0.20527,0.31435 0.68299,0.31435 0.47768,0 0.74336,-0.42314 0.27209,-0.42318 0.27209,-1.1847 v -3.88634 h 1.77088 v 6.76939 h -1.77088 v -1.00333 q -0.18756,0.56216 -0.64073,0.87039 -0.44709,0.3079 -1.08186,0.3079 -0.96707,0 -1.46265,-0.64064 -0.48939,-0.64065 -0.48939,-1.89787 z m -4.69627,-3.13083 q -0.63461,0 -0.9973,0.56208 -0.36264,0.55609 -0.36264,1.55334 0,0.9973 0.36264,1.55938 0.36265,0.55608 0.9973,0.55608 0.64064,0 1.00333,-0.55608 0.36264,-0.56208 0.36264,-1.55938 0,-0.99725 -0.36264,-1.55334 -0.36265,-0.56208 -1.00333,-0.56208 z m -3.13087,2.11542 q 0,-1.63794 0.8462,-2.59289 0.8522,-0.96103 2.28467,-0.96103 1.43846,0 2.28466,0.96103 0.85224,0.95495 0.85224,2.59289 0,1.63794 -0.85224,2.59897 -0.8462,0.95496 -2.28466,0.95496 -1.43247,0 -2.28467,-0.95496 -0.8462,-0.96103 -0.8462,-2.59897 z m -11.32661,-5.31273 v 1.92198 h 2.3149 v 1.35994 h -2.3149 v 3.20339 q 0,0.45321 0.21735,0.65276 0.22338,0.1936 0.73736,0.1936 h 1.35994 v 1.3599 h -1.48684 q -1.52311,0 -2.06104,-0.48327 -0.53789,-0.48935 -0.53789,-1.80719 v -3.11875 h -1.72867 v -1.35994 h 1.72867 v -1.92198 z m -5.14956,4.29733 v 4.39404 h -1.75881 v -4.12204 q 0,-0.73737 -0.21171,-1.05167 -0.20567,-0.32039 -0.67691,-0.32039 -0.47764,0 -0.75548,0.42926 -0.27208,0.4293 -0.27208,1.19069 v 3.87427 h -1.75885 v -6.76939 h 1.75885 v 1.01541 q 0.18756,-0.56208 0.64064,-0.87031 0.45321,-0.30831 1.09398,-0.30831 0.96103,0 1.45062,0.64069 0.48935,0.6346 0.48935,1.89783 z m -7.26498,4.06162 q -0.61654,0.25398 -1.25719,0.38076 -0.64068,0.12679 -1.3539,0.12679 -1.69839,0 -2.59897,-0.90658 -0.8945,-0.91269 -0.8945,-2.62316 0,-1.65609 0.86431,-2.61708 0.86427,-0.96103 2.3572,-0.96103 1.50496,0 2.33304,0.89454 0.83405,0.8885 0.83405,2.50829 v 0.71925 h -4.58745 q 0.004,0.79782 0.47156,1.19069 0.46544,0.39324 1.39009,0.39324 0.61046,0 1.20281,-0.17509 0.59234,-0.17508 1.23907,-0.55608 z m -1.49896,-3.80777 q -0.0121,-0.7011 -0.36265,-1.05771 -0.34493,-0.36265 -1.02148,-0.36265 -0.61042,0 -0.97311,0.37472 -0.36264,0.36869 -0.42926,1.05171 z m -5.65727,-0.76156 q -0.2902,-0.26564 -0.68299,-0.39887 -0.38679,-0.13282 -0.85224,-0.13282 -0.56208,0 -0.98513,0.19964 -0.41707,0.19359 -0.64673,0.56815 -0.1453,0.22983 -0.20567,0.55605 -0.0543,0.32642 -0.0543,0.99125 v 3.11875 h -1.77092 v -6.76939 h 1.77092 v 1.05167 q 0.25961,-0.58019 0.79778,-0.89454 0.53797,-0.32038 1.25722,-0.32038 0.36265,0 0.70714,0.0906 0.35057,0.0845 0.66488,0.25397 z m -7.74849,4.56933 q -0.61654,0.25398 -1.25719,0.38076 -0.64069,0.12679 -1.3539,0.12679 -1.6984,0 -2.59897,-0.90658 -0.8945,-0.91269 -0.8945,-2.62316 0,-1.65609 0.86431,-2.61708 0.86427,-0.96103 2.35719,-0.96103 1.50496,0 2.33305,0.89454 0.83404,0.8885 0.83404,2.50829 v 0.71925 h -4.58744 q 0.004,0.79782 0.47156,1.19069 0.46544,0.39324 1.39009,0.39324 0.61046,0 1.2028,-0.17509 0.59235,-0.17508 1.23908,-0.55608 z m -1.49897,-3.80777 q -0.0121,-0.7011 -0.36264,-1.05771 -0.34494,-0.36265 -1.02149,-0.36265 -0.61046,0 -0.9731,0.37472 -0.36265,0.36869 -0.42926,1.05171 z m -0.38075,-5.75999 h 1.70439 l -2.22421,2.27251 h -1.19069 z m -7.76669,2.53852 v 0.59227 h 2.07919 v 1.35994 h -2.07919 v 5.40945 h -1.77089 v -5.40945 h -1.64401 v -1.35994 h 1.64401 v -0.47156 q 0,-1.22088 0.50771,-1.69232 0.5077,-0.47156 1.88571,-0.47156 h 1.45666 v 1.35998 h -1.38409 q -0.39887,0 -0.54397,0.1453 -0.13885,0.1449 -0.15133,0.53789 z m -7.45234,0 v 0.59227 h 2.07915 v 1.35994 h -2.07915 v 5.40945 h -1.77093 v -5.40945 h -1.64402 v -1.35994 h 1.64402 v -0.47156 q 0,-1.22088 0.50771,-1.69232 0.5077,-0.47156 1.88575,-0.47156 h 1.45662 v 1.35998 h -1.38409 q -0.39887,0 -0.54397,0.1453 -0.13886,0.1449 -0.15133,0.53789 z m -10.58325,0.59227 h 3.50563 v 5.40949 h 2.20002 v 1.3599 h -6.17701 v -1.3599 h 2.20606 v -4.04955 h -1.7347 z m 1.7347,-3.294 h 1.77093 v 2.06704 h -1.77093 z m -5.74187,4.25503 v -3.59623 h 1.76485 v 9.40459 h -1.76485 v -1.00333 q -0.28416,0.58627 -0.7374,0.88246 -0.44713,0.29624 -1.05775,0.29624 -1.16043,0 -1.80108,-0.93077 -0.64068,-0.9308 -0.64068,-2.62316 0,-1.71651 0.64668,-2.63519 0.6528,-0.91873 1.85553,-0.91873 0.54401,0 0.97315,0.28416 0.43489,0.27812 0.76155,0.84012 z m -2.46599,2.4418 q 0,0.97914 0.32642,1.53522 0.32642,0.55605 0.90058,0.55605 0.57419,0 0.90661,-0.55605 0.33246,-0.55608 0.33246,-1.53522 0,-0.97915 -0.33246,-1.53519 -0.33246,-0.55608 -0.90661,-0.55608 -0.57424,0 -0.90058,0.55608 -0.32642,0.55604 -0.32642,1.53519 z m -3.29407,-1.02748 v 4.39404 h -1.75881 v -4.12204 q 0,-0.73737 -0.21131,-1.05167 -0.20567,-0.32039 -0.67691,-0.32039 -0.47768,0 -0.75552,0.42926 -0.27208,0.4293 -0.27208,1.19069 v 3.87427 h -1.75889 v -6.76939 h 1.75889 v 1.01541 q 0.18756,-0.56208 0.64068,-0.87031 0.45321,-0.30831 1.09398,-0.30831 0.96103,0 1.45054,0.64069 0.48935,0.6346 0.48935,1.89783 z m -12.88599,-3.05826 v -1.57149 h 5.37319 v 1.57149 h -1.79507 v 5.88085 h 1.79507 v 1.57145 h -5.37319 v -1.57145 h 1.79512 v -5.88085 z" />
    <path
       id="path1562"
       style="font-weight:bold;font-size:8px;line-height:1;font-family:monospace;-inkscape-font-specification:'monospace Bold';text-align:center;letter-spacing:0px;white-space:pre;display:inline;fill:#ffffff;stroke-width:1.54729;stroke-linecap:round"
       d="m 511.67839,22.631154 q -0.62217,0.239523 -1.2656,0.351658 -0.64346,0.112094 -1.35644,0.09563 -1.69799,-0.03904 -2.57735,-0.966351 -0.87325,-0.933061 -0.83377,-2.643085 0.0407,-1.655635 0.92449,-2.596444 0.88628,-0.940809 2.37873,-0.906352 1.50459,0.03462 2.31175,0.948135 0.81335,0.907494 0.77596,2.526877 l -0.0161,0.719056 -4.58623,-0.105855 q -0.0121,0.797747 0.44403,1.201249 0.45626,0.403514 1.38067,0.424851 0.61033,0.01409 1.20655,-0.147474 0.59621,-0.16156 1.2515,-0.527312 z m -1.41062,-3.841355 q 0.004,-0.701206 -0.33809,-1.065807 -0.33608,-0.370494 -1.01283,-0.386151 -0.61026,-0.01409 -0.98148,0.35218 -0.37109,0.360231 -0.4532,1.041489 z m -5.7188,-0.884948 q -0.28819,-0.267858 -0.6803,-0.403462 -0.38599,-0.135559 -0.85135,-0.138658 -0.56208,-0.0037 -0.98647,0.192914 -0.41859,0.190621 -0.6505,0.563819 -0.14651,0.228696 -0.2093,0.554674 -0.0567,0.326019 -0.0612,0.990847 l -0.0201,3.118682 -1.77085,-0.01167 0.0459,-6.769227 1.77088,0.01167 -0.0121,1.051647 q 0.26363,-0.578486 0.80377,-0.889189 0.54003,-0.316721 1.25928,-0.311972 0.36265,0.0025 0.7065,0.09539 0.34976,0.08698 0.66318,0.258279 z m -10.356,-3.803851 0.0201,1.921927 2.31477,-0.02254 0.0161,1.359859 -2.31481,0.02254 0.0322,3.203221 q 0.004,0.453266 0.22419,0.650616 0.2258,0.191224 0.73917,0.186233 l 1.35986,-0.01328 0.0161,1.359856 -1.4868,0.01409 q -1.52303,0.01489 -2.06567,-0.463502 -0.54264,-0.484327 -0.5554,-1.80188 l -0.0322,-3.118601 -1.72854,0.0169 -0.0161,-1.359855 1.72854,-0.01691 -0.0201,-1.921927 z m -10.63022,6.537835 -0.11471,-4.404652 1.77036,-0.04633 0.10747,4.13276 q 0.0201,0.731086 0.23264,1.039926 0.21372,0.308833 0.69099,0.296436 0.47712,-0.01207 0.7321,-0.442267 0.26081,-0.430046 0.24069,-1.19132 l -0.10143,-3.885034 1.77028,-0.04633 0.17629,6.767091 -1.77036,0.04633 -0.0242,-1.002982 q -0.17267,0.566785 -0.61782,0.88673 -0.43896,0.31978 -1.07349,0.336282 -0.96675,0.02496 -1.47888,-0.60239 -0.50617,-0.62771 -0.53881,-1.884459 z m -1.71071,2.089022 q -0.60523,0.279732 -1.23992,0.433609 -0.63477,0.153873 -1.34734,0.1841 -1.69687,0.07184 -2.63496,-0.795892 -0.93229,-0.874007 -1.00466,-2.582956 -0.0704,-1.654601 0.75286,-2.651304 0.8229,-0.996703 2.31445,-1.059838 1.50363,-0.06363 2.36879,0.795063 0.87087,0.852409 0.93938,2.470777 l 0.0322,0.718606 -4.58338,0.194001 q 0.0407,0.79685 0.52139,1.169682 0.48174,0.372869 1.40546,0.333746 0.60994,-0.02616 1.19431,-0.225999 0.58438,-0.200199 1.2144,-0.60796 z m -1.65863,-3.740982 q -0.0407,-0.699974 -0.40688,-1.041432 -0.35943,-0.347753 -1.03585,-0.319136 -0.60986,0.02616 -0.95637,0.415533 -0.34694,0.383695 -0.38438,1.068874 z m -12.23141,-4.259698 1.91272,-0.112094 2.8936,6.399543 -0.38358,-6.546614 1.56879,-0.09193 0.52783,9.008372 -1.90061,0.111369 -2.90571,-6.39883 0.38358,6.546609 -1.5688,0.09193 z" />
    <path
       id="path1595"
       style="font-weight:bold;font-size:8px;line-height:1;font-family:monospace;-inkscape-font-specification:'monospace Bold';text-align:center;letter-spacing:0px;white-space:pre;display:inline;fill:#ffffff;stroke-width:1.54729;stroke-linecap:round"
       d="m 269.91165,74.172221 -1.65059,-3.195076 1.56799,-0.810028 4.31652,8.355483 -1.56798,0.810027 -0.46051,-0.891392 q 0.0166,0.651268 -0.25009,1.122445 -0.26149,0.468351 -0.80382,0.748592 -1.031,0.532632 -2.02743,-2.42e-4 -0.99609,-0.533565 -1.77316,-2.036486 -0.78785,-1.525058 -0.63496,-2.63805 0.15827,-1.115843 1.22686,-1.667907 0.4832,-0.249511 0.99493,-0.194278 0.51413,0.04751 1.06234,0.396602 z m -1.07015,3.301257 q 0.44941,0.869908 0.99461,1.214136 0.54515,0.344284 1.05531,0.08068 0.5102,-0.263694 0.55027,-0.910098 0.0401,-0.646634 -0.40927,-1.516549 -0.44942,-0.869909 -0.99996,-1.211379 -0.55066,-0.34125 -1.06082,-0.0777 -0.51017,0.26367 -0.5449,0.90733 -0.035,0.643812 0.41465,1.513749 z m -3.26963,-0.02886 q -0.38134,-0.09706 -0.79049,-0.0278 -0.40359,0.06528 -0.81355,0.286491 -0.49511,0.266274 -0.77325,0.642272 -0.27574,0.367953 -0.30053,0.806647 -0.0189,0.271147 0.0823,0.587121 0.10651,0.31342 0.42152,0.898804 l 1.47703,2.746804 -1.55976,0.83874 -3.20591,-5.962106 1.55974,-0.83873 0.49806,0.926261 q -0.0459,-0.634123 0.27905,-1.165726 0.32225,-0.536747 0.9555,-0.877511 0.31924,-0.171435 0.66577,-0.255 0.34887,-0.0915 0.70576,-0.09122 z m -9.74218,4.636804 q -0.5539,0.30976 -0.5961,0.977372 -0.0451,0.662278 0.44165,1.532708 0.48675,0.870415 1.0776,1.184063 0.58882,0.306547 1.14184,-0.0015 0.55919,-0.312657 0.60424,-0.975003 0.0422,-0.667613 -0.44456,-1.538046 -0.48675,-0.870416 -1.07468,-1.178715 -0.5896,-0.316062 -1.15003,-9.24e-4 z m -1.70024,3.374384 q -0.79943,-1.429631 -0.527,-2.676093 0.2748,-1.254706 1.52504,-1.953895 1.2555,-0.702064 2.4631,-0.276334 1.20991,0.417548 2.00935,1.847178 0.79944,1.429589 0.52466,2.684312 -0.27244,1.246503 -1.52798,1.948612 -1.25021,0.699096 -2.46013,0.281539 -1.20773,-0.425487 -2.00704,-1.855329 z m 0.06,3.462478 q -0.25629,0.449344 -0.63658,0.817326 -0.37737,0.373006 -0.88952,0.67066 -1.35349,0.786483 -2.5902,0.414489 -1.23683,-0.371653 -2.07485,-1.814197 -0.84116,-1.447559 -0.54668,-2.709218 0.2914,-1.266807 1.64491,-2.053326 0.47032,-0.27326 0.96786,-0.415656 0.50269,-0.145157 1.0701,-0.167364 l 0.81384,1.400514 q -0.50148,-0.09304 -0.99188,-0.01089 -0.48823,0.0737 -0.9168,0.323043 -0.74729,0.434241 -0.87332,1.143627 -0.12608,0.709378 0.38413,1.587334 0.51014,0.87796 1.1859,1.11433 0.67562,0.236659 1.42299,-0.197735 0.44418,-0.258032 0.74588,-0.629167 0.29865,-0.376195 0.4672,-0.879878 z m -6.43976,3.762015 q -0.24859,0.453719 -0.62298,0.827738 -0.37107,0.379092 -0.87832,0.685279 -1.34031,0.808758 -2.58297,0.457387 -1.24278,-0.351184 -2.10452,-1.779659 -0.86498,-1.433442 -0.59139,-2.699793 0.27047,-1.271495 1.6108,-2.080254 0.46564,-0.280811 0.96085,-0.431552 0.50028,-0.153687 1.06717,-0.185126 l 0.83687,1.386903 q -0.50298,-0.08477 -0.99199,0.0056 -0.48696,0.08261 -0.91132,0.338109 -0.74005,0.446536 -0.85432,1.157916 -0.11436,0.711358 0.4103,1.580726 0.52458,0.869423 1.20422,1.094475 0.67941,0.225491 1.41956,-0.220988 0.43985,-0.265392 0.73537,-0.641393 0.29238,-0.381141 0.45277,-0.887425 z m -9.7303,2.623415 q -0.84015,0.526076 -1.03839,0.949712 -0.19832,0.423628 0.1289,0.946193 0.24381,0.389253 0.61876,0.475291 0.37475,0.08637 0.7692,-0.160562 0.59423,-0.372067 0.64302,-1.023061 0.0455,-0.656064 -0.45808,-1.460295 l -0.0641,-0.102567 z m 1.72757,-1.887612 2.04971,3.273419 -1.49068,0.933416 -0.40113,-0.640034 q -0.0342,0.549078 -0.33099,1.020196 -0.29669,0.471198 -0.80917,0.791942 -0.97841,0.612617 -1.85051,0.438464 -0.86697,-0.177399 -1.44763,-1.104492 -0.6287,-1.004056 -0.2765,-1.887797 0.34901,-0.888927 1.71168,-1.742186 l 1.03992,-0.651177 -0.15712,-0.251138 q -0.22787,-0.363436 -0.60953,-0.381462 -0.37983,-0.02608 -0.89222,0.294849 -0.53788,0.336806 -0.95841,0.79269 -0.41864,0.447553 -0.78069,1.087837 l -0.80196,-1.280611 q 0.3686,-0.516086 0.81992,-0.934162 0.45131,-0.418125 1.0251,-0.777397 1.39848,-0.875719 2.31801,-0.659918 0.92453,0.212805 1.84207,1.677642 z m -8.42471,2.124399 0.8427,1.297705 q -0.58184,0.0032 -1.11342,0.160996 -0.5298,0.149375 -0.97595,0.439235 -0.49675,0.32257 -0.6547,0.634187 -0.1612,0.306351 0.023,0.590375 0.26347,0.405227 1.5127,-0.0455 l 0.0668,-0.02319 0.4917,-0.175203 q 0.93613,-0.334112 1.59107,-0.146876 0.65664,0.178973 1.13087,0.908533 0.56949,0.876955 0.27774,1.693275 -0.28966,0.80789 -1.4454,1.55847 -0.51196,0.3325 -1.10853,0.5902 -0.59331,0.26281 -1.261,0.44414 l -0.84273,-1.29764 q 0.67283,-0.0407 1.2751,-0.22269 0.60732,-0.18521 1.08392,-0.49495 0.52208,-0.33907 0.692,-0.66563 0.17004,-0.32668 -0.0177,-0.61546 -0.18426,-0.284052 -0.47564,-0.310984 -0.28637,-0.03014 -1.113,0.261584 l -0.46991,0.17558 q -0.97667,0.3604 -1.63364,0.20333 -0.65684,-0.15735 -1.10459,-0.846644 -0.53324,-0.821263 -0.23639,-1.662594 0.29677,-0.84132 1.37139,-1.539216 0.48154,-0.312677 1.0107,-0.541042 0.53103,-0.236989 1.08414,-0.372597 z m -2.29426,8.928693 q -0.36969,0.55485 -0.83027,1.01789 -0.46056,0.46305 -1.05222,0.86132 -1.40891,0.94846 -2.66227,0.69933 -1.2517,-0.2576 -2.20694,-1.67642 -0.9248,-1.37383 -0.74448,-2.6537 0.18031,-1.27982 1.41872,-2.11351 1.24847,-0.84044 2.43491,-0.56083 1.18813,0.27114 2.09265,1.61494 l 0.40156,0.59684 -3.80553,2.56179 q 0.45048,0.65857 1.05601,0.72447 0.60532,0.0663 1.37255,-0.45037 0.5064,-0.34087 0.8999,-0.81705 0.39347,-0.4762 0.71735,-1.15322 z m -3.36982,-2.32172 q -0.40164,-0.57471 -0.8915,-0.6749 -0.48831,-0.10844 -1.04986,0.26957 -0.5064,0.34088 -0.59796,0.85429 -0.0949,0.50817 0.23126,1.11206 z m -3.53249,-4.565533 1.41393,-0.951858 -0.57602,3.127299 -0.98773,0.664932 z m -3.95127,7.646943 -2.05727,-2.94968 1.44756,-1.00964 5.38008,7.71371 -1.4476,1.00967 -0.57405,-0.82274 q 0.10241,0.64334 -0.1,1.14561 -0.1974,0.49874 -0.6981,0.848 -0.95182,0.66385 -2.00978,0.26698 -1.0581,-0.39667 -2.02606,-1.78506 -0.98199,-1.40788 -0.97709,-2.53138 0.01,-1.12695 0.99638,-1.81497 0.44623,-0.31134 0.96062,-0.32366 0.51592,-0.0208 1.10522,0.25347 z m -0.62571,3.41347 q 0.56016,0.80301 1.14586,1.07256 0.58421,0.27249 1.05678,-0.0591 0.47092,-0.32844 0.42548,-0.97465 -0.0455,-0.64629 -0.60557,-1.44939 -0.56018,-0.80301 -1.15096,-1.06889 -0.59219,-0.2631 -1.06171,0.0626 -0.47093,0.32844 -0.42054,0.97128 0.0504,0.64279 0.61056,1.44586 z m -9.42979,5.51677 2.63142,3.51899 -1.40856,1.05331 -2.46855,-3.30118 q -0.44154,-0.59065 -0.79912,-0.71574 -0.35733,-0.13172 -0.73396,0.14887 -0.38229,0.2858 -0.34811,0.79613 0.0391,0.50658 0.49525,1.11643 l 2.32013,3.10274 -1.40854,1.05327 -4.05393,-5.42128 1.40858,-1.05331 0.60805,0.81327 q -0.18663,-0.56218 -0.008,-1.08071 0.17845,-0.51833 0.69151,-0.90197 0.76961,-0.57552 1.54536,-0.35561 0.77209,0.21513 1.52868,1.2266 z m -3.38251,7.61742 q -0.33192,0.57821 -0.76118,1.07058 -0.42896,0.49247 -0.99299,0.92893 -1.34319,1.03948 -2.61025,0.87363 -1.26593,-0.1744 -2.31281,-1.52707 -1.01352,-1.30974 -0.91815,-2.59872 0.0954,-1.28895 1.27604,-2.20267 1.19019,-0.92101 2.39252,-0.7204 1.20343,0.19213 2.19472,1.47327 l 0.44024,0.56872 -3.62796,2.80759 q 0.49314,0.62707 1.10147,0.65326 0.60849,0.0262 1.33982,-0.54009 0.48279,-0.37359 0.84392,-0.87475 0.36115,-0.50111 0.63985,-1.19791 z m -3.51586,-2.09399 q -0.43862,-0.54709 -0.93417,-0.61447 -0.49425,-0.0762 -1.02977,0.33838 -0.48276,0.37354 -0.54022,0.89191 -0.0612,0.51346 0.30426,1.09432 z m -13.8681,13.40747 -2.81029,-3.39358 1.36394,-1.12953 2.63684,3.1841 q 0.46649,0.56318 0.82532,0.67398 0.35884,0.11081 0.7264,-0.19344 0.36782,-0.30466 0.30271,-0.80002 -0.0604,-0.49917 -0.54611,-1.08589 l -2.47878,-2.99321 1.36394,-1.12953 4.31763,5.21371 -1.36393,1.12948 -0.63985,-0.7729 q 0.21425,0.55232 0.0617,1.07899 -0.1479,0.52269 -0.63667,0.92744 -0.74483,0.61685 -1.53518,0.43951 -0.78579,-0.181 -1.58767,-1.1492 z m -0.0554,2.69962 q -0.30315,0.59381 -0.70724,1.107 -0.40408,0.5131 -0.94578,0.97701 -1.28999,1.10472 -2.56373,1.00188 -1.27297,-0.11161 -2.38581,-1.41025 -1.0772,-1.25787 -1.04581,-2.55001 0.0314,-1.29211 1.16536,-2.26318 1.1431,-0.97891 2.35386,-0.83805 1.21153,0.13219 2.26499,1.36276 l 0.46785,0.54626 -3.48437,2.98393 q 0.52338,0.60234 1.13201,0.59881 0.609,-0.004 1.3114,-0.60579 0.46366,-0.39707 0.79958,-0.91551 0.33586,-0.51838 0.57924,-1.22841 z m -3.61534,-1.9171 q -0.4651,-0.52493 -0.96343,-0.56751 -0.49743,-0.0516 -1.01174,0.38898 -0.46366,0.39708 -0.49518,0.91769 -0.0354,0.51578 0.35812,1.07793 z m -5.44004,8.95646 2.33994,2.64268 -1.32137,1.16997 -6.19438,-6.99591 1.32138,-1.16997 0.67316,0.76013 q -0.18054,-0.62313 -0.0374,-1.14551 0.14307,-0.52222 0.60006,-0.92689 0.86887,-0.7693 1.96552,-0.49709 1.0967,0.27217 2.21853,1.53932 1.13791,1.28516 1.2582,2.4057 0.12524,1.1165 -0.77569,1.91388 -0.40726,0.36056 -0.9174,0.44094 -0.50959,0.071 -1.13063,-0.13715 z m 0.23162,-3.45844 q -0.64916,-0.73289 -1.26212,-0.93289 -0.61297,-0.19999 -1.04286,0.18065 -0.42992,0.38066 -0.31017,1.0173 0.11973,0.63673 0.7688,1.36981 0.64917,0.7329 1.26667,0.92888 0.61747,0.19599 1.04737,-0.18471 0.42992,-0.38064 0.30567,-1.01331 -0.12433,-0.63264 -0.77332,-1.3658 z m -10.82739,8.45751 3.01991,3.19183 -1.27761,1.20879 -2.83298,-2.99425 q -0.50668,-0.53586 -0.87654,-0.61838 -0.36928,-0.0917 -0.71188,0.23252 -0.34679,0.32807 -0.25386,0.83095 0.0973,0.49868 0.62073,1.05189 l 2.66268,2.81424 -1.27763,1.20882 -4.65238,-4.91733 1.27761,-1.20879 0.69789,0.73752 q -0.25032,-0.53688 -0.13311,-1.07248 0.11747,-0.53549 0.58281,-0.97583 0.69808,-0.66048 1.49404,-0.53159 0.79167,0.12479 1.66002,1.04201 z m -8.88078,10.02222 -3.98073,-4.07066 1.2748,-1.24665 4.29342,4.39049 q 0.47331,0.48391 0.98931,0.5211 0.51241,0.0313 0.94898,-0.39543 0.43643,-0.42679 0.41653,-0.93992 -0.0244,-0.51724 -0.49745,-1.0014 l -4.29342,-4.39044 1.27479,-1.24662 3.9807,4.07067 q 1.28467,1.31365 1.34496,2.4213 0.0603,1.10765 -1.0977,2.24026 -1.15379,1.12829 -2.26415,1.04751 -1.10607,-0.0849 -2.39066,-1.39872 z" />
    <path
       id="path814"
       style="font-weight:bold;font-size:3.24106px;line-height:1;font-family:monospace;-inkscape-font-specification:'monospace Bold';text-align:center;letter-spacing:0px;text-anchor:middle;white-space:pre;display:inline;fill:#ffffff;stroke-width:4.02492;stroke-linecap:round"
       d="m 56.628873,302.65308 -3.47063,-1.5226 0.747208,-1.70323 9.076147,3.98174 -0.747218,1.70325 -0.968281,-0.4248 q 0.445541,0.52238 0.539411,1.08525 0.09646,0.55703 -0.161991,1.14617 -0.491318,1.11995 -1.660856,1.34416 -1.169537,0.22422 -2.802766,-0.4923 -1.656581,-0.72675 -2.269392,-1.73985 -0.610222,-1.01897 -0.101063,-2.1797 0.230234,-0.52507 0.686158,-0.81883 0.453522,-0.3009 1.133258,-0.37918 z m 1.312465,3.41367 q 0.944951,0.41457 1.619777,0.335 0.674934,-0.0794 0.917793,-0.63387 0.243111,-0.55412 -0.152761,-1.11037 -0.395719,-0.55637 -1.340821,-0.97077 -0.94496,-0.41456 -1.622337,-0.32917 -0.677333,0.0854 -0.920475,0.63953 -0.243119,0.55413 0.155361,1.10454 0.398325,0.55047 1.34339,0.96494 z m -2.697123,2.14381 q -0.376753,0.17349 -0.665312,0.50225 -0.286873,0.32175 -0.476603,0.77401 -0.22908,0.54632 -0.207727,1.03876 0.01798,0.48411 0.288535,0.86006 0.163994,0.23451 0.456648,0.42637 0.295059,0.18598 0.941133,0.45691 l 3.030951,1.27122 -0.721853,1.72104 -6.578761,-2.75923 0.721822,-1.72106 1.022054,0.42866 q -0.457943,-0.48909 -0.544129,-1.13993 -0.09206,-0.65335 0.20111,-1.35236 0.147794,-0.35246 0.376352,-0.65031 0.225114,-0.30622 0.517685,-0.54268 z m -4.907509,10.25398 q -0.248679,0.62076 0.159226,1.19587 0.402098,0.57252 1.377635,0.96335 0.975661,0.39069 1.66767,0.25613 0.68597,-0.13715 0.934629,-0.75792 0.251004,-0.62681 -0.150964,-1.19944 -0.407599,-0.57516 -1.383505,-0.96568 -0.975681,-0.39071 -1.661755,-0.25375 -0.692071,0.13446 -0.943091,0.76123 z m 0.843063,3.89178 q -1.602478,-0.64172 -2.20525,-1.84368 -0.606325,-1.21022 -0.04512,-2.61164 0.563532,-1.40735 1.835233,-1.85871 1.268259,-0.45947 2.870595,0.18231 1.602473,0.6417 2.208797,1.85194 0.602778,1.20195 0.03923,2.60932 -0.561182,1.4014 -1.829331,1.86103 -1.271601,0.45151 -2.874163,-0.19033 z m 2.343361,2.79768 q 0.08775,0.53801 0.01962,1.09153 -0.06218,0.55582 -0.284808,1.13899 -0.5884,1.54122 -1.848406,2.05562 -1.259944,0.51449 -2.902395,-0.11255 -1.648338,-0.62927 -2.242718,-1.85845 -0.600308,-1.23144 -0.01191,-2.77267 0.204463,-0.53555 0.517977,-0.98177 0.315763,-0.45219 0.766191,-0.84609 l 1.59479,0.6088 q -0.472717,0.2559 -0.820157,0.64828 -0.351154,0.38415 -0.537468,0.87207 -0.324859,0.85096 0.04172,1.51587 0.366626,0.66494 1.366323,1.04663 0.999724,0.38165 1.710218,0.12793 0.710501,-0.25375 1.035454,-1.10459 0.193193,-0.50566 0.194592,-1.00977 -0.0044,-0.50623 -0.199685,-1.03075 z m -2.787055,7.35028 q 0.09651,0.53654 0.03725,1.09109 -0.05319,0.55671 -0.266378,1.14344 -0.563445,1.55052 -1.814963,2.08522 -1.251564,0.53463 -2.903855,-0.0657 -1.658288,-0.60258 -2.27241,-1.82199 -0.62011,-1.22158 -0.05666,-2.7721 0.195758,-0.53884 0.502044,-0.99003 0.308365,-0.45733 0.752337,-0.8585 l 1.604423,0.58303 q -0.468584,0.26336 -0.809544,0.66148 -0.344976,0.38965 -0.523318,0.88061 -0.311093,0.8561 0.06618,1.51502 0.377309,0.65893 1.383041,1.02441 1.005755,0.36549 1.712051,0.10029 0.706398,-0.26504 1.017317,-1.12138 0.184975,-0.50877 0.178284,-1.01276 -0.01264,-0.50611 -0.216288,-1.02741 z m -6.241346,8.59016 q -0.340925,0.98743 -0.22318,1.46608 0.117789,0.47867 0.731882,0.69073 0.457669,0.15813 0.822063,-0.0195 0.364596,-0.17717 0.524484,-0.64109 0.241147,-0.69841 -0.149613,-1.26461 -0.396735,-0.5683 -1.342083,-0.89465 l -0.120514,-0.0417 z m 0.167791,-2.69142 3.847328,1.32836 -0.604914,1.75209 -0.752621,-0.25987 q 0.335276,0.47299 0.403616,1.05583 0.06829,0.58291 -0.139579,1.18498 -0.397054,1.14999 -1.227589,1.58426 -0.828356,0.4284 -1.918238,0.052 -1.180085,-0.40743 -1.476026,-1.36542 -0.301736,-0.96011 0.251007,-2.56161 l 0.422012,-1.22222 -0.294933,-0.10174 q -0.427557,-0.1477 -0.75237,0.0907 -0.328823,0.23007 -0.536778,0.83207 -0.218374,0.63205 -0.261509,1.28439 -0.04721,0.64409 0.0796,1.40891 l -1.505221,-0.51972 q -0.0392,-0.6672 0.05427,-1.30878 0.09349,-0.64159 0.326325,-1.3159 0.567513,-1.64369 1.464504,-2.07525 0.899146,-0.43744 2.621026,0.15694 z m -5.504921,7.31811 1.549688,0.50736 q -0.475346,0.38722 -0.807005,0.8686 -0.335903,0.47308 -0.510272,1.00585 -0.194257,0.59319 -0.117761,0.95339 0.07038,0.35803 0.409352,0.46916 0.484312,0.15856 1.211211,-1.03761 l 0.03926,-0.0616 0.287554,-0.46883 q 0.547126,-0.89327 1.208251,-1.17286 0.657086,-0.2876 1.528817,-0.002 1.047247,0.34286 1.347961,1.20539 0.29665,0.85451 -0.155176,2.23466 -0.200107,0.6115 -0.519192,1.21743 -0.312911,0.6081 -0.740901,1.19841 l -1.549687,-0.50736 q 0.525117,-0.47826 0.898839,-1.02617 0.375813,-0.5538 0.562011,-1.12296 0.204077,-0.62357 0.127558,-1.00382 -0.0765,-0.38023 -0.421599,-0.49322 -0.338904,-0.11086 -0.595867,0.0597 -0.255819,0.16326 -0.740243,0.95061 l -0.268869,0.45556 q -0.562992,0.94166 -1.205928,1.24725 -0.642866,0.30568 -1.466215,0.0361 -0.980651,-0.32107 -1.293578,-1.2077 -0.312954,-0.88662 0.10724,-2.16995 0.188176,-0.57522 0.471399,-1.11241 0.279093,-0.54533 0.643143,-1.02265 z m 4.02284,8.84136 q 0.06335,0.69976 -0.0086,1.38429 -0.07193,0.68454 -0.294268,1.40251 -0.529475,1.70977 -1.722899,2.33373 -1.197753,0.61584 -2.919565,0.0828 -1.667166,-0.51629 -2.365187,-1.68598 -0.69803,-1.16965 -0.232606,-2.67256 0.469177,-1.51505 1.627819,-2.06978 1.154472,-0.56268 2.785115,-0.0577 l 0.724083,0.22424 -1.430125,4.61818 q 0.805051,0.24261 1.345648,-0.10304 0.540194,-0.34659 0.828884,-1.27695 0.190327,-0.6145 0.198507,-1.26546 0.0082,-0.65093 -0.17354,-1.42072 z m -4.300562,0.32193 q -0.70959,-0.20641 -1.177861,0.0353 -0.472512,0.23373 -0.683594,0.91512 -0.190336,0.61449 0.0739,1.09644 0.258145,0.47998 0.924927,0.75982 z m -5.917309,-1.41233 0.531352,-1.71585 1.594428,2.94759 -0.371201,1.19862 z m 1.810616,8.88701 -3.637961,-1.06254 0.52145,-1.78532 9.513684,2.77859 -0.521432,1.78536 -1.014953,-0.29646 q 0.509139,0.46062 0.674672,1.00672 0.167472,0.53997 -0.01289,1.15752 -0.34287,1.17391 -1.47374,1.54702 -1.130871,0.37309 -2.84285,-0.12685 -1.736428,-0.50716 -2.474727,-1.43282 -0.736448,-0.93181 -0.381127,-2.1485 0.160721,-0.55026 0.57487,-0.90045 0.409708,-0.35823 1.074959,-0.52206 z m 1.741553,3.21602 q 0.990494,0.28929 1.649434,0.12339 0.65896,-0.16582 0.828551,-0.74676 0.16958,-0.58093 -0.294607,-1.08139 -0.464271,-0.50063 -1.454788,-0.78987 -0.990503,-0.28929 -1.65122,-0.1175 -0.66072,0.17202 -0.830317,0.75292 -0.169587,0.58093 0.296385,1.07531 0.466074,0.49446 1.456577,0.78375 z m -4.099547,10.75537 4.484808,1.15338 -0.461671,1.79515 -4.2072,-1.08197 q -0.752597,-0.19354 -1.128896,-0.0601 -0.380767,0.12595 -0.504714,0.60673 -0.125306,0.48735 0.239647,0.88378 0.366608,0.39023 1.143874,0.59011 l 3.954255,1.01692 -0.46166,1.79516 -6.909154,-1.77683 0.461661,-1.79515 1.036348,0.26649 q -0.524505,-0.33873 -0.720163,-0.88231 -0.195596,-0.54356 -0.02748,-1.19749 0.252257,-0.98083 1.034675,-1.31235 0.776135,-0.33325 2.065532,-0.002 z m 2.584872,8.59722 -1.381774,5.76036 -9.247531,-2.21827 1.381762,-5.76035 1.610436,0.38634 -0.943476,3.93311 1.994442,0.47842 0.854325,-3.56151 1.610406,0.3863 -0.854291,3.56153 2.421811,0.58093 0.943463,-3.93315 z" />
    <path
       id="path1522"
       style="font-weight:bold;font-size:8px;line-height:1;font-family:monospace;-inkscape-font-specification:'monospace Bold';text-align:center;letter-spacing:0px;white-space:pre;display:inline;fill:#ffffff;stroke-width:1.54729;stroke-linecap:round"
       d="m 821.55918,159.98596 2.58202,-2.50321 1.22847,1.26714 -6.75231,6.54621 -1.22846,-1.26714 0.72037,-0.69836 q -0.6186,0.20432 -1.14685,0.0848 -0.52399,-0.11487 -0.94887,-0.55327 -0.80775,-0.83319 -0.58543,-1.94106 0.22254,-1.10786 1.43741,-2.28587 1.23242,-1.19481 2.3422,-1.36995 1.11395,-0.1708 1.95117,0.69276 0.37867,0.39054 0.47342,0.89637 0.10328,0.50595 -0.0732,1.13156 z m -3.46965,-0.0709 q -0.70302,0.68152 -0.87506,1.30292 -0.17216,0.62141 0.22762,1.03365 0.39962,0.41228 1.0303,0.26389 0.63062,-0.14841 1.33363,-0.82988 0.70302,-0.68155 0.87086,-1.3073 0.16773,-0.62571 -0.23182,-1.03797 -0.39969,-0.41226 -1.0261,-0.25957 -0.6264,0.15276 -1.32942,0.83425 z m -0.91723,-3.1388 q -0.0175,-0.39318 -0.20174,-0.76476 -0.17967,-0.36746 -0.5094,-0.69605 -0.39788,-0.39703 -0.83831,-0.55464 -0.43187,-0.15765 -0.85911,-0.0545 -0.265,0.06 -0.53836,0.24816 -0.26906,0.1926 -0.73863,0.66325 l -2.20277,2.2078 -1.25366,-1.25082 4.78126,-4.79209 1.25365,1.2508 -0.7428,0.74451 q 0.59393,-0.22681 1.19659,-0.0697 0.60706,0.15312 1.11622,0.66117 0.25674,0.25615 0.43653,0.56365 0.18843,0.30751 0.29144,0.64925 z m -7.25496,-7.9866 q -0.4566,-0.44074 -1.10792,-0.28808 -0.64709,0.14832 -1.33965,0.86583 -0.69256,0.71761 -0.82196,1.37389 -0.1256,0.65187 0.33143,1.09264 0.46097,0.44494 1.1081,0.29658 0.65127,-0.15265 1.34384,-0.8702 0.69255,-0.71759 0.81777,-1.36952 0.12956,-0.65626 -0.33161,-1.10119 z m -3.72183,-0.65203 q 1.13746,-1.17858 2.40949,-1.27812 1.28057,-0.0997 2.31129,0.89507 1.03508,0.99895 0.97655,2.27807 -0.05,1.27895 -1.1874,2.45754 -1.13747,1.17857 -2.41806,1.27825 -1.27201,0.0996 -2.30709,-0.89942 -1.03071,-0.99476 -0.98077,-2.27372 0.0585,-1.2791 1.19598,-2.45768 z m -3.29759,1.05826 q -0.50429,-0.11525 -0.96644,-0.37304 -0.46627,-0.25339 -0.89925,-0.65757 -1.14429,-1.06825 -1.14591,-2.35967 -0.002,-1.2914 1.13673,-2.51078 1.14249,-1.22382 2.43536,-1.30676 1.297,-0.0874 2.4413,0.9809 0.39764,0.3712 0.67773,0.80631 0.2845,0.43924 0.46971,0.97598 l -1.10535,1.18404 q -0.0559,-0.50699 -0.2765,-0.95267 -0.21222,-0.44596 -0.5743,-0.78421 -0.63181,-0.58979 -1.34734,-0.50532 -0.71551,0.0845 -1.40844,0.82668 -0.69291,0.74223 -0.72392,1.45745 -0.0308,0.71523 0.60075,1.30504 0.37549,0.35059 0.81796,0.53207 0.4466,0.17708 0.97739,0.19291 z m -5.46342,-5.07664 q -0.5061,-0.10714 -0.9725,-0.35693 -0.47039,-0.24558 -0.91003,-0.64257 -1.16186,-1.04912 -1.18487,-2.34032 -0.023,-1.29118 1.09493,-2.5293 1.12201,-1.2426 2.41334,-1.34699 1.29538,-0.10883 2.45724,0.94026 0.4037,0.36457 0.691,0.79496 0.2918,0.43448 0.48587,0.96803 l -1.08555,1.20223 q -0.0643,-0.50596 -0.29228,-0.94796 -0.21948,-0.44236 -0.58725,-0.77457 -0.64151,-0.57925 -1.35552,-0.48292 -0.714,0.0964 -1.39453,0.84994 -0.6805,0.75364 -0.69964,1.46925 -0.019,0.71565 0.62236,1.29487 0.38135,0.3443 0.82669,0.51847 0.44943,0.16969 0.98043,0.17679 z m -5.32571,-8.55573 q -0.74663,-0.65202 -1.20949,-0.71925 -0.4629,-0.0671 -0.86832,0.3973 -0.30217,0.34597 -0.27618,0.72976 0.0259,0.38368 0.37651,0.68988 0.52805,0.4612 1.1653,0.31955 0.64122,-0.14618 1.26543,-0.86087 l 0.0795,-0.091 z m 2.30663,1.10768 -2.54052,2.90898 -1.32473,-1.15693 0.49697,-0.56907 q -0.53548,0.12614 -1.07237,-0.0218 -0.53687,-0.14791 -0.99211,-0.5455 -0.86951,-0.75937 -0.95509,-1.64455 -0.081,-0.88123 0.63859,-1.70522 0.77926,-0.89227 1.72716,-0.81071 0.9519,0.0769 2.16281,1.13455 l 0.92414,0.80709 0.19483,-0.22305 q 0.28229,-0.32322 0.18864,-0.69384 -0.0851,-0.37118 -0.5403,-0.76878 -0.47798,-0.41747 -1.03604,-0.68814 -0.54953,-0.27127 -1.26721,-0.43261 l 0.99395,-1.1381 q 0.60059,0.20353 1.13139,0.51463 0.53078,0.31106 1.04064,0.75636 1.24279,1.08538 1.30225,2.02803 0.064,0.94662 -1.07305,2.24862 z m -4.02496,-10.30143 -2.16444,2.56273 -1.18208,-0.99837 2.16444,-2.56274 z m -7.6484,-2.19208 2.27476,-2.78538 1.36694,1.11635 -5.94877,7.28413 -1.36695,-1.11634 0.63465,-0.7771 q -0.59091,0.27427 -1.12928,0.21711 -0.53371,-0.0536 -1.00658,-0.43969 -0.8988,-0.73403 -0.80624,-1.86021 0.0926,-1.12618 1.16302,-2.43695 1.08576,-1.32948 2.16778,-1.63197 1.08668,-0.2987 2.01827,0.46212 0.42135,0.34411 0.57405,0.83553 0.1615,0.49046 0.0584,1.13241 z m -3.45451,0.33143 q -0.61934,0.75838 -0.71828,1.39549 -0.0991,0.6371 0.34569,1.00037 0.44471,0.36321 1.05395,0.14268 0.60916,-0.22048 1.22853,-0.9788 0.61934,-0.75839 0.71361,-1.39933 0.0937,-0.64105 -0.35049,-1.00414 -0.44472,-0.36321 -1.04924,-0.13917 -0.6045,0.22423 -1.22387,0.98259 z m -13.4935,-9.28835 2.67315,-3.50261 1.40777,1.07439 -2.50815,3.2864 q -0.44371,0.58136 -0.47101,0.95589 -0.0272,0.37456 0.35224,0.6642 0.37953,0.28968 0.84764,0.11474 0.4729,-0.1714 0.93492,-0.77672 l 2.35781,-3.08941 1.40777,1.0744 -4.10692,5.38124 -1.40777,-1.0744 0.6087,-0.79758 q -0.48999,0.33314 -1.03733,0.30318 -0.54255,-0.0265 -1.04704,-0.41134 -0.76874,-0.5867 -0.77404,-1.39668 -4.6e-4,-0.80629 0.76223,-1.80568 z m -2.64242,0.55446 q -0.64681,-0.16162 -1.23777,-0.43973 -0.59095,-0.27812 -1.16493,-0.70146 -1.36683,-1.00812 -1.55346,-2.27228 -0.17819,-1.26548 0.83708,-2.64203 0.98299,-1.33279 2.24898,-1.59318 1.26601,-0.26041 2.46748,0.62571 1.21118,0.8933 1.34664,2.10469 0.14388,1.21012 -0.81757,2.51374 l -0.42691,0.57881 -3.69194,-2.72295 q -0.46867,0.64567 -0.32733,1.23809 0.14139,0.59239 0.88558,1.1413 0.4913,0.36234 1.07201,0.57287 0.58076,0.21052 1.32724,0.28793 z m 1.05383,-3.95416 q 0.40641,-0.57145 0.33598,-1.06649 -0.0619,-0.49634 -0.60682,-0.89814 -0.49128,-0.36233 -1.00557,-0.27601 -0.51069,0.0814 -0.96958,0.59168 z m -9.95139,-3.28421 -2.04833,2.87463 -1.4373,-1.02418 5.42248,-7.60987 1.43732,1.02418 -0.58925,0.82694 q 0.56664,-0.31615 1.10767,-0.29428 0.54103,0.0217 1.03819,0.3761 0.94508,0.67342 0.92671,1.80325 -0.0184,1.12981 -1.00049,2.50806 -0.99611,1.39792 -2.06083,1.76731 -1.05992,0.37263 -2.03937,-0.32508 -0.44298,-0.31565 -0.63607,-0.79462 -0.1848,-0.4803 -0.12077,-1.13245 z m 3.42181,-0.55265 q 0.56821,-0.79741 0.62506,-1.43965 0.0567,-0.64229 -0.41092,-0.97541 -0.46765,-0.33324 -1.06101,-0.0732 -0.5935,0.25967 -1.16163,1.05735 -0.56821,0.7974 -0.62018,1.44316 -0.0525,0.64571 0.41541,0.97907 0.46765,0.33318 1.05611,0.0697 0.58851,-0.2634 1.1567,-1.06084 z m -10.67432,-8.646528 -2.43193,3.659718 -1.46487,-0.97344 2.28138,-3.433182 q 0.40809,-0.614139 0.40584,-0.992999 0.006,-0.380533 -0.38652,-0.641466 -0.39768,-0.264259 -0.86673,-0.06076 -0.46401,0.20682 -0.88552,0.841169 l -2.14423,3.226798 -1.46489,-0.973446 3.74655,-5.638069 1.46489,0.973433 -0.56197,0.845712 q 0.46714,-0.364455 1.01525,-0.370455 0.54816,-0.0059 1.08175,0.348749 0.8004,0.531879 0.85356,1.336438 0.0566,0.799544 -0.64262,1.851652 z m -11.75918,-6.4036 3.07376,-4.792516 1.50085,0.962598 -3.31526,5.169001 q -0.36545,0.569817 -0.2843,1.081398 0.0845,0.506543 0.59827,0.836084 0.51384,0.329539 1.00939,0.195038 0.4989,-0.139545 0.86431,-0.709391 l 3.31523,-5.169007 1.50086,0.962607 -3.07379,4.79251 q -0.99195,1.546639 -2.05785,1.853895 -1.0659,0.307279 -2.42938,-0.56727 -1.35839,-0.871228 -1.52876,-1.97142 -0.16533,-1.096889 0.82666,-2.643539 z" />
    <path
       id="path700"
       d="m 946.77075,378.59285 3.63059,-1.08734 0.53362,1.78174 -9.49447,2.8435 -0.5336,-1.78173 1.01291,-0.30336 q -0.67779,-0.1095 -1.11382,-0.47763 -0.43423,-0.36197 -0.61879,-0.97827 -0.35088,-1.17155 0.3951,-2.09977 0.74598,-0.92822 2.45448,-1.4399 1.73292,-0.51901 2.85595,-0.14388 1.12482,0.38127 1.48851,1.59548 0.16447,0.54916 0.007,1.06828 -0.14906,0.52343 -0.61786,1.02289 z m -3.21074,-1.75128 q -0.98848,0.29605 -1.45118,0.79367 -0.46269,0.49762 -0.28907,1.07731 0.17362,0.57966 0.8355,0.74713 0.66179,0.16786 1.65038,-0.12858 0.9885,-0.29605 1.44937,-0.79977 0.46084,-0.50373 0.28721,-1.0834 -0.1736,-0.57967 -0.83367,-0.74104 -0.66009,-0.16123 -1.64853,0.13467 z m 0.66715,-3.37949 q 0.17474,-0.37616 0.18307,-0.81319 0.0103,-0.43096 -0.138,-0.89845 -0.17913,-0.56464 -0.51429,-0.92608 -0.32718,-0.35731 -0.77673,-0.46872 -0.27688,-0.0727 -0.62406,-0.0292 -0.3452,0.0494 -1.01306,0.26122 l -3.13286,0.99384 -0.56433,-1.77892 6.80002,-2.15716 0.56432,1.77892 -1.05643,0.33512 q 0.66569,0.0762 1.15282,0.51639 0.49322,0.43823 0.72239,1.16078 0.11558,0.36427 0.13428,0.73925 0.0267,0.37911 -0.0431,0.74874 z m -2.90005,-10.99362 q -0.21249,-0.63416 -0.8956,-0.8083 -0.67714,-0.1759 -1.67358,0.15773 -0.99653,0.33393 -1.43679,0.88451 -0.43425,0.54854 -0.22174,1.18272 0.21453,0.64019 0.89161,0.81635 0.68311,0.17417 1.67963,-0.15976 0.99653,-0.33391 1.43074,-0.88248 0.44028,-0.55056 0.22575,-1.19078 z m -3.16215,-2.42017 q 1.63672,-0.54846 2.8743,-0.0227 1.24564,0.5298 1.72529,1.96116 0.48166,1.43742 -0.1953,2.60474 -0.66889,1.17135 -2.30562,1.71979 -1.63671,0.54845 -2.88236,0.0186 -1.23757,-0.52579 -1.71925,-1.96319 -0.47963,-1.43138 0.18926,-2.60271 0.67692,-1.16735 2.31368,-1.71577 z m -3.59644,-0.61315 q -0.41518,-0.35329 -0.72159,-0.81926 -0.31241,-0.46387 -0.52023,-1.05248 -0.54926,-1.5556 0.0781,-2.76334 0.62733,-1.20774 2.28506,-1.79306 1.66372,-0.58743 2.91243,-0.0353 1.25471,0.54997 1.80399,2.10555 0.19087,0.54056 0.24076,1.08362 0.052,0.54904 -0.0362,1.14087 l -1.60966,0.56837 q 0.19464,-0.50104 0.20545,-1.02504 0.019,-0.52008 -0.15489,-1.01261 -0.30325,-0.85888 -1.01313,-1.12836 -0.70986,-0.26949 -1.7189,0.0868 -1.00905,0.35628 -1.38632,1.00963 -0.37721,0.65337 -0.074,1.51223 0.18027,0.51051 0.50537,0.8956 0.33111,0.38297 0.81944,0.65636 z m -2.63482,-7.40912 q -0.4208,-0.34658 -0.73464,-0.80758 -0.3198,-0.45879 -0.53706,-1.04399 -0.57417,-1.54658 0.0337,-2.76424 0.60787,-1.21765 2.25598,-1.82951 1.65407,-0.61408 2.91149,-0.0821 1.26339,0.52973 1.83756,2.07633 0.19952,0.53741 0.25812,1.0796 0.0608,0.54814 -0.0179,1.14132 l -1.60034,0.59413 q 0.18654,-0.50411 0.18901,-1.0282 0.0107,-0.52031 -0.17112,-1.00997 -0.31701,-0.85392 -1.0311,-1.11199 -0.71409,-0.25809 -1.71729,0.11438 -1.00318,0.37243 -1.36992,1.03175 -0.36675,0.6593 -0.0497,1.51322 0.18843,0.50757 0.51969,0.88738 0.33722,0.3776 0.82987,0.64312 z m -0.80279,-10.58776 q -0.37928,-0.97333 -0.77886,-1.26197 -0.39968,-0.28851 -1.00496,-0.0527 -0.45103,0.17575 -0.61405,0.54691 -0.16294,0.37116 0.0151,0.82813 0.26827,0.68845 0.93263,0.86707 0.6703,0.17622 1.60206,-0.18677 l 0.11867,-0.0462 z m 1.61422,2.16013 -3.79242,1.4778 -0.67299,-1.72708 0.74187,-0.28907 q -0.56177,-0.14341 -0.99107,-0.54357 -0.42933,-0.40012 -0.66062,-0.99358 -0.44172,-1.13357 -0.0898,-2.0022 0.3543,-0.86268 1.42852,-1.28127 1.16325,-0.45329 2.00891,0.0854 0.8516,0.53632 1.46676,2.11505 l 0.46948,1.20478 0.2908,-0.11333 q 0.42138,-0.16419 0.51477,-0.55607 0.10117,-0.38836 -0.12962,-0.98174 -0.24283,-0.62316 -0.63202,-1.1483 -0.38095,-0.5215 -0.97265,-1.02239 l 1.48374,-0.57816 q 0.46172,0.48319 0.80576,1.03272 0.34402,0.54958 0.60305,1.21427 0.63136,1.62024 0.22697,2.52979 -0.40206,0.91549 -2.09946,1.57692 z m 1.26862,-11.58436 -3.27274,1.33653 -0.6165,-1.50958 3.27275,-1.33654 z m -5.41202,-8.54958 -5.62862,2.40574 0.20026,0.46856 q 0.43559,1.01914 1.25926,1.17968 0.82951,0.15812 2.36994,-0.50033 1.52869,-0.65338 1.98186,-1.35967 0.453,-0.7064 0.0176,-1.72541 z m 0.81949,-2.39371 0.79106,1.85081 q 0.91625,2.14369 0.29429,3.52477 -0.61609,1.37856 -2.93547,2.3699 -2.32526,0.99384 -3.75914,0.49144 -1.42801,-0.50491 -2.34425,-2.64857 l -0.79107,-1.85084 z"
       style="font-weight:bold;font-size:3.24105px;line-height:1;font-family:monospace;-inkscape-font-specification:'monospace Bold';text-align:center;letter-spacing:0px;text-anchor:middle;white-space:pre;display:inline;fill:#ffffff;stroke-width:4.02492;stroke-linecap:round" />
  </g>
</svg>
